<?xml version="1.0" encoding="iso-8859-1"?>
<!-- Generator: Adobe Illustrator 19.0.0, SVG Export Plug-In . SVG Version: 6.00 Build 0)  -->
<svg version="1.1" id="Layer_1" xmlns="http://www.w3.org/2000/svg" xmlns:xlink="http://www.w3.org/1999/xlink" x="0px" y="0px"
	 viewBox="0 0 472.8 472.8" style="enable-background:new 0 0 472.8 472.8;" xml:space="preserve">
<path style="fill:#CCC7B4;" d="M367.6,111.2c0,8,7.2,15.2,15.2,15.2h2.4c8,0,15.2-6.4,15.2-15.2V93.6c0-8-7.2-15.2-15.2-15.2h-2.4
	c-8,0-15.2,7.2-15.2,15.2V111.2z"/>
<path style="fill:#7F7B6E;" d="M382.8,78.4c-8,0-15.2,7.2-15.2,15.2v17.6c0,8,7.2,15.2,15.2,15.2h2.4c8,0,15.2-6.4,15.2-15.2"/>
<path style="fill:#999588;" d="M323.6,102.4c0,3.2,2.4,5.6,5.6,5.6h41.6c3.2,0,5.6-2.4,5.6-5.6l0,0c0-3.2-2.4-5.6-5.6-5.6h-41.6
	C326,97.6,323.6,100,323.6,102.4L323.6,102.4z"/>
<path style="fill:#7F7B6E;" d="M323.6,102.4L323.6,102.4c0,3.2,2.4,5.6,5.6,5.6h41.6c3.2,0,5.6-2.4,5.6-5.6l0,0"/>
<path style="fill:#CCC7B4;" d="M365.2,201.6c0,8,6.4,15.2,15.2,15.2h2.4c8,0,15.2-7.2,15.2-15.2V184c0-8-7.2-15.2-15.2-15.2h-2.4
	c-8,0-15.2,6.4-15.2,15.2V201.6z"/>
<path style="fill:#7F7B6E;" d="M380.4,168.8c-8,0-15.2,6.4-15.2,15.2v17.6c0,8,6.4,15.2,15.2,15.2h2.4c8,0,15.2-7.2,15.2-15.2"/>
<path style="fill:#999588;" d="M321.2,192.8c0,3.2,2.4,5.6,5.6,5.6h41.6c3.2,0,5.6-2.4,5.6-5.6l0,0c0-3.2-2.4-5.6-5.6-5.6h-41.6
	C323.6,187.2,321.2,189.6,321.2,192.8L321.2,192.8z"/>
<path style="fill:#7F7B6E;" d="M321.2,192.8L321.2,192.8c0,3.2,2.4,5.6,5.6,5.6h41.6c3.2,0,5.6-2.4,5.6-5.6l0,0"/>
<path style="fill:#CCC7B4;" d="M362.8,291.2c0,8,7.2,15.2,15.2,15.2h2.4c8,0,15.2-7.2,15.2-15.2v-17.6c0-8-6.4-15.2-15.2-15.2H378
	c-8,0-15.2,7.2-15.2,15.2V291.2z"/>
<path style="fill:#7F7B6E;" d="M378,258.4c-8,0-15.2,7.2-15.2,15.2v17.6c0,8,7.2,15.2,15.2,15.2h2.4c8,0,15.2-7.2,15.2-15.2"/>
<path style="fill:#999588;" d="M318.8,282.4c0,3.2,2.4,5.6,5.6,5.6H366c3.2,0,5.6-2.4,5.6-5.6l0,0c0-3.2-2.4-5.6-5.6-5.6h-41.6
	C321.2,276.8,318.8,279.2,318.8,282.4L318.8,282.4z"/>
<path style="fill:#7F7B6E;" d="M318.8,282.4L318.8,282.4c0,3.2,2.4,5.6,5.6,5.6H366c3.2,0,5.6-2.4,5.6-5.6l0,0"/>
<path style="fill:#CCC7B4;" d="M105.2,111.2c0,8-7.2,15.2-15.2,15.2h-2.4c-8,0-15.2-6.4-15.2-15.2V93.6c0-8,6.4-15.2,15.2-15.2H90
	c8,0,15.2,7.2,15.2,15.2V111.2z"/>
<path style="fill:#7F7B6E;" d="M90,78.4c8,0,15.2,7.2,15.2,15.2v17.6c0,8-7.2,15.2-15.2,15.2h-2.4c-8,0-15.2-6.4-15.2-15.2"/>
<path style="fill:#999588;" d="M149.2,102.4c0,3.2-2.4,5.6-5.6,5.6H102c-3.2,0-5.6-2.4-5.6-5.6l0,0c0-3.2,2.4-5.6,5.6-5.6h41.6
	C146.8,97.6,149.2,100,149.2,102.4L149.2,102.4z"/>
<path style="fill:#7F7B6E;" d="M149.2,102.4L149.2,102.4c0,3.2-2.4,5.6-5.6,5.6H102c-3.2,0-5.6-2.4-5.6-5.6l0,0"/>
<path style="fill:#CCC7B4;" d="M107.6,201.6c0,8-7.2,15.2-15.2,15.2H90c-8,0-15.2-7.2-15.2-15.2V184c0-8,7.2-15.2,15.2-15.2h2.4
	c8,0,15.2,6.4,15.2,15.2V201.6z"/>
<path style="fill:#7F7B6E;" d="M92.4,168.8c8,0,15.2,6.4,15.2,15.2v17.6c0,8-7.2,15.2-15.2,15.2H90c-8,0-15.2-7.2-15.2-15.2"/>
<path style="fill:#999588;" d="M151.6,192.8c0,3.2-2.4,5.6-5.6,5.6h-41.6c-3.2,0-5.6-2.4-5.6-5.6l0,0c0-3.2,2.4-5.6,5.6-5.6H146
	C149.2,187.2,151.6,189.6,151.6,192.8L151.6,192.8z"/>
<path style="fill:#7F7B6E;" d="M151.6,192.8L151.6,192.8c0,3.2-2.4,5.6-5.6,5.6h-41.6c-3.2,0-5.6-2.4-5.6-5.6l0,0"/>
<path style="fill:#CCC7B4;" d="M110,291.2c0,8-7.2,15.2-15.2,15.2h-2.4c-8,0-15.2-7.2-15.2-15.2v-17.6c0-8,7.2-15.2,15.2-15.2h2.4
	c8,0,15.2,7.2,15.2,15.2V291.2z"/>
<path style="fill:#7F7B6E;" d="M94.8,258.4c8,0,15.2,7.2,15.2,15.2v17.6c0,8-7.2,15.2-15.2,15.2h-2.4c-8,0-15.2-7.2-15.2-15.2"/>
<path style="fill:#999588;" d="M154,282.4c0,3.2-2.4,5.6-5.6,5.6h-41.6c-3.2,0-5.6-2.4-5.6-5.6l0,0c0-3.2,2.4-5.6,5.6-5.6h41.6
	C151.6,276.8,154,279.2,154,282.4L154,282.4z"/>
<path style="fill:#7F7B6E;" d="M154,282.4L154,282.4c0,3.2-2.4,5.6-5.6,5.6h-41.6c-3.2,0-5.6-2.4-5.6-5.6l0,0"/>
<path style="fill:#724925;" d="M330,341.6c0,8-7.2,15.2-15.2,15.2H154c-8,0-15.2-6.4-15.2-15.2l-8-296c0-8-0.8-15.2,8-15.2H330
	c8,0,8,6.4,8,15.2L330,341.6z"/>
<path style="fill:#C18B4C;" d="M330,311.2c0,8-7.2,15.2-15.2,15.2H154c-8,0-15.2-7.2-15.2-15.2l-15.2-296c0-8,6.4-15.2,15.2-15.2
	H330c8,0,15.2,6.4,15.2,15.2L330,311.2z"/>
<path style="fill:#916131;" d="M330,323.2c0,8-7.2,15.2-15.2,15.2H154c-8,0-15.2-7.2-15.2-15.2l-15.2-296c0-8,6.4-15.2,15.2-15.2
	H330c8,0,15.2,6.4,15.2,15.2L330,323.2z"/>
<path style="fill:#845429;" d="M123.6,27.2c0-8,6.4-15.2,15.2-15.2H330c8,0,15.2,6.4,15.2,15.2l-15.2,296c0,8-7.2,15.2-15.2,15.2"/>
<rect x="158" y="347.2" style="fill:#3A494C;" width="152.8" height="125.6"/>
<rect x="166.8" y="347.2" style="fill:#283538;" width="135.2" height="125.6"/>
<path style="fill:#546466;" d="M298.8,434.4c0,3.2-2.4,6.4-6.4,6.4H175.6c-3.2,0-6.4-2.4-6.4-6.4l0,0c0-3.2,2.4-6.4,6.4-6.4h116.8
	C296.4,428,298.8,431.2,298.8,434.4L298.8,434.4z"/>
<path style="opacity:0.3;fill:#848484;enable-background:new    ;" d="M187.6,93.6c0,8.8-7.2,16-16,16s-16-7.2-16-16s7.2-16,16-16
	S187.6,84.8,187.6,93.6z"/>
<circle style="fill:#CCC7B4;" cx="171.6" cy="87.2" r="16"/>
<path style="fill:#B2AB96;" d="M182.8,76c6.4,6.4,6.4,16,0,22.4c-6.4,6.4-16,6.4-22.4,0"/>
<circle style="opacity:0.3;fill:#848484;enable-background:new    ;" cx="174" cy="184" r="16"/>
<circle style="fill:#CCC7B4;" cx="174" cy="177.6" r="16"/>
<path style="fill:#B2AB96;" d="M185.2,166.4c6.4,6.4,6.4,16,0,22.4s-16,6.4-22.4,0"/>
<circle style="opacity:0.3;fill:#848484;enable-background:new    ;" cx="176.4" cy="273.6" r="16"/>
<path style="fill:#CCC7B4;" d="M192.4,267.2c0,8.8-7.2,16-16,16s-16-7.2-16-16s7.2-16,16-16S192.4,258.4,192.4,267.2z"/>
<path style="fill:#B2AB96;" d="M187.6,256c6.4,6.4,6.4,16,0,22.4s-16,6.4-22.4,0"/>
<path style="opacity:0.3;fill:#848484;enable-background:new    ;" d="M281.2,93.6c0,8.8,7.2,16,16,16s16-7.2,16-16s-7.2-16-16-16
	C288.4,78.4,281.2,84.8,281.2,93.6z"/>
<path style="fill:#CCC7B4;" d="M281.2,87.2c0,8.8,7.2,16,16,16s16-7.2,16-16s-7.2-16-16-16C288.4,72,281.2,78.4,281.2,87.2z"/>
<path style="fill:#B2AB96;" d="M286,76c-6.4,6.4-6.4,16,0,22.4c6.4,6.4,16,6.4,22.4,0"/>
<path style="opacity:0.3;fill:#848484;enable-background:new    ;" d="M278.8,184c0,8.8,7.2,16,16,16s16-7.2,16-16s-7.2-16-16-16
	S278.8,175.2,278.8,184z"/>
<path style="fill:#CCC7B4;" d="M278.8,177.6c0,8.8,7.2,16,16,16s16-7.2,16-16s-7.2-16-16-16S278.8,168.8,278.8,177.6z"/>
<path style="fill:#B2AB96;" d="M283.6,166.4c-6.4,6.4-6.4,16,0,22.4s16,6.4,22.4,0"/>
<circle style="opacity:0.3;fill:#848484;enable-background:new    ;" cx="292.4" cy="273.6" r="16"/>
<path style="fill:#CCC7B4;" d="M276.4,267.2c0,8.8,7.2,16,16,16s16-7.2,16-16s-7.2-16-16-16S276.4,258.4,276.4,267.2z"/>
<path style="fill:#B2AB96;" d="M281.2,256c-6.4,6.4-6.4,16,0,22.4s16,6.4,22.4,0"/>
<g>
	<path style="fill:#CCC7B4;" d="M189.2,468c0,2.4-1.6,4-4,4l0,0c-2.4,0-4-1.6-4-4V348c0-2.4,1.6-4,4-4l0,0c2.4,0,4,1.6,4,4V468z"/>
	<path style="fill:#CCC7B4;" d="M222,468c0,2.4-1.6,4-4,4l0,0c-2.4,0-4-1.6-4-4V348c0-2.4,1.6-4,4-4l0,0c2.4,0,4,1.6,4,4V468z"/>
	<path style="fill:#CCC7B4;" d="M254.8,468c0,2.4-1.6,4-4,4l0,0c-2.4,0-4-1.6-4-4V348c0-2.4,1.6-4,4-4l0,0c2.4,0,4,1.6,4,4V468z"/>
	<path style="fill:#CCC7B4;" d="M287.6,468c0,2.4-1.6,4-4,4l0,0c-2.4,0-4-1.6-4-4V348c0-2.4,1.6-4,4-4l0,0c2.4,0,4,1.6,4,4V468z"/>
</g>
<circle style="fill:#546466;" cx="234" cy="387.2" r="5.6"/>
<path style="fill:#BAD0D3;" d="M319.6,348c0,4-3.2,6.4-6.4,6.4H159.6c-4,0-6.4-3.2-6.4-6.4l0,0c0-4,3.2-6.4,6.4-6.4h152.8
	C316.4,340.8,319.6,344,319.6,348L319.6,348z"/>
<path style="fill:#9DB8BA;" d="M319.6,348L319.6,348c0,4-3.2,6.4-6.4,6.4H159.6c-4,0-6.4-3.2-6.4-6.4l0,0"/>
<g>
</g>
<g>
</g>
<g>
</g>
<g>
</g>
<g>
</g>
<g>
</g>
<g>
</g>
<g>
</g>
<g>
</g>
<g>
</g>
<g>
</g>
<g>
</g>
<g>
</g>
<g>
</g>
<g>
</g>
</svg>
