<?xml version="1.0" encoding="utf-8"?>
<svg x="0pt" y="0pt" width="1000pt" height="1000pt" viewBox="0 0 1000 1000" xmlns="http://www.w3.org/2000/svg" xmlns:xlink="http://www.w3.org/1999/xlink">
  <g id="1">
    <title>Layer 1</title>
    <g id="2">
      <title>Group</title>
      <linearGradient x1="942.523" y1="945.235" x2="24.5035" y2="192.181" gradientUnits="userSpaceOnUse" id="5">
        <stop style="stop-color:#aa7942;stop-opacity:1;"/>
        <stop offset="1" style="stop-color:#dbcfbc;stop-opacity:1;"/>
      </linearGradient>
      <defs>
        <title>Smart Rectangle</title>
        <g id="3">
          <defs>
            <path id="4" d="M954.146,843.824 C954.146,905.127,904.449,954.824,843.146,954.824 C843.146,954.824,159.966,954.824,159.966,954.824 C98.6627,954.824,48.9664,905.127,48.9663,843.824 C48.9663,843.824,48.9664,211.256,48.9664,211.256 C48.9664,149.952,98.6628,100.256,159.966,100.256 C159.966,100.256,843.146,100.256,843.146,100.256 C904.449,100.256,954.146,149.952,954.146,211.256 C954.146,211.256,954.146,843.824,954.146,843.824 z"/>
          </defs>
          <use xlink:href="#4" style="fill:url(#5);fill-opacity:1;fill-rule:nonzero;opacity:1;stroke:none;"/>
        </g>
      </defs>
      <use xlink:href="#3"/>
      <defs>
        <title>Shape 34</title>
        <g id="6">
          <defs>
            <path id="7" d="M844.193,385.106 C614.741,385.106,385.29,385.106,155.838,385.106 C130.013,385.106,109.566,363.416,110.916,337.629 C113.068,296.59,115.952,255.582,119.568,214.643 C121.506,192.769,138.992,175.489,160.881,173.78 C273.857,164.983,387.489,160.535,499.893,160.535 C600.937,160.535,703.384,164.129,804.405,171.209 C815.887,172.017,827.438,172.872,839.02,173.772 C860.992,175.489,878.487,192.807,880.432,214.757 C881.439,226.171,882.393,237.569,883.286,248.929 C885.613,278.447,887.558,308.019,889.122,337.629 C890.48,363.424,870.018,385.106,844.193,385.106 z M844.193,385.106"/>
          </defs>
          <use xlink:href="#7" style="fill:#3f413d;fill-opacity:1;fill-rule:evenodd;opacity:1;stroke:none;"/>
        </g>
      </defs>
      <use xlink:href="#6"/>
      <defs>
        <title>Shape 35</title>
        <g id="8">
          <defs>
            <path id="9" d="M884.407,774.556 C870.023,791.831,868.969,815.927,852.412,831.118 C834.226,847.803,800.326,855.356,779.816,869.23 C686.432,875.249,592.796,878.293,500,878.293 C407.181,878.293,313.553,875.249,220.146,869.23 C202.391,857.22,174.386,856.638,158.357,842.499 C139.012,825.434,132.061,794.349,115.555,774.518 C108.002,672.376,105.003,569.883,106.529,467.458 C106.895,442.823,126.877,423.009,151.527,423.009 C383.848,423.009,616.168,423.009,848.488,423.009 C873.123,423.009,893.105,442.823,893.471,467.458 C894.997,569.783,891.983,672.353,884.407,774.556 z M884.407,774.556"/>
          </defs>
          <use xlink:href="#9" style="fill:#3f413d;fill-opacity:1;fill-rule:evenodd;opacity:1;stroke:none;"/>
        </g>
      </defs>
      <use xlink:href="#8"/>
      <radialGradient cx="904.155" cy="128.717" r="99.6451" fx="904.155" fy="128.717" gradientUnits="userSpaceOnUse" gradientTransform="matrix(1,0,0,1,0,0)" id="12">
        <stop style="stop-color:#dbcfbc;stop-opacity:1;"/>
        <stop offset="1" style="stop-color:#3f413d;stop-opacity:1;"/>
      </radialGradient>
      <defs>
        <title>Shape 36</title>
        <g id="10">
          <defs>
            <path id="11" d="M975.33,167.663 C975.33,176.77,965.944,184.305,954.188,184.305 C936.746,184.305,919.305,184.305,901.863,184.305 C863.823,184.305,832.98,160.016,832.98,130.058 C832.98,116.631,832.98,103.204,832.98,89.7767 C832.98,80.1333,843.368,72.4932,855.588,73.1701 C860.558,73.4424,866.836,73.8275,873.835,74.2827 C874.561,74.3371,875.302,74.376,876.043,74.4305 C882.45,74.8584,889.415,75.3369,896.523,75.8231 C935.966,78.5617,967.387,102.972,971.388,133.991 C973.003,146.49,974.47,158.456,975.261,166.345 C975.3,166.792,975.33,167.228,975.33,167.663 z M975.33,167.663"/>
          </defs>
          <use xlink:href="#11" style="fill:url(#12);fill-opacity:1;fill-rule:evenodd;opacity:1;stroke:none;"/>
        </g>
      </defs>
      <use xlink:href="#10"/>
      <radialGradient cx="105.318" cy="128.486" r="105.928" fx="105.318" fy="128.486" gradientUnits="userSpaceOnUse" gradientTransform="matrix(1,0,0,1,0,0)" id="15">
        <stop style="stop-color:#dbcfbc;stop-opacity:1;"/>
        <stop offset="1" style="stop-color:#3f413d;stop-opacity:1;"/>
      </radialGradient>
      <defs>
        <title>Shape 38</title>
        <g id="13">
          <defs>
            <path id="14" d="M180.981,89.0069 C180.981,102.62,180.981,116.233,180.981,129.845 C180.981,160.217,148.197,184.842,107.752,184.842 C89.2113,184.842,70.6709,184.842,52.1304,184.842 C39.6272,184.842,29.655,177.203,29.655,167.971 C29.655,167.529,29.6813,167.087,29.7233,166.634 C30.5687,158.636,32.1284,146.504,33.8403,133.833 C38.0938,102.384,71.4971,77.6368,113.428,74.8604 C121.857,74.3043,130.091,73.764,137.547,73.2986 C145.004,72.8372,151.663,72.4467,156.946,72.1706 C160.937,71.9616,164.728,72.5414,168.083,73.7324 C175.672,76.4221,180.981,82.2235,180.981,89.0069 z M180.981,89.0069"/>
          </defs>
          <use xlink:href="#14" style="fill:url(#15);fill-opacity:1;fill-rule:evenodd;opacity:1;stroke:none;"/>
        </g>
      </defs>
      <use xlink:href="#13"/>
      <g id="16">
        <title>Group</title>
        <defs>
          <title>Shape 40</title>
          <g id="17">
            <defs>
              <path id="18" d="M223.839,499.791 C223.839,517.972,209.106,532.705,190.926,532.705 C172.752,532.705,158.012,517.972,158.012,499.791 C158.012,481.618,172.752,466.878,190.926,466.878 C209.106,466.878,223.839,481.618,223.839,499.791 z M223.839,499.791"/>
            </defs>
            <use xlink:href="#18" style="fill:#141a1c;fill-opacity:1;fill-rule:evenodd;opacity:1;stroke:none;"/>
          </g>
        </defs>
        <use xlink:href="#17"/>
        <defs>
          <title>Shape 41</title>
          <g id="19">
            <defs>
              <path id="20" d="M347.473,499.791 C347.473,517.972,332.733,532.705,314.56,532.705 C296.379,532.705,281.647,517.972,281.647,499.791 C281.647,481.618,296.379,466.878,314.56,466.878 C332.733,466.878,347.473,481.618,347.473,499.791 z M347.473,499.791"/>
            </defs>
            <use xlink:href="#20" style="fill:#141a1c;fill-opacity:1;fill-rule:evenodd;opacity:1;stroke:none;"/>
          </g>
        </defs>
        <use xlink:href="#19"/>
        <defs>
          <title>Shape 42</title>
          <g id="21">
            <defs>
              <path id="22" d="M471.1,499.791 C471.1,517.972,456.367,532.705,438.187,532.705 C420.013,532.705,405.273,517.972,405.273,499.791 C405.273,481.618,420.013,466.878,438.187,466.878 C456.367,466.878,471.1,481.618,471.1,499.791 z M471.1,499.791"/>
            </defs>
            <use xlink:href="#22" style="fill:#141a1c;fill-opacity:1;fill-rule:evenodd;opacity:1;stroke:none;"/>
          </g>
        </defs>
        <use xlink:href="#21"/>
        <defs>
          <title>Shape 43</title>
          <g id="23">
            <defs>
              <path id="24" d="M594.734,499.791 C594.734,517.972,579.994,532.705,561.821,532.705 C543.64,532.705,528.908,517.972,528.908,499.791 C528.908,481.618,543.64,466.878,561.821,466.878 C579.994,466.878,594.734,481.618,594.734,499.791 z M594.734,499.791"/>
            </defs>
            <use xlink:href="#24" style="fill:#141a1c;fill-opacity:1;fill-rule:evenodd;opacity:1;stroke:none;"/>
          </g>
        </defs>
        <use xlink:href="#23"/>
        <defs>
          <title>Shape 44</title>
          <g id="25">
            <defs>
              <path id="26" d="M718.361,499.791 C718.361,517.972,703.629,532.705,685.448,532.705 C667.274,532.705,652.534,517.972,652.534,499.791 C652.534,481.618,667.274,466.878,685.448,466.878 C703.629,466.878,718.361,481.618,718.361,499.791 z M718.361,499.791"/>
            </defs>
            <use xlink:href="#26" style="fill:#141a1c;fill-opacity:1;fill-rule:evenodd;opacity:1;stroke:none;"/>
          </g>
        </defs>
        <use xlink:href="#25"/>
        <defs>
          <title>Shape 45</title>
          <g id="27">
            <defs>
              <path id="28" d="M841.995,496.099 C841.995,514.28,827.255,529.012,809.082,529.012 C790.901,529.012,776.169,514.28,776.169,496.099 C776.169,477.926,790.901,463.186,809.082,463.186 C827.255,463.186,841.995,477.926,841.995,496.099 z M841.995,496.099"/>
            </defs>
            <use xlink:href="#28" style="fill:#141a1c;fill-opacity:1;fill-rule:evenodd;opacity:1;stroke:none;"/>
          </g>
        </defs>
        <use xlink:href="#27"/>
        <defs>
          <title>Shape 46</title>
          <g id="29">
            <defs>
              <path id="30" d="M223.839,652.73 C223.839,670.911,209.106,685.643,190.926,685.643 C172.752,685.643,158.012,670.911,158.012,652.73 C158.012,634.557,172.752,619.825,190.926,619.825 C209.106,619.825,223.839,634.557,223.839,652.73 z M223.839,652.73"/>
            </defs>
            <use xlink:href="#30" style="fill:#141a1c;fill-opacity:1;fill-rule:evenodd;opacity:1;stroke:none;"/>
          </g>
        </defs>
        <use xlink:href="#29"/>
        <defs>
          <title>Shape 47</title>
          <g id="31">
            <defs>
              <path id="32" d="M347.473,652.73 C347.473,670.911,332.733,685.643,314.56,685.643 C296.379,685.643,281.647,670.911,281.647,652.73 C281.647,634.557,296.379,619.825,314.56,619.825 C332.733,619.825,347.473,634.557,347.473,652.73 z M347.473,652.73"/>
            </defs>
            <use xlink:href="#32" style="fill:#141a1c;fill-opacity:1;fill-rule:evenodd;opacity:1;stroke:none;"/>
          </g>
        </defs>
        <use xlink:href="#31"/>
        <defs>
          <title>Shape 48</title>
          <g id="33">
            <defs>
              <path id="34" d="M471.1,652.73 C471.1,670.911,456.367,685.643,438.187,685.643 C420.013,685.643,405.273,670.911,405.273,652.73 C405.273,634.557,420.013,619.825,438.187,619.825 C456.367,619.825,471.1,634.557,471.1,652.73 z M471.1,652.73"/>
            </defs>
            <use xlink:href="#34" style="fill:#141a1c;fill-opacity:1;fill-rule:evenodd;opacity:1;stroke:none;"/>
          </g>
        </defs>
        <use xlink:href="#33"/>
        <defs>
          <title>Shape 49</title>
          <g id="35">
            <defs>
              <path id="36" d="M594.734,652.73 C594.734,670.911,579.994,685.643,561.821,685.643 C543.64,685.643,528.908,670.911,528.908,652.73 C528.908,634.557,543.64,619.825,561.821,619.825 C579.994,619.825,594.734,634.557,594.734,652.73 z M594.734,652.73"/>
            </defs>
            <use xlink:href="#36" style="fill:#141a1c;fill-opacity:1;fill-rule:evenodd;opacity:1;stroke:none;"/>
          </g>
        </defs>
        <use xlink:href="#35"/>
        <defs>
          <title>Shape 50</title>
          <g id="37">
            <defs>
              <path id="38" d="M718.361,652.73 C718.361,670.911,703.629,685.643,685.448,685.643 C667.274,685.643,652.534,670.911,652.534,652.73 C652.534,634.557,667.274,619.825,685.448,619.825 C703.629,619.825,718.361,634.557,718.361,652.73 z M718.361,652.73"/>
            </defs>
            <use xlink:href="#38" style="fill:#141a1c;fill-opacity:1;fill-rule:evenodd;opacity:1;stroke:none;"/>
          </g>
        </defs>
        <use xlink:href="#37"/>
        <defs>
          <title>Shape 51</title>
          <g id="39">
            <defs>
              <path id="40" d="M841.995,649.045 C841.995,667.218,827.255,681.951,809.082,681.951 C790.901,681.951,776.169,667.218,776.169,649.045 C776.169,630.864,790.901,616.132,809.082,616.132 C827.255,616.132,841.995,630.864,841.995,649.045 z M841.995,649.045"/>
            </defs>
            <use xlink:href="#40" style="fill:#141a1c;fill-opacity:1;fill-rule:evenodd;opacity:1;stroke:none;"/>
          </g>
        </defs>
        <use xlink:href="#39"/>
        <defs>
          <title>Shape 52</title>
          <g id="41">
            <defs>
              <path id="42" d="M223.839,805.677 C223.839,823.85,209.106,838.59,190.926,838.59 C172.752,838.59,158.012,823.85,158.012,805.677 C158.012,787.496,172.752,772.763,190.926,772.763 C209.106,772.763,223.839,787.496,223.839,805.677 z M223.839,805.677"/>
            </defs>
            <use xlink:href="#42" style="fill:#141a1c;fill-opacity:1;fill-rule:evenodd;opacity:1;stroke:none;"/>
          </g>
        </defs>
        <use xlink:href="#41"/>
        <defs>
          <title>Shape 53</title>
          <g id="43">
            <defs>
              <path id="44" d="M347.473,805.677 C347.473,823.85,332.733,838.59,314.56,838.59 C296.379,838.59,281.647,823.85,281.647,805.677 C281.647,787.496,296.379,772.763,314.56,772.763 C332.733,772.763,347.473,787.496,347.473,805.677 z M347.473,805.677"/>
            </defs>
            <use xlink:href="#44" style="fill:#141a1c;fill-opacity:1;fill-rule:evenodd;opacity:1;stroke:none;"/>
          </g>
        </defs>
        <use xlink:href="#43"/>
        <defs>
          <title>Shape 54</title>
          <g id="45">
            <defs>
              <path id="46" d="M471.1,805.677 C471.1,823.85,456.367,838.59,438.187,838.59 C420.013,838.59,405.273,823.85,405.273,805.677 C405.273,787.496,420.013,772.763,438.187,772.763 C456.367,772.763,471.1,787.496,471.1,805.677 z M471.1,805.677"/>
            </defs>
            <use xlink:href="#46" style="fill:#141a1c;fill-opacity:1;fill-rule:evenodd;opacity:1;stroke:none;"/>
          </g>
        </defs>
        <use xlink:href="#45"/>
        <defs>
          <title>Shape 55</title>
          <g id="47">
            <defs>
              <path id="48" d="M594.734,805.677 C594.734,823.85,579.994,838.59,561.821,838.59 C543.64,838.59,528.908,823.85,528.908,805.677 C528.908,787.496,543.64,772.763,561.821,772.763 C579.994,772.763,594.734,787.496,594.734,805.677 z M594.734,805.677"/>
            </defs>
            <use xlink:href="#48" style="fill:#141a1c;fill-opacity:1;fill-rule:evenodd;opacity:1;stroke:none;"/>
          </g>
        </defs>
        <use xlink:href="#47"/>
        <defs>
          <title>Shape 56</title>
          <g id="49">
            <defs>
              <path id="50" d="M718.361,805.677 C718.361,823.85,703.629,838.59,685.448,838.59 C667.274,838.59,652.534,823.85,652.534,805.677 C652.534,787.496,667.274,772.763,685.448,772.763 C703.629,772.763,718.361,787.496,718.361,805.677 z M718.361,805.677"/>
            </defs>
            <use xlink:href="#50" style="fill:#141a1c;fill-opacity:1;fill-rule:evenodd;opacity:1;stroke:none;"/>
          </g>
        </defs>
        <use xlink:href="#49"/>
        <defs>
          <title>Shape 57</title>
          <g id="51">
            <defs>
              <path id="52" d="M841.995,801.984 C841.995,820.157,827.255,834.89,809.082,834.89 C790.901,834.89,776.169,820.157,776.169,801.984 C776.169,783.803,790.901,769.071,809.082,769.071 C827.255,769.071,841.995,783.803,841.995,801.984 z M841.995,801.984"/>
            </defs>
            <use xlink:href="#52" style="fill:#141a1c;fill-opacity:1;fill-rule:evenodd;opacity:1;stroke:none;"/>
          </g>
        </defs>
        <use xlink:href="#51"/>
        <defs>
          <title>Shape 58</title>
          <g id="53">
            <defs>
              <path id="54" d="M285.652,729.2 C285.652,747.38,270.92,762.113,252.747,762.113 C234.566,762.113,219.833,747.38,219.833,729.2 C219.833,711.026,234.566,696.294,252.747,696.294 C270.92,696.294,285.652,711.026,285.652,729.2 z M285.652,729.2"/>
            </defs>
            <use xlink:href="#54" style="fill:#141a1c;fill-opacity:1;fill-rule:evenodd;opacity:1;stroke:none;"/>
          </g>
        </defs>
        <use xlink:href="#53"/>
        <defs>
          <title>Shape 59</title>
          <g id="55">
            <defs>
              <path id="56" d="M409.286,729.2 C409.286,747.38,394.554,762.113,376.373,762.113 C358.2,762.113,343.46,747.38,343.46,729.2 C343.46,711.026,358.2,696.294,376.373,696.294 C394.554,696.294,409.286,711.026,409.286,729.2 z M409.286,729.2"/>
            </defs>
            <use xlink:href="#56" style="fill:#141a1c;fill-opacity:1;fill-rule:evenodd;opacity:1;stroke:none;"/>
          </g>
        </defs>
        <use xlink:href="#55"/>
        <defs>
          <title>Shape 60</title>
          <g id="57">
            <defs>
              <path id="58" d="M532.913,729.2 C532.913,747.38,518.181,762.113,500.008,762.113 C481.827,762.113,467.094,747.38,467.094,729.2 C467.094,711.026,481.827,696.294,500.008,696.294 C518.181,696.294,532.913,711.026,532.913,729.2 z M532.913,729.2"/>
            </defs>
            <use xlink:href="#58" style="fill:#141a1c;fill-opacity:1;fill-rule:evenodd;opacity:1;stroke:none;"/>
          </g>
        </defs>
        <use xlink:href="#57"/>
        <defs>
          <title>Shape 61</title>
          <g id="59">
            <defs>
              <path id="60" d="M656.548,729.2 C656.548,747.38,641.815,762.113,623.634,762.113 C605.461,762.113,590.721,747.38,590.721,729.2 C590.721,711.026,605.461,696.294,623.634,696.294 C641.815,696.294,656.548,711.026,656.548,729.2 z M656.548,729.2"/>
            </defs>
            <use xlink:href="#60" style="fill:#141a1c;fill-opacity:1;fill-rule:evenodd;opacity:1;stroke:none;"/>
          </g>
        </defs>
        <use xlink:href="#59"/>
        <defs>
          <title>Shape 62</title>
          <g id="61">
            <defs>
              <path id="62" d="M780.174,725.515 C780.174,743.688,765.442,758.42,747.269,758.42 C729.088,758.42,714.355,743.688,714.355,725.515 C714.355,707.334,729.088,692.601,747.269,692.601 C765.442,692.601,780.174,707.334,780.174,725.515 z M780.174,725.515"/>
            </defs>
            <use xlink:href="#62" style="fill:#141a1c;fill-opacity:1;fill-rule:evenodd;opacity:1;stroke:none;"/>
          </g>
        </defs>
        <use xlink:href="#61"/>
        <defs>
          <title>Shape 63</title>
          <g id="63">
            <defs>
              <path id="64" d="M285.652,576.261 C285.652,594.442,270.92,609.174,252.747,609.174 C234.566,609.174,219.833,594.442,219.833,576.261 C219.833,558.088,234.566,543.355,252.747,543.355 C270.92,543.355,285.652,558.088,285.652,576.261 z M285.652,576.261"/>
            </defs>
            <use xlink:href="#64" style="fill:#141a1c;fill-opacity:1;fill-rule:evenodd;opacity:1;stroke:none;"/>
          </g>
        </defs>
        <use xlink:href="#63"/>
        <defs>
          <title>Shape 64</title>
          <g id="65">
            <defs>
              <path id="66" d="M409.286,576.261 C409.286,594.442,394.554,609.174,376.373,609.174 C358.2,609.174,343.46,594.442,343.46,576.261 C343.46,558.088,358.2,543.355,376.373,543.355 C394.554,543.355,409.286,558.088,409.286,576.261 z M409.286,576.261"/>
            </defs>
            <use xlink:href="#66" style="fill:#141a1c;fill-opacity:1;fill-rule:evenodd;opacity:1;stroke:none;"/>
          </g>
        </defs>
        <use xlink:href="#65"/>
        <defs>
          <title>Shape 65</title>
          <g id="67">
            <defs>
              <path id="68" d="M532.913,576.261 C532.913,594.442,518.181,609.174,500.008,609.174 C481.827,609.174,467.094,594.442,467.094,576.261 C467.094,558.088,481.827,543.355,500.008,543.355 C518.181,543.355,532.913,558.088,532.913,576.261 z M532.913,576.261"/>
            </defs>
            <use xlink:href="#68" style="fill:#141a1c;fill-opacity:1;fill-rule:evenodd;opacity:1;stroke:none;"/>
          </g>
        </defs>
        <use xlink:href="#67"/>
        <defs>
          <title>Shape 66</title>
          <g id="69">
            <defs>
              <path id="70" d="M656.548,576.261 C656.548,594.442,641.815,609.174,623.634,609.174 C605.461,609.174,590.721,594.442,590.721,576.261 C590.721,558.088,605.461,543.355,623.634,543.355 C641.815,543.355,656.548,558.088,656.548,576.261 z M656.548,576.261"/>
            </defs>
            <use xlink:href="#70" style="fill:#141a1c;fill-opacity:1;fill-rule:evenodd;opacity:1;stroke:none;"/>
          </g>
        </defs>
        <use xlink:href="#69"/>
        <defs>
          <title>Shape 67</title>
          <g id="71">
            <defs>
              <path id="72" d="M780.174,572.568 C780.174,590.749,765.442,605.481,747.269,605.481 C729.088,605.481,714.355,590.749,714.355,572.568 C714.355,554.395,729.088,539.655,747.269,539.655 C765.442,539.655,780.174,554.395,780.174,572.568 z M780.174,572.568"/>
            </defs>
            <use xlink:href="#72" style="fill:#141a1c;fill-opacity:1;fill-rule:evenodd;opacity:1;stroke:none;"/>
          </g>
        </defs>
        <use xlink:href="#71"/>
        <defs>
          <title>Shape 68</title>
          <g id="73">
            <defs>
              <path id="74" d="M350.479,273.404 C350.479,317.464,314.758,353.185,270.691,353.185 C226.631,353.185,190.903,317.464,190.903,273.404 C190.903,229.337,226.631,193.616,270.691,193.616 C314.758,193.616,350.479,229.337,350.479,273.404 z M350.479,273.404"/>
            </defs>
            <use xlink:href="#74" style="fill:#141a1c;fill-opacity:1;fill-rule:evenodd;opacity:1;stroke:none;"/>
          </g>
        </defs>
        <use xlink:href="#73"/>
        <defs>
          <title>Group</title>
          <g id="75">
            <defs>
              <path id="76" d="M223.839,499.791 C223.839,517.972,209.106,532.705,190.926,532.705 C172.752,532.705,158.012,517.972,158.012,499.791 C158.012,481.618,172.752,466.878,190.926,466.878 C209.106,466.878,223.839,481.618,223.839,499.791 z M223.839,499.791 M347.473,499.791 C347.473,517.972,332.733,532.705,314.56,532.705 C296.379,532.705,281.647,517.972,281.647,499.791 C281.647,481.618,296.379,466.878,314.56,466.878 C332.733,466.878,347.473,481.618,347.473,499.791 z M347.473,499.791 M471.1,499.791 C471.1,517.972,456.367,532.705,438.187,532.705 C420.013,532.705,405.273,517.972,405.273,499.791 C405.273,481.618,420.013,466.878,438.187,466.878 C456.367,466.878,471.1,481.618,471.1,499.791 z M471.1,499.791 M594.734,499.791 C594.734,517.972,579.994,532.705,561.821,532.705 C543.64,532.705,528.908,517.972,528.908,499.791 C528.908,481.618,543.64,466.878,561.821,466.878 C579.994,466.878,594.734,481.618,594.734,499.791 z M594.734,499.791 M718.361,499.791 C718.361,517.972,703.629,532.705,685.448,532.705 C667.274,532.705,652.534,517.972,652.534,499.791 C652.534,481.618,667.274,466.878,685.448,466.878 C703.629,466.878,718.361,481.618,718.361,499.791 z M718.361,499.791 M841.995,496.099 C841.995,514.28,827.255,529.012,809.082,529.012 C790.901,529.012,776.169,514.28,776.169,496.099 C776.169,477.926,790.901,463.186,809.082,463.186 C827.255,463.186,841.995,477.926,841.995,496.099 z M841.995,496.099 M223.839,652.73 C223.839,670.911,209.106,685.643,190.926,685.643 C172.752,685.643,158.012,670.911,158.012,652.73 C158.012,634.557,172.752,619.825,190.926,619.825 C209.106,619.825,223.839,634.557,223.839,652.73 z M223.839,652.73 M347.473,652.73 C347.473,670.911,332.733,685.643,314.56,685.643 C296.379,685.643,281.647,670.911,281.647,652.73 C281.647,634.557,296.379,619.825,314.56,619.825 C332.733,619.825,347.473,634.557,347.473,652.73 z M347.473,652.73 M471.1,652.73 C471.1,670.911,456.367,685.643,438.187,685.643 C420.013,685.643,405.273,670.911,405.273,652.73 C405.273,634.557,420.013,619.825,438.187,619.825 C456.367,619.825,471.1,634.557,471.1,652.73 z M471.1,652.73 M594.734,652.73 C594.734,670.911,579.994,685.643,561.821,685.643 C543.64,685.643,528.908,670.911,528.908,652.73 C528.908,634.557,543.64,619.825,561.821,619.825 C579.994,619.825,594.734,634.557,594.734,652.73 z M594.734,652.73 M718.361,652.73 C718.361,670.911,703.629,685.643,685.448,685.643 C667.274,685.643,652.534,670.911,652.534,652.73 C652.534,634.557,667.274,619.825,685.448,619.825 C703.629,619.825,718.361,634.557,718.361,652.73 z M718.361,652.73 M841.995,649.045 C841.995,667.218,827.255,681.951,809.082,681.951 C790.901,681.951,776.169,667.218,776.169,649.045 C776.169,630.864,790.901,616.132,809.082,616.132 C827.255,616.132,841.995,630.864,841.995,649.045 z M841.995,649.045 M223.839,805.677 C223.839,823.85,209.106,838.59,190.926,838.59 C172.752,838.59,158.012,823.85,158.012,805.677 C158.012,787.496,172.752,772.763,190.926,772.763 C209.106,772.763,223.839,787.496,223.839,805.677 z M223.839,805.677 M347.473,805.677 C347.473,823.85,332.733,838.59,314.56,838.59 C296.379,838.59,281.647,823.85,281.647,805.677 C281.647,787.496,296.379,772.763,314.56,772.763 C332.733,772.763,347.473,787.496,347.473,805.677 z M347.473,805.677 M471.1,805.677 C471.1,823.85,456.367,838.59,438.187,838.59 C420.013,838.59,405.273,823.85,405.273,805.677 C405.273,787.496,420.013,772.763,438.187,772.763 C456.367,772.763,471.1,787.496,471.1,805.677 z M471.1,805.677 M594.734,805.677 C594.734,823.85,579.994,838.59,561.821,838.59 C543.64,838.59,528.908,823.85,528.908,805.677 C528.908,787.496,543.64,772.763,561.821,772.763 C579.994,772.763,594.734,787.496,594.734,805.677 z M594.734,805.677 M718.361,805.677 C718.361,823.85,703.629,838.59,685.448,838.59 C667.274,838.59,652.534,823.85,652.534,805.677 C652.534,787.496,667.274,772.763,685.448,772.763 C703.629,772.763,718.361,787.496,718.361,805.677 z M718.361,805.677 M841.995,801.984 C841.995,820.157,827.255,834.89,809.082,834.89 C790.901,834.89,776.169,820.157,776.169,801.984 C776.169,783.803,790.901,769.071,809.082,769.071 C827.255,769.071,841.995,783.803,841.995,801.984 z M841.995,801.984 M285.652,729.2 C285.652,747.38,270.92,762.113,252.747,762.113 C234.566,762.113,219.833,747.38,219.833,729.2 C219.833,711.026,234.566,696.294,252.747,696.294 C270.92,696.294,285.652,711.026,285.652,729.2 z M285.652,729.2 M409.286,729.2 C409.286,747.38,394.554,762.113,376.373,762.113 C358.2,762.113,343.46,747.38,343.46,729.2 C343.46,711.026,358.2,696.294,376.373,696.294 C394.554,696.294,409.286,711.026,409.286,729.2 z M409.286,729.2 M532.913,729.2 C532.913,747.38,518.181,762.113,500.008,762.113 C481.827,762.113,467.094,747.38,467.094,729.2 C467.094,711.026,481.827,696.294,500.008,696.294 C518.181,696.294,532.913,711.026,532.913,729.2 z M532.913,729.2 M656.548,729.2 C656.548,747.38,641.815,762.113,623.634,762.113 C605.461,762.113,590.721,747.38,590.721,729.2 C590.721,711.026,605.461,696.294,623.634,696.294 C641.815,696.294,656.548,711.026,656.548,729.2 z M656.548,729.2 M780.174,725.515 C780.174,743.688,765.442,758.42,747.269,758.42 C729.088,758.42,714.355,743.688,714.355,725.515 C714.355,707.334,729.088,692.601,747.269,692.601 C765.442,692.601,780.174,707.334,780.174,725.515 z M780.174,725.515 M285.652,576.261 C285.652,594.442,270.92,609.174,252.747,609.174 C234.566,609.174,219.833,594.442,219.833,576.261 C219.833,558.088,234.566,543.355,252.747,543.355 C270.92,543.355,285.652,558.088,285.652,576.261 z M285.652,576.261 M409.286,576.261 C409.286,594.442,394.554,609.174,376.373,609.174 C358.2,609.174,343.46,594.442,343.46,576.261 C343.46,558.088,358.2,543.355,376.373,543.355 C394.554,543.355,409.286,558.088,409.286,576.261 z M409.286,576.261 M532.913,576.261 C532.913,594.442,518.181,609.174,500.008,609.174 C481.827,609.174,467.094,594.442,467.094,576.261 C467.094,558.088,481.827,543.355,500.008,543.355 C518.181,543.355,532.913,558.088,532.913,576.261 z M532.913,576.261 M656.548,576.261 C656.548,594.442,641.815,609.174,623.634,609.174 C605.461,609.174,590.721,594.442,590.721,576.261 C590.721,558.088,605.461,543.355,623.634,543.355 C641.815,543.355,656.548,558.088,656.548,576.261 z M656.548,576.261 M780.174,572.568 C780.174,590.749,765.442,605.481,747.269,605.481 C729.088,605.481,714.355,590.749,714.355,572.568 C714.355,554.395,729.088,539.655,747.269,539.655 C765.442,539.655,780.174,554.395,780.174,572.568 z M780.174,572.568 M350.479,273.404 C350.479,317.464,314.758,353.185,270.691,353.185 C226.631,353.185,190.903,317.464,190.903,273.404 C190.903,229.337,226.631,193.616,270.691,193.616 C314.758,193.616,350.479,229.337,350.479,273.404 z M350.479,273.404"/>
            </defs>
            <use xlink:href="#76" style="fill:#31312f;fill-opacity:1;fill-rule:nonzero;opacity:1;stroke:none;"/>
          </g>
        </defs>
        <use xlink:href="#75"/>
      </g>
      <defs>
        <title>Shape 69</title>
        <g id="77">
          <defs>
            <path id="78" d="M327.103,273.397 C327.103,304.555,301.857,329.824,270.691,329.824 C239.532,329.824,214.264,304.555,214.264,273.397 C214.264,246.167,233.574,223.439,259.247,218.152 C262.939,217.397,266.777,216.985,270.691,216.985 C274.612,216.985,278.45,217.397,282.143,218.152 C307.816,223.439,327.103,246.167,327.103,273.397 z M327.103,273.397"/>
          </defs>
          <use xlink:href="#78" style="fill:#aa7942;fill-opacity:1;fill-rule:evenodd;opacity:1;stroke:none;"/>
        </g>
      </defs>
      <use xlink:href="#77"/>
      <defs>
        <title>Shape 70</title>
        <g id="79">
          <defs>
            <path id="80" d="M316.338,273.397 C316.338,298.612,295.906,319.059,270.691,319.059 C245.476,319.059,225.029,298.612,225.029,273.397 C225.029,251.371,240.654,232.976,261.429,228.696 C264.42,228.086,267.525,227.758,270.691,227.758 C273.865,227.758,276.97,228.086,279.953,228.696 C300.728,232.976,316.338,251.371,316.338,273.397 z M316.338,273.397"/>
          </defs>
          <use xlink:href="#80" style="fill:#f9ebd6;fill-opacity:1;fill-rule:evenodd;opacity:1;stroke:none;"/>
        </g>
      </defs>
      <use xlink:href="#79"/>
      <defs>
        <title>Shape 71</title>
        <g id="81">
          <defs>
            <path id="82" d="M282.143,218.152 C282.143,232.839,282.143,247.525,282.143,262.212 C282.143,266.927,278.328,270.742,273.613,270.742 C271.667,270.742,269.722,270.742,267.776,270.742 C263.062,270.742,259.247,266.927,259.247,262.212 C259.247,247.525,259.247,232.839,259.247,218.152 C262.939,217.397,266.777,216.985,270.699,216.985 C274.612,216.985,278.45,217.397,282.143,218.152 z M282.143,218.152"/>
          </defs>
          <use xlink:href="#82" style="fill:#2f363b;fill-opacity:1;fill-rule:evenodd;opacity:1;stroke:none;"/>
        </g>
      </defs>
      <use xlink:href="#81"/>
      <defs>
        <title>Shape 72</title>
        <g id="83">
          <defs>
            <path id="84" d="M541.656,273.404 C541.656,317.464,505.936,353.185,461.876,353.185 C417.809,353.185,382.088,317.464,382.088,273.404 C382.088,229.337,417.809,193.616,461.876,193.616 C505.936,193.616,541.656,229.337,541.656,273.404 z M541.656,273.404"/>
          </defs>
          <use xlink:href="#84" style="fill:#141a1c;fill-opacity:1;fill-rule:evenodd;opacity:1;stroke:none;"/>
        </g>
      </defs>
      <use xlink:href="#83"/>
      <defs>
        <title>Shape 73</title>
        <g id="85">
          <defs>
            <path id="86" d="M518.28,273.397 C518.28,304.555,493.042,329.824,461.876,329.824 C430.71,329.824,405.449,304.555,405.449,273.397 C405.449,246.167,424.751,223.439,450.424,218.152 C454.117,217.397,457.954,216.985,461.876,216.985 C465.797,216.985,469.627,217.397,473.328,218.152 C499.001,223.439,518.28,246.167,518.28,273.397 z M518.28,273.397"/>
          </defs>
          <use xlink:href="#86" style="fill:#aa7942;fill-opacity:1;fill-rule:evenodd;opacity:1;stroke:none;"/>
        </g>
      </defs>
      <use xlink:href="#85"/>
      <defs>
        <title>Shape 74</title>
        <g id="87">
          <defs>
            <path id="88" d="M507.515,273.397 C507.515,298.612,487.091,319.059,461.876,319.059 C436.661,319.059,416.214,298.612,416.214,273.397 C416.214,251.371,431.839,232.976,452.614,228.696 C455.605,228.086,458.71,227.758,461.876,227.758 C465.05,227.758,468.147,228.086,471.138,228.696 C491.913,232.976,507.515,251.371,507.515,273.397 z M507.515,273.397"/>
          </defs>
          <use xlink:href="#88" style="fill:#f9ebd6;fill-opacity:1;fill-rule:evenodd;opacity:1;stroke:none;"/>
        </g>
      </defs>
      <use xlink:href="#87"/>
      <defs>
        <title>Shape 75</title>
        <g id="89">
          <defs>
            <path id="90" d="M473.328,218.152 C473.328,232.839,473.328,247.525,473.328,262.212 C473.328,266.927,469.505,270.742,464.798,270.742 C462.85,270.742,460.902,270.742,458.954,270.742 C454.247,270.742,450.432,266.927,450.432,262.212 C450.432,247.525,450.432,232.839,450.432,218.152 C454.124,217.397,457.962,216.985,461.876,216.985 C465.797,216.985,469.627,217.397,473.328,218.152 z M473.328,218.152"/>
          </defs>
          <use xlink:href="#90" style="fill:#2f363b;fill-opacity:1;fill-rule:evenodd;opacity:1;stroke:none;"/>
        </g>
      </defs>
      <use xlink:href="#89"/>
      <defs>
        <title>Shape 76</title>
        <g id="91">
          <defs>
            <path id="92" d="M699.974,278.722 C699.974,308.095,676.155,331.914,646.782,331.914 C617.409,331.914,593.59,308.095,593.59,278.722 C593.59,249.349,617.409,225.53,646.782,225.53 C676.155,225.53,699.974,249.349,699.974,278.722 z M699.974,278.722"/>
          </defs>
          <use xlink:href="#92" style="fill:#d8d4cd;fill-opacity:1;fill-rule:evenodd;opacity:1;stroke:none;"/>
        </g>
      </defs>
      <use xlink:href="#91"/>
      <defs>
        <title>Shape 77</title>
        <g id="93">
          <defs>
            <path id="94" d="M684.395,278.722 C684.395,299.497,667.557,316.335,646.782,316.335 C626.007,316.335,609.169,299.497,609.169,278.722 C609.169,257.947,626.007,241.109,646.782,241.109 C667.557,241.109,684.395,257.947,684.395,278.722 z M684.395,278.722"/>
          </defs>
          <use xlink:href="#94" style="fill:#f2efe9;fill-opacity:1;fill-rule:evenodd;opacity:1;stroke:none;"/>
        </g>
      </defs>
      <use xlink:href="#93"/>
      <defs>
        <title>Shape 78</title>
        <g id="95">
          <defs>
            <path id="96" d="M673.378,278.722 C673.378,293.409,661.469,305.318,646.782,305.318 C632.095,305.318,620.186,293.409,620.186,278.722 C620.186,264.035,632.095,252.126,646.782,252.126 C661.469,252.126,673.378,264.035,673.378,278.722 z M673.378,278.722"/>
          </defs>
          <use xlink:href="#96" style="fill:#141a1c;fill-opacity:1;fill-rule:evenodd;opacity:1;stroke:none;"/>
        </g>
      </defs>
      <use xlink:href="#95"/>
      <defs>
        <title>Shape 79</title>
        <g id="97">
          <defs>
            <path id="98" d="M807.915,278.722 C807.915,302.961,788.269,322.606,764.03,322.606 C739.799,322.606,720.154,302.961,720.154,278.722 C720.154,254.483,739.799,234.838,764.03,234.838 C788.269,234.838,807.915,254.483,807.915,278.722 z M807.915,278.722"/>
          </defs>
          <use xlink:href="#98" style="fill:#d8d4cd;fill-opacity:1;fill-rule:evenodd;opacity:1;stroke:none;"/>
        </g>
      </defs>
      <use xlink:href="#97"/>
      <defs>
        <title>Shape 80</title>
        <g id="99">
          <defs>
            <path id="100" d="M795.059,278.722 C795.059,295.858,781.166,309.751,764.03,309.751 C746.895,309.751,733.002,295.858,733.002,278.722 C733.002,261.586,746.895,247.693,764.03,247.693 C781.166,247.693,795.059,261.586,795.059,278.722 z M795.059,278.722"/>
          </defs>
          <use xlink:href="#100" style="fill:#f2efe9;fill-opacity:1;fill-rule:evenodd;opacity:1;stroke:none;"/>
        </g>
      </defs>
      <use xlink:href="#99"/>
      <defs>
        <title>Shape 81</title>
        <g id="101">
          <defs>
            <path id="102" d="M780.701,278.722 C780.701,287.931,773.239,295.392,764.03,295.392 C754.829,295.392,747.36,287.931,747.36,278.722 C747.36,269.513,754.829,262.052,764.03,262.052 C773.239,262.052,780.701,269.513,780.701,278.722 z M780.701,278.722"/>
          </defs>
          <use xlink:href="#102" style="fill:#141a1c;fill-opacity:1;fill-rule:evenodd;opacity:1;stroke:none;"/>
        </g>
      </defs>
      <use xlink:href="#101"/>
    </g>
  </g>
</svg>
