<svg xmlns="http://www.w3.org/2000/svg" xmlns:xlink="http://www.w3.org/1999/xlink" xmlns:serif="http://www.serif.com/" viewBox="0 0 512 512" version="1.1" xml:space="preserve" style="" x="0px" y="0px" fill-rule="evenodd" clip-rule="evenodd" stroke-linejoin="round" stroke-miterlimit="1.41421"><rect serif:id="45" x="0" y="0" width="512" height="512" style="" fill="none"/><path d="M145.957,327.566c-4.403,7.961 -12.691,13.856 -22.23,14.327c-0.333,0.016 -0.666,0.024 -1,0.03c-11.7,0.076 -23.401,0.002 -35.102,0.002c-13.593,-0.089 -26.163,-11.498 -26.863,-25.588c-0.017,-0.334 -0.025,-0.667 -0.031,-1.001c-0.527,-80.799 -0.002,-161.602 -0.002,-242.403c0.088,-13.578 11.528,-26.158 25.584,-26.863c0.336,-0.017 0.673,-0.025 1.01,-0.032c11.801,-0.051 23.603,-0.051 35.404,0c9.557,0.188 18.413,5.909 23.104,14.121c75.18,-0.013 150.36,-0.284 225.54,0.001c25.038,0.19 48.477,19.563 52.905,44.819c8.991,53.125 17.717,106.294 26.574,159.44c3.978,24.294 -10.529,50.669 -34.59,59.533c-5.964,2.197 -12.341,3.313 -18.663,3.333l-95.708,0l0,62.621c-0.077,22.619 -10.525,44.531 -27.686,58.697c-13.744,11.346 -31.573,17.918 -49.398,17.365c-16.064,-0.499 -30.491,-14.594 -30.637,-31.41c-0.062,-18.013 0.056,-36.026 -0.002,-54.039c-0.231,-26.044 -21.72,-50.113 -48.209,-52.953Zm3.365,-17.213c26.136,3.139 50.653,22.747 58.987,49.013c2.157,6.8 3.262,13.912 3.326,21.048c0.057,18.07 -0.278,36.142 0.004,54.209c0.171,7.644 7.025,14.035 15.3,13.88c16.871,-0.315 33.538,-8.374 44.322,-21.599c8.455,-10.368 13.114,-23.655 13.159,-37.028l0,-71.326c0.588,-3.709 2.556,-7.176 6.036,-8.307c0.866,-0.281 1.799,-0.284 2.699,-0.427c34.892,0 69.785,0.109 104.678,-0.001c20.89,-0.23 39.228,-20.406 35.825,-42.288c-8.714,-53.219 -17.599,-106.41 -26.597,-159.582c-2.912,-16.608 -18.08,-30.182 -35.789,-30.316c-73.974,-0.281 -147.948,-0.001 -221.922,-0.001c0.465,77.574 -0.01,155.15 -0.028,232.725Zm-17.47,-237.359l-0.001,-0.15c-0.09,-4.891 -4.254,-9.238 -9.333,-9.338c-11.615,-0.05 -23.23,0 -34.846,0c-4.865,0.021 -9.311,4.143 -9.472,9.222l-0.002,0.116c-0.526,80.756 -0.526,161.517 0,242.273c0.09,4.867 4.371,9.252 9.334,9.338c11.662,0.076 23.324,0.076 34.986,0c4.861,-0.084 9.24,-4.309 9.333,-9.338l0.001,-0.15l0,-241.973Z"/></svg>