<?xml version="1.0" encoding="utf-8"?>
<!-- Generator: Adobe Illustrator 25.2.0, SVG Export Plug-In . SVG Version: 6.00 Build 0)  -->
<svg version="1.1" id="Layer_1" xmlns="http://www.w3.org/2000/svg" xmlns:xlink="http://www.w3.org/1999/xlink" x="0px" y="0px"
	 viewBox="0 0 512 512" style="enable-background:new 0 0 512 512;" xml:space="preserve">
<style type="text/css">
	.st0{fill:#C7975E;}
	.st1{fill:url(#SVGID_1_);}
	.st2{fill:url(#_x33__1_);}
	.st3{fill:#AA7A43;}
	.st4{opacity:0.92;}
	.st5{fill:none;stroke:#E3C65E;stroke-width:7;stroke-linecap:round;stroke-miterlimit:10;}
	.st6{fill-rule:evenodd;clip-rule:evenodd;fill:#C18B4C;}
	.st7{fill:#AA7942;}
</style>
<g id="Layer_3">
	<path class="st0" d="M257.6,323.9h-2.8c-7.3,0-13.3,6-13.3,13.3v95.5c0,7.3,6,13.3,13.3,13.3h2.8c7.3,0,13.3-6,13.3-13.3v-95.5
		C270.9,329.9,265,323.9,257.6,323.9z"/>
	<path class="st0" d="M282.3,330l-2.4,1.4c-6.4,3.7-8.5,11.8-4.9,18.2l58.5,101.3c3.7,6.4,11.8,8.5,18.2,4.9l2.4-1.4
		c6.4-3.7,8.5-11.8,4.9-18.2l-58.5-101.3C296.7,328.5,288.6,326.3,282.3,330z"/>
	<path class="st0" d="M232.6,331.4l-2.4-1.4c-6.4-3.7-14.5-1.5-18.2,4.9l-58.5,101.3c-3.7,6.4-1.5,14.5,4.9,18.2l2.4,1.4
		c6.4,3.7,14.5,1.5,18.2-4.9l58.5-101.3C241.1,343.2,239,335,232.6,331.4z"/>
	
		<linearGradient id="SVGID_1_" gradientUnits="userSpaceOnUse" x1="66.0562" y1="485.9562" x2="445.9625" y2="865.8625" gradientTransform="matrix(1 0 0 1 0 -486)">
		<stop  offset="0" style="stop-color:#595959"/>
		<stop  offset="1" style="stop-color:#31322F"/>
	</linearGradient>
	<path class="st1" d="M463.3,347.9H48.7c-19.5,0-35.2-15.8-35.2-35.2V67.1c0-19.5,15.8-35.2,35.2-35.2h414.6
		c19.5,0,35.2,15.8,35.2,35.2v245.6C498.6,332.1,482.8,347.9,463.3,347.9z"/>
</g>
<g id="Layer_2_1_">
	<g id="_x31__2_">
		<g>
			<g id="_x32__2_">
				<g>
					
						<linearGradient id="_x33__1_" gradientUnits="userSpaceOnUse" x1="273.6924" y1="842.8271" x2="232.1402" y2="676.4716" gradientTransform="matrix(1 0 0 1 0 -484)">
						<stop  offset="0" style="stop-color:#C7975E"/>
						<stop  offset="1" style="stop-color:#FAEBD7"/>
					</linearGradient>
					<path id="_x33__2_" class="st2" d="M174,272.9c-39.8-44.2-21.3-75-13.4-83.2c7.8-8.2,17.4-15.2,30.5-16.7
						c13.2-1.5,14.7-1.3,22-6.4c7.3-5.1,21.8-40.7,48.8-38.3s50.5,26.8,57.5,48.3c7,21.6-9.6,41.9-19.8,46.8
						c-10.1,5-22.3,14.9-23,26.9c-0.7,12-2.7,27.3-21,40.8c-18.2,13.4-43.7,9.7-62.9-3.1C192.7,288,179.5,279.1,174,272.9z"/>
				</g>
			</g>
		</g>
		<g>
			<g id="_x35__2_">
				<g>
					<path id="_x36__2_" class="st3" d="M234.7,256.3c-1.8,1.8-4.8,1.8-6.6,0l-35.7-35.4c-1.8-1.8-1.8-4.8,0-6.6l3.1-3.1
						c1.8-1.8,4.8-1.8,6.6,0l35.7,35.4c1.8,1.8,1.8,4.8,0,6.6L234.7,256.3z"/>
				</g>
			</g>
		</g>
		<g class="st4">
			<g id="_x37__2_">
				<g>
					<path id="_x38__2_" class="st5" d="M333.1,85.9l29.8,28.6"/>
				</g>
			</g>
		</g>
		<g class="st4">
			<g id="_x39__2_">
				<g>
					<path id="_x31_0_2_" class="st5" d="M339.2,75.9l33.4,32.8"/>
				</g>
			</g>
		</g>
		<g class="st4">
			<g id="_x31_1_2_">
				<g>
					<path id="_x31_2_2_" class="st5" d="M346,66.4l36.7,35.7"/>
				</g>
			</g>
		</g>
		<g>
			<g id="_x31_3_2_">
				<g>
					<path id="_x31_4_2_" class="st3" d="M335.4,96.9c0,0,17.5-30.2,21.8-32.1c4.4-1.9,7-1.4,10.2-0.2c3.2,1.2,4.2,2.2,7.8,0.6
						c3.6-1.6,6-0.6,7.6,0.8c1.5,1.3,2.4,5.5,1,8.2c-1.5,2.7-0.6,5.1,0,7.4c0.6,2.2,2,4.7-0.2,10.6c-3.6,5.3-31.1,20.9-31.1,20.9
						L335.4,96.9z"/>
				</g>
			</g>
		</g>
		<g>
			<g id="_x31_5_2_">
				<g>
					<path id="_x31_6_2_" class="st6" d="M335.8,96.2l17,16.8L245.6,221.2l-17-16.8L335.8,96.2z"/>
				</g>
			</g>
		</g>
		<g>
			<g id="_x31_7_2_">
				<g>
					<path id="_x31_8_2_" class="st7" d="M302.4,163.8l-16.9-16.7l12.5-12.6l16.9,16.7L302.4,163.8z"/>
				</g>
			</g>
		</g>
		<g>
			<g id="_x31_9_2_">
				<g>
					<path id="_x32_0_2_" class="st7" d="M271.9,194.7L255,178l12.5-12.6l16.9,16.7L271.9,194.7z"/>
				</g>
			</g>
		</g>
		<g>
			<g id="_x32_1_2_">
				<g>
					<path id="_x32_2_2_" class="st7" d="M332.3,133.7L315.4,117l12.5-12.6l16.9,16.7L332.3,133.7z"/>
				</g>
			</g>
		</g>
		<g>
			<g id="_x32_3_2_">
				<g>
					<path id="_x32_4_2_" class="st6" d="M247.9,176.7c13.5,0,24.4,10.9,24.4,24.4s-10.9,24.4-24.4,24.4s-24.4-10.9-24.4-24.4
						C223.4,187.6,234.4,176.7,247.9,176.7z"/>
				</g>
			</g>
		</g>
	</g>
</g>
</svg>
