<?xml version="1.0" encoding="utf-8"?>
<svg x="0pt" y="0pt" width="1000pt" height="1000pt" viewBox="0 0 1000 1000" xmlns="http://www.w3.org/2000/svg" xmlns:xlink="http://www.w3.org/1999/xlink">
  <g id="1">
    <title>Layer 1</title>
    <g id="2">
      <title>Group</title>
      <g id="3">
        <title>Group</title>
        <g id="4">
          <title>Group</title>
          <linearGradient x1="774.285" y1="819.357" x2="203.832" y2="186.148" gradientUnits="userSpaceOnUse" id="7">
            <stop style="stop-color:#c18a4b;stop-opacity:1;"/>
            <stop offset="1" style="stop-color:#f9ebd6;stop-opacity:1;"/>
          </linearGradient>
          <defs>
            <title>Shape 13</title>
            <g id="5">
              <defs>
                <path id="6" d="M897.789,52.4869 C897.789,267.956,897.789,483.425,897.789,698.895 C897.789,717.127,882.872,748.618,864.64,748.618 C638.121,748.618,411.602,748.618,185.083,748.618 C139.314,748.618,102.211,785.722,102.211,831.491 C102.211,588.398,102.211,345.304,102.211,102.211 C102.211,56.4412,139.314,19.3378,185.083,19.3378 C411.602,19.3378,638.121,19.3378,864.64,19.3378 C882.925,19.3924,897.735,34.2019,897.789,52.4869 z"/>
              </defs>
              <use xlink:href="#6" style="fill:url(#7);fill-opacity:1;fill-rule:nonzero;opacity:1;stroke:none;"/>
            </g>
          </defs>
          <use xlink:href="#5"/>
          <g id="8">
            <title>Group</title>
            <defs>
              <title>Shape 14</title>
              <g id="9">
                <defs>
                  <path id="10" d="M218.233,19.3378 C218.233,30.3875,218.233,41.4372,218.233,52.4869 C218.233,61.6408,210.812,69.0615,201.658,69.0615 C192.504,69.0615,185.083,61.6408,185.083,52.4869 C185.083,41.4372,185.083,30.3875,185.083,19.3378 z"/>
                </defs>
                <use xlink:href="#10" style="fill:#c18a4b;fill-opacity:1;fill-rule:nonzero;opacity:1;stroke:none;"/>
              </g>
            </defs>
            <use xlink:href="#9"/>
            <defs>
              <title>Shape 15</title>
              <g id="11">
                <defs>
                  <path id="12" d="M201.658,168.509 C192.504,168.509,185.083,161.088,185.083,151.934 C185.083,140.885,185.083,129.835,185.083,118.785 C185.083,109.631,192.504,102.211,201.658,102.211 C210.812,102.211,218.233,109.631,218.233,118.785 C218.233,129.835,218.233,140.885,218.233,151.934 C218.233,161.088,210.812,168.509,201.658,168.509 z"/>
                </defs>
                <use xlink:href="#12" style="fill:#c18a4b;fill-opacity:1;fill-rule:nonzero;opacity:1;stroke:none;"/>
              </g>
            </defs>
            <use xlink:href="#11"/>
            <defs>
              <title>Shape 16</title>
              <g id="13">
                <defs>
                  <path id="14" d="M897.789,698.895 C897.789,759.668,897.789,820.441,897.789,881.215 C897.735,899.5,882.925,914.309,864.64,914.364 C859.115,914.364,853.591,914.364,848.066,914.364 C820.552,914.364,798.342,877.237,798.342,831.491 C798.342,785.745,820.552,748.618,848.066,748.618 C853.591,748.618,859.115,748.618,864.64,748.618 C882.872,748.618,897.789,717.127,897.789,698.895 z"/>
                </defs>
                <use xlink:href="#14" style="fill:#3f413d;fill-opacity:1;fill-rule:nonzero;opacity:1;stroke:none;"/>
              </g>
            </defs>
            <use xlink:href="#13"/>
            <defs>
              <title>Shape 17</title>
              <g id="15">
                <defs>
                  <path id="16" d="M201.658,267.956 C192.504,267.956,185.083,260.535,185.083,251.382 C185.083,240.332,185.083,229.282,185.083,218.233 C185.083,209.079,192.504,201.658,201.658,201.658 C210.812,201.658,218.233,209.079,218.233,218.233 C218.233,229.282,218.233,240.332,218.233,251.382 C218.233,260.535,210.812,267.956,201.658,267.956 z"/>
                </defs>
                <use xlink:href="#16" style="fill:#c18a4b;fill-opacity:1;fill-rule:nonzero;opacity:1;stroke:none;"/>
              </g>
            </defs>
            <use xlink:href="#15"/>
            <defs>
              <title>Shape 18</title>
              <g id="17">
                <defs>
                  <path id="18" d="M201.658,367.404 C192.504,367.404,185.083,359.983,185.083,350.829 C185.083,339.779,185.083,328.73,185.083,317.68 C185.083,308.526,192.504,301.105,201.658,301.105 C210.812,301.105,218.233,308.526,218.233,317.68 C218.233,328.73,218.233,339.779,218.233,350.829 C218.233,359.983,210.812,367.404,201.658,367.404 z"/>
                </defs>
                <use xlink:href="#18" style="fill:#c18a4b;fill-opacity:1;fill-rule:nonzero;opacity:1;stroke:none;"/>
              </g>
            </defs>
            <use xlink:href="#17"/>
            <defs>
              <title>Shape 19</title>
              <g id="19">
                <defs>
                  <path id="20" d="M201.658,466.851 C192.504,466.851,185.083,459.43,185.083,450.276 C185.083,439.227,185.083,428.177,185.083,417.127 C185.083,407.973,192.504,400.553,201.658,400.553 C210.812,400.553,218.233,407.973,218.233,417.127 C218.233,428.177,218.233,439.227,218.233,450.276 C218.233,459.43,210.812,466.851,201.658,466.851 z"/>
                </defs>
                <use xlink:href="#20" style="fill:#c18a4b;fill-opacity:1;fill-rule:nonzero;opacity:1;stroke:none;"/>
              </g>
            </defs>
            <use xlink:href="#19"/>
            <defs>
              <title>Shape 20</title>
              <g id="21">
                <defs>
                  <path id="22" d="M201.658,566.298 C192.504,566.298,185.083,558.878,185.083,549.724 C185.083,538.674,185.083,527.624,185.083,516.575 C185.083,507.421,192.504,500,201.658,500 C210.812,500,218.233,507.421,218.233,516.575 C218.233,527.624,218.233,538.674,218.233,549.724 C218.233,558.878,210.812,566.298,201.658,566.298 z"/>
                </defs>
                <use xlink:href="#22" style="fill:#c18a4b;fill-opacity:1;fill-rule:nonzero;opacity:1;stroke:none;"/>
              </g>
            </defs>
            <use xlink:href="#21"/>
            <defs>
              <title>Shape 21</title>
              <g id="23">
                <defs>
                  <path id="24" d="M201.658,665.745 C192.504,665.745,185.083,658.325,185.083,649.171 C185.083,638.121,185.083,627.072,185.083,616.022 C185.083,606.868,192.504,599.447,201.658,599.447 C210.812,599.447,218.233,606.868,218.233,616.022 C218.233,627.072,218.233,638.121,218.233,649.171 C218.233,658.325,210.812,665.745,201.658,665.745 z"/>
                </defs>
                <use xlink:href="#24" style="fill:#c18a4b;fill-opacity:1;fill-rule:nonzero;opacity:1;stroke:none;"/>
              </g>
            </defs>
            <use xlink:href="#23"/>
            <defs>
              <title>Shape 22</title>
              <g id="25">
                <defs>
                  <path id="26" d="M218.233,715.469 C218.233,726.519,218.233,737.569,218.233,748.618 C207.183,748.618,196.133,748.618,185.083,748.618 C185.083,737.569,185.083,726.519,185.083,715.469 C185.083,706.315,192.504,698.895,201.658,698.895 C210.812,698.895,218.233,706.315,218.233,715.469 z"/>
                </defs>
                <use xlink:href="#26" style="fill:#c18a4b;fill-opacity:1;fill-rule:nonzero;opacity:1;stroke:none;"/>
              </g>
            </defs>
            <use xlink:href="#25"/>
          </g>
          <linearGradient x1="758.013" y1="1013.32" x2="693.633" y2="740.32" gradientUnits="userSpaceOnUse" id="29">
            <stop style="stop-color:#ccc6b3;stop-opacity:1;"/>
            <stop offset="1" style="stop-color:#f9ebd6;stop-opacity:1;"/>
          </linearGradient>
          <defs>
            <title>Shape 23</title>
            <g id="27">
              <defs>
                <path id="28" d="M848.066,914.364 C628.232,914.364,408.398,914.364,188.564,914.364 C145.011,915.062,107.927,882.837,102.542,839.613 C102.27,836.914,102.159,834.203,102.211,831.491 C102.211,785.722,139.314,748.618,185.083,748.618 C406.077,748.618,627.072,748.618,848.066,748.618 C820.552,748.618,798.342,785.745,798.342,831.491 C798.342,877.237,820.552,914.364,848.066,914.364 z"/>
              </defs>
              <use xlink:href="#28" style="fill:url(#29);fill-opacity:1;fill-rule:nonzero;opacity:1;stroke:none;"/>
            </g>
          </defs>
          <use xlink:href="#27"/>
          <defs>
            <title>Shape 24</title>
            <g id="30">
              <defs>
                <path id="31" d="M267.956,831.491 C323.205,831.491,378.453,831.491,433.702,831.491 C433.702,875.69,433.702,919.889,433.702,964.088 C433.703,970.058,430.493,975.567,425.299,978.511 C420.105,981.455,413.729,981.377,408.608,978.309 C392.188,968.458,375.768,958.607,359.348,948.756 C354.103,945.613,347.554,945.613,342.31,948.756 C325.89,958.607,309.47,968.458,293.05,978.309 C287.929,981.377,281.553,981.455,276.359,978.511 C271.165,975.567,267.955,970.058,267.956,964.088 z"/>
              </defs>
              <use xlink:href="#31" style="fill:#463664;fill-opacity:1;fill-rule:nonzero;opacity:1;stroke:none;"/>
            </g>
          </defs>
          <use xlink:href="#30"/>
          <defs>
            <title>Shape 25</title>
            <g id="32">
              <defs>
                <path id="33" d="M500,848.066 C406.077,848.066,312.155,848.066,218.233,848.066 C209.079,848.066,201.658,840.645,201.658,831.491 C201.658,822.337,209.079,814.917,218.233,814.917 C312.155,814.917,406.078,814.917,500,814.917 C509.154,814.917,516.575,822.337,516.575,831.491 C516.575,840.645,509.154,848.066,500,848.066 z"/>
              </defs>
              <use xlink:href="#33" style="fill:#f9c175;fill-opacity:1;fill-rule:nonzero;opacity:1;stroke:none;"/>
            </g>
          </defs>
          <use xlink:href="#32"/>
        </g>
      </g>
    </g>
    <defs>
      <title>Text</title>
      <g id="34">
        <defs>
          <path id="35" d="M408.213,682.365 C400.676,701.167,393.139,710.607,385.603,710.687 C376.479,710.766,369.815,706.046,365.611,696.526 C362.358,689.227,360.692,679.667,360.613,667.847 C360.533,654.519,362.279,642.381,365.849,631.433 C369.974,618.66,375.567,611.877,382.628,611.084 C383.659,611.004,384.651,610.965,385.603,610.965 C392.187,610.965,397.265,613.9,400.835,619.771 C403.453,624.213,405.674,631.274,407.499,640.953 C408.847,644.84,409.522,647.22,409.522,648.093 C409.522,650.711,407.895,652.734,404.643,654.162 C403.929,654.479,403.096,654.638,402.144,654.638 C399.843,654.638,397.304,653.884,394.528,652.377 C391.275,650.631,389.649,648.727,389.649,646.665 C389.649,646.347,390.204,644.8,391.315,642.024 C391.156,638.533,390.521,635.221,389.411,632.087 C388.3,628.954,387.031,627.228,385.603,626.911 C383.381,626.355,381.438,630.758,379.772,640.12 C378.344,647.894,377.471,656.462,377.154,665.824 C376.916,672.884,377.312,679.429,378.344,685.459 C379.534,692.361,381.319,696.05,383.699,696.526 C385.127,696.764,386.832,694.979,388.816,691.171 C390.72,687.68,392.306,683.555,393.576,678.795 C393.417,678.001,393.338,677.248,393.338,676.534 C393.338,671.853,396.194,669.513,401.906,669.513 C403.175,669.513,404.444,669.632,405.714,669.87 C409.601,670.663,411.545,672.607,411.545,675.701 C411.545,678.239,410.434,680.461,408.213,682.365 z M467.951,697.478 C468.427,699.461,468.665,700.73,468.665,701.286 C468.665,702.952,467.693,704.32,465.749,705.391 C463.806,706.462,461.723,706.998,459.502,706.998 C456.09,706.998,453.909,705.728,452.957,703.19 C452.56,702.158,452.362,701.286,452.362,700.572 C452.362,699.54,452.818,698.43,453.73,697.24 C454.643,696.05,455.099,694.939,455.099,693.908 C456.051,689.782,456.527,683.832,456.527,676.058 C456.527,662.571,455.575,655.669,453.671,655.352 C452.243,655.114,449.942,657.375,446.769,662.135 C443.437,667.133,440.66,672.726,438.439,678.914 C435.821,686.212,434.71,692.638,435.107,698.192 C434.869,698.668,434.75,699.144,434.75,699.62 C434.75,700.334,435.067,701.345,435.702,702.654 C436.336,703.963,436.654,705.014,436.654,705.808 C436.654,706.601,436.376,707.355,435.821,708.069 C433.679,711.163,431.537,712.71,429.395,712.71 C427.173,712.71,425.031,710.964,422.969,707.474 C421.779,705.411,421.184,693.551,421.184,671.893 C421.184,663.959,421.382,645.911,421.779,617.748 C421.779,617.272,421.739,616.538,421.66,615.546 C421.58,614.555,421.541,613.781,421.541,613.226 C421.62,612.432,421.858,611.718,422.255,611.084 C423.127,609.418,424.992,608.585,427.848,608.585 C430.386,608.585,432.707,609.259,434.809,610.608 C436.912,611.956,437.725,613.543,437.249,615.368 C437.169,615.844,436.793,616.399,436.118,617.034 C435.444,617.668,435.107,618.303,435.107,618.938 C435.107,618.938,435.107,657.256,435.107,657.256 C439.629,647.101,446.293,641.706,455.099,641.072 C459.859,640.754,463.667,644.324,466.523,651.782 C469.141,658.604,470.45,666.974,470.45,676.891 C470.45,684.507,469.617,691.369,467.951,697.478 z M517.693,646.07 C523.008,651.464,525.666,660.548,525.666,673.321 C525.666,683.237,523.802,691.686,520.073,698.668 C515.868,706.522,510.077,710.449,502.699,710.449 C495.4,710.449,489.767,706.918,485.801,699.858 C482.31,693.67,480.565,685.816,480.565,676.296 C480.565,667.886,481.913,660.35,484.611,653.686 C487.467,646.546,491.116,642.341,495.559,641.072 C497.859,640.437,500.24,640.12,502.699,640.12 C508.807,640.12,513.805,642.103,517.693,646.07 z M504.127,651.782 C501.509,651.544,499.248,654.003,497.344,659.16 C495.678,663.84,494.845,668.759,494.845,673.916 C494.845,681.373,495.162,686.649,495.797,689.743 C496.908,695.296,499.208,698.35,502.699,698.906 C504.92,699.223,506.983,696.169,508.887,689.743 C510.711,683.555,511.624,676.93,511.624,669.87 C511.624,658.287,509.125,652.258,504.127,651.782 z M580.406,646.784 C580.089,648.45,578.581,649.6,575.884,650.235 C572.711,651.028,570.688,651.94,569.815,652.972 C569.815,652.972,550.418,675.344,550.418,675.344 C550.418,675.344,550.418,693.432,550.418,693.432 C550.418,695.177,550.914,696.942,551.905,698.727 C552.897,700.512,553.393,701.881,553.393,702.833 C553.393,703.785,553.115,704.856,552.56,706.046 C551.211,709.06,548.474,710.568,544.349,710.568 C541.493,710.568,539.232,709.655,537.566,707.831 C536.455,706.641,535.9,705.133,535.9,703.309 C535.9,702.674,535.979,701.643,536.138,700.215 C536.297,698.787,536.376,697.636,536.376,696.764 C536.376,696.764,536.376,652.258,536.376,652.258 C536.376,651.544,536.058,650.671,535.424,649.64 C534.789,648.608,534.472,647.775,534.472,647.141 C534.472,646.665,534.63,646.109,534.948,645.475 C535.979,643.571,539.192,642.619,544.587,642.619 C548.792,642.619,551.172,643.61,551.727,645.594 C551.965,646.387,552.084,647.061,552.084,647.617 C552.084,648.489,551.766,649.164,551.132,649.64 C550.497,650.116,550.18,650.592,550.18,651.068 C550.18,651.068,550.418,655.352,550.418,655.352 C550.418,655.352,560.652,644.523,560.652,644.523 C561.842,643.174,563.091,641.825,564.4,640.477 C565.709,639.128,567.237,638.374,568.982,638.216 C571.679,637.978,574.277,638.573,576.776,640.001 C579.275,641.429,580.525,643.293,580.525,645.594 C580.525,645.99,580.485,646.387,580.406,646.784 z M624.198,706.76 C623.246,708.902,620.31,709.973,615.392,709.973 C612.298,709.973,610.235,709.338,609.204,708.069 C608.807,707.672,608.609,707.117,608.609,706.403 C608.609,705.847,608.807,704.975,609.204,703.785 C609.6,702.595,609.839,701.682,609.918,701.048 C606.268,706.204,601.984,708.783,597.066,708.783 C590.481,708.783,585.682,705.054,582.667,697.597 C580.366,691.885,579.216,684.467,579.216,675.344 C579.216,666.934,581.001,659.279,584.571,652.377 C588.537,644.84,593.417,641.072,599.208,641.072 C602.461,641.072,605.792,643.69,609.204,648.926 C609.204,648.926,609.204,633.575,609.204,633.575 C609.204,632.305,608.688,630.679,607.657,628.696 C606.625,626.712,606.11,625.205,606.11,624.174 C606.11,623.38,606.308,622.587,606.705,621.794 C608.371,618.224,611.623,616.439,616.463,616.439 C620.43,616.439,622.889,617.867,623.841,620.723 C624.158,621.675,624.317,622.587,624.317,623.46 C624.317,624.332,624.059,625.503,623.543,626.97 C623.028,628.438,622.77,629.687,622.77,630.719 C622.77,630.719,622.77,698.549,622.77,698.549 C622.77,699.421,623.087,700.473,623.722,701.702 C624.357,702.932,624.674,703.943,624.674,704.737 C624.674,705.371,624.515,706.046,624.198,706.76 z M607.776,675.344 C607.776,671.694,607.022,667.41,605.515,662.492 C603.849,657.256,602.222,654.638,600.636,654.638 C598.811,654.638,597.344,657.057,596.233,661.897 C595.36,665.863,594.924,670.346,594.924,675.344 C594.924,676.216,594.884,677.644,594.805,679.628 C594.805,681.532,594.805,682.999,594.805,684.031 C594.805,692.995,596.748,697.478,600.636,697.478 C602.46,697.478,604.126,694.899,605.634,689.743 C607.062,684.983,607.776,680.183,607.776,675.344 z M674.178,691.528 C674.178,697.081,672.195,701.821,668.228,705.748 C664.261,709.675,659.581,711.639,654.186,711.639 C650.774,711.639,647.244,710.012,643.595,706.76 C640.739,704.142,638.161,700.929,635.86,697.121 C633.877,693.789,633.004,691.686,633.242,690.814 C634.114,688.83,636.852,687.839,641.453,687.839 C643.357,687.839,644.864,688.116,645.975,688.672 C647.879,689.703,648.95,691.012,649.188,692.599 C649.426,694.423,649.822,695.574,650.378,696.05 C652.044,698.588,653.551,699.858,654.9,699.858 C655.931,699.858,656.903,699.164,657.815,697.775 C658.728,696.387,659.184,694.741,659.184,692.837 C659.184,691.647,658.985,690.457,658.589,689.267 C658.192,688.077,656.05,686.252,652.163,683.793 C647.482,680.857,644.15,678.279,642.167,676.058 C638.755,672.25,637.05,667.807,637.05,662.73 C637.05,656.78,638.795,651.564,642.286,647.081 C645.776,642.599,650.219,640.358,655.614,640.358 C661.167,640.358,665.411,642.46,668.347,646.665 C670.727,650.076,671.718,653.527,671.322,657.018 C672.195,657.97,672.631,659.556,672.631,661.778 C672.631,664.158,671.758,666.181,670.013,667.847 C668.267,669.513,666.482,670.346,664.658,670.346 C661.961,670.346,659.62,668.561,657.637,664.991 C657.081,664.039,656.804,662.769,656.804,661.183 C656.804,660.469,656.863,659.457,656.982,658.148 C657.101,656.839,657.161,655.907,657.161,655.352 C657.161,653.289,656.407,652.258,654.9,652.258 C652.599,652.258,651.449,654.519,651.449,659.041 C651.449,663.642,652.956,667.331,655.971,670.108 C657.161,671.218,659.739,672.805,663.706,674.868 C667.117,676.613,669.537,678.398,670.965,680.223 C673.107,682.999,674.178,686.768,674.178,691.528 z"/>
        </defs>
        <use xlink:href="#35" style="fill:#463764;fill-opacity:1;fill-rule:nonzero;opacity:1;stroke:none;"/>
      </g>
    </defs>
    <use xlink:href="#34"/>
  </g>
  <g id="36">
    <title>Layer 2</title>
    <defs>
      <title>Smart Rectangle</title>
      <g id="37">
        <defs>
          <path id="38" d="M698.936,544.385 C698.936,558.745,687.295,570.385,672.936,570.385 C672.936,570.385,371.037,570.385,371.037,570.385 C356.678,570.385,345.037,558.745,345.037,544.385 C345.037,544.385,345.037,194.613,345.037,194.613 C345.037,180.253,356.678,168.613,371.037,168.613 C371.037,168.613,672.936,168.613,672.936,168.613 C687.295,168.613,698.936,180.253,698.936,194.613 C698.936,194.613,698.936,544.385,698.936,544.385 z"/>
        </defs>
        <use xlink:href="#38" style="fill:none;opacity:1;stroke:#463664;stroke-linecap:butt;stroke-linejoin:miter;stroke-miterlimit:10;stroke-opacity:1;stroke-width:13;"/>
      </g>
    </defs>
    <use xlink:href="#37"/>
    <defs>
      <title>Path</title>
      <g id="39">
        <defs>
          <path id="40" d="M352.152,176.743 C352.152,176.743,692.438,176.743,692.438,176.743"/>
        </defs>
        <use xlink:href="#40" style="fill:none;opacity:1;stroke:#463664;stroke-linecap:butt;stroke-linejoin:miter;stroke-miterlimit:10;stroke-opacity:1;stroke-width:17;"/>
      </g>
    </defs>
    <use xlink:href="#39"/>
    <defs>
      <title>Path</title>
      <g id="41">
        <defs>
          <path id="42" d="M414.556,175.743 C414.556,175.743,414.556,569.432,414.556,569.432"/>
        </defs>
        <use xlink:href="#42" style="fill:none;opacity:1;stroke:#463664;stroke-linecap:butt;stroke-linejoin:miter;stroke-miterlimit:10;stroke-opacity:1;stroke-width:11;"/>
      </g>
    </defs>
    <use xlink:href="#41"/>
    <defs>
      <title>Path Copy</title>
      <g id="43">
        <defs>
          <path id="44" d="M484.798,171.613 C484.798,171.613,484.798,565.302,484.798,565.302"/>
        </defs>
        <use xlink:href="#44" style="fill:none;opacity:1;stroke:#463664;stroke-linecap:butt;stroke-linejoin:miter;stroke-miterlimit:10;stroke-opacity:1;stroke-width:11;"/>
      </g>
    </defs>
    <use xlink:href="#43"/>
    <defs>
      <title>Path Copy Copy</title>
      <g id="45">
        <defs>
          <path id="46" d="M560.321,173.654 C560.321,173.654,560.321,567.343,560.321,567.343"/>
        </defs>
        <use xlink:href="#46" style="fill:none;opacity:1;stroke:#463664;stroke-linecap:butt;stroke-linejoin:miter;stroke-miterlimit:10;stroke-opacity:1;stroke-width:11;"/>
      </g>
    </defs>
    <use xlink:href="#45"/>
    <defs>
      <title>Path Copy Copy Copy</title>
      <g id="47">
        <defs>
          <path id="48" d="M635.32,176.743 C635.32,176.743,635.32,570.432,635.32,570.432"/>
        </defs>
        <use xlink:href="#48" style="fill:none;opacity:1;stroke:#463664;stroke-linecap:butt;stroke-linejoin:miter;stroke-miterlimit:10;stroke-opacity:1;stroke-width:11;"/>
      </g>
    </defs>
    <use xlink:href="#47"/>
    <defs>
      <title>Path</title>
      <g id="49">
        <defs>
          <path id="50" d="M352.152,281.567 C352.152,281.567,692.44,281.567,692.44,281.567"/>
        </defs>
        <use xlink:href="#50" style="fill:none;opacity:1;stroke:#463664;stroke-linecap:butt;stroke-linejoin:miter;stroke-miterlimit:10;stroke-opacity:1;stroke-width:7;"/>
      </g>
    </defs>
    <use xlink:href="#49"/>
    <defs>
      <title>Path</title>
      <g id="51">
        <defs>
          <path id="52" d="M345.037,390.479 C345.037,390.479,692.446,390.479,692.446,390.479"/>
        </defs>
        <use xlink:href="#52" style="fill:none;opacity:1;stroke:#463664;stroke-linecap:butt;stroke-linejoin:miter;stroke-miterlimit:10;stroke-opacity:1;stroke-width:7;"/>
      </g>
    </defs>
    <use xlink:href="#51"/>
    <defs>
      <title>Path</title>
      <g id="53">
        <defs>
          <path id="54" d="M345.037,486.391 C345.037,486.391,698.984,486.391,698.984,486.391"/>
        </defs>
        <use xlink:href="#54" style="fill:none;opacity:1;stroke:#463664;stroke-linecap:butt;stroke-linejoin:miter;stroke-miterlimit:10;stroke-opacity:1;stroke-width:7;"/>
      </g>
    </defs>
    <use xlink:href="#53"/>
    <defs>
      <title>Path</title>
      <g id="55">
        <defs>
          <path id="56" d="M698.984,304.27 C714.298,304.27,726.712,316.684,726.712,331.998 C726.712,347.312,714.298,359.726,698.984,359.726 C683.671,359.726,671.257,347.312,671.257,331.998 C671.257,316.684,683.671,304.27,698.984,304.27 z"/>
        </defs>
        <use xlink:href="#56" style="fill:#463664;fill-opacity:1;fill-rule:evenodd;opacity:1;stroke:none;"/>
        <use xlink:href="#56" style="fill:none;opacity:1;stroke:#463664;stroke-linecap:butt;stroke-linejoin:miter;stroke-miterlimit:10;stroke-opacity:1;stroke-width:17;"/>
      </g>
    </defs>
    <use xlink:href="#55"/>
    <defs>
      <title>Path Copy</title>
      <g id="57">
        <defs>
          <path id="58" d="M635.321,409.797 C650.634,409.797,663.048,422.211,663.048,437.525 C663.048,452.838,650.634,465.253,635.321,465.253 C620.007,465.253,607.593,452.838,607.593,437.525 C607.593,422.211,620.007,409.797,635.321,409.797 z"/>
        </defs>
        <use xlink:href="#58" style="fill:#463664;fill-opacity:1;fill-rule:evenodd;opacity:1;stroke:none;"/>
        <use xlink:href="#58" style="fill:none;opacity:1;stroke:#463664;stroke-linecap:butt;stroke-linejoin:miter;stroke-miterlimit:10;stroke-opacity:1;stroke-width:17;"/>
      </g>
    </defs>
    <use xlink:href="#57"/>
    <defs>
      <title>Path Copy Copy</title>
      <g id="59">
        <defs>
          <path id="60" d="M560.321,304.27 C575.634,304.27,588.048,316.684,588.048,331.998 C588.048,347.312,575.634,359.726,560.321,359.726 C545.007,359.726,532.593,347.312,532.593,331.998 C532.593,316.684,545.007,304.27,560.321,304.27 z"/>
        </defs>
        <use xlink:href="#60" style="fill:#463664;fill-opacity:1;fill-rule:evenodd;opacity:1;stroke:none;"/>
        <use xlink:href="#60" style="fill:none;opacity:1;stroke:#463664;stroke-linecap:butt;stroke-linejoin:miter;stroke-miterlimit:10;stroke-opacity:1;stroke-width:17;"/>
      </g>
    </defs>
    <use xlink:href="#59"/>
    <defs>
      <title>Path</title>
      <g id="61">
        <defs>
          <path id="62" d="M484.798,105.722 C494.044,105.722,501.538,113.217,501.538,122.462 C501.538,131.707,494.044,139.202,484.798,139.202 C475.553,139.202,468.059,131.707,468.059,122.462 C468.059,113.217,475.553,105.722,484.798,105.722 z"/>
        </defs>
        <use xlink:href="#62" style="fill:none;opacity:1;stroke:#463664;stroke-linecap:butt;stroke-linejoin:miter;stroke-miterlimit:10;stroke-opacity:1;stroke-width:9;"/>
      </g>
    </defs>
    <use xlink:href="#61"/>
    <defs>
      <title>Path</title>
      <g id="63">
        <defs>
          <path id="64" d="M433.989,105.722 C433.989,105.722,406.688,139.202,406.688,139.202"/>
        </defs>
        <use xlink:href="#64" style="fill:none;opacity:1;stroke:#463664;stroke-linecap:butt;stroke-linejoin:miter;stroke-miterlimit:10;stroke-opacity:1;stroke-width:9;"/>
      </g>
    </defs>
    <use xlink:href="#63"/>
    <defs>
      <title>Path Copy</title>
      <g id="65">
        <defs>
          <path id="66" d="M406.271,106.071 C406.271,106.071,434.406,138.853,434.406,138.853"/>
        </defs>
        <use xlink:href="#66" style="fill:none;opacity:1;stroke:#463664;stroke-linecap:butt;stroke-linejoin:miter;stroke-miterlimit:10;stroke-opacity:1;stroke-width:9;"/>
      </g>
    </defs>
    <use xlink:href="#65"/>
    <defs>
      <title>Path Copy</title>
      <g id="67">
        <defs>
          <path id="68" d="M371.989,105.722 C371.989,105.722,344.688,139.202,344.688,139.202"/>
        </defs>
        <use xlink:href="#68" style="fill:none;opacity:1;stroke:#463664;stroke-linecap:butt;stroke-linejoin:miter;stroke-miterlimit:10;stroke-opacity:1;stroke-width:9;"/>
      </g>
    </defs>
    <use xlink:href="#67"/>
    <defs>
      <title>Path Copy Copy</title>
      <g id="69">
        <defs>
          <path id="70" d="M344.271,106.071 C344.271,106.071,372.406,138.853,372.406,138.853"/>
        </defs>
        <use xlink:href="#70" style="fill:none;opacity:1;stroke:#463664;stroke-linecap:butt;stroke-linejoin:miter;stroke-miterlimit:10;stroke-opacity:1;stroke-width:9;"/>
      </g>
    </defs>
    <use xlink:href="#69"/>
  </g>
</svg>
