<?xml version="1.0" encoding="utf-8"?>
<svg x="0pt" y="0pt" width="1000pt" height="1000pt" viewBox="0 0 1000 1000" xmlns="http://www.w3.org/2000/svg" xmlns:xlink="http://www.w3.org/1999/xlink">
  <g id="1">
    <title>Layer 1</title>
    <g id="2">
      <title>Group</title>
      <linearGradient x1="141.009" y1="84.3332" x2="922.871" y2="919.286" gradientUnits="userSpaceOnUse" id="5">
        <stop style="stop-color:#c6b199;stop-opacity:1;"/>
        <stop offset="1" style="stop-color:#c69c6d;stop-opacity:1;"/>
      </linearGradient>
      <defs>
        <title>Path Copy</title>
        <g id="3">
          <defs>
            <path id="4" d="M146.8,146.8 C210.806,82.7939,287.861,39.7896,369.402,17.7875 C377.694,46.1406,478.954,421.456,500,500 C444.755,444.755,165.188,165.188,146.8,146.8 z M146.093,146.093 z"/>
          </defs>
          <use xlink:href="#4" style="fill:url(#5);fill-opacity:1;fill-rule:nonzero;opacity:1;stroke:none;"/>
          <use xlink:href="#4" style="fill:none;opacity:1;stroke:#ccc6b3;stroke-linecap:butt;stroke-linejoin:miter;stroke-miterlimit:10;stroke-opacity:1;stroke-width:1;"/>
        </g>
      </defs>
      <use xlink:href="#3"/>
    </g>
    <g id="6">
      <title>Group Copy</title>
      <linearGradient x1="141.008" y1="84.334" x2="922.871" y2="919.287" gradientUnits="userSpaceOnUse" id="9">
        <stop style="stop-color:#c6b199;stop-opacity:1;"/>
        <stop offset="1" style="stop-color:#c69c6d;stop-opacity:1;"/>
      </linearGradient>
      <defs>
        <title>Path Copy</title>
        <g id="7">
          <defs>
            <path id="8" d="M17.52,370.72 C40.9474,283.286,86.1771,207.516,145.793,147.691 C167.15,168.099,442.502,442.502,500,500 C424.533,479.779,42.6383,377.45,17.52,370.72 z M16.5541,370.461 z"/>
          </defs>
          <use xlink:href="#8" style="fill:url(#9);fill-opacity:1;fill-rule:nonzero;opacity:1;stroke:none;"/>
          <use xlink:href="#8" style="fill:none;opacity:1;stroke:#ccc6b3;stroke-linecap:butt;stroke-linejoin:miter;stroke-miterlimit:10;stroke-opacity:1;stroke-width:1;"/>
        </g>
      </defs>
      <use xlink:href="#7"/>
    </g>
    <g id="10">
      <title>Group Copy Copy</title>
      <linearGradient x1="141.009" y1="84.3337" x2="922.873" y2="919.288" gradientUnits="userSpaceOnUse" id="13">
        <stop style="stop-color:#c6b199;stop-opacity:1;"/>
        <stop offset="1" style="stop-color:#c69c6d;stop-opacity:1;"/>
      </linearGradient>
      <defs>
        <title>Path Copy</title>
        <g id="11">
          <defs>
            <path id="12" d="M17.5201,629.28 C-5.90821,541.846,-4.62331,453.613,17.0928,371.995 C45.7933,378.99,421.456,478.954,500,500 C424.533,520.221,42.6384,622.55,17.5201,629.28 z M16.5541,629.539 z"/>
          </defs>
          <use xlink:href="#12" style="fill:url(#13);fill-opacity:1;fill-rule:nonzero;opacity:1;stroke:none;"/>
          <use xlink:href="#12" style="fill:none;opacity:1;stroke:#ccc6b3;stroke-linecap:butt;stroke-linejoin:miter;stroke-miterlimit:10;stroke-opacity:1;stroke-width:1;"/>
        </g>
      </defs>
      <use xlink:href="#11"/>
    </g>
    <g id="14">
      <title>Group Copy Copy Copy</title>
      <linearGradient x1="141.009" y1="84.3344" x2="922.871" y2="919.289" gradientUnits="userSpaceOnUse" id="17">
        <stop style="stop-color:#c6b199;stop-opacity:1;"/>
        <stop offset="1" style="stop-color:#c69c6d;stop-opacity:1;"/>
      </linearGradient>
      <defs>
        <title>Path Copy</title>
        <g id="15">
          <defs>
            <path id="16" d="M146.8,853.2 C82.7939,789.194,39.7896,712.139,17.7875,630.598 C46.1406,622.306,421.456,521.046,500,500 C444.755,555.245,165.188,834.812,146.8,853.2 z M146.093,853.907 z"/>
          </defs>
          <use xlink:href="#16" style="fill:url(#17);fill-opacity:1;fill-rule:nonzero;opacity:1;stroke:none;"/>
          <use xlink:href="#16" style="fill:none;opacity:1;stroke:#ccc6b3;stroke-linecap:butt;stroke-linejoin:miter;stroke-miterlimit:10;stroke-opacity:1;stroke-width:1;"/>
        </g>
      </defs>
      <use xlink:href="#15"/>
    </g>
    <g id="18">
      <title>Group Copy Copy Copy Copy</title>
      <linearGradient x1="141.007" y1="84.3342" x2="922.872" y2="919.287" gradientUnits="userSpaceOnUse" id="21">
        <stop style="stop-color:#c6b199;stop-opacity:1;"/>
        <stop offset="1" style="stop-color:#c69c6d;stop-opacity:1;"/>
      </linearGradient>
      <defs>
        <title>Path Copy</title>
        <g id="19">
          <defs>
            <path id="20" d="M370.72,982.48 C283.286,959.053,207.516,913.823,147.691,854.207 C168.099,832.85,442.502,557.498,500,500 C479.779,575.467,377.45,957.362,370.72,982.48 z M370.461,983.446 z"/>
          </defs>
          <use xlink:href="#20" style="fill:url(#21);fill-opacity:1;fill-rule:nonzero;opacity:1;stroke:none;"/>
          <use xlink:href="#20" style="fill:none;opacity:1;stroke:#ccc6b3;stroke-linecap:butt;stroke-linejoin:miter;stroke-miterlimit:10;stroke-opacity:1;stroke-width:1;"/>
        </g>
      </defs>
      <use xlink:href="#19"/>
    </g>
    <g id="22">
      <title>Group Copy Copy Copy Copy Copy</title>
      <linearGradient x1="141.008" y1="84.3315" x2="922.872" y2="919.288" gradientUnits="userSpaceOnUse" id="25">
        <stop style="stop-color:#c6b199;stop-opacity:1;"/>
        <stop offset="1" style="stop-color:#c69c6d;stop-opacity:1;"/>
      </linearGradient>
      <defs>
        <title>Path Copy</title>
        <g id="23">
          <defs>
            <path id="24" d="M629.28,982.48 C541.847,1005.91,453.613,1004.62,371.995,982.907 C378.99,954.207,478.954,578.544,500,500 C520.221,575.466,622.55,957.362,629.28,982.48 z M629.539,983.446 z"/>
          </defs>
          <use xlink:href="#24" style="fill:url(#25);fill-opacity:1;fill-rule:nonzero;opacity:1;stroke:none;"/>
          <use xlink:href="#24" style="fill:none;opacity:1;stroke:#ccc6b3;stroke-linecap:butt;stroke-linejoin:miter;stroke-miterlimit:10;stroke-opacity:1;stroke-width:1;"/>
        </g>
      </defs>
      <use xlink:href="#23"/>
    </g>
    <g id="26">
      <title>Group Copy Copy Copy Copy Copy Copy</title>
      <linearGradient x1="141.008" y1="84.3324" x2="922.872" y2="919.287" gradientUnits="userSpaceOnUse" id="29">
        <stop style="stop-color:#c6b199;stop-opacity:1;"/>
        <stop offset="1" style="stop-color:#c69c6d;stop-opacity:1;"/>
      </linearGradient>
      <defs>
        <title>Path Copy</title>
        <g id="27">
          <defs>
            <path id="28" d="M853.2,853.2 C789.194,917.206,712.139,960.21,630.598,982.213 C622.306,953.859,521.046,578.544,500,500 C555.245,555.245,834.812,834.812,853.2,853.2 z M853.907,853.907 z"/>
          </defs>
          <use xlink:href="#28" style="fill:url(#29);fill-opacity:1;fill-rule:nonzero;opacity:1;stroke:none;"/>
          <use xlink:href="#28" style="fill:none;opacity:1;stroke:#ccc6b3;stroke-linecap:butt;stroke-linejoin:miter;stroke-miterlimit:10;stroke-opacity:1;stroke-width:1;"/>
        </g>
      </defs>
      <use xlink:href="#27"/>
    </g>
    <g id="30">
      <title>Group Copy Copy Copy Copy Copy Copy Copy</title>
      <linearGradient x1="141.006" y1="84.3335" x2="922.872" y2="919.287" gradientUnits="userSpaceOnUse" id="33">
        <stop style="stop-color:#c6b199;stop-opacity:1;"/>
        <stop offset="1" style="stop-color:#c69c6d;stop-opacity:1;"/>
      </linearGradient>
      <defs>
        <title>Path Copy</title>
        <g id="31">
          <defs>
            <path id="32" d="M982.48,629.28 C959.053,716.714,913.823,792.484,854.207,852.309 C832.85,831.901,557.498,557.498,500,500 C575.467,520.221,957.362,622.55,982.48,629.28 z M983.446,629.539 z"/>
          </defs>
          <use xlink:href="#32" style="fill:url(#33);fill-opacity:1;fill-rule:nonzero;opacity:1;stroke:none;"/>
          <use xlink:href="#32" style="fill:none;opacity:1;stroke:#ccc6b3;stroke-linecap:butt;stroke-linejoin:miter;stroke-miterlimit:10;stroke-opacity:1;stroke-width:1;"/>
        </g>
      </defs>
      <use xlink:href="#31"/>
    </g>
    <g id="34">
      <title>Group Copy Copy Copy Copy Copy Copy Copy Copy</title>
      <linearGradient x1="141.006" y1="84.3344" x2="922.872" y2="919.288" gradientUnits="userSpaceOnUse" id="37">
        <stop style="stop-color:#c6b199;stop-opacity:1;"/>
        <stop offset="1" style="stop-color:#c69c6d;stop-opacity:1;"/>
      </linearGradient>
      <defs>
        <title>Path Copy</title>
        <g id="35">
          <defs>
            <path id="36" d="M982.48,370.72 C1005.91,458.153,1004.62,546.387,982.907,628.005 C954.207,621.01,578.544,521.046,500,500 C575.466,479.779,957.362,377.45,982.48,370.72 z M983.446,370.461 z"/>
          </defs>
          <use xlink:href="#36" style="fill:url(#37);fill-opacity:1;fill-rule:nonzero;opacity:1;stroke:none;"/>
          <use xlink:href="#36" style="fill:none;opacity:1;stroke:#ccc6b3;stroke-linecap:butt;stroke-linejoin:miter;stroke-miterlimit:10;stroke-opacity:1;stroke-width:1;"/>
        </g>
      </defs>
      <use xlink:href="#35"/>
    </g>
    <g id="38">
      <title>Group Copy Copy Copy Copy Copy Copy Copy Copy Copy</title>
      <linearGradient x1="141.009" y1="84.3341" x2="922.872" y2="919.287" gradientUnits="userSpaceOnUse" id="41">
        <stop style="stop-color:#c6b199;stop-opacity:1;"/>
        <stop offset="1" style="stop-color:#c69c6d;stop-opacity:1;"/>
      </linearGradient>
      <defs>
        <title>Path Copy</title>
        <g id="39">
          <defs>
            <path id="40" d="M853.2,146.8 C917.206,210.806,960.21,287.861,982.213,369.402 C953.859,377.694,578.544,478.954,500,500 C555.245,444.755,834.812,165.188,853.2,146.8 z M853.907,146.093 z"/>
          </defs>
          <use xlink:href="#40" style="fill:url(#41);fill-opacity:1;fill-rule:nonzero;opacity:1;stroke:none;"/>
          <use xlink:href="#40" style="fill:none;opacity:1;stroke:#ccc6b3;stroke-linecap:butt;stroke-linejoin:miter;stroke-miterlimit:10;stroke-opacity:1;stroke-width:1;"/>
        </g>
      </defs>
      <use xlink:href="#39"/>
    </g>
    <g id="42">
      <title>Group Copy Copy Copy Copy Copy Copy Copy Copy Copy Copy</title>
      <linearGradient x1="141.008" y1="84.3327" x2="922.871" y2="919.289" gradientUnits="userSpaceOnUse" id="45">
        <stop style="stop-color:#c6b199;stop-opacity:1;"/>
        <stop offset="1" style="stop-color:#c69c6d;stop-opacity:1;"/>
      </linearGradient>
      <defs>
        <title>Path Copy</title>
        <g id="43">
          <defs>
            <path id="44" d="M629.28,17.52 C716.714,40.9473,792.484,86.1771,852.309,145.793 C831.901,167.15,557.498,442.502,500,500 C520.221,424.533,622.55,42.6383,629.28,17.52 z M629.539,16.5541 z"/>
          </defs>
          <use xlink:href="#44" style="fill:url(#45);fill-opacity:1;fill-rule:nonzero;opacity:1;stroke:none;"/>
          <use xlink:href="#44" style="fill:none;opacity:1;stroke:#ccc6b3;stroke-linecap:butt;stroke-linejoin:miter;stroke-miterlimit:10;stroke-opacity:1;stroke-width:1;"/>
        </g>
      </defs>
      <use xlink:href="#43"/>
      <linearGradient x1="564.552" y1="290.347" x2="385.784" y2="658.044" gradientUnits="userSpaceOnUse" id="48">
        <stop style="stop-color:#c6b199;stop-opacity:1;"/>
        <stop offset="1" style="stop-color:#c69c6d;stop-opacity:1;"/>
      </linearGradient>
      <defs>
        <title>Text</title>
        <g id="46">
          <defs>
            <path id="47"/>
          </defs>
          <use xlink:href="#47" style="fill:#ffffff;fill-opacity:1;fill-rule:nonzero;opacity:1;stroke:none;"/>
          <use xlink:href="#47" style="fill:url(#48);fill-opacity:1;fill-rule:nonzero;opacity:1;stroke:none;"/>
        </g>
      </defs>
      <use xlink:href="#46"/>
    </g>
    <g id="49">
      <title>Group Copy Copy Copy Copy Copy Copy Copy Copy Copy Copy Copy</title>
      <linearGradient x1="141.008" y1="84.3332" x2="922.873" y2="919.288" gradientUnits="userSpaceOnUse" id="52">
        <stop style="stop-color:#c6b199;stop-opacity:1;"/>
        <stop offset="1" style="stop-color:#c69c6d;stop-opacity:1;"/>
      </linearGradient>
      <defs>
        <title>Path Copy</title>
        <g id="50">
          <defs>
            <path id="51" d="M370.72,17.5201 C458.153,-5.90821,546.387,-4.62332,628.005,17.0928 C621.01,45.7933,521.046,421.456,500,500 C479.779,424.533,377.45,42.6384,370.72,17.5201 z M370.461,16.5541 z"/>
          </defs>
          <use xlink:href="#51" style="fill:url(#52);fill-opacity:1;fill-rule:nonzero;opacity:1;stroke:none;"/>
          <use xlink:href="#51" style="fill:none;opacity:1;stroke:#ccc6b3;stroke-linecap:butt;stroke-linejoin:miter;stroke-miterlimit:10;stroke-opacity:1;stroke-width:1;"/>
        </g>
      </defs>
      <use xlink:href="#50"/>
    </g>
    <linearGradient x1="283.452" y1="285.087" x2="718.793" y2="800.691" gradientUnits="userSpaceOnUse" id="55">
      <stop style="stop-color:#faebd7;stop-opacity:1;"/>
      <stop offset="1" style="stop-color:#fbeddb;stop-opacity:1;"/>
    </linearGradient>
    <defs>
      <title>Path</title>
      <g id="53">
        <defs>
          <path id="54" d="M430.73,241.481 C573.506,203.225,720.262,287.954,758.519,430.73 C796.775,573.506,712.046,720.262,569.27,758.519 C426.494,796.775,279.738,712.046,241.481,569.27 C203.225,426.494,287.954,279.738,430.73,241.481 z"/>
        </defs>
        <use xlink:href="#54" style="fill:url(#55);fill-opacity:1;fill-rule:evenodd;opacity:1;stroke:none;"/>
        <use xlink:href="#54" style="fill:none;opacity:1;stroke:#505050;stroke-linecap:butt;stroke-linejoin:miter;stroke-miterlimit:10;stroke-opacity:1;stroke-width:3;"/>
      </g>
    </defs>
    <use xlink:href="#53"/>
  </g>
</svg>
