<?xml version="1.0" encoding="utf-8"?>
<!-- Generator: Adobe Illustrator 25.2.0, SVG Export Plug-In . SVG Version: 6.00 Build 0)  -->
<svg version="1.1" xmlns="http://www.w3.org/2000/svg" xmlns:xlink="http://www.w3.org/1999/xlink" x="0px" y="0px"
	 viewBox="0 0 1000 1000" style="enable-background:new 0 0 1000 1000;" xml:space="preserve">
<style type="text/css">
	.st0{fill:url(#SVGID_1_);stroke:#CCC7B4;stroke-miterlimit:10;}
	.st1{opacity:0.75;fill:#31322F;enable-background:new    ;}
	.st2{fill:none;}
	.st3{fill:none;stroke:#CCC5B3;stroke-miterlimit:10;}
	.st4{fill-rule:evenodd;clip-rule:evenodd;fill:url(#_x35_4_2_);}
	.st5{fill:none;stroke:#505150;stroke-width:3;stroke-miterlimit:10;}
	.st6{fill:#463664;}
</style>
<g id="Layer_2">
	<linearGradient id="SVGID_1_" gradientUnits="userSpaceOnUse" x1="172.9845" y1="163.3776" x2="844.6279" y2="779.4576">
		<stop  offset="0" style="stop-color:#F9EAD7"/>
		<stop  offset="0.4217" style="stop-color:#DCBA91"/>
		<stop  offset="0.8148" style="stop-color:#C89761"/>
		<stop  offset="1" style="stop-color:#C08B4F"/>
	</linearGradient>
	<circle class="st0" cx="502.9" cy="466" r="455.7"/>
</g>
<g id="Layer_1">
	<ellipse class="st1" cx="511" cy="966.5" rx="389" ry="33.5"/>
	<g id="_x31_">
		<g id="_x32_">
			<g>
				<g id="_x33_">
					<g>
						<path id="_x34_" class="st2" d="M181.1,143.7C239.6,85.3,309.9,46,384.3,26c7.6,25.9,100,368.4,119.2,440
							C453,415.6,197.9,160.4,181.1,143.7z"/>
					</g>
					<g>
						<path id="_x34__1_" class="st3" d="M181.1,143.7C239.6,85.3,309.9,46,384.3,26c7.6,25.9,100,368.4,119.2,440
							C453,415.6,197.9,160.4,181.1,143.7z"/>
					</g>
				</g>
			</g>
		</g>
		<g id="_x36_">
			<g>
				<g id="_x37_">
					<g>
						<path id="_x38_" class="st2" d="M63.2,348c21.4-79.8,62.6-148.9,117-203.5c19.5,18.6,270.8,269,323.3,321.5
							C434.6,447.5,86,354.2,63.2,348z"/>
					</g>
					<g>
						<path id="_x38__1_" class="st3" d="M63.2,348c21.4-79.8,62.6-148.9,117-203.5c19.5,18.6,270.8,269,323.3,321.5
							C434.6,447.5,86,354.2,63.2,348z"/>
					</g>
				</g>
			</g>
		</g>
		<g id="_x31_0">
			<g>
				<g id="_x31_1">
					<g>
						<path id="_x31_2" class="st2" d="M63.2,584C41.8,504.2,43,423.7,62.8,349.2C89,355.6,431.9,446.8,503.5,466
							C434.6,484.4,86,577.9,63.2,584z"/>
					</g>
					<g>
						<path id="_x31_2_1_" class="st3" d="M63.2,584C41.8,504.2,43,423.7,62.8,349.2C89,355.6,431.9,446.8,503.5,466
							C434.6,484.4,86,577.9,63.2,584z"/>
					</g>
				</g>
			</g>
		</g>
		<g id="_x31_4">
			<g>
				<g id="_x31_5">
					<g>
						<path id="_x31_6" class="st2" d="M181.1,788.4C122.7,730,83.5,659.7,63.4,585.3c25.9-7.6,368.4-100,440-119.2
							C453,516.4,197.9,771.5,181.1,788.4z"/>
					</g>
					<g>
						<path id="_x31_6_1_" class="st3" d="M181.1,788.4C122.7,730,83.5,659.7,63.4,585.3c25.9-7.6,368.4-100,440-119.2
							C453,516.4,197.9,771.5,181.1,788.4z"/>
					</g>
				</g>
			</g>
		</g>
		<g id="_x31_8">
			<g>
				<g id="_x31_9">
					<g>
						<path id="_x32_0" class="st2" d="M385.5,906.4c-79.8-21.4-148.9-62.6-203.5-117c18.6-19.5,269-270.8,321.5-323.3
							C485,534.9,391.6,883.4,385.5,906.4z"/>
					</g>
					<g>
						<path id="_x32_0_1_" class="st3" d="M385.5,906.4c-79.8-21.4-148.9-62.6-203.5-117c18.6-19.5,269-270.8,321.5-323.3
							C485,534.9,391.6,883.4,385.5,906.4z"/>
					</g>
				</g>
			</g>
		</g>
		<g id="_x32_2">
			<g>
				<g id="_x32_3">
					<g>
						<path id="_x32_4" class="st2" d="M621.5,906.4c-79.8,21.4-160.3,20.2-234.8,0.4c6.4-26.2,97.6-369.1,116.8-440.7
							C522,534.9,615.3,883.4,621.5,906.4z"/>
					</g>
					<g>
						<path id="_x32_4_1_" class="st3" d="M621.5,906.4c-79.8,21.4-160.3,20.2-234.8,0.4c6.4-26.2,97.6-369.1,116.8-440.7
							C522,534.9,615.3,883.4,621.5,906.4z"/>
					</g>
				</g>
			</g>
		</g>
		<g id="_x32_6">
			<g>
				<g id="_x32_7">
					<g>
						<path id="_x32_8" class="st2" d="M825.8,788.4c-58.4,58.4-128.7,97.7-203.1,117.7c-7.6-25.9-100-368.4-119.2-440
							C553.9,516.4,809.1,771.5,825.8,788.4z"/>
					</g>
					<g>
						<path id="_x32_8_1_" class="st3" d="M825.8,788.4c-58.4,58.4-128.7,97.7-203.1,117.7c-7.6-25.9-100-368.4-119.2-440
							C553.9,516.4,809.1,771.5,825.8,788.4z"/>
					</g>
				</g>
			</g>
		</g>
		<g id="_x33_0">
			<g>
				<g id="_x33_1">
					<g>
						<path id="_x33_2" class="st2" d="M943.8,584c-21.4,79.8-62.6,148.9-117.1,203.5C807.3,768.9,556,518.5,503.5,466
							C572.3,484.4,920.8,577.9,943.8,584z"/>
					</g>
					<g>
						<path id="_x33_2_1_" class="st3" d="M943.8,584c-21.4,79.8-62.6,148.9-117.1,203.5C807.3,768.9,556,518.5,503.5,466
							C572.3,484.4,920.8,577.9,943.8,584z"/>
					</g>
				</g>
			</g>
		</g>
		<g id="_x33_4">
			<g>
				<g id="_x33_5">
					<g>
						<path id="_x33_6" class="st2" d="M943.8,348c21.4,79.8,20.2,160.3,0.4,234.8C918,576.4,575.1,485.3,503.5,466
							C572.3,447.5,920.8,354.2,943.8,348z"/>
					</g>
					<g>
						<path id="_x33_6_1_" class="st3" d="M943.8,348c21.4,79.8,20.2,160.3,0.4,234.8C918,576.4,575.1,485.3,503.5,466
							C572.3,447.5,920.8,354.2,943.8,348z"/>
					</g>
				</g>
			</g>
		</g>
		<g id="_x33_8">
			<g>
				<g id="_x33_9">
					<g>
						<path id="_x34_0" class="st2" d="M825.8,143.7c58.4,58.4,97.7,128.7,117.7,203.1c-25.9,7.6-368.4,100-440,119.2
							C553.9,415.6,809.1,160.4,825.8,143.7z"/>
					</g>
					<g>
						<path id="_x34_0_1_" class="st3" d="M825.8,143.7c58.4,58.4,97.7,128.7,117.7,203.1c-25.9,7.6-368.4,100-440,119.2
							C553.9,415.6,809.1,160.4,825.8,143.7z"/>
					</g>
				</g>
			</g>
		</g>
		<g id="_x34_2">
			<g>
				<g id="_x34_3">
					<g>
						<path id="_x34_4" class="st2" d="M621.5,25.7C701.3,47,770.4,88.3,825,142.7C806.4,162.3,556,413.5,503.5,466
							C522,397.2,615.3,48.6,621.5,25.7z"/>
					</g>
					<g>
						<path id="_x34_4_1_" class="st3" d="M621.5,25.7C701.3,47,770.4,88.3,825,142.7C806.4,162.3,556,413.5,503.5,466
							C522,397.2,615.3,48.6,621.5,25.7z"/>
					</g>
				</g>
			</g>
			<g>
				<g id="_x34_6">
					<g>
						<path id="_x34_7" class="st3" d="M47.2,9.7"/>
					</g>
					<g>
						<path id="_x34_7_1_" class="st3" d="M47.2,9.7"/>
					</g>
				</g>
			</g>
		</g>
		<g id="_x34_9">
			<g>
				<g id="_x35_0">
					<g>
						<path id="_x35_1" class="st2" d="M385.5,25.7c79.8-21.4,160.3-20.2,234.8-0.4c-6.4,26.2-97.6,369.1-116.8,440.7
							C485,397.2,391.6,48.6,385.5,25.7z"/>
					</g>
					<g>
						<path id="_x35_1_1_" class="st3" d="M385.5,25.7c79.8-21.4,160.3-20.2,234.8-0.4c-6.4,26.2-97.6,369.1-116.8,440.7
							C485,397.2,391.6,48.6,385.5,25.7z"/>
					</g>
				</g>
			</g>
		</g>
		<g>
			<g id="_x35_3">
				<g>
					
						<linearGradient id="_x35_4_2_" gradientUnits="userSpaceOnUse" x1="324.5407" y1="666.9119" x2="721.8507" y2="196.3506" gradientTransform="matrix(1 0 0 -1 0 921)">
						<stop  offset="0" style="stop-color:#F9EAD7"/>
						<stop  offset="1" style="stop-color:#FBEDDC"/>
					</linearGradient>
					<path id="_x35_4" class="st4" d="M440.3,230.1c130.3-35,264.2,42.4,299.2,172.8S697,667,566.7,702
						c-130.3,34.9-264.2-42.4-299.2-172.8C232.7,398.9,309.9,265,440.3,230.1z"/>
				</g>
				<g>
					<path id="_x35_4_1_" class="st5" d="M440.3,230.1c130.3-35,264.2,42.4,299.2,172.8S697,667,566.7,702
						c-130.3,34.9-264.2-42.4-299.2-172.8C232.7,398.9,309.9,265,440.3,230.1z"/>
				</g>
			</g>
		</g>
	</g>
	<g id="_x32_0_2_">
		<g>
			<g id="_x32_1">
				<g>
					<path id="_x32_2_1_" class="st6" d="M515.4,525.8c4.8,14.2-8,31.3-28.4,38.2c-20.5,6.9-40.9,0.9-45.7-13.3
						c-4.8-14.2,8-31.3,28.4-38.2C490.2,505.6,510.6,511.6,515.4,525.8"/>
				</g>
			</g>
		</g>
		<g>
			<g id="_x32_3_1_">
				<g>
					<path id="_x32_4_2_" class="st6" d="M511,538.1c-3,0-5.4-2.4-5.4-5.4c0-50.2,0-100.3,0-150.5c0-3,2.4-5.4,5.4-5.4
						s5.4,2.4,5.4,5.4c0,50.2,0,100.3,0,150.5C516.4,535.7,514,538.1,511,538.1z"/>
				</g>
			</g>
		</g>
		<g>
			<g id="_x32_5">
				<g>
					<path id="_x32_6_1_" class="st6" d="M511,382.2c4.2,18.1,15.6,33.6,31.5,43.1c27,16.3,22.7,38,22.7,38c0,4.5,0,9.1,0,13.6
						c0,2.2-0.9,4.3-2.4,5.9c-1.6,1.5-3.7,2.4-5.9,2.3c-4,0-7.4-3-7.9-7c-0.9-7.7-5.3-20.6-22.8-31.1c-5.6-3.4-10.7-7.5-15.1-12.4
						L511,382.2L511,382.2z"/>
				</g>
			</g>
		</g>
	</g>
	<g id="_x32_0_3_">
		<g>
			<g id="_x32_1_1_">
				<g>
					<path id="_x32_2_2_" class="st6" d="M582.9,376c2.3,6.7-3.8,14.8-13.5,18.1c-9.7,3.3-19.4,0.4-21.7-6.3
						c-2.3-6.7,3.8-14.8,13.5-18.1C571,366.4,580.7,369.3,582.9,376"/>
				</g>
			</g>
		</g>
		<g>
			<g id="_x32_3_2_">
				<g>
					<path id="_x32_4_3_" class="st6" d="M580.8,381.8c-1.4,0-2.6-1.2-2.6-2.6c0-23.8,0-47.6,0-71.4c0-1.4,1.2-2.6,2.6-2.6
						s2.6,1.2,2.6,2.6c0,23.8,0,47.6,0,71.4C583.4,380.7,582.3,381.8,580.8,381.8z"/>
				</g>
			</g>
		</g>
		<g>
			<g id="_x32_5_1_">
				<g>
					<path id="_x32_6_2_" class="st6" d="M580.8,307.9c2,8.6,7.4,16,14.9,20.5c12.8,7.7,10.8,18,10.8,18c0,2.2,0,4.3,0,6.5
						c0,1-0.4,2.1-1.2,2.8c-0.7,0.7-1.8,1.1-2.8,1.1c-1.9,0-3.5-1.4-3.8-3.3c-0.4-3.7-2.5-9.8-10.8-14.7c-2.7-1.6-5.1-3.6-7.2-5.9
						L580.8,307.9L580.8,307.9z"/>
				</g>
			</g>
		</g>
	</g>
	<g id="_x32_0_4_">
		<g>
			<g id="_x32_1_2_">
				<g>
					<path id="_x32_2_3_" class="st6" d="M625.4,436.6c2.7,7.9-4.5,17.5-15.9,21.3s-22.9,0.5-25.5-7.4c-2.7-7.9,4.5-17.5,15.9-21.3
						C611.3,425.3,622.8,428.7,625.4,436.6"/>
				</g>
			</g>
		</g>
		<g>
			<g id="_x32_3_3_">
				<g>
					<path id="_x32_4_4_" class="st6" d="M623,443.5c-1.7,0-3-1.4-3-3c0-28.1,0-56.1,0-84.2c0-1.7,1.4-3,3-3c1.7,0,3,1.4,3,3
						c0,28.1,0,56.1,0,84.2C626,442.1,624.6,443.5,623,443.5z"/>
				</g>
			</g>
		</g>
		<g>
			<g id="_x32_5_2_">
				<g>
					<path id="_x32_6_3_" class="st6" d="M623,356.3c2.3,10.1,8.7,18.8,17.6,24.1c15.1,9.1,12.7,21.2,12.7,21.2c0,2.5,0,5.1,0,7.6
						c0,1.2-0.5,2.4-1.4,3.3s-2.1,1.3-3.3,1.3c-2.3,0-4.2-1.7-4.4-3.9c-0.5-4.3-3-11.5-12.7-17.4c-3.1-1.9-6-4.2-8.5-6.9L623,356.3
						L623,356.3z"/>
				</g>
			</g>
		</g>
	</g>
</g>
</svg>
