<?xml version="1.0" encoding="utf-8"?>
<!-- Generator: Adobe Illustrator 25.2.0, SVG Export Plug-In . SVG Version: 6.00 Build 0)  -->
<svg version="1.1" id="Layer_1" xmlns="http://www.w3.org/2000/svg" xmlns:xlink="http://www.w3.org/1999/xlink" x="0px" y="0px"
	 viewBox="0 0 1000 1000" style="enable-background:new 0 0 1000 1000;" xml:space="preserve">
<style type="text/css">
	.st0{opacity:0.75;fill:#31322F;enable-background:new    ;}
	.st1{fill:url(#_x34__2_);}
	.st2{fill:none;stroke:#CCC6B3;stroke-miterlimit:10;}
	.st3{fill:url(#_x38__2_);}
	.st4{fill:url(#_x31_2_2_);}
	.st5{fill:url(#_x31_6_2_);}
	.st6{fill:url(#_x32_0_5_);}
	.st7{fill:url(#_x32_4_5_);}
	.st8{fill:url(#_x32_8_2_);}
	.st9{fill:url(#_x33_2_2_);}
	.st10{fill:url(#_x33_6_2_);}
	.st11{fill:url(#_x34_0_2_);}
	.st12{fill:url(#_x34_4_2_);}
	.st13{fill:url(#_x35_1_2_);}
	.st14{fill-rule:evenodd;clip-rule:evenodd;fill:url(#_x35_4_2_);}
	.st15{fill:none;stroke:#505050;stroke-width:3;stroke-miterlimit:10;}
	.st16{fill:#463664;}
</style>
<ellipse class="st0" cx="511" cy="966.5" rx="389" ry="33.5"/>
<g id="_x31_">
	<g id="_x32_">
		<g>
			<g id="_x33_">
				<g>
					
						<linearGradient id="_x34__2_" gradientUnits="userSpaceOnUse" x1="233.6913" y1="110.4907" x2="947.2502" y2="872.5027" gradientTransform="matrix(1 0 0 1 0 -78)">
						<stop  offset="0" style="stop-color:#C6B199"/>
						<stop  offset="1" style="stop-color:#C69C6D"/>
					</linearGradient>
					<path id="_x34_" class="st1" d="M181.1,143.7C239.6,85.3,309.9,46,384.3,26c7.6,25.9,100,368.4,119.2,440
						C453,415.6,197.9,160.4,181.1,143.7z"/>
				</g>
				<g>
					<path id="_x34__1_" class="st2" d="M181.1,143.7C239.6,85.3,309.9,46,384.3,26c7.6,25.9,100,368.4,119.2,440
						C453,415.6,197.9,160.4,181.1,143.7z"/>
				</g>
			</g>
		</g>
	</g>
	<g id="_x36_">
		<g>
			<g id="_x37_">
				<g>
					
						<linearGradient id="_x38__2_" gradientUnits="userSpaceOnUse" x1="73.2662" y1="260.7151" x2="786.8261" y2="1022.7273" gradientTransform="matrix(1 0 0 1 0 -78)">
						<stop  offset="0" style="stop-color:#C6B199"/>
						<stop  offset="1" style="stop-color:#C69C6D"/>
					</linearGradient>
					<path id="_x38_" class="st3" d="M63.2,348c21.4-79.8,62.6-148.9,117-203.5c19.5,18.6,270.8,269,323.3,321.5
						C434.6,447.5,86,354.2,63.2,348z"/>
				</g>
				<g>
					<path id="_x38__1_" class="st2" d="M63.2,348c21.4-79.8,62.6-148.9,117-203.5c19.5,18.6,270.8,269,323.3,321.5
						C434.6,447.5,86,354.2,63.2,348z"/>
				</g>
			</g>
		</g>
	</g>
	<g id="_x31_0">
		<g>
			<g id="_x31_1">
				<g>
					
						<linearGradient id="_x31_2_2_" gradientUnits="userSpaceOnUse" x1="14.4011" y1="315.8377" x2="727.962" y2="1077.8512" gradientTransform="matrix(1 0 0 1 0 -78)">
						<stop  offset="0" style="stop-color:#C6B199"/>
						<stop  offset="1" style="stop-color:#C69C6D"/>
					</linearGradient>
					<path id="_x31_2" class="st4" d="M63.2,584c-21.4-79.8-20.2-160.3-0.4-234.8C89,355.6,431.9,446.8,503.5,466
						C434.6,484.4,86,577.9,63.2,584z"/>
				</g>
				<g>
					<path id="_x31_2_1_" class="st2" d="M63.2,584c-21.4-79.8-20.2-160.3-0.4-234.8C89,355.6,431.9,446.8,503.5,466
						C434.6,484.4,86,577.9,63.2,584z"/>
				</g>
			</g>
		</g>
	</g>
	<g id="_x31_4">
		<g>
			<g id="_x31_5">
				<g>
					
						<linearGradient id="_x31_6_2_" gradientUnits="userSpaceOnUse" x1="-5.2401" y1="334.2303" x2="708.319" y2="1096.2439" gradientTransform="matrix(1 0 0 1 0 -78)">
						<stop  offset="0" style="stop-color:#C6B199"/>
						<stop  offset="1" style="stop-color:#C69C6D"/>
					</linearGradient>
					<path id="_x31_6" class="st5" d="M181.1,788.4C122.7,730,83.5,659.7,63.4,585.3c25.9-7.6,368.4-100,440-119.2
						C453,516.4,197.9,771.5,181.1,788.4z"/>
				</g>
				<g>
					<path id="_x31_6_1_" class="st2" d="M181.1,788.4C122.7,730,83.5,659.7,63.4,585.3c25.9-7.6,368.4-100,440-119.2
						C453,516.4,197.9,771.5,181.1,788.4z"/>
				</g>
			</g>
		</g>
	</g>
	<g id="_x31_8">
		<g>
			<g id="_x31_9">
				<g>
					
						<linearGradient id="_x32_0_5_" gradientUnits="userSpaceOnUse" x1="-5.1594" y1="334.1538" x2="708.4025" y2="1096.1659" gradientTransform="matrix(1 0 0 1 0 -78)">
						<stop  offset="0" style="stop-color:#C6B199"/>
						<stop  offset="1" style="stop-color:#C69C6D"/>
					</linearGradient>
					<path id="_x32_0" class="st6" d="M385.5,906.4c-79.8-21.4-148.9-62.6-203.5-117c18.6-19.5,269-270.8,321.5-323.3
						C485,534.9,391.6,883.4,385.5,906.4z"/>
				</g>
				<g>
					<path id="_x32_0_1_" class="st2" d="M385.5,906.4c-79.8-21.4-148.9-62.6-203.5-117c18.6-19.5,269-270.8,321.5-323.3
						C485,534.9,391.6,883.4,385.5,906.4z"/>
				</g>
			</g>
		</g>
	</g>
	<g id="_x32_2">
		<g>
			<g id="_x32_3">
				<g>
					
						<linearGradient id="_x32_4_5_" gradientUnits="userSpaceOnUse" x1="20.071" y1="310.5251" x2="733.6321" y2="1072.5406" gradientTransform="matrix(1 0 0 1 0 -78)">
						<stop  offset="0" style="stop-color:#C6B199"/>
						<stop  offset="1" style="stop-color:#C69C6D"/>
					</linearGradient>
					<path id="_x32_4" class="st7" d="M621.5,906.4c-79.8,21.4-160.3,20.2-234.8,0.4c6.4-26.2,97.6-369.1,116.8-440.7
						C522,534.9,615.3,883.4,621.5,906.4z"/>
				</g>
				<g>
					<path id="_x32_4_1_" class="st2" d="M621.5,906.4c-79.8,21.4-160.3,20.2-234.8,0.4c6.4-26.2,97.6-369.1,116.8-440.7
						C522,534.9,615.3,883.4,621.5,906.4z"/>
				</g>
			</g>
		</g>
	</g>
	<g id="_x32_6">
		<g>
			<g id="_x32_7">
				<g>
					
						<linearGradient id="_x32_8_2_" gradientUnits="userSpaceOnUse" x1="88.5866" y1="246.3673" x2="802.1476" y2="1008.381" gradientTransform="matrix(1 0 0 1 0 -78)">
						<stop  offset="0" style="stop-color:#C6B199"/>
						<stop  offset="1" style="stop-color:#C69C6D"/>
					</linearGradient>
					<path id="_x32_8" class="st8" d="M825.8,788.4c-58.4,58.4-128.7,97.7-203.1,117.7c-7.6-25.9-100-368.4-119.2-440
						C553.9,516.4,809.1,771.5,825.8,788.4z"/>
				</g>
				<g>
					<path id="_x32_8_1_" class="st2" d="M825.8,788.4c-58.4,58.4-128.7,97.7-203.1,117.7c-7.6-25.9-100-368.4-119.2-440
						C553.9,516.4,809.1,771.5,825.8,788.4z"/>
				</g>
			</g>
		</g>
	</g>
	<g id="_x33_0">
		<g>
			<g id="_x33_1">
				<g>
					
						<linearGradient id="_x33_2_2_" gradientUnits="userSpaceOnUse" x1="249.0101" y1="96.1433" x2="962.5729" y2="858.1561" gradientTransform="matrix(1 0 0 1 0 -78)">
						<stop  offset="0" style="stop-color:#C6B199"/>
						<stop  offset="1" style="stop-color:#C69C6D"/>
					</linearGradient>
					<path id="_x33_2" class="st9" d="M943.8,584c-21.4,79.8-62.6,148.9-117.1,203.5C807.3,768.9,556,518.5,503.5,466
						C572.3,484.4,920.8,577.9,943.8,584z"/>
				</g>
				<g>
					<path id="_x33_2_1_" class="st2" d="M943.8,584c-21.4,79.8-62.6,148.9-117.1,203.5C807.3,768.9,556,518.5,503.5,466
						C572.3,484.4,920.8,577.9,943.8,584z"/>
				</g>
			</g>
		</g>
	</g>
	<g id="_x33_4">
		<g>
			<g id="_x33_5">
				<g>
					
						<linearGradient id="_x33_6_2_" gradientUnits="userSpaceOnUse" x1="307.8759" y1="41.0212" x2="1021.4387" y2="803.0339" gradientTransform="matrix(1 0 0 1 0 -78)">
						<stop  offset="0" style="stop-color:#C6B199"/>
						<stop  offset="1" style="stop-color:#C69C6D"/>
					</linearGradient>
					<path id="_x33_6" class="st10" d="M943.8,348c21.4,79.8,20.2,160.3,0.4,234.8C918,576.4,575.1,485.3,503.5,466
						C572.3,447.5,920.8,354.2,943.8,348z"/>
				</g>
				<g>
					<path id="_x33_6_1_" class="st2" d="M943.8,348c21.4,79.8,20.2,160.3,0.4,234.8C918,576.4,575.1,485.3,503.5,466
						C572.3,447.5,920.8,354.2,943.8,348z"/>
				</g>
			</g>
		</g>
	</g>
	<g id="_x33_8">
		<g>
			<g id="_x33_9">
				<g>
					
						<linearGradient id="_x34_0_2_" gradientUnits="userSpaceOnUse" x1="327.5197" y1="22.629" x2="1041.0798" y2="784.6412" gradientTransform="matrix(1 0 0 1 0 -78)">
						<stop  offset="0" style="stop-color:#C6B199"/>
						<stop  offset="1" style="stop-color:#C69C6D"/>
					</linearGradient>
					<path id="_x34_0" class="st11" d="M825.8,143.7c58.4,58.4,97.7,128.7,117.7,203.1c-25.9,7.6-368.4,100-440,119.2
						C553.9,415.6,809.1,160.4,825.8,143.7z"/>
				</g>
				<g>
					<path id="_x34_0_1_" class="st2" d="M825.8,143.7c58.4,58.4,97.7,128.7,117.7,203.1c-25.9,7.6-368.4,100-440,119.2
						C553.9,415.6,809.1,160.4,825.8,143.7z"/>
				</g>
			</g>
		</g>
	</g>
	<g id="_x34_2">
		<g>
			<g id="_x34_3">
				<g>
					
						<linearGradient id="_x34_4_2_" gradientUnits="userSpaceOnUse" x1="327.4375" y1="22.7045" x2="1040.9974" y2="784.7197" gradientTransform="matrix(1 0 0 1 0 -78)">
						<stop  offset="0" style="stop-color:#C6B199"/>
						<stop  offset="1" style="stop-color:#C69C6D"/>
					</linearGradient>
					<path id="_x34_4" class="st12" d="M621.5,25.7C701.3,47,770.4,88.3,825,142.7C806.4,162.3,556,413.5,503.5,466
						C522,397.2,615.3,48.6,621.5,25.7z"/>
				</g>
				<g>
					<path id="_x34_4_1_" class="st2" d="M621.5,25.7C701.3,47,770.4,88.3,825,142.7C806.4,162.3,556,413.5,503.5,466
						C522,397.2,615.3,48.6,621.5,25.7z"/>
				</g>
			</g>
		</g>
		<g>
			<g id="_x34_6">
				<g>
					<path id="_x34_7" class="st2" d="M47.2,9.7"/>
				</g>
				<g>
					<path id="_x34_7_1_" class="st2" d="M47.2,9.7"/>
				</g>
			</g>
		</g>
	</g>
	<g id="_x34_9">
		<g>
			<g id="_x35_0">
				<g>
					
						<linearGradient id="_x35_1_2_" gradientUnits="userSpaceOnUse" x1="302.2061" y1="46.3314" x2="1015.7681" y2="808.3453" gradientTransform="matrix(1 0 0 1 0 -78)">
						<stop  offset="0" style="stop-color:#C6B199"/>
						<stop  offset="1" style="stop-color:#C69C6D"/>
					</linearGradient>
					<path id="_x35_1" class="st13" d="M385.5,25.7c79.8-21.4,160.3-20.2,234.8-0.4c-6.4,26.2-97.6,369.1-116.8,440.7
						C485,397.2,391.6,48.6,385.5,25.7z"/>
				</g>
				<g>
					<path id="_x35_1_1_" class="st2" d="M385.5,25.7c79.8-21.4,160.3-20.2,234.8-0.4c-6.4,26.2-97.6,369.1-116.8,440.7
						C485,397.2,391.6,48.6,385.5,25.7z"/>
				</g>
			</g>
		</g>
	</g>
	<g>
		<g id="_x35_3">
			<g>
				
					<linearGradient id="_x35_4_2_" gradientUnits="userSpaceOnUse" x1="324.5463" y1="332.0833" x2="721.8563" y2="802.6447" gradientTransform="matrix(1 0 0 1 0 -78)">
					<stop  offset="0" style="stop-color:#FAEBD7"/>
					<stop  offset="1" style="stop-color:#FBEDDB"/>
				</linearGradient>
				<path id="_x35_4" class="st14" d="M440.3,230.1c130.3-35,264.2,42.4,299.2,172.8S697,667,566.7,702
					c-130.3,34.9-264.2-42.4-299.2-172.8C232.7,398.9,309.9,265,440.3,230.1z"/>
			</g>
			<g>
				<path id="_x35_4_1_" class="st15" d="M440.3,230.1c130.3-35,264.2,42.4,299.2,172.8S697,667,566.7,702
					c-130.3,34.9-264.2-42.4-299.2-172.8C232.7,398.9,309.9,265,440.3,230.1z"/>
			</g>
		</g>
	</g>
</g>
<g id="_x32_0_2_">
	<g>
		<g id="_x32_1">
			<g>
				<path id="_x32_2_1_" class="st16" d="M515.4,525.8c4.8,14.2-8,31.3-28.4,38.2c-20.5,6.9-40.9,0.9-45.7-13.3
					c-4.8-14.2,8-31.3,28.4-38.2C490.2,505.6,510.6,511.6,515.4,525.8"/>
			</g>
		</g>
	</g>
	<g>
		<g id="_x32_3_1_">
			<g>
				<path id="_x32_4_2_" class="st16" d="M511,538.1c-3,0-5.4-2.4-5.4-5.4c0-50.2,0-100.3,0-150.5c0-3,2.4-5.4,5.4-5.4
					s5.4,2.4,5.4,5.4c0,50.2,0,100.3,0,150.5C516.4,535.7,514,538.1,511,538.1z"/>
			</g>
		</g>
	</g>
	<g>
		<g id="_x32_5">
			<g>
				<path id="_x32_6_1_" class="st16" d="M511,382.2c4.2,18.1,15.6,33.6,31.5,43.1c27,16.3,22.7,38,22.7,38c0,4.5,0,9.1,0,13.6
					c0,2.2-0.9,4.3-2.4,5.9c-1.6,1.5-3.7,2.4-5.9,2.3c-4,0-7.4-3-7.9-7c-0.9-7.7-5.3-20.6-22.8-31.1c-5.6-3.4-10.7-7.5-15.1-12.4
					L511,382.2L511,382.2z"/>
			</g>
		</g>
	</g>
</g>
<g id="_x32_0_3_">
	<g>
		<g id="_x32_1_1_">
			<g>
				<path id="_x32_2_2_" class="st16" d="M582.9,376c2.3,6.7-3.8,14.8-13.5,18.1c-9.7,3.3-19.4,0.4-21.7-6.3
					c-2.3-6.7,3.8-14.8,13.5-18.1C571,366.4,580.7,369.3,582.9,376"/>
			</g>
		</g>
	</g>
	<g>
		<g id="_x32_3_2_">
			<g>
				<path id="_x32_4_3_" class="st16" d="M580.8,381.8c-1.4,0-2.6-1.2-2.6-2.6c0-23.8,0-47.6,0-71.4c0-1.4,1.2-2.6,2.6-2.6
					s2.6,1.2,2.6,2.6c0,23.8,0,47.6,0,71.4C583.4,380.7,582.3,381.8,580.8,381.8z"/>
			</g>
		</g>
	</g>
	<g>
		<g id="_x32_5_1_">
			<g>
				<path id="_x32_6_2_" class="st16" d="M580.8,307.9c2,8.6,7.4,16,14.9,20.5c12.8,7.7,10.8,18,10.8,18c0,2.2,0,4.3,0,6.5
					c0,1-0.4,2.1-1.2,2.8c-0.7,0.7-1.8,1.1-2.8,1.1c-1.9,0-3.5-1.4-3.8-3.3c-0.4-3.7-2.5-9.8-10.8-14.7c-2.7-1.6-5.1-3.6-7.2-5.9
					L580.8,307.9L580.8,307.9z"/>
			</g>
		</g>
	</g>
</g>
<g id="_x32_0_4_">
	<g>
		<g id="_x32_1_2_">
			<g>
				<path id="_x32_2_3_" class="st16" d="M625.4,436.6c2.7,7.9-4.5,17.5-15.9,21.3s-22.9,0.5-25.5-7.4c-2.7-7.9,4.5-17.5,15.9-21.3
					C611.3,425.3,622.8,428.7,625.4,436.6"/>
			</g>
		</g>
	</g>
	<g>
		<g id="_x32_3_3_">
			<g>
				<path id="_x32_4_4_" class="st16" d="M623,443.5c-1.7,0-3-1.4-3-3c0-28.1,0-56.1,0-84.2c0-1.7,1.4-3,3-3c1.7,0,3,1.4,3,3
					c0,28.1,0,56.1,0,84.2C626,442.1,624.6,443.5,623,443.5z"/>
			</g>
		</g>
	</g>
	<g>
		<g id="_x32_5_2_">
			<g>
				<path id="_x32_6_3_" class="st16" d="M623,356.3c2.3,10.1,8.7,18.8,17.6,24.1c15.1,9.1,12.7,21.2,12.7,21.2c0,2.5,0,5.1,0,7.6
					c0,1.2-0.5,2.4-1.4,3.3s-2.1,1.3-3.3,1.3c-2.3,0-4.2-1.7-4.4-3.9c-0.5-4.3-3-11.5-12.7-17.4c-3.1-1.9-6-4.2-8.5-6.9L623,356.3
					L623,356.3z"/>
			</g>
		</g>
	</g>
</g>
</svg>
