<?xml version="1.0"?>
<svg xmlns="http://www.w3.org/2000/svg" xmlns:xlink="http://www.w3.org/1999/xlink" version="1.1" id="Capa_1" x="0px" y="0px" viewBox="0 0 464 464" style="enable-background:new 0 0 464 464;" xml:space="preserve" width="512px" height="512px"><g><g>
	<circle style="fill:#C18B4C" cx="232" cy="136" r="32" data-original="#00F2A9" class="active-path" data-old_color="#00F2A9"/>
	<circle style="fill:#C18B4C" cx="104" cy="392" r="32" data-original="#00F2A9" class="active-path" data-old_color="#00F2A9"/>
	
</g><path style="fill:#322153" d="M64,360c0,19.312,13.768,35.472,32,39.192V456c0,4.424,3.576,8,8,8c4.424,0,8-3.576,8-8v-56.808  c18.232-3.72,32-19.872,32-39.192s-13.768-35.472-32-39.192v-81.616C127.648,236,140,223.648,143.192,208H224v120  c0,22.056,17.944,40,40,40h56.808c3.72,18.232,19.872,32,39.192,32c22.056,0,40-17.944,40-40c0-19.312-13.768-35.472-32-39.192  v-81.616c18.232-3.72,32-19.872,32-39.192c0-21.08-16.44-38.216-37.144-39.712l-91.32-60.88c-2-17.216-14.784-31.184-31.536-34.6V8  c0-4.424-3.576-8-8-8s-8,3.576-8,8v56.808c-16.752,3.416-29.536,17.384-31.536,34.6l-91.32,60.88C80.44,161.784,64,178.92,64,200  c0,19.312,13.768,35.472,32,39.192v81.616C77.768,324.528,64,340.688,64,360z M128,360c0,13.232-10.768,24-24,24s-24-10.768-24-24  s10.768-24,24-24S128,346.768,128,360z M232,144c17.368,0,32.032-11.192,37.552-26.688l71.512,47.672  c-10.224,5.552-17.864,15.28-20.248,27.008H143.192c-2.392-11.736-10.032-21.456-20.248-27.008l71.512-47.672  C199.968,132.808,214.632,144,232,144z M240,328V208h80.808C324,223.648,336.352,236,352,239.192v81.616  C336.352,324,324,336.352,320.808,352H264C250.768,352,240,341.232,240,328z M384,360c0,13.232-10.768,24-24,24s-24-10.768-24-24  s10.768-24,24-24S384,346.768,384,360z M384,200c0,13.232-10.768,24-24,24s-24-10.768-24-24s10.768-24,24-24S384,186.768,384,200z   M232,80c13.232,0,24,10.768,24,24s-10.768,24-24,24s-24-10.768-24-24S218.768,80,232,80z M80,200c0-13.232,10.768-24,24-24  s24,10.768,24,24s-10.768,24-24,24S80,213.232,80,200z" data-original="#322153" class="" data-old_color="#322153"/></g> </svg>
