<?xml version="1.0"?>
<svg xmlns="http://www.w3.org/2000/svg" xmlns:xlink="http://www.w3.org/1999/xlink" version="1.1" id="Capa_1" x="0px" y="0px" viewBox="0 0 464 464" style="enable-background:new 0 0 464 464;" xml:space="preserve" width="512px" height="512px" class=""><g><path style="fill:#C18B4C" d="M328,40H40v160c0,17.6,14.4,32,32,32h224c17.6,0,32-14.4,32-32V40z" data-original="#00F2A9" class="active-path" data-old_color="#00F2A9"/><g>
	<path style="fill:#322153" d="M40,464h384c22.4,0,40-17.6,40-40V117.6c0-10.4-4-20.8-12-28L374.4,12c-7.2-8-16.8-12-28-12H328H40   C17.6,0,0,17.6,0,40v384C0,446.4,17.6,464,40,464z M320,16v152c0,13.6-10.4,24-24,24H144V16H320z M128,16v176H72   c-13.6,0-24-10.4-24-24V16H128z M16,40c0-10.4,6.4-19.2,16-22.4V168c0,22.4,17.6,40,40,40h224c22.4,0,40-17.6,40-40V16h10.4   c6.4,0,12.8,2.4,16.8,7.2l77.6,77.6c4.8,4.8,7.2,10.4,7.2,16.8V424c0,13.6-10.4,24-24,24H40c-13.6,0-24-10.4-24-24V40z" data-original="#322153" class=""/>
	<path style="fill:#322153" d="M280,176c13.6,0,24-10.4,24-24V56c0-13.6-10.4-24-24-24s-24,10.4-24,24v96   C256,165.6,266.4,176,280,176z M272,56c0-4.8,3.2-8,8-8s8,3.2,8,8v96c0,4.8-3.2,8-8,8s-8-3.2-8-8V56z" data-original="#322153" class=""/>
	<path style="fill:#322153" d="M72,272h224c4.8,0,8-3.2,8-8s-3.2-8-8-8H72c-4.8,0-8,3.2-8,8S67.2,272,72,272z" data-original="#322153" class=""/>
	<path style="fill:#322153" d="M72,400h320c4.8,0,8-3.2,8-8s-3.2-8-8-8H72c-4.8,0-8,3.2-8,8S67.2,400,72,400z" data-original="#322153" class=""/>
	<path style="fill:#322153" d="M328,272h64c4.8,0,8-3.2,8-8s-3.2-8-8-8h-64c-4.8,0-8,3.2-8,8S323.2,272,328,272z" data-original="#322153" class=""/>
	<path style="fill:#322153" d="M392,320H136c-4.8,0-8,3.2-8,8s3.2,8,8,8h256c4.8,0,8-3.2,8-8S396.8,320,392,320z" data-original="#322153" class=""/>
	<path style="fill:#322153" d="M72,336h32c4.8,0,8-3.2,8-8s-3.2-8-8-8H72c-4.8,0-8,3.2-8,8S67.2,336,72,336z" data-original="#322153" class=""/>
</g></g> </svg>
