<?xml version="1.0"?>
<svg xmlns="http://www.w3.org/2000/svg" xmlns:xlink="http://www.w3.org/1999/xlink" version="1.1" id="Capa_1" x="0px" y="0px" viewBox="0 0 464 464" style="enable-background:new 0 0 464 464;" xml:space="preserve" width="512px" height="512px"><g><rect x="8" y="56" style="fill:#C18B4C" width="96" height="288" data-original="#00F2A9" class="active-path" data-old_color="#00F2A9"/><g>
	<path style="fill:#322153" d="M424,208h-0.208c5.08-6.704,8.208-14.96,8.208-24c0-22.056-17.944-40-40-40h-0.016   c5.032-6.688,8.016-15,8.016-24c0-22.016-17.888-39.928-39.888-39.992c5.328-7.024,8.304-15.464,8.216-24.424   C368.104,33.76,350.168,16,328.328,16H194.504c-19.232,0-37.312,7.488-50.904,21.088l-31.6,31.6V24c0-4.424-3.576-8-8-8H8   c-4.424,0-8,3.576-8,8v288c0,4.424,3.576,8,8,8h96c4.424,0,8-3.576,8-8v-51.056l42.872,21.432   c4.616,2.32,8.432,6.136,10.744,10.744l23.848,47.696c1.664,3.32,2.536,7.032,2.536,10.736V408c0,22.056,17.944,40,40,40   s40-17.944,40-40v-96c0-13.232,10.768-24,24-24h128c22.056,0,40-17.944,40-40S446.056,208,424,208z M96,304H16V32h80V304z M424,272   H296c-22.056,0-40,17.944-40,40v96c0,13.232-10.768,24-24,24s-24-10.768-24-24v-56.448c0-6.168-1.464-12.36-4.216-17.888   l-23.856-47.712c-3.84-7.68-10.192-14.032-17.88-17.88L112,243.056V91.312L154.912,48.4c10.584-10.576,24.64-16.4,39.592-16.4   h133.824c13.104,0,23.864,10.656,24,23.752c0.072,6.456-2.4,12.536-6.936,17.136C340.84,77.472,334.792,80,328,80   c-4.424,0-8,3.576-8,8c0,4.424,3.576,8,8,8h32c13.232,0,24,10.768,24,24s-10.768,24-24,24c-4.424,0-8,3.576-8,8s3.576,8,8,8h32   c13.232,0,24,10.768,24,24s-10.768,24-24,24c-4.424,0-8,3.576-8,8c0,4.424,3.576,8,8,8h32c13.232,0,24,10.768,24,24   S437.232,272,424,272z" data-original="#322153" class="" data-old_color="#322153"/>
	<path style="fill:#322153" d="M72,56H40c-4.424,0-8,3.576-8,8s3.576,8,8,8h32c4.424,0,8-3.576,8-8S76.424,56,72,56z" data-original="#322153" class="" data-old_color="#322153"/>
	<path style="fill:#322153" d="M232,48h-18.744c-10.688,0-20.736,4.168-28.288,11.72l-22.624,22.624   c-3.128,3.128-3.128,8.184,0,11.312C163.904,95.216,165.952,96,168,96s4.096-0.784,5.656-2.344l22.624-22.624   C200.816,66.504,206.84,64,213.256,64H232c4.424,0,8-3.576,8-8S236.424,48,232,48z" data-original="#322153" class="" data-old_color="#322153"/>
</g></g> </svg>
