<?xml version="1.0" encoding="utf-8"?>
<svg x="0pt" y="0pt" width="1000pt" height="1000pt" viewBox="0 0 1000 1000" xmlns="http://www.w3.org/2000/svg" xmlns:xlink="http://www.w3.org/1999/xlink">
  <g id="1">
    <title>Layer 1</title>
    <g id="2">
      <title>Group</title>
      <g id="3">
        <title>Group</title>
        <g id="4">
          <title>Group</title>
          <defs>
            <title>Shape 12</title>
            <g id="5">
              <defs>
                <path id="6" d="M860.794,45.6591 C905.723,45.7036,944.352,77.5047,953.027,121.588 C953.773,126.115,952.477,130.74,949.489,134.221 C946.5,137.702,942.125,139.683,937.537,139.631 C880.632,139.631,823.727,139.631,766.822,139.631 C766.822,108.307,766.822,76.983,766.822,45.6591 z"/>
              </defs>
              <use xlink:href="#6" style="fill:#aa7942;fill-opacity:1;fill-rule:nonzero;opacity:1;stroke:none;"/>
            </g>
          </defs>
          <use xlink:href="#5"/>
          <linearGradient x1="799.496" y1="973.328" x2="156.973" y2="-92.235" gradientUnits="userSpaceOnUse" id="9">
            <stop style="stop-color:#c18a4b;stop-opacity:1;"/>
            <stop offset="1" style="stop-color:#f9ebd6;stop-opacity:1;"/>
          </linearGradient>
          <defs>
            <title>Shape 13</title>
            <g id="7">
              <defs>
                <path id="8" d="M140.344,954.052 C140.344,682.578,140.344,411.105,140.344,139.631 C140.344,87.7316,182.417,45.6591,234.316,45.6591 C443.142,45.6591,651.968,45.6591,860.794,45.6591 C808.895,45.6591,766.822,87.7316,766.822,139.631 C766.822,379.781,766.822,619.93,766.822,860.08 C766.822,911.979,724.75,954.052,672.85,954.052 z"/>
              </defs>
              <use xlink:href="#8" style="fill:url(#9);fill-opacity:1;fill-rule:nonzero;opacity:1;stroke:none;"/>
            </g>
          </defs>
          <use xlink:href="#7"/>
          <g id="10">
            <title>Group</title>
            <linearGradient x1="424.6" y1="683.868" x2="445.863" y2="167.029" gradientUnits="userSpaceOnUse" id="13">
              <stop style="stop-color:#aa7942;stop-opacity:1;"/>
              <stop offset="1" style="stop-color:#c18a4b;stop-opacity:1;"/>
            </linearGradient>
            <defs>
              <title>Shape 14</title>
              <g id="11">
                <defs>
                  <path id="12" d="M672.85,249.264 C526.672,249.264,380.494,249.264,234.316,249.264 C225.666,249.264,218.654,242.252,218.654,233.602 C218.654,224.953,225.666,217.941,234.316,217.941 C380.494,217.941,526.672,217.941,672.85,217.941 C681.5,217.941,688.512,224.953,688.512,233.602 C688.512,242.252,681.5,249.264,672.85,249.264 z"/>
                </defs>
                <use xlink:href="#12" style="fill:url(#13);fill-opacity:1;fill-rule:nonzero;opacity:1;stroke:none;"/>
              </g>
            </defs>
            <use xlink:href="#11"/>
            <linearGradient x1="424.6" y1="683.865" x2="445.863" y2="167.029" gradientUnits="userSpaceOnUse" id="16">
              <stop style="stop-color:#aa7942;stop-opacity:1;"/>
              <stop offset="1" style="stop-color:#c18a4b;stop-opacity:1;"/>
            </linearGradient>
            <defs>
              <title>Shape 15</title>
              <g id="14">
                <defs>
                  <path id="15" d="M672.85,311.912 C526.672,311.912,380.494,311.912,234.316,311.912 C225.666,311.912,218.654,304.9,218.654,296.25 C218.654,287.6,225.666,280.588,234.316,280.588 C380.494,280.588,526.672,280.588,672.85,280.588 C681.5,280.588,688.512,287.6,688.512,296.25 C688.512,304.9,681.5,311.912,672.85,311.912 z"/>
                </defs>
                <use xlink:href="#15" style="fill:url(#16);fill-opacity:1;fill-rule:nonzero;opacity:1;stroke:none;"/>
              </g>
            </defs>
            <use xlink:href="#14"/>
            <linearGradient x1="424.6" y1="683.868" x2="445.863" y2="167.029" gradientUnits="userSpaceOnUse" id="19">
              <stop style="stop-color:#aa7942;stop-opacity:1;"/>
              <stop offset="1" style="stop-color:#c18a4b;stop-opacity:1;"/>
            </linearGradient>
            <defs>
              <title>Shape 16</title>
              <g id="17">
                <defs>
                  <path id="18" d="M672.85,374.56 C526.672,374.56,380.494,374.56,234.316,374.56 C225.666,374.56,218.654,367.548,218.654,358.898 C218.654,350.248,225.666,343.236,234.316,343.236 C380.494,343.236,526.672,343.236,672.85,343.236 C681.5,343.236,688.512,350.248,688.512,358.898 C688.512,367.548,681.5,374.56,672.85,374.56 z"/>
                </defs>
                <use xlink:href="#18" style="fill:url(#19);fill-opacity:1;fill-rule:nonzero;opacity:1;stroke:none;"/>
              </g>
            </defs>
            <use xlink:href="#17"/>
            <linearGradient x1="424.6" y1="683.866" x2="445.863" y2="167.03" gradientUnits="userSpaceOnUse" id="22">
              <stop style="stop-color:#aa7942;stop-opacity:1;"/>
              <stop offset="1" style="stop-color:#c18a4b;stop-opacity:1;"/>
            </linearGradient>
            <defs>
              <title>Shape 17</title>
              <g id="20">
                <defs>
                  <path id="21" d="M672.85,531.18 C526.672,531.18,380.494,531.18,234.316,531.18 C225.666,531.18,218.654,524.167,218.654,515.518 C218.654,506.868,225.666,499.856,234.316,499.856 C380.494,499.856,526.672,499.856,672.85,499.856 C681.5,499.856,688.512,506.868,688.512,515.518 C688.512,524.167,681.5,531.18,672.85,531.18 z"/>
                </defs>
                <use xlink:href="#21" style="fill:url(#22);fill-opacity:1;fill-rule:nonzero;opacity:1;stroke:none;"/>
              </g>
            </defs>
            <use xlink:href="#20"/>
            <linearGradient x1="424.6" y1="683.867" x2="445.863" y2="167.03" gradientUnits="userSpaceOnUse" id="25">
              <stop style="stop-color:#aa7942;stop-opacity:1;"/>
              <stop offset="1" style="stop-color:#c18a4b;stop-opacity:1;"/>
            </linearGradient>
            <defs>
              <title>Shape 18</title>
              <g id="23">
                <defs>
                  <path id="24" d="M672.85,593.827 C526.672,593.827,380.494,593.827,234.316,593.827 C225.666,593.827,218.654,586.815,218.654,578.165 C218.654,569.516,225.666,562.503,234.316,562.503 C380.494,562.503,526.672,562.503,672.85,562.503 C681.5,562.503,688.512,569.516,688.512,578.165 C688.512,586.815,681.5,593.827,672.85,593.827 z"/>
                </defs>
                <use xlink:href="#24" style="fill:url(#25);fill-opacity:1;fill-rule:nonzero;opacity:1;stroke:none;"/>
              </g>
            </defs>
            <use xlink:href="#23"/>
            <linearGradient x1="424.6" y1="683.866" x2="445.863" y2="167.03" gradientUnits="userSpaceOnUse" id="28">
              <stop style="stop-color:#aa7942;stop-opacity:1;"/>
              <stop offset="1" style="stop-color:#c18a4b;stop-opacity:1;"/>
            </linearGradient>
            <defs>
              <title>Shape 19</title>
              <g id="26">
                <defs>
                  <path id="27" d="M672.85,656.475 C526.672,656.475,380.494,656.475,234.316,656.475 C225.666,656.475,218.654,649.463,218.654,640.813 C218.654,632.163,225.666,625.151,234.316,625.151 C380.494,625.151,526.672,625.151,672.85,625.151 C681.5,625.151,688.512,632.163,688.512,640.813 C688.512,649.463,681.5,656.475,672.85,656.475 z"/>
                </defs>
                <use xlink:href="#27" style="fill:url(#28);fill-opacity:1;fill-rule:nonzero;opacity:1;stroke:none;"/>
              </g>
            </defs>
            <use xlink:href="#26"/>
          </g>
          <defs>
            <title>Shape 20</title>
            <g id="29">
              <defs>
                <path id="30" d="M343.95,155.293 C335.3,155.293,328.288,162.305,328.288,170.955 C328.288,187.577,328.288,204.2,328.288,220.822 C323.272,218.967,317.973,217.992,312.626,217.941 C286.676,217.941,265.64,238.977,265.64,264.926 C265.64,290.876,286.676,311.912,312.626,311.912 C338.575,311.912,359.611,290.876,359.611,264.926 C359.611,233.602,359.611,202.279,359.611,170.955 C359.611,162.305,352.599,155.293,343.95,155.293 z"/>
              </defs>
              <use xlink:href="#30" style="fill:#463664;fill-opacity:1;fill-rule:nonzero;opacity:1;stroke:none;"/>
            </g>
          </defs>
          <use xlink:href="#29"/>
          <defs>
            <title>Shape 21</title>
            <g id="31">
              <defs>
                <path id="32" d="M484.907,217.941 C476.257,217.941,469.245,224.953,469.245,233.602 C469.245,250.225,469.245,266.848,469.245,283.47 C464.229,281.615,458.931,280.64,453.583,280.588 C427.634,280.588,406.597,301.625,406.597,327.574 C406.597,353.524,427.634,374.56,453.583,374.56 C479.533,374.56,500.569,353.524,500.569,327.574 C500.569,296.25,500.569,264.926,500.569,233.602 C500.569,224.953,493.557,217.941,484.907,217.941 z"/>
              </defs>
              <use xlink:href="#32" style="fill:#463664;fill-opacity:1;fill-rule:nonzero;opacity:1;stroke:none;"/>
            </g>
          </defs>
          <use xlink:href="#31"/>
          <defs>
            <title>Shape 22</title>
            <g id="33">
              <defs>
                <path id="34" d="M343.95,437.208 C335.3,437.208,328.288,444.22,328.288,452.87 C328.288,469.492,328.288,486.115,328.288,502.737 C323.272,500.882,317.973,499.908,312.626,499.856 C286.676,499.856,265.64,520.892,265.64,546.841 C265.64,572.791,286.676,593.827,312.626,593.827 C338.575,593.827,359.611,572.791,359.611,546.841 C359.611,515.518,359.611,484.194,359.611,452.87 C359.611,444.22,352.599,437.208,343.95,437.208 z"/>
              </defs>
              <use xlink:href="#34" style="fill:#463664;fill-opacity:1;fill-rule:nonzero;opacity:1;stroke:none;"/>
            </g>
          </defs>
          <use xlink:href="#33"/>
          <defs>
            <title>Shape 23</title>
            <g id="35">
              <defs>
                <path id="36" d="M657.188,437.208 C648.539,437.208,641.527,444.22,641.527,452.87 C641.527,469.492,641.527,486.115,641.527,502.737 C636.511,500.882,631.212,499.908,625.865,499.856 C599.915,499.856,578.879,520.892,578.879,546.841 C578.879,572.791,599.915,593.827,625.865,593.827 C651.814,593.827,672.85,572.791,672.85,546.841 C672.85,515.518,672.85,484.194,672.85,452.87 C672.85,444.22,665.838,437.208,657.188,437.208 z"/>
              </defs>
              <use xlink:href="#36" style="fill:#463664;fill-opacity:1;fill-rule:nonzero;opacity:1;stroke:none;"/>
            </g>
          </defs>
          <use xlink:href="#35"/>
          <defs>
            <title>Shape 24</title>
            <g id="37">
              <defs>
                <path id="38" d="M484.907,499.856 C476.257,499.856,469.245,506.868,469.245,515.518 C469.245,532.14,469.245,548.763,469.245,565.385 C464.229,563.53,458.931,562.555,453.583,562.503 C427.634,562.503,406.597,583.54,406.597,609.489 C406.597,635.439,427.634,656.475,453.583,656.475 C479.533,656.475,500.569,635.439,500.569,609.489 C500.569,578.165,500.569,546.841,500.569,515.518 C500.569,506.868,493.557,499.856,484.907,499.856 z"/>
              </defs>
              <use xlink:href="#38" style="fill:#463664;fill-opacity:1;fill-rule:nonzero;opacity:1;stroke:none;"/>
            </g>
          </defs>
          <use xlink:href="#37"/>
          <defs>
            <title>Shape 25</title>
            <g id="39">
              <defs>
                <path id="40" d="M657.188,155.293 C648.539,155.293,641.527,162.305,641.527,170.955 C641.527,187.577,641.527,204.2,641.527,220.822 C636.511,218.967,631.212,217.992,625.865,217.941 C599.915,217.941,578.879,238.977,578.879,264.926 C578.879,290.876,599.915,311.912,625.865,311.912 C651.814,311.912,672.85,290.876,672.85,264.926 C672.85,233.602,672.85,202.279,672.85,170.955 C672.85,162.305,665.838,155.293,657.188,155.293 z"/>
              </defs>
              <use xlink:href="#40" style="fill:#463664;fill-opacity:1;fill-rule:nonzero;opacity:1;stroke:none;"/>
            </g>
          </defs>
          <use xlink:href="#39"/>
          <linearGradient x1="410.151" y1="952.136" x2="335.535" y2="769.827" gradientUnits="userSpaceOnUse" id="43">
            <stop style="stop-color:#c18a4b;stop-opacity:1;"/>
            <stop offset="1" style="stop-color:#ccc6b3;stop-opacity:1;"/>
          </linearGradient>
          <defs>
            <title>Shape 26</title>
            <g id="41">
              <defs>
                <path id="42" d="M672.85,954.052 C495.348,954.052,317.846,954.052,140.344,954.052 C88.4451,954.052,46.3725,911.979,46.3725,860.08 C46.3725,808.181,88.4451,766.109,140.344,766.109 C317.846,766.109,495.348,766.109,672.85,766.109 C620.951,766.109,578.879,808.181,578.879,860.08 C578.879,911.979,620.951,954.052,672.85,954.052 z"/>
              </defs>
              <use xlink:href="#42" style="fill:url(#43);fill-opacity:1;fill-rule:nonzero;opacity:1;stroke:none;"/>
            </g>
          </defs>
          <use xlink:href="#41"/>
        </g>
      </g>
    </g>
  </g>
</svg>
