<?xml version="1.0" encoding="utf-8"?>
<svg x="0pt" y="0pt" width="1000pt" height="1000pt" viewBox="0 0 1000 1000" xmlns="http://www.w3.org/2000/svg" xmlns:xlink="http://www.w3.org/1999/xlink">
  <g id="1">
    <title>Layer 1</title>
    <g id="2">
      <title>Group</title>
      <g id="3">
        <title>Group</title>
        <g id="4">
          <title>Group</title>
          <defs>
            <title>Shape 12</title>
            <g id="5">
              <defs>
                <path id="6" d="M885.695,14.7213 C933.698,14.7689,974.971,48.7463,984.24,95.8465 C985.036,100.683,983.652,105.625,980.459,109.344 C977.266,113.063,972.591,115.179,967.69,115.124 C906.891,115.124,846.091,115.124,785.292,115.124 C785.292,81.6563,785.292,48.1888,785.292,14.7213 z"/>
              </defs>
              <use xlink:href="#6" style="fill:#aa7a43;fill-opacity:1;fill-rule:nonzero;opacity:1;stroke:none;"/>
            </g>
          </defs>
          <use xlink:href="#5"/>
          <linearGradient x1="820.202" y1="1005.87" x2="133.708" y2="-132.61" gradientUnits="userSpaceOnUse" id="9">
            <stop style="stop-color:#c18b4c;stop-opacity:1;"/>
            <stop offset="1" style="stop-color:#faebd7;stop-opacity:1;"/>
          </linearGradient>
          <defs>
            <title>Shape 13</title>
            <g id="7">
              <defs>
                <path id="8" d="M115.942,985.279 C115.942,695.227,115.942,405.175,115.942,115.124 C115.942,59.673,160.894,14.7213,216.345,14.7213 C439.461,14.7213,662.578,14.7213,885.695,14.7213 C830.244,14.7213,785.292,59.673,785.292,115.124 C785.292,371.708,785.292,628.292,785.292,884.876 C785.292,940.327,740.34,985.279,684.89,985.279 z"/>
              </defs>
              <use xlink:href="#8" style="fill:url(#9);fill-opacity:1;fill-rule:nonzero;opacity:1;stroke:none;"/>
            </g>
          </defs>
          <use xlink:href="#7"/>
          <g id="10">
            <title>Group</title>
            <linearGradient x1="419.651" y1="696.603" x2="442.369" y2="144.397" gradientUnits="userSpaceOnUse" id="13">
              <stop style="stop-color:#aa7a43;stop-opacity:1;"/>
              <stop offset="1" style="stop-color:#c18b4c;stop-opacity:1;"/>
            </linearGradient>
            <defs>
              <title>Shape 14</title>
              <g id="11">
                <defs>
                  <path id="12" d="M684.89,232.26 C528.708,232.26,372.526,232.26,216.345,232.26 C207.103,232.26,199.611,224.768,199.611,215.526 C199.611,206.285,207.103,198.793,216.345,198.793 C372.526,198.793,528.708,198.793,684.89,198.793 C694.131,198.793,701.623,206.285,701.623,215.526 C701.623,224.768,694.131,232.26,684.89,232.26 z"/>
                </defs>
                <use xlink:href="#12" style="fill:url(#13);fill-opacity:1;fill-rule:nonzero;opacity:1;stroke:none;"/>
              </g>
            </defs>
            <use xlink:href="#11"/>
            <linearGradient x1="419.651" y1="696.603" x2="442.369" y2="144.397" gradientUnits="userSpaceOnUse" id="16">
              <stop style="stop-color:#aa7a43;stop-opacity:1;"/>
              <stop offset="1" style="stop-color:#c18b4c;stop-opacity:1;"/>
            </linearGradient>
            <defs>
              <title>Shape 15</title>
              <g id="14">
                <defs>
                  <path id="15" d="M684.89,299.195 C528.708,299.195,372.526,299.195,216.345,299.195 C207.103,299.195,199.611,291.703,199.611,282.461 C199.611,273.22,207.103,265.728,216.345,265.728 C372.526,265.728,528.708,265.728,684.89,265.728 C694.131,265.728,701.623,273.22,701.623,282.461 C701.623,291.703,694.131,299.195,684.89,299.195 z"/>
                </defs>
                <use xlink:href="#15" style="fill:url(#16);fill-opacity:1;fill-rule:nonzero;opacity:1;stroke:none;"/>
              </g>
            </defs>
            <use xlink:href="#14"/>
            <linearGradient x1="419.651" y1="696.603" x2="442.369" y2="144.397" gradientUnits="userSpaceOnUse" id="19">
              <stop style="stop-color:#aa7a43;stop-opacity:1;"/>
              <stop offset="1" style="stop-color:#c18b4c;stop-opacity:1;"/>
            </linearGradient>
            <defs>
              <title>Shape 16</title>
              <g id="17">
                <defs>
                  <path id="18" d="M684.89,366.13 C528.708,366.13,372.526,366.13,216.345,366.13 C207.103,366.13,199.611,358.638,199.611,349.396 C199.611,340.155,207.103,332.663,216.345,332.663 C372.526,332.663,528.708,332.663,684.89,332.663 C694.131,332.663,701.623,340.155,701.623,349.396 C701.623,358.638,694.131,366.13,684.89,366.13 z"/>
                </defs>
                <use xlink:href="#18" style="fill:url(#19);fill-opacity:1;fill-rule:nonzero;opacity:1;stroke:none;"/>
              </g>
            </defs>
            <use xlink:href="#17"/>
            <linearGradient x1="419.651" y1="696.603" x2="442.369" y2="144.397" gradientUnits="userSpaceOnUse" id="22">
              <stop style="stop-color:#aa7a43;stop-opacity:1;"/>
              <stop offset="1" style="stop-color:#c18b4c;stop-opacity:1;"/>
            </linearGradient>
            <defs>
              <title>Shape 17</title>
              <g id="20">
                <defs>
                  <path id="21" d="M684.89,533.468 C528.708,533.468,372.526,533.468,216.345,533.468 C207.103,533.468,199.611,525.976,199.611,516.734 C199.611,507.492,207.103,500,216.345,500 C372.526,500,528.708,500,684.89,500 C694.131,500,701.623,507.492,701.623,516.734 C701.623,525.976,694.131,533.468,684.89,533.468 z"/>
                </defs>
                <use xlink:href="#21" style="fill:url(#22);fill-opacity:1;fill-rule:nonzero;opacity:1;stroke:none;"/>
              </g>
            </defs>
            <use xlink:href="#20"/>
            <linearGradient x1="419.651" y1="696.603" x2="442.369" y2="144.397" gradientUnits="userSpaceOnUse" id="25">
              <stop style="stop-color:#aa7a43;stop-opacity:1;"/>
              <stop offset="1" style="stop-color:#c18b4c;stop-opacity:1;"/>
            </linearGradient>
            <defs>
              <title>Shape 18</title>
              <g id="23">
                <defs>
                  <path id="24" d="M684.89,600.403 C528.708,600.403,372.526,600.403,216.345,600.403 C207.103,600.403,199.611,592.911,199.611,583.669 C199.611,574.427,207.103,566.935,216.345,566.935 C372.526,566.935,528.708,566.935,684.89,566.935 C694.131,566.935,701.623,574.427,701.623,583.669 C701.623,592.911,694.131,600.403,684.89,600.403 z"/>
                </defs>
                <use xlink:href="#24" style="fill:url(#25);fill-opacity:1;fill-rule:nonzero;opacity:1;stroke:none;"/>
              </g>
            </defs>
            <use xlink:href="#23"/>
            <linearGradient x1="419.651" y1="696.603" x2="442.369" y2="144.397" gradientUnits="userSpaceOnUse" id="28">
              <stop style="stop-color:#aa7a43;stop-opacity:1;"/>
              <stop offset="1" style="stop-color:#c18b4c;stop-opacity:1;"/>
            </linearGradient>
            <defs>
              <title>Shape 19</title>
              <g id="26">
                <defs>
                  <path id="27" d="M684.89,667.337 C528.708,667.337,372.526,667.337,216.345,667.337 C207.103,667.337,199.611,659.846,199.611,650.604 C199.611,641.362,207.103,633.87,216.345,633.87 C372.526,633.87,528.708,633.87,684.89,633.87 C694.131,633.87,701.623,641.362,701.623,650.604 C701.623,659.846,694.131,667.337,684.89,667.337 z"/>
                </defs>
                <use xlink:href="#27" style="fill:url(#28);fill-opacity:1;fill-rule:nonzero;opacity:1;stroke:none;"/>
              </g>
            </defs>
            <use xlink:href="#26"/>
          </g>
          <defs>
            <title>Shape 20</title>
            <g id="29">
              <defs>
                <path id="30" d="M333.481,131.858 C324.239,131.858,316.747,139.35,316.747,148.591 C316.747,166.351,316.747,184.111,316.747,201.872 C311.388,199.89,305.727,198.848,300.013,198.793 C272.288,198.793,249.812,221.268,249.812,248.994 C249.812,276.719,272.288,299.195,300.013,299.195 C327.739,299.195,350.215,276.719,350.215,248.994 C350.215,215.526,350.215,182.059,350.215,148.591 C350.215,139.35,342.723,131.858,333.481,131.858 z"/>
              </defs>
              <use xlink:href="#30" style="fill:#473764;fill-opacity:1;fill-rule:nonzero;opacity:1;stroke:none;"/>
            </g>
          </defs>
          <use xlink:href="#29"/>
          <defs>
            <title>Shape 21</title>
            <g id="31">
              <defs>
                <path id="32" d="M484.085,198.793 C474.843,198.793,467.351,206.285,467.351,215.526 C467.351,233.286,467.351,251.046,467.351,268.807 C461.992,266.825,456.331,265.783,450.617,265.728 C422.892,265.728,400.416,288.203,400.416,315.929 C400.416,343.654,422.892,366.13,450.617,366.13 C478.342,366.13,500.818,343.654,500.818,315.929 C500.818,282.461,500.818,248.994,500.818,215.526 C500.818,206.285,493.326,198.793,484.085,198.793 z"/>
              </defs>
              <use xlink:href="#32" style="fill:#473764;fill-opacity:1;fill-rule:nonzero;opacity:1;stroke:none;"/>
            </g>
          </defs>
          <use xlink:href="#31"/>
          <defs>
            <title>Shape 22</title>
            <g id="33">
              <defs>
                <path id="34" d="M333.481,433.065 C324.239,433.065,316.747,440.557,316.747,449.799 C316.747,467.559,316.747,485.319,316.747,503.079 C311.388,501.097,305.727,500.055,300.013,500 C272.288,500,249.812,522.476,249.812,550.201 C249.812,577.927,272.288,600.403,300.013,600.403 C327.739,600.403,350.215,577.927,350.215,550.201 C350.215,516.734,350.215,483.266,350.215,449.799 C350.215,440.557,342.723,433.065,333.481,433.065 z"/>
              </defs>
              <use xlink:href="#34" style="fill:#473764;fill-opacity:1;fill-rule:nonzero;opacity:1;stroke:none;"/>
            </g>
          </defs>
          <use xlink:href="#33"/>
          <defs>
            <title>Shape 23</title>
            <g id="35">
              <defs>
                <path id="36" d="M668.156,433.065 C658.914,433.065,651.422,440.557,651.422,449.799 C651.422,467.559,651.422,485.319,651.422,503.079 C646.063,501.097,640.402,500.055,634.688,500 C606.963,500,584.487,522.476,584.487,550.201 C584.487,577.927,606.963,600.403,634.688,600.403 C662.414,600.403,684.89,577.927,684.89,550.201 C684.89,516.734,684.89,483.266,684.89,449.799 C684.89,440.557,677.398,433.065,668.156,433.065 z"/>
              </defs>
              <use xlink:href="#36" style="fill:#473764;fill-opacity:1;fill-rule:nonzero;opacity:1;stroke:none;"/>
            </g>
          </defs>
          <use xlink:href="#35"/>
          <defs>
            <title>Shape 24</title>
            <g id="37">
              <defs>
                <path id="38" d="M484.085,500 C474.843,500,467.351,507.492,467.351,516.734 C467.351,534.494,467.351,552.254,467.351,570.014 C461.992,568.032,456.331,566.99,450.617,566.935 C422.892,566.935,400.416,589.411,400.416,617.136 C400.416,644.862,422.892,667.337,450.617,667.337 C478.342,667.337,500.818,644.862,500.818,617.136 C500.818,583.669,500.818,550.201,500.818,516.734 C500.818,507.492,493.326,500,484.085,500 z"/>
              </defs>
              <use xlink:href="#38" style="fill:#473764;fill-opacity:1;fill-rule:nonzero;opacity:1;stroke:none;"/>
            </g>
          </defs>
          <use xlink:href="#37"/>
          <defs>
            <title>Shape 25</title>
            <g id="39">
              <defs>
                <path id="40" d="M668.156,131.858 C658.914,131.858,651.422,139.35,651.422,148.591 C651.422,166.351,651.422,184.111,651.422,201.872 C646.063,199.89,640.402,198.848,634.688,198.793 C606.963,198.793,584.487,221.268,584.487,248.994 C584.487,276.719,606.963,299.195,634.688,299.195 C662.414,299.195,684.89,276.719,684.89,248.994 C684.89,215.526,684.89,182.059,684.89,148.591 C684.89,139.35,677.398,131.858,668.156,131.858 z"/>
              </defs>
              <use xlink:href="#40" style="fill:#473764;fill-opacity:1;fill-rule:nonzero;opacity:1;stroke:none;"/>
            </g>
          </defs>
          <use xlink:href="#39"/>
          <linearGradient x1="404.213" y1="983.232" x2="324.491" y2="788.447" gradientUnits="userSpaceOnUse" id="43">
            <stop style="stop-color:#c18b4c;stop-opacity:1;"/>
            <stop offset="1" style="stop-color:#ccc7b4;stop-opacity:1;"/>
          </linearGradient>
          <defs>
            <title>Shape 26</title>
            <g id="41">
              <defs>
                <path id="42" d="M684.89,985.279 C495.24,985.279,305.591,985.279,115.942,985.279 C60.4914,985.279,15.5396,940.327,15.5396,884.876 C15.5396,829.425,60.4913,784.474,115.942,784.474 C305.591,784.474,495.24,784.474,684.89,784.474 C629.439,784.474,584.487,829.425,584.487,884.876 C584.487,940.327,629.439,985.279,684.89,985.279 z"/>
              </defs>
              <use xlink:href="#42" style="fill:url(#43);fill-opacity:1;fill-rule:nonzero;opacity:1;stroke:none;"/>
            </g>
          </defs>
          <use xlink:href="#41"/>
        </g>
      </g>
    </g>
  </g>
</svg>
