<svg xmlns="http://www.w3.org/2000/svg" xmlns:xlink="http://www.w3.org/1999/xlink" xml:space="preserve" version="1.1" style="shape-rendering:geometricPrecision;text-rendering:geometricPrecision;image-rendering:optimizeQuality;" viewBox="0 0 10567 10567" x="0px" y="0px" fill-rule="evenodd" clip-rule="evenodd"><defs><style type="text/css">
   
    .fil0 {fill:#fff}
   
  </style></defs><g><path class="fil0" d="M2962 8519l466 0 0 -863c-896,-96 -1700,-499 -2304,-1103 -694,-694 -1124,-1654 -1124,-2714 0,-1060 430,-2020 1124,-2715 695,-694 1655,-1124 2715,-1124 1060,0 2020,430 2714,1124 86,86 168,176 246,270 -278,17 -554,61 -825,130 -561,-517 -1311,-834 -2135,-834 -870,0 -1657,353 -2227,922 -569,570 -922,1357 -922,2227 0,869 353,1657 922,2226 570,570 1357,923 2227,923 676,0 1303,-214 1817,-577 274,93 557,159 842,196 -597,574 -1379,956 -2248,1049l0 863 466 0 0 4883c0,482 -395,877 -877,877l0 0c-483,0 -877,-395 -877,-877l0 -4883zm591 -4504c1462,-2859 5497,-2966 7014,0 -1517,2966 -5552,2859 -7014,0zm4216 -1564c358,232 595,635 595,1094 0,720 -584,1303 -1304,1303 -720,0 -1304,-583 -1304,-1303 0,-26 1,-50 2,-75 97,88 226,143 367,143 300,0 543,-244 543,-544 0,-263 -187,-482 -436,-532 37,-30 75,-58 114,-84 -853,186 -1647,708 -2168,1562 1328,2175 4425,2196 5764,0 -525,-861 -1320,-1381 -2173,-1564z"/></g>

  </svg>