<?xml version="1.0"?>
<svg xmlns="http://www.w3.org/2000/svg" xmlns:xlink="http://www.w3.org/1999/xlink" version="1.1" id="Capa_1" x="0px" y="0px" viewBox="0 0 464 464" style="enable-background:new 0 0 464 464;" xml:space="preserve" width="512px" height="512px" class=""><g><path style="fill:#FFB9B9" d="M200,424c106.04,0,192-85.96,192-192S306.04,40,200,40S8,125.96,8,232S93.96,424,200,424z M200,72  c88.368,0,160,71.632,160,160s-71.632,160-160,160S40,320.368,40,232S111.632,72,200,72z" data-original="#00F2A9" class="" data-old_color="#00F2A9"/><g>
	<path style="fill:#322153" d="M200,32c-92.632,0-168,75.36-168,168c0,92.632,75.368,168,168,168s168-75.368,168-168   C368,107.36,292.632,32,200,32z M200,352c-83.816,0-152-68.184-152-152S116.184,48,200,48s152,68.184,152,152S283.816,352,200,352z   " data-original="#322153" class="active-path"/>
	<path style="fill:#322153" d="M104,176c2.048,0,4.096-0.784,5.656-2.344l64-64c3.128-3.128,3.128-8.184,0-11.312   s-8.184-3.128-11.312,0l-64,64c-3.128,3.128-3.128,8.184,0,11.312C99.904,175.216,101.952,176,104,176z" data-original="#322153" class="active-path"/>
	<path style="fill:#322153" d="M226.344,98.344l-128,128c-3.128,3.128-3.128,8.184,0,11.312c1.56,1.56,3.608,2.344,5.656,2.344   c2.048,0,4.096-0.784,5.656-2.344l128-128c3.128-3.128,3.128-8.184,0-11.312S229.472,95.216,226.344,98.344z" data-original="#322153" class="active-path"/>
	<path style="fill:#322153" d="M452.28,376.968l-78.376-78.376C390.48,269.472,400,235.84,400,200C400,89.72,310.28,0,200,0   S0,89.72,0,200s89.72,200,200,200c35.84,0,69.472-9.52,98.592-26.096l78.376,78.376c7.552,7.552,17.6,11.72,28.288,11.72H424   c22.056,0,40-17.944,40-40v-18.744C464,394.568,459.832,384.52,452.28,376.968z M16,200C16,98.544,98.536,16,200,16   s184,82.544,184,184c0,101.464-82.536,184-184,184S16,301.464,16,200z M448,424c0,13.232-10.768,24-24,24h-18.744   c-6.416,0-12.448-2.504-16.976-7.032l-75.736-75.736c20.672-14.128,38.56-32.016,52.688-52.688l75.736,75.736   c4.528,4.544,7.032,10.56,7.032,16.976V424z" data-original="#322153" class="active-path"/>
</g></g> </svg>
