<?xml version="1.0" encoding="utf-8"?>
<!-- Generator: Adobe Illustrator 25.2.0, SVG Export Plug-In . SVG Version: 6.00 Build 0)  -->
<svg version="1.1" id="Layer_1" xmlns="http://www.w3.org/2000/svg" xmlns:xlink="http://www.w3.org/1999/xlink" x="0px" y="0px"
	 viewBox="0 0 1000 1000" style="enable-background:new 0 0 1000 1000;" xml:space="preserve">
<style type="text/css">
	.st0{fill-rule:evenodd;clip-rule:evenodd;fill:url(#_x33__2_);}
	.st1{fill:none;}
	.st2{fill:#40413E;}
	.st3{fill:#CCC7B4;}
	.st4{fill:#FFFEFE;}
	.st5{fill-rule:evenodd;clip-rule:evenodd;fill:#473764;}
</style>
<g id="_x31_">
	<g>
		<g id="_x32_">
			<g>
				
					<linearGradient id="_x33__2_" gradientUnits="userSpaceOnUse" x1="930.6795" y1="-200.1922" x2="-111.7698" y2="532.7087" gradientTransform="matrix(1 0 0 -1 0 999)">
					<stop  offset="0" style="stop-color:#C18B4C"/>
					<stop  offset="1" style="stop-color:#FAEBD7"/>
				</linearGradient>
				<path id="_x33_" class="st0" d="M-47,43.8L1009.6-7.5l87,1791.4L40,1835.2L-47,43.8z"/>
			</g>
			<g>
				<path id="_x33__1_" class="st1" d="M-47,43.8L1009.6-7.5l87,1791.4L40,1835.2L-47,43.8z"/>
			</g>
		</g>
	</g>
	<g>
		<g id="_x35_">
			<g>
				<path id="_x36_" class="st2" d="M1038.2,19.9c0.2,4.4-3.2,8.2-7.6,8.4L-64.5,81.5c-4.4,0.2-8.2-3.2-8.4-7.6l-1-20.8
					c-0.2-4.4,3.2-8.2,7.6-8.4L1028.8-8.5c4.4-0.2,8.2,3.2,8.4,7.6L1038.2,19.9z"/>
			</g>
			<g>
				<path id="_x36__1_" class="st1" d="M1038.2,19.9c0.2,4.4-3.2,8.2-7.6,8.4L-64.5,81.5c-4.4,0.2-8.2-3.2-8.4-7.6l-1-20.8
					c-0.2-4.4,3.2-8.2,7.6-8.4L1028.8-8.5c4.4-0.2,8.2,3.2,8.4,7.6L1038.2,19.9z"/>
			</g>
		</g>
	</g>
	<g>
		<g id="_x37_">
			<g>
				<path id="_x38_" class="st3" d="M-47,43.8L1009.6-7.5c0,0-18.6-323.7,153.7-373.2L574.7-1620.1c0,0-892.9-272.7-1004.9,267.1
					C-542.1-813.1-47,43.8-47,43.8z"/>
			</g>
		</g>
	</g>
	<g>
		<g id="_x39_">
			<g>
				<path id="_x31_0" class="st4" d="M656,1939.3c0.2,4.4-3.2,8.2-7.6,8.4l-1.2,0.1c-4.4,0.2-8.2-3.2-8.4-7.6L499.7-922.5
					c-0.2-4.4,3.2-8.2,7.6-8.4l1.2-0.1c4.4-0.2,8.2,3.2,8.4,7.6L656,1939.3z"/>
			</g>
			<g>
				<path id="_x31_0_1_" class="st1" d="M656,1939.3c0.2,4.4-3.2,8.2-7.6,8.4l-1.2,0.1c-4.4,0.2-8.2-3.2-8.4-7.6L499.7-922.5
					c-0.2-4.4,3.2-8.2,7.6-8.4l1.2-0.1c4.4-0.2,8.2,3.2,8.4,7.6L656,1939.3z"/>
			</g>
		</g>
	</g>
	<g>
		<g id="_x31_1">
			<g>
				<path id="_x31_2" class="st4" d="M840.3,1930.3c0.2,4.4-3.2,8.2-7.6,8.4l-1.2,0.1c-4.4,0.2-8.2-3.2-8.4-7.6l-135-2778.3
					c-0.2-4.4,3.2-8.2,7.6-8.4l1.2-0.1c4.4-0.2,8.2,3.2,8.4,7.6L840.3,1930.3z"/>
			</g>
			<g>
				<path id="_x31_2_1_" class="st1" d="M840.3,1930.3c0.2,4.4-3.2,8.2-7.6,8.4l-1.2,0.1c-4.4,0.2-8.2-3.2-8.4-7.6l-135-2778.3
					c-0.2-4.4,3.2-8.2,7.6-8.4l1.2-0.1c4.4-0.2,8.2,3.2,8.4,7.6L840.3,1930.3z"/>
			</g>
		</g>
	</g>
	<g>
		<g id="_x31_3">
			<g>
				<path id="_x31_4" class="st4" d="M1048.5,1920.2c0.2,4.4-3.2,8.2-7.6,8.4l-1.2,0.1c-4.4,0.2-8.2-3.2-8.4-7.6L900.4-772.4
					c-0.2-4.4,3.2-8.2,7.6-8.4l1.2-0.1c4.4-0.2,8.2,3.2,8.4,7.6L1048.5,1920.2z"/>
			</g>
			<g>
				<path id="_x31_4_1_" class="st1" d="M1048.5,1920.2c0.2,4.4-3.2,8.2-7.6,8.4l-1.2,0.1c-4.4,0.2-8.2-3.2-8.4-7.6L900.4-772.4
					c-0.2-4.4,3.2-8.2,7.6-8.4l1.2-0.1c4.4-0.2,8.2,3.2,8.4,7.6L1048.5,1920.2z"/>
			</g>
		</g>
	</g>
	<g>
		<g id="_x31_5">
			<g>
				<path id="_x31_6" class="st4" d="M97.5,1966.4c0.2,4.4-3.2,8.2-7.6,8.4l-1.2,0.1c-4.4,0.2-8.2-3.2-8.4-7.6L-53.1-778.5
					c-0.2-4.4,3.2-8.2,7.6-8.4l1.2-0.1c4.4-0.2,8.2,3.2,8.4,7.6L97.5,1966.4z"/>
			</g>
			<g>
				<path id="_x31_6_1_" class="st1" d="M97.5,1966.4c0.2,4.4-3.2,8.2-7.6,8.4l-1.2,0.1c-4.4,0.2-8.2-3.2-8.4-7.6L-53.1-778.5
					c-0.2-4.4,3.2-8.2,7.6-8.4l1.2-0.1c4.4-0.2,8.2,3.2,8.4,7.6L97.5,1966.4z"/>
			</g>
		</g>
	</g>
	<g>
		<g id="_x31_7">
			<g>
				<path id="_x31_8" class="st4" d="M264.8,1939.6c0.2,4.4-3.2,8.2-7.6,8.4l-1.2,0.1c-4.4,0.2-8.2-3.2-8.4-7.6L112.2-846
					c-0.2-4.4,3.2-8.2,7.6-8.4l1.2-0.1c4.4-0.2,8.2,3.2,8.4,7.6L264.8,1939.6z"/>
			</g>
			<g>
				<path id="_x31_8_1_" class="st1" d="M264.8,1939.6c0.2,4.4-3.2,8.2-7.6,8.4l-1.2,0.1c-4.4,0.2-8.2-3.2-8.4-7.6L112.2-846
					c-0.2-4.4,3.2-8.2,7.6-8.4l1.2-0.1c4.4-0.2,8.2,3.2,8.4,7.6L264.8,1939.6z"/>
			</g>
		</g>
	</g>
	<g>
		<g id="_x31_9">
			<g>
				<path id="_x32_0" class="st4" d="M467.6,1962.5c0.2,4.4-3.2,8.2-7.6,8.4l-1.2,0.1c-4.4,0.2-8.2-3.2-8.4-7.6l-137-2819.1
					c-0.2-4.4,3.2-8.2,7.6-8.4l1.2-0.1c4.4-0.2,8.2,3.2,8.4,7.6L467.6,1962.5z"/>
			</g>
			<g>
				<path id="_x32_0_1_" class="st1" d="M467.6,1962.5c0.2,4.4-3.2,8.2-7.6,8.4l-1.2,0.1c-4.4,0.2-8.2-3.2-8.4-7.6l-137-2819.1
					c-0.2-4.4,3.2-8.2,7.6-8.4l1.2-0.1c4.4-0.2,8.2,3.2,8.4,7.6L467.6,1962.5z"/>
			</g>
		</g>
	</g>
</g>
<g id="_x32_1">
	<g>
		<g id="_x32_2">
			<g>
				<path id="_x32_3" class="st5" d="M200.2,736.7c56.7,0,102.7,46,102.7,102.7S256.9,942,200.2,942S97.5,896,97.5,839.3
					S143.5,736.7,200.2,736.7z"/>
			</g>
		</g>
	</g>
	<g>
		<g id="_x32_4">
			<g>
				<path id="_x32_5" class="st5" d="M405.5,717.7c56.7,0,102.7,46,102.7,102.7S462.2,923,405.5,923s-102.7-46-102.7-102.7
					S348.8,717.7,405.5,717.7z"/>
			</g>
		</g>
	</g>
	<g>
		<g id="_x32_6">
			<g>
				<path id="_x32_7" class="st5" d="M748.3,192.4c56.7,0,102.7,46,102.7,102.7s-46,102.7-102.7,102.7s-102.7-46-102.7-102.7
					S691.6,192.4,748.3,192.4z"/>
			</g>
		</g>
	</g>
</g>
</svg>
