<?xml version="1.0"?>
<svg xmlns="http://www.w3.org/2000/svg" xmlns:xlink="http://www.w3.org/1999/xlink" version="1.1" id="Capa_1" x="0px" y="0px" viewBox="0 0 487.999 487.999" style="enable-background:new 0 0 487.999 487.999;" xml:space="preserve" width="512px" height="512px"><g><g>
	<path style="fill:#C18B4C" d="M437.375,424h-33.376v32c0,18.712,16.056,33.672,35.144,31.848   c16.64-1.584,28.856-16.512,28.856-33.224C467.999,437.712,454.287,424,437.375,424z" data-original="#00F2A9" class="active-path" data-old_color="#00F2A9"/>
	<path style="fill:#C18B4C" d="M339.999,392V136c0,0,0-24.336,0-32h-64v288c0,17.672,14.328,32,32,32S339.999,409.672,339.999,392z   " data-original="#00F2A9" class="active-path" data-old_color="#00F2A9"/>
</g><g>
	<path style="fill:#322153" d="M51.999,48h96c4.424,0,8-3.576,8-8s-3.576-8-8-8h-96c-4.424,0-8,3.576-8,8S47.575,48,51.999,48z" data-original="#322153" class="" data-old_color="#322153"/>
	<path style="fill:#322153" d="M51.999,112h160c4.424,0,8-3.576,8-8s-3.576-8-8-8h-160c-4.424,0-8,3.576-8,8   C43.999,108.424,47.575,112,51.999,112z" data-original="#322153" class="" data-old_color="#322153"/>
	<path style="fill:#322153" d="M51.999,144h160c4.424,0,8-3.576,8-8s-3.576-8-8-8h-160c-4.424,0-8,3.576-8,8S47.575,144,51.999,144   z" data-original="#322153" class="" data-old_color="#322153"/>
	<path style="fill:#322153" d="M75.999,200c0,4.424,3.576,8,8,8h160c4.424,0,8-3.576,8-8s-3.576-8-8-8h-160   C79.575,192,75.999,195.576,75.999,200z" data-original="#322153" class="" data-old_color="#322153"/>
	<path style="fill:#322153" d="M51.999,272h192c4.424,0,8-3.576,8-8s-3.576-8-8-8h-192c-4.424,0-8,3.576-8,8S47.575,272,51.999,272   z" data-original="#322153" class="" data-old_color="#322153"/>
	<path style="fill:#322153" d="M51.999,304h192c4.424,0,8-3.576,8-8s-3.576-8-8-8h-192c-4.424,0-8,3.576-8,8S47.575,304,51.999,304   z" data-original="#322153" class="" data-old_color="#322153"/>
	<path style="fill:#322153" d="M251.999,328c0-4.424-3.576-8-8-8h-192c-4.424,0-8,3.576-8,8s3.576,8,8,8h192   C248.423,336,251.999,332.424,251.999,328z" data-original="#322153" class="" data-old_color="#322153"/>
	<path style="fill:#322153" d="M371.999,416h-192c-4.424,0-8,3.576-8,8s3.576,8,8,8h192c4.424,0,8-3.576,8-8   S376.423,416,371.999,416z" data-original="#322153" class="" data-old_color="#322153"/>
	<path style="fill:#322153" d="M437.375,384h-25.376V105.376c0-21.168-15.856-39.256-36.104-41.184   c-0.96-0.096-1.904,0.048-2.856,0.024c-0.352-0.056-0.672-0.216-1.04-0.216h-88V40c0-22.056-17.944-40-40-40h-192   c-22.056,0-40,17.944-40,40v320c0,22.056,17.944,40,40,40h88v24c0,22.056,17.944,40,40,40h256c0.008,0,0.016,0,0.024,0   c0.016,0,0.032,0,0.056,0c1.272,0,2.544-0.064,3.824-0.184c20.24-1.936,36.096-20.016,36.096-41.192   C475.999,401.328,458.671,384,437.375,384z M339.303,80c-3.216,4.768-5.08,9.976-6.152,14.832c-0.152,0.624-0.272,1.248-0.384,1.88   c-0.464,2.616-0.768,5.128-0.768,7.288v254.624c0,9.72-5.304,18.36-13.032,22.6c-0.064,0.032-0.12,0.064-0.184,0.096   c-0.968,0.52-2,0.904-3.04,1.28c-0.624,0.216-1.248,0.424-1.896,0.592c-0.696,0.184-1.416,0.312-2.136,0.432   c-0.824,0.128-1.656,0.208-2.504,0.256c-0.904,0.04-1.792,0.024-2.68-0.024c-0.752-0.048-1.488-0.112-2.216-0.224   c-0.864-0.136-1.704-0.328-2.544-0.552c-0.76-0.208-1.512-0.416-2.24-0.696c-0.736-0.28-1.448-0.624-2.16-0.976   c-0.728-0.368-1.464-0.728-2.144-1.168c-0.688-0.432-1.336-0.944-1.976-1.456c-0.608-0.48-1.24-0.944-1.8-1.488   c-0.64-0.608-1.192-1.296-1.752-1.968c-0.456-0.544-0.952-1.064-1.36-1.648c-0.592-0.848-1.064-1.768-1.536-2.688   c-0.256-0.496-0.568-0.952-0.792-1.456c-0.52-1.208-0.896-2.472-1.216-3.752c-0.072-0.296-0.208-0.56-0.264-0.856   c-0.344-1.608-0.528-3.256-0.528-4.928V80H339.303z M27.999,360V40c0-13.232,10.768-24,24-24h192c13.232,0,24,10.768,24,24v32v288   c0,2.816,0.312,5.568,0.864,8.224c0.104,0.512,0.336,0.984,0.464,1.496c0.536,2.12,1.144,4.208,2,6.184   c0.376,0.864,0.912,1.64,1.344,2.48c0.792,1.512,1.56,3.032,2.536,4.424c0.288,0.408,0.584,0.8,0.888,1.2H147.999h-96   C38.767,384,27.999,373.232,27.999,360z M155.999,424v-24h151.584c0.096,0,0.184,0,0.28,0h0.136c0.04,0,0.08-0.016,0.12-0.016   c1.256-0.008,2.52-0.048,3.776-0.176c0.736-0.072,1.416-0.312,2.136-0.424c1.264-0.192,2.504-0.424,3.728-0.736   c1.08-0.28,2.12-0.616,3.16-0.984c1.616-0.56,3.176-1.184,4.688-1.936c0.344-0.176,0.672-0.36,1.008-0.544   c12.656-6.728,21.384-19.888,21.384-35.184v-1.376V104.048c0-0.016,0-0.048,0-0.064c0.008-6.744,2.872-13.208,7.856-17.744   c5.072-4.608,11.608-6.744,18.52-6.128c12.128,1.152,21.624,12.256,21.624,25.264V392v32c0,8.72,2.928,17.12,8.104,24H179.999   C166.767,448,155.999,437.232,155.999,424z M438.383,447.888c-6.912,0.6-13.464-1.52-18.52-6.128   c-5-4.536-7.864-11.008-7.864-17.76v-24h25.376c12.472,0,22.624,10.152,22.624,22.624   C459.999,435.632,450.503,446.736,438.383,447.888z" data-original="#322153" class="" data-old_color="#322153"/>
</g></g> </svg>
