<?xml version="1.0" encoding="utf-8"?>
<!-- Generator: Adobe Illustrator 25.2.0, SVG Export Plug-In . SVG Version: 6.00 Build 0)  -->
<svg version="1.1" id="Layer_1" xmlns="http://www.w3.org/2000/svg" xmlns:xlink="http://www.w3.org/1999/xlink" x="0px" y="0px"
	 viewBox="0 0 1000 1000" style="enable-background:new 0 0 1000 1000;" xml:space="preserve">
<style type="text/css">
	.st0{fill:url(#_x33__1_);}
	.st1{fill:#AA7A43;}
	.st2{fill:none;stroke:#322153;stroke-width:27;stroke-linecap:round;stroke-miterlimit:10;}
	.st3{fill-rule:evenodd;clip-rule:evenodd;fill:#C18B4C;}
	.st4{fill:#AA7942;}
</style>
<g id="_x31_">
	<g>
		<g id="_x32_">
			<g>
				
					<linearGradient id="_x33__1_" gradientUnits="userSpaceOnUse" x1="526.0963" y1="-218.5988" x2="357.1523" y2="457.7732" gradientTransform="matrix(1 0 0 -1 0 1002)">
					<stop  offset="0" style="stop-color:#C7975E"/>
					<stop  offset="1" style="stop-color:#FAEBD7"/>
				</linearGradient>
				<path id="_x33_" class="st0" d="M120.7,871.4c-162-179.8-86.5-304.9-54.6-338.1c31.9-33.2,70.7-61.9,124.2-68.1
					c53.5-6.2,59.8-5.3,89.3-26c29.5-20.8,88.8-165.6,198.5-155.9c109.7,9.7,205.5,108.8,233.9,196.5c28.4,87.7-39,170.2-80.3,190.4
					c-41.2,20.2-90.6,60.6-93.4,109.4c-2.8,48.8-11.1,111.2-85.5,165.9C378.6,1000,275.1,985,197,932.8
					C197,932.8,143.1,896.3,120.7,871.4z"/>
			</g>
		</g>
	</g>
	<g>
		<g id="_x35_">
			<g>
				<path id="_x36_" class="st1" d="M367.7,803.9c-7.4,7.4-19.4,7.5-26.9,0.1L195.7,659.9c-7.4-7.4-7.5-19.4-0.1-26.9l12.7-12.8
					c7.4-7.4,19.4-7.5,26.9-0.1l145.1,144.1c7.4,7.4,7.5,19.4,0.1,26.9L367.7,803.9z"/>
			</g>
		</g>
	</g>
	<g>
		<g id="_x37_">
			<g>
				<path id="_x38_" class="st2" d="M767.5,111.1l121,116.2"/>
			</g>
		</g>
	</g>
	<g>
		<g id="_x39_">
			<g>
				<path id="_x31_0" class="st2" d="M792.3,70.4l135.8,133.5"/>
			</g>
		</g>
	</g>
	<g>
		<g id="_x31_1">
			<g>
				<path id="_x31_2" class="st2" d="M820.2,31.7l149.4,145.1"/>
			</g>
		</g>
	</g>
	<g>
		<g id="_x31_3">
			<g>
				<path id="_x31_4" class="st1" d="M777.2,155.6c0,0,71.1-122.9,88.8-130.7c17.7-7.8,28.3-5.6,41.3-0.7
					c13.1,4.8,17.2,9.1,31.7,2.5c14.5-6.6,24.4-2.3,30.7,3.2c6.3,5.4,9.9,22.3,4,33.4c-5.9,11-2.5,20.9,0.1,30
					c2.6,9.1,8.2,19.1-1,43.1c-14.6,21.7-126.3,84.8-126.3,84.8L777.2,155.6z"/>
			</g>
		</g>
	</g>
	<g>
		<g id="_x31_5">
			<g>
				<path id="_x31_6" class="st3" d="M778.7,152.9l69,68.3l-435.6,440l-69-68.3L778.7,152.9z"/>
			</g>
		</g>
	</g>
	<g>
		<g id="_x31_7">
			<g>
				<path id="_x31_8" class="st4" d="M643,427.7l-68.7-67.9l50.7-51.3l68.7,67.9L643,427.7z"/>
			</g>
		</g>
	</g>
	<g>
		<g id="_x31_9">
			<g>
				<path id="_x32_0" class="st4" d="M519,553.4l-68.7-67.9l50.7-51.3l68.7,67.9L519,553.4z"/>
			</g>
		</g>
	</g>
	<g>
		<g id="_x32_1">
			<g>
				<path id="_x32_2" class="st4" d="M764.3,305.3l-68.7-67.9l50.7-51.3l68.7,67.9L764.3,305.3z"/>
			</g>
		</g>
	</g>
	<g>
		<g id="_x32_3">
			<g>
				<path id="_x32_4" class="st3" d="M421.1,480c54.9,0,99.4,44.5,99.4,99.4s-44.5,99.4-99.4,99.4c-54.9,0-99.4-44.5-99.4-99.4
					S366.2,480,421.1,480z"/>
			</g>
		</g>
	</g>
</g>
</svg>
