<svg xmlns="http://www.w3.org/2000/svg" xmlns:xlink="http://www.w3.org/1999/xlink" xmlns:serif="http://www.serif.com/" viewBox="0 0 512 512" version="1.1" xml:space="preserve" style="" x="0px" y="0px" fill-rule="evenodd" clip-rule="evenodd" stroke-linejoin="round" stroke-miterlimit="1.41421"><rect serif:id="38" x="0" y="0" width="512" height="512" style="" fill="none"/><path d="M145.926,184.425c0.525,-0.048 1.047,-0.103 1.561,-0.17c24.523,-3.204 45.472,-25.029 46.59,-50.796c0.028,-0.664 0.043,-1.328 0.049,-1.993c0.052,-18.015 -0.061,-36.029 0.002,-54.044c0.153,-16.146 13.933,-31.062 31.043,-31.418c0.359,-0.005 0.718,-0.004 1.078,-0.003c30.966,0.28 60.766,20.888 71.301,50.808c2.849,8.092 4.278,16.652 4.304,25.272l0,62.623l95.72,0c19.693,0.094 38.463,11.456 47.594,28.524c5.512,10.303 7.531,22.35 5.713,33.992c-8.705,53.296 -17.597,106.562 -26.633,159.804c-4.35,24.81 -27.078,44.77 -53.209,44.82l-225.231,0c-4.43,7.864 -12.664,13.625 -22.125,14.091c-0.333,0.017 -0.667,0.025 -1,0.031c-11.701,0.076 -23.403,0.002 -35.104,0.002c-13.929,-0.091 -26.619,-12.037 -26.896,-26.591c-0.483,-80.803 -0.002,-161.609 -0.002,-242.413c0.082,-13.598 11.528,-26.162 25.586,-26.867c0.336,-0.017 0.673,-0.025 1.01,-0.032c11.802,-0.051 23.604,-0.051 35.406,0c9.681,0.19 18.599,6.023 23.243,14.36Zm-14.117,12.595l-0.001,-0.147c-0.093,-4.882 -4.238,-9.239 -9.334,-9.339c-11.616,-0.051 -23.232,-0.001 -34.848,-0.001c-4.89,0.022 -9.377,4.222 -9.474,9.34c-0.483,80.76 -0.483,161.525 0,242.286c0.092,4.855 4.349,9.251 9.334,9.338c11.662,0.076 23.325,0.076 34.988,0c4.833,-0.084 9.236,-4.221 9.334,-9.338l0.001,-0.148l0,-241.991Zm17.47,237.355c73.987,0 147.975,0.139 221.962,-0.001c17.055,-0.162 32.803,-13.277 35.791,-30.32c9.024,-53.17 17.905,-106.365 26.598,-159.59c3.234,-20.71 -14.259,-42.187 -36.097,-42.29l-104.414,0c-1.81,-0.287 -3.669,-0.604 -5.134,-1.668c-2.204,-1.602 -3.159,-4.281 -3.6,-7.067c0,-23.908 0.073,-47.816 -0.002,-71.724c-0.227,-23.695 -15.79,-46.382 -38.468,-54.692c-6.475,-2.372 -13.42,-3.578 -20.249,-3.554c-7.319,0.076 -13.997,6.497 -14.069,14.066c-0.062,17.87 0,35.74 0,53.61c-0.078,27.125 -16.791,53.472 -41.868,64.763c-6.47,2.913 -13.38,4.833 -20.416,5.725l0,1.577c0.412,77.054 -0.017,154.11 -0.034,231.165Z"/></svg>