<?xml version="1.0" encoding="iso-8859-1"?>
<!-- Generator: Adobe Illustrator 21.0.0, SVG Export Plug-In . SVG Version: 6.00 Build 0)  -->
<svg xmlns="http://www.w3.org/2000/svg" xmlns:xlink="http://www.w3.org/1999/xlink" version="1.1" id="Capa_1" x="0px" y="0px" viewBox="0 0 512.09 512.09" style="enable-background:new 0 0 512.09 512.09;" xml:space="preserve" width="512" height="512">
<g>
	<g>
		<path style="fill:#F97B6B;" d="M255.887,504.545c54.158,0,186.411-128.552,240.437-301.621    c32.016-102.562-36.265-150.758-88.137-169.14C359.161,16.41,307.69,7.664,256.203,7.545h-0.316    C204.4,7.664,152.929,16.41,103.904,33.783C52.031,52.165-16.25,100.362,15.766,202.923    C69.573,375.288,203.045,504.545,255.887,504.545L255.887,504.545z"/>
		<path style="fill:#FF6054;" d="M408.186,33.783C359.161,16.41,307.69,7.664,256.203,7.545h-0.316    c-5.032,0.012-10.063,0.131-15.092,0.307c46.431,1.629,92.657,10.256,136.891,25.932c51.873,18.382,120.153,66.578,88.137,169.14    C416.388,361.287,301.467,482.355,240.8,501.79c5.539,1.804,10.609,2.755,15.087,2.755c54.158,0,186.411-128.552,240.437-301.621    C528.34,100.362,460.059,52.165,408.186,33.783z"/>
		<path style="fill:none;stroke:#000000;stroke-width:15;stroke-linejoin:round;stroke-miterlimit:10;" d="M255.925,438.452"/>
		<path style="fill:#F9CA64;" d="M260.607,118.288l29.256,59.279c0.741,1.501,2.173,2.542,3.83,2.783l65.419,9.506    c4.173,0.606,5.839,5.734,2.819,8.677l-47.337,46.143c-1.199,1.169-1.746,2.853-1.463,4.503l11.175,65.154    c0.713,4.156-3.649,7.325-7.381,5.363l-58.512-30.762c-1.482-0.779-3.253-0.779-4.735,0l-58.512,30.762    c-3.732,1.962-8.094-1.207-7.381-5.363l11.175-65.154c0.283-1.65-0.264-3.334-1.463-4.503l-47.337-46.143    c-3.019-2.943-1.353-8.071,2.819-8.677l65.419-9.506c1.657-0.241,3.089-1.281,3.83-2.783l29.256-59.279    C253.349,114.507,258.741,114.507,260.607,118.288z"/>
		<path style="fill:#FEEC96;" d="M260.607,118.288l29.256,59.279c0.741,1.501,2.173,2.542,3.83,2.783l65.419,9.506    c4.173,0.606,5.839,5.734,2.819,8.677l-47.337,46.143c-1.199,1.169-1.746,2.853-1.463,4.503l11.175,65.154    c0.713,4.156-3.649,7.325-7.381,5.363l-58.512-30.762c-1.482-0.779-3.253-0.779-4.735,0l-58.512,30.762    c-3.732,1.962-8.094-1.207-7.381-5.363l11.175-65.154c0.283-1.65-0.264-3.334-1.463-4.503l-47.337-46.143    c-3.019-2.943-1.353-8.071,2.819-8.677l65.419-9.506c1.657-0.241,3.089-1.281,3.83-2.783l29.256-59.279    C253.349,114.507,258.741,114.507,260.607,118.288z"/>
		<g>
			<path style="fill:#F5DB64;" d="M258.435,172.16c0.741,1.501,2.173,2.542,3.83,2.783l28.8,4.185     c-0.491-0.432-0.904-0.957-1.202-1.56l-29.256-59.279c-1.866-3.781-7.258-3.781-9.124,0l-9.818,19.893L258.435,172.16z"/>
			<path style="fill:#F5DB64;" d="M361.931,198.534c3.019-2.943,1.353-8.071-2.819-8.677l-28.774-4.181     c2.061,1.842,2.419,5.254,0.166,7.451l-47.337,46.143c-1.199,1.169-1.746,2.853-1.463,4.503l10.822,63.097l24.4,12.828     c3.732,1.962,8.094-1.207,7.381-5.363l-11.175-65.154c-0.283-1.65,0.264-3.334,1.463-4.503L361.931,198.534z"/>
		</g>
	</g>
	<g>
		<path d="M489.801,82.405c-22.881-31.792-58.074-49.344-94.5-60.839C350.359,7.383,303.326,0.153,256.203,0.045    c-46.447,0.063-92.84,7.066-137.205,20.824c-37.203,11.537-73.34,29.066-96.709,61.537c-24.067,33.44-28.67,74.74-13.682,122.754    c33.1,106.031,91.135,182.8,122.783,219.124c6.355,7.293,17.665-2.56,11.31-9.854c-30.875-35.437-87.491-110.326-119.774-213.741    c-13.506-43.268-9.625-80.115,11.539-109.521c22.026-30.604,56.7-46.19,91.704-56.802c42.098-12.763,86.03-19.258,130.018-19.321    c44.664,0.103,89.266,6.813,131.946,19.991c34.225,10.568,67.959,26.208,89.495,56.132    c21.163,29.405,25.045,66.253,11.538,109.521c-23.933,76.667-66.08,152.324-118.678,213.035    c-49.866,57.557-93.488,83.32-114.6,83.32c-18.414,0-50.422-19.701-83.535-51.416c-6.986-6.693-17.363,4.141-10.376,10.832    c36.881,35.324,71.11,55.584,93.911,55.584c30.387,0,78.644-33.91,125.937-88.499c53.919-62.235,97.126-139.794,121.659-218.387    C518.471,157.145,513.867,115.846,489.801,82.405z"/>
		<path d="M264.283,52.545c30.013,0.069,59.926,3.848,88.91,11.231c9.373,2.387,13.07-12.149,3.703-14.535    c-30.183-7.689-61.33-11.624-92.596-11.696C254.479,37.749,254.3,52.273,264.283,52.545z"/>
		<path d="M456.053,210.046c3.885,1.214,8.173-1.01,9.395-4.924c12.251-39.245,8.463-73.038-11.259-100.441    c-18.059-25.092-45.097-38.597-64.6-45.508c-9.118-3.237-14.128,10.907-5.01,14.139c17.484,6.196,41.642,18.188,57.435,40.132    c16.817,23.368,19.885,52.709,9.115,87.208C449.895,204.605,452.1,208.811,456.053,210.046z"/>
		<path d="M249.319,105.725l-33.256,67.385l-74.364,10.807c-5.955,0.865-8.506,8.553-4.156,12.793l53.81,52.451l-12.703,74.064    c-1.017,5.93,5.505,10.733,10.882,7.906l66.513-34.969l66.513,34.969c5.369,2.823,11.909-1.929,10.882-7.906l-12.702-74.064    l53.811-52.451c4.307-4.2,1.856-11.92-4.157-12.793l-74.363-10.807l-33.257-67.385    C260.107,100.33,252.009,100.278,249.319,105.725z M284.321,183.285c1.093,2.214,3.204,3.748,5.647,4.103l63.227,9.188    l-45.752,44.597c-1.768,1.724-2.574,4.206-2.156,6.639l10.8,62.973l-56.552-29.732c-2.185-1.148-4.794-1.148-6.98,0    l-56.552,29.732l10.801-62.973c0.417-2.433-0.389-4.915-2.157-6.639l-45.751-44.597l63.228-9.188    c2.443-0.354,4.554-1.889,5.647-4.103l28.276-57.294L284.321,183.285z"/>
	</g>
</g>















</svg>
