<svg id="Capa_1" enable-background="new 0 0 510 510" height="512" viewBox="0 0 510 510" width="512" xmlns="http://www.w3.org/2000/svg" xmlns:xlink="http://www.w3.org/1999/xlink"><linearGradient id="lg1"><stop offset="0" stop-color="#fe646f"/><stop offset=".593" stop-color="#fb2b3a"/><stop offset="1" stop-color="#c41926"/></linearGradient><linearGradient id="SVGID_1_" gradientTransform="matrix(1 0 0 -1 0 -401.741)" gradientUnits="userSpaceOnUse" x1="220.203" x2="568.093" xlink:href="#lg1" y1="-736.384" y2="-736.384"/><linearGradient id="SVGID_2_" gradientUnits="userSpaceOnUse" x1="78" x2="487.333" xlink:href="#lg1" y1="334.642" y2="334.642"/><linearGradient id="SVGID_3_" gradientTransform="matrix(1 0 0 -1 0 -401.741)" gradientUnits="userSpaceOnUse" x1="168.02" x2="515.917" xlink:href="#lg1" y1="-763.372" y2="-763.372"/><linearGradient id="SVGID_4_" gradientUnits="userSpaceOnUse" x1="116.667" x2="289.606" xlink:href="#lg1" y1="299.565" y2="299.565"/><linearGradient id="SVGID_5_" gradientTransform="matrix(1 0 0 -1 0 -401.741)" gradientUnits="userSpaceOnUse" x1="56.432" x2="477.394" xlink:href="#lg1" y1="-763.372" y2="-763.372"/><linearGradient id="lg2"><stop offset="0" stop-color="#60b7ff"/><stop offset=".5857" stop-color="#0182fc"/><stop offset="1" stop-color="#2740b0"/></linearGradient><linearGradient id="SVGID_6_" gradientUnits="userSpaceOnUse" x1="40.226" x2="388.116" xlink:href="#lg2" y1="175.357" y2="175.357"/><linearGradient id="SVGID_7_" gradientTransform="matrix(1 0 0 -1 0 -394.715)" gradientUnits="userSpaceOnUse" x1="-11.31" x2="350.7" xlink:href="#lg2" y1="-570.072" y2="-570.072"/><linearGradient id="SVGID_8_" gradientUnits="userSpaceOnUse" x1="-11.957" x2="335.94" xlink:href="#lg2" y1="148.369" y2="148.369"/><linearGradient id="SVGID_9_" gradientUnits="userSpaceOnUse" x1="-92.878" x2="328.084" xlink:href="#lg2" y1="148.369" y2="148.369"/><g><g><path d="m510 429.127v-.067c0-93.567-40.119-181.471-107.901-236.42l-28.234-22.889c-17.22-13.96-40.526-13.951-57.738.022l-28.394 23.052c-67.697 54.96-107.756 142.806-107.756 236.302 0 22.138 11.901 42.109 30.181 50.648 86.268 40.299 183.392 40.299 269.661 0 18.28-8.539 30.181-28.511 30.181-50.648z" fill="url(#SVGID_1_)"/><path d="m402.099 192.639-28.234-22.889c-14.406-11.678-33.067-13.574-48.86-5.703l-.007-.003c-3.084 1.536-6.059 3.445-8.871 5.728l-28.394 23.052c-53.093 43.104-89.182 106.437-102.284 176.859 9.649-.31 19.235-3.783 27.439-10.434l28.234-22.889c42.398-34.371 73.962-81.64 91.661-135.12 4.079-12.326 19.21-16.777 29.296-8.601 67.782 54.949 107.901 142.853 107.901 236.42v.067c0 22.137-11.901 42.109-30.181 50.648-36.856 17.217-75.694 27.072-114.82 29.578 52.455 3.36 105.428-6.495 154.84-29.578 18.28-8.54 30.181-28.511 30.181-50.648v-.067c0-93.567-40.119-181.471-107.901-236.42z" fill="url(#SVGID_2_)"/><g><circle cx="344.988" cy="361.631" fill="url(#SVGID_3_)" r="106.428"/><path d="m241.705 335.879c24.812-20.232 45.893-44.889 62.627-72.626-30.88 12.775-54.435 39.663-62.627 72.626z" fill="url(#SVGID_4_)"/><path d="m344.988 468.058c-5.138 0-10.189-.372-15.133-1.076 51.61-7.348 91.295-51.712 91.295-105.352s-39.685-98.004-91.295-105.352c4.944-.704 9.995-1.076 15.133-1.076 58.778 0 106.428 47.649 106.428 106.428s-47.649 106.428-106.428 106.428z" fill="url(#SVGID_5_)"/></g></g><g><path d="m299.842 30.225c-86.269-40.3-183.392-40.3-269.661 0-18.28 8.539-30.181 28.511-30.181 50.648 0 93.496 40.059 181.342 107.756 236.302l28.394 23.052c17.212 13.973 40.517 13.982 57.738.022l28.234-22.889c67.782-54.949 107.901-142.853 107.901-236.42v-.067c0-22.137-11.901-42.109-30.181-50.648z" fill="url(#SVGID_6_)"/><path d="m222.122 317.36-28.234 22.889c-14.407 11.679-33.071 13.574-48.865 5.701 3.074-1.532 6.041-3.428 8.845-5.701l28.234-22.889c67.782-54.949 107.901-142.853 107.901-236.42v-.067c0-22.137-11.901-42.109-30.181-50.648-36.856-17.217-75.694-27.072-114.82-29.578 52.455-3.36 105.428 6.495 154.84 29.578 18.28 8.54 30.181 28.511 30.181 50.648v.067c0 93.567-40.119 181.471-107.901 236.42z" fill="url(#SVGID_7_)"/><g><circle cx="165.012" cy="148.369" fill="url(#SVGID_8_)" r="106.428"/><path d="m165.012 41.942c-5.138 0-10.189.372-15.133 1.076 51.61 7.348 91.295 51.712 91.295 105.352s-39.685 98.004-91.295 105.352c4.944.704 9.995 1.076 15.133 1.076 58.778 0 106.428-47.649 106.428-106.428s-47.65-106.428-106.428-106.428z" fill="url(#SVGID_9_)"/></g></g></g></svg>