<?xml version="1.0" encoding="utf-8"?>
<svg x="0pt" y="0pt" width="512pt" height="512pt" viewBox="0 0 512 512" xmlns="http://www.w3.org/2000/svg" xmlns:xlink="http://www.w3.org/1999/xlink">
  <g id="1">
    <title>Layer 1</title>
    <clipPath id="3">
      <use xlink:href="#2"/>
      <path id="2" d="M0,0 C0,0,512,0,512,0 C512,0,512,512,512,512 C512,512,0,512,0,512 C0,512,0,0,0,0 z"/>
    </clipPath>
    <g id="4" style="clip-path:url(#3);">
      <title>ClipGroup</title>
      <g id="5">
        <title>Group</title>
        <g id="6">
          <title>Group</title>
          <defs>
            <title>Shape 2</title>
            <g id="7">
              <defs>
                <path id="8" d="M255.842,504.456 C309.991,504.456,442.22,375.927,496.237,202.888 C528.247,100.344,459.978,52.1568,408.115,33.7781 C359.098,16.4071,307.636,7.66265,256.158,7.54367 C256.053,7.54367,255.947,7.54367,255.842,7.54367 C204.364,7.66265,152.902,16.4071,103.886,33.7771 C52.0219,52.1558,-16.2471,100.344,15.7632,202.887 C69.5608,375.222,203.009,504.456,255.842,504.456 C255.842,504.456,255.842,504.456,255.842,504.456 z"/>
              </defs>
              <use xlink:href="#8" style="fill:#f5e51b;fill-opacity:1;fill-rule:evenodd;opacity:1;stroke:none;"/>
            </g>
          </defs>
          <use xlink:href="#7"/>
          <defs>
            <title>Shape 4</title>
            <g id="9">
              <defs>
                <path id="10" d="M255.88,438.375"/>
              </defs>
              <use xlink:href="#10" style="fill:none;opacity:1;stroke:#000000;stroke-linecap:butt;stroke-linejoin:round;stroke-miterlimit:10;stroke-opacity:1;stroke-width:14.9974;"/>
            </g>
          </defs>
          <use xlink:href="#9"/>
        </g>
        <g id="11">
          <title>Group</title>
        </g>
      </g>
    </g>
    <clipPath id="13">
      <use xlink:href="#12"/>
      <path id="12" d="M0,0 C0,0,512,0,512,0 C512,0,512,512,512,512 C512,512,0,512,0,512 C0,512,0,0,0,0 z"/>
    </clipPath>
    <g id="14" style="clip-path:url(#13);"/>
  </g>
</svg>
