<?xml version="1.0" encoding="utf-8"?>
<svg x="0pt" y="0pt" width="512pt" height="512pt" viewBox="0 0 512 512" xmlns="http://www.w3.org/2000/svg" xmlns:xlink="http://www.w3.org/1999/xlink">
  <g id="1">
    <title>Layer 1</title>
    <clipPath id="3">
      <use xlink:href="#2"/>
      <path id="2" d="M0,0 C0,0,512,0,512,0 C512,0,512,512,512,512 C512,512,0,512,0,512 C0,512,0,0,0,0 z"/>
    </clipPath>
    <g id="4" style="clip-path:url(#3);">
      <title>ClipGroup</title>
      <g id="5">
        <title>Group</title>
        <g id="6">
          <title>Group</title>
          <defs>
            <title>Shape 2</title>
            <g id="7">
              <defs>
                <path id="8" d="M255.842,504.456 C309.991,504.456,442.22,375.927,496.237,202.888 C528.247,100.344,459.978,52.1568,408.115,33.7781 C359.098,16.4071,307.636,7.66265,256.158,7.54367 C256.053,7.54367,255.947,7.54367,255.842,7.54367 C204.364,7.66265,152.902,16.4071,103.886,33.7771 C52.0219,52.1558,-16.2471,100.344,15.7632,202.887 C69.5608,375.222,203.009,504.456,255.842,504.456 C255.842,504.456,255.842,504.456,255.842,504.456 z"/>
              </defs>
              <use xlink:href="#8" style="fill:#f97b6b;fill-opacity:1;fill-rule:evenodd;opacity:1;stroke:none;"/>
            </g>
          </defs>
          <use xlink:href="#7"/>
          <defs>
            <title>Shape 3</title>
            <g id="9">
              <defs>
                <path id="10" d="M408.114,33.7771 C359.098,16.4071,307.636,7.66265,256.158,7.54367 C256.053,7.54367,255.947,7.54367,255.842,7.54367 C250.811,7.55567,245.781,7.67465,240.753,7.85062 C287.176,9.47933,333.393,18.1048,377.62,33.7781 C429.484,52.1568,497.752,100.344,465.741,202.888 C416.315,361.224,301.414,482.27,240.758,501.702 C246.296,503.505,251.365,504.456,255.842,504.456 C309.991,504.456,442.22,375.927,496.237,202.888 C528.247,100.344,459.978,52.1558,408.114,33.7771 z"/>
              </defs>
              <use xlink:href="#10" style="fill:#ff6054;fill-opacity:1;fill-rule:evenodd;opacity:1;stroke:none;"/>
            </g>
          </defs>
          <use xlink:href="#9"/>
          <defs>
            <title>Shape 4</title>
            <g id="11">
              <defs>
                <path id="12" d="M255.88,438.375"/>
              </defs>
              <use xlink:href="#12" style="fill:none;opacity:1;stroke:#000000;stroke-linecap:butt;stroke-linejoin:round;stroke-miterlimit:10;stroke-opacity:1;stroke-width:14.9974;"/>
            </g>
          </defs>
          <use xlink:href="#11"/>
          <defs>
            <title>Shape 5</title>
            <g id="13">
              <defs>
                <path id="14" d="M260.561,118.267 C270.312,138.023,280.062,157.78,289.812,177.536 C290.553,179.037,291.985,180.077,293.641,180.318 C315.444,183.486,337.246,186.655,359.049,189.823 C363.221,190.429,364.887,195.556,361.867,198.498 C346.091,213.876,330.315,229.255,314.539,244.633 C313.34,245.802,312.793,247.486,313.076,249.135 C316.8,270.849,320.525,292.564,324.249,314.278 C324.962,318.433,320.601,321.602,316.869,319.64 C297.369,309.388,277.868,299.135,258.368,288.883 C256.886,288.104,255.115,288.104,253.633,288.883 C234.133,299.135,214.632,309.388,195.132,319.64 C191.4,321.602,187.039,318.433,187.752,314.278 C191.476,292.564,195.201,270.849,198.925,249.135 C199.208,247.486,198.661,245.802,197.462,244.633 C181.686,229.255,165.91,213.876,150.134,198.498 C147.115,195.556,148.781,190.429,152.952,189.823 C174.755,186.655,196.557,183.486,218.36,180.318 C220.016,180.077,221.448,179.038,222.189,177.536 C231.939,157.78,241.69,138.023,251.44,118.267 C253.304,114.487,258.696,114.487,260.561,118.267 z"/>
              </defs>
              <use xlink:href="#14" style="fill:#f9ca64;fill-opacity:1;fill-rule:evenodd;opacity:1;stroke:none;"/>
            </g>
          </defs>
          <use xlink:href="#13"/>
          <defs>
            <title>Shape 6</title>
            <g id="15">
              <defs>
                <path id="16" d="M260.561,118.267 C270.312,138.023,280.062,157.78,289.812,177.536 C290.553,179.037,291.985,180.077,293.641,180.318 C315.444,183.486,337.246,186.655,359.049,189.823 C363.221,190.429,364.887,195.556,361.867,198.498 C346.091,213.876,330.315,229.255,314.539,244.633 C313.34,245.802,312.793,247.486,313.076,249.135 C316.8,270.849,320.525,292.564,324.249,314.278 C324.962,318.433,320.601,321.602,316.869,319.64 C297.369,309.388,277.868,299.135,258.368,288.883 C256.886,288.104,255.115,288.104,253.633,288.883 C234.133,299.135,214.632,309.388,195.132,319.64 C191.4,321.602,187.039,318.433,187.752,314.278 C191.476,292.564,195.201,270.849,198.925,249.135 C199.208,247.486,198.661,245.802,197.462,244.633 C181.686,229.255,165.91,213.876,150.134,198.498 C147.115,195.556,148.781,190.429,152.952,189.823 C174.755,186.655,196.557,183.486,218.36,180.318 C220.016,180.077,221.448,179.038,222.189,177.536 C231.939,157.78,241.69,138.023,251.44,118.267 C253.304,114.487,258.696,114.487,260.561,118.267 z"/>
              </defs>
              <use xlink:href="#16" style="fill:#feec96;fill-opacity:1;fill-rule:evenodd;opacity:1;stroke:none;"/>
            </g>
          </defs>
          <use xlink:href="#15"/>
          <g id="17">
            <title>Group</title>
            <defs>
              <title>Shape 7</title>
              <g id="18">
                <defs>
                  <path id="19" d="M258.39,172.13 C259.13,173.63,260.562,174.671,262.219,174.912 C271.817,176.307,281.416,177.702,291.014,179.097 C290.523,178.665,290.11,178.14,289.812,177.537 C280.062,157.781,270.311,138.024,260.561,118.268 C258.695,114.488,253.304,114.488,251.439,118.268 C248.167,124.898,244.895,131.528,241.623,138.158 C241.623,138.158,258.39,172.13,258.39,172.13 z"/>
                </defs>
                <use xlink:href="#19" style="fill:#f5db64;fill-opacity:1;fill-rule:evenodd;opacity:1;stroke:none;"/>
              </g>
            </defs>
            <use xlink:href="#18"/>
            <defs>
              <title>Shape 8</title>
              <g id="20">
                <defs>
                  <path id="21" d="M361.867,198.499 C364.886,195.557,363.22,190.43,359.049,189.824 C349.459,188.43,339.87,187.037,330.28,185.643 C332.341,187.485,332.699,190.896,330.446,193.093 C314.67,208.471,298.893,223.85,283.117,239.228 C281.918,240.397,281.372,242.08,281.654,243.73 C285.261,264.759,288.868,285.787,292.475,306.816 C300.606,311.091,308.738,315.367,316.87,319.642 C320.602,321.604,324.963,318.435,324.25,314.28 C320.526,292.566,316.801,270.851,313.077,249.137 C312.794,247.488,313.341,245.804,314.54,244.635 C314.54,244.635,361.867,198.499,361.867,198.499 z"/>
                </defs>
                <use xlink:href="#21" style="fill:#f5db64;fill-opacity:1;fill-rule:evenodd;opacity:1;stroke:none;"/>
              </g>
            </defs>
            <use xlink:href="#20"/>
          </g>
        </g>
        <g id="22">
          <title>Group</title>
        </g>
      </g>
    </g>
    <clipPath id="24">
      <use xlink:href="#23"/>
      <path id="23" d="M0,0 C0,0,512,0,512,0 C512,0,512,512,512,512 C512,512,0,512,0,512 C0,512,0,0,0,0 z"/>
    </clipPath>
    <g id="25" style="clip-path:url(#24);"/>
  </g>
</svg>
