<?xml version="1.0" encoding="utf-8"?>
<!-- Generator: Adobe Illustrator 25.2.0, SVG Export Plug-In . SVG Version: 6.00 Build 0)  -->
<svg version="1.1" id="Layer_1" xmlns="http://www.w3.org/2000/svg" xmlns:xlink="http://www.w3.org/1999/xlink" x="0px" y="0px"
	 viewBox="0 0 512 512" style="enable-background:new 0 0 512 512;" xml:space="preserve">
<style type="text/css">
	.st0{clip-path:url(#SVGID_5_);}
	.st1{clip-path:url(#SVGID_6_);}
	.st2{fill-rule:evenodd;clip-rule:evenodd;fill:#E3C65E;}
	.st3{fill:none;stroke:#000000;stroke-width:14.9974;stroke-linejoin:round;stroke-miterlimit:10;}
	.st4{display:none;}
	.st5{display:inline;}
	.st6{fill-rule:evenodd;clip-rule:evenodd;fill:#F9CA64;}
	.st7{fill-rule:evenodd;clip-rule:evenodd;fill:#FEEC96;}
	.st8{fill-rule:evenodd;clip-rule:evenodd;fill:#F5DB64;}
	.st9{fill-rule:evenodd;clip-rule:evenodd;fill:#C5A943;}
	.st10{clip-path:url(#SVGID_11_);}
	.st11{clip-path:url(#SVGID_12_);}
</style>
<g id="_x31_">
	<g>
		<g>
			<defs>
				<rect id="SVGID_1_" width="512" height="512"/>
			</defs>
			<clipPath id="SVGID_2_">
				<use xlink:href="#SVGID_1_"  style="overflow:visible;"/>
			</clipPath>
		</g>
		<g>
			<defs>
				<rect id="SVGID_3_" width="512" height="512"/>
			</defs>
			<defs>
				<rect id="SVGID_4_" width="512" height="512"/>
			</defs>
			<clipPath id="SVGID_5_">
				<use xlink:href="#SVGID_3_"  style="overflow:visible;"/>
			</clipPath>
			<clipPath id="SVGID_6_" class="st0">
				<use xlink:href="#SVGID_4_"  style="overflow:visible;"/>
			</clipPath>
			<g id="_x34_" class="st1">
				<g id="_x35_">
					<g id="_x36_">
						<g>
							<g id="_x37_">
								<g>
									<path id="_x38_" class="st2" d="M255.8,504.5c54.1,0,186.4-128.5,240.4-301.6c32-102.5-36.3-150.7-88.1-169.1
										c-49-17.4-100.5-26.1-152-26.2c-0.1,0-0.2,0-0.3,0c-51.5,0.1-102.9,8.9-152,26.2c-51.8,18.4-120,66.5-88,169.1
										C69.6,375.2,203,504.5,255.8,504.5L255.8,504.5z"/>
								</g>
							</g>
						</g>
						<g>
							<g id="_x31_1">
								<g>
									<path id="_x31_2" class="st3" d="M255.9,438.4"/>
								</g>
							</g>
						</g>
						<g class="st4">
							<g id="_x31_3" class="st5">
								<g>
									<path id="_x31_4" class="st6" d="M260.6,118.3c9.8,19.8,19.5,39.5,29.3,59.3c0.7,1.5,2.2,2.5,3.8,2.8
										c21.8,3.2,43.6,6.3,65.4,9.5c4.2,0.6,5.8,5.7,2.8,8.7c-15.8,15.4-31.6,30.8-47.3,46.1c-1.2,1.2-1.7,2.9-1.5,4.5
										c3.7,21.7,7.4,43.4,11.2,65.1c0.7,4.2-3.6,7.3-7.4,5.4c-19.5-10.3-39-20.5-58.5-30.8c-1.5-0.8-3.3-0.8-4.7,0
										c-19.5,10.3-39,20.5-58.5,30.8c-3.7,2-8.1-1.2-7.4-5.4c3.7-21.7,7.4-43.4,11.2-65.1c0.3-1.6-0.3-3.3-1.5-4.5
										c-15.8-15.4-31.6-30.8-47.3-46.1c-3-2.9-1.4-8.1,2.8-8.7c21.8-3.2,43.6-6.3,65.4-9.5c1.7-0.2,3.1-1.3,3.8-2.8
										c9.8-19.8,19.5-39.5,29.3-59.3C253.3,114.5,258.7,114.5,260.6,118.3z"/>
								</g>
							</g>
						</g>
						<g class="st4">
							<g id="_x31_5" class="st5">
								<g>
									<path id="_x31_6" class="st7" d="M260.6,118.3c9.8,19.8,19.5,39.5,29.3,59.3c0.7,1.5,2.2,2.5,3.8,2.8
										c21.8,3.2,43.6,6.3,65.4,9.5c4.2,0.6,5.8,5.7,2.8,8.7c-15.8,15.4-31.6,30.8-47.3,46.1c-1.2,1.2-1.7,2.9-1.5,4.5
										c3.7,21.7,7.4,43.4,11.2,65.1c0.7,4.2-3.6,7.3-7.4,5.4c-19.5-10.3-39-20.5-58.5-30.8c-1.5-0.8-3.3-0.8-4.7,0
										c-19.5,10.3-39,20.5-58.5,30.8c-3.7,2-8.1-1.2-7.4-5.4c3.7-21.7,7.4-43.4,11.2-65.1c0.3-1.6-0.3-3.3-1.5-4.5
										c-15.8-15.4-31.6-30.8-47.3-46.1c-3-2.9-1.4-8.1,2.8-8.7c21.8-3.2,43.6-6.3,65.4-9.5c1.7-0.2,3.1-1.3,3.8-2.8
										c9.8-19.8,19.5-39.5,29.3-59.3C253.3,114.5,258.7,114.5,260.6,118.3z"/>
								</g>
							</g>
						</g>
						<g id="_x31_7" class="st4">
							<g class="st5">
								<g id="_x31_8">
									<g>
										<path id="_x31_9" class="st8" d="M258.4,172.1c0.7,1.5,2.2,2.5,3.8,2.8c9.6,1.4,19.2,2.8,28.8,4.2c-0.5-0.4-0.9-1-1.2-1.6
											c-9.8-19.8-19.5-39.5-29.3-59.3c-1.9-3.8-7.3-3.8-9.1,0c-3.3,6.6-6.5,13.3-9.8,19.9L258.4,172.1z"/>
									</g>
								</g>
							</g>
							<g class="st5">
								<g id="_x32_0">
									<g>
										<path id="_x32_1" class="st8" d="M361.9,198.5c3-2.9,1.4-8.1-2.8-8.7c-9.6-1.4-19.2-2.8-28.8-4.2c2.1,1.8,2.4,5.3,0.2,7.4
											c-15.8,15.4-31.6,30.8-47.3,46.1c-1.2,1.2-1.7,2.9-1.5,4.5c3.6,21,7.2,42.1,10.8,63.1c8.1,4.3,16.3,8.6,24.4,12.8
											c3.7,2,8.1-1.2,7.4-5.4c-3.7-21.7-7.4-43.4-11.2-65.1c-0.3-1.6,0.3-3.3,1.5-4.5L361.9,198.5z"/>
									</g>
								</g>
							</g>
						</g>
						<g id="_x39_">
							<g>
								<path id="_x31_0" class="st9" d="M408.1,33.8c-49-17.4-100.5-26.1-152-26.2c-0.1,0-0.2,0-0.3,0c-5,0-10.1,0.1-15.1,0.3
									c46.4,1.6,92.6,10.3,136.9,25.9c51.9,18.4,120.1,66.6,88.1,169.1c-49.4,158.3-164.3,279.4-225,298.8
									c5.5,1.8,10.6,2.8,15.1,2.8c54.1,0,186.4-128.5,240.4-301.6C528.2,100.3,460,52.2,408.1,33.8z"/>
							</g>
						</g>
					</g>
					<g id="_x32_2">
					</g>
				</g>
			</g>
		</g>
	</g>
	<g>
		<g>
			<defs>
				<rect id="SVGID_7_" width="512" height="512"/>
			</defs>
			<clipPath id="SVGID_8_">
				<use xlink:href="#SVGID_7_"  style="overflow:visible;"/>
			</clipPath>
		</g>
		<g>
			<defs>
				<rect id="SVGID_9_" width="512" height="512"/>
			</defs>
			<defs>
				<rect id="SVGID_10_" width="512" height="512"/>
			</defs>
			<clipPath id="SVGID_11_">
				<use xlink:href="#SVGID_9_"  style="overflow:visible;"/>
			</clipPath>
			<clipPath id="SVGID_12_" class="st10">
				<use xlink:href="#SVGID_10_"  style="overflow:visible;"/>
			</clipPath>
			<g id="_x32_5" class="st11">
			</g>
		</g>
	</g>
</g>
</svg>
