<svg xmlns="http://www.w3.org/2000/svg" xmlns:xlink="http://www.w3.org/1999/xlink" version="1.1" x="0px" y="0px" viewBox="0 0 100 100" style="enable-background:new 0 0 100 100;" xml:space="preserve"><style type="text/css">
	.st0{fill:none;stroke:#000;stroke-width:3;stroke-linecap:round;stroke-linejoin:round;stroke-miterlimit:10;}
</style><g><path class="st0" d="M52.2,41.6c-0.9-0.7-1.8-1.4-2.6-2c-1.2-0.7-2.3-1.2-3.5-1.6c-2-0.6-4-0.7-5.9-0.4c-3.6,0.7-5.9,2.4-7.4,4.4   c-1.5,1.9-2.3,4.1-2.9,5.7L29.8,48l-0.1,0.2c-0.5,1.5-1,2.4-1.7,3c-0.6,0.6-1.4,0.9-2.5,1.2c-0.4,0.1-0.8,0.2-1.2,0.3   c-0.4,0.1-0.8,0.2-1.2,0.3c-2.4,0.6-4.9,1.2-7.2,2.2s-4.5,2.3-6.3,4.4C4.9,64.8,4.7,70.2,6.4,75s5.3,9,8.3,11.9   c2,1.9,4.6,4.1,7.6,5.8s6.3,2.9,9.8,2.8c1.7,0,3.4-0.4,5.1-1.1c1.7-0.7,3.4-1.9,5-3.5c2-1.9,3.2-4.1,4.1-6.5   c0.9-2.4,1.4-4.9,1.9-7.3c0.1-0.4,0.2-0.8,0.3-1.2c0.1-0.4,0.2-0.8,0.3-1.2c0.2-1.1,0.5-1.9,1.1-2.5c0.6-0.7,1.5-1.2,3-1.8l0.2-0.1   l0.2-0.1c1.6-0.6,3.7-1.5,5.6-3.1c1.9-1.6,3.5-3.9,4.1-7.6c0.3-2,0.1-4-0.6-6c-0.5-1.5-1.3-2.9-2.4-4.4c-0.4-0.5-0.8-1-1.2-1.5"/><path class="st0" d="M43.5,50.4c-2.2-0.2-4.5,0.5-6.1,2.3c-2.9,3-2.8,7.7,0.2,10.6s7.7,2.8,10.6-0.2c1.7-1.7,2.3-4,2-6.2"/><polyline class="st0" points="25.6,65.3 30.8,70.3 36,75.3  "/><polygon class="st0" points="80.4,24.7 74.5,19 52.2,41.6 43.5,50.4 50.2,56.8  "/><path class="st0" d="M80.4,24.7l0.5-0.5c0.2-0.3,0.7-0.5,1.1-0.6c0.5-0.2,1-0.3,1.6-0.3c0.1,0,0.3,0,0.4-0.1s0.2-0.1,0.3-0.2   l0.5-0.5l0.5-0.5l1.1-1l1-0.9l1-0.9l1.1-1l1-0.9l1-0.9l1.1-1l0.8-0.8l0.8-0.8c0.1-0.1,0.2-0.2,0.2-0.3s0.1-0.2,0-0.4   c-0.4-2.6-1.3-4.6-2.8-6s-3.5-2.3-6.1-2.6c-0.1,0-0.3,0-0.4,0s-0.2,0.1-0.3,0.2l-0.7,0.9l-0.7,0.9l-1,1.2l-0.9,1l-0.9,1l-1,1.2   l-0.9,1l-0.9,1l-1,1.2l-0.5,0.5L76,15c-0.1,0.1-0.2,0.2-0.2,0.4c0,0.1-0.1,0.3-0.1,0.4c0,0.5-0.1,1.1-0.2,1.6s-0.3,0.9-0.6,1.2   L74.5,19L80.4,24.7z"/><g><line class="st0" x1="92" y1="16" x2="94.2" y2="18.3"/><line class="st0" x1="88.9" y1="18.7" x2="91.1" y2="21.2"/><line class="st0" x1="85.8" y1="21.6" x2="88.1" y2="24"/></g><g><line class="st0" x1="82.9" y1="7.2" x2="80.3" y2="4.9"/><line class="st0" x1="80.1" y1="10.3" x2="77.6" y2="8.1"/><line class="st0" x1="77.3" y1="13.4" x2="74.8" y2="11.2"/></g><line class="st0" x1="77.4" y1="21.9" x2="46.9" y2="53.6"/><path class="st0" d="M35.4,59.2l-8,7.9l0,0c-0.8,0.9-0.8,2.2,0.1,3.1l3.7,3.6c0.9,0.8,2.2,0.8,3.1-0.1l0,0l7.6-8.3"/><line class="st0" x1="37.6" y1="63.3" x2="30.8" y2="70.3"/></g>
</svg>