<?xml version="1.0"?>
<svg xmlns="http://www.w3.org/2000/svg" xmlns:xlink="http://www.w3.org/1999/xlink" version="1.1" id="Capa_1" x="0px" y="0px" viewBox="0 0 464 464" style="enable-background:new 0 0 464 464;" xml:space="preserve" width="512px" height="512px" class=""><g><g>
	<path style="fill:#C18B4C" d="M72,360V235c-34.52,0-64,27.984-64,62.504C8,332.016,37.48,360,72,360z" data-original="#00F2A9" class="active-path" data-old_color="#00F2A9"/>
	<path style="fill:#C18B4C" d="M392,235v125c34.52,0,64-27.984,64-62.504C456,262.984,426.52,235,392,235z" data-original="#00F2A9" class="active-path" data-old_color="#00F2A9"/>
</g><g>
	<path style="fill:#322153" d="M431.888,206.448C429.52,94.088,338.984,0,232,0S34.48,94.088,32.112,206.448   C12.808,219.04,0,240.784,0,265.504c0,36.68,28.168,66.872,64,70.168V344c0,13.232,10.768,24,24,24s24-10.768,24-24V184   c0-13.232-10.768-24-24-24s-24,10.768-24,24v11.328c-5.384,0.496-10.576,1.608-15.544,3.248   c4.056-61.704,38.056-117.64,86.016-150.888C134.984,47.792,135.456,48,136,48h192c0.544,0,1.016-0.208,1.528-0.312   c47.96,33.248,81.96,89.184,86.016,150.888c-4.968-1.64-10.16-2.752-15.544-3.248V184c0-13.232-10.768-24-24-24s-24,10.768-24,24   v160c0,13.232,10.768,24,24,24s24-10.768,24-24v-8.328c35.832-3.296,64-33.488,64-70.168   C464,240.784,451.192,219.04,431.888,206.448z M80,184c0-4.416,3.592-8,8-8s8,3.584,8,8v160c0,4.416-3.592,8-8,8s-8-3.584-8-8V184z    M64,319.576c-26.992-3.232-48-26.224-48-54.072s21.008-50.848,48-54.072V319.576z M161.608,32C183.536,21.752,207.384,16,232,16   s48.464,5.752,70.392,16H161.608z M384,344c0,4.416-3.584,8-8,8s-8-3.584-8-8V184c0-4.416,3.584-8,8-8s8,3.584,8,8V344z    M400,319.576V211.424c26.992,3.224,48,26.224,48,54.072S426.992,316.344,400,319.576z" data-original="#322153" class="" data-old_color="#322153"/>
	<path style="fill:#322153" d="M205.656,237.656L232,211.312l4.688,4.688l-10.344,10.344c-3.128,3.128-3.128,8.184,0,11.312   c1.56,1.56,3.608,2.344,5.656,2.344s4.096-0.784,5.656-2.344L248,227.312l10.344,10.344c1.56,1.56,3.608,2.344,5.656,2.344   s4.096-0.784,5.656-2.344c3.128-3.128,3.128-8.184,0-11.312L259.312,216l10.344-10.344c3.128-3.128,3.128-8.184,0-11.312   s-8.184-3.128-11.312,0L248,204.688L243.312,200l26.344-26.344c3.128-3.128,3.128-8.184,0-11.312s-8.184-3.128-11.312,0   L232,188.688L227.312,184l10.344-10.344c3.128-3.128,3.128-8.184,0-11.312s-8.184-3.128-11.312,0L216,172.688l-10.344-10.344   c-3.128-3.128-8.184-3.128-11.312,0s-3.128,8.184,0,11.312L204.688,184l-10.344,10.344c-3.128,3.128-3.128,8.184,0,11.312   c1.56,1.56,3.608,2.344,5.656,2.344s4.096-0.784,5.656-2.344L216,195.312l4.688,4.688l-26.344,26.344   c-3.128,3.128-3.128,8.184,0,11.312c1.56,1.56,3.608,2.344,5.656,2.344S204.096,239.216,205.656,237.656z" data-original="#322153" class="" data-old_color="#322153"/>
	<path style="fill:#322153" d="M136,448c-4.416,0-8,3.576-8,8s3.584,8,8,8h192c4.424,0,8-3.576,8-8s-3.576-8-8-8h-88v-16h24   c4.424,0,8-3.576,8-8v-56.808c18.232-3.72,32-19.872,32-39.192V168c0-22.056-17.944-40-40-40h-64c-22.056,0-40,17.944-40,40v160   c0,19.312,13.768,35.472,32,39.192V424c0,4.424,3.584,8,8,8h24v16H136z M176,328V168c0-13.232,10.768-24,24-24h64   c13.232,0,24,10.768,24,24v160c0,13.232-10.768,24-24,24h-64C186.768,352,176,341.232,176,328z M208,368h48v48h-48V368z" data-original="#322153" class="" data-old_color="#322153"/>
</g></g> </svg>
