<?xml version="1.0" encoding="utf-8"?>
<!-- Generator: Adobe Illustrator 25.2.0, SVG Export Plug-In . SVG Version: 6.00 Build 0)  -->
<svg version="1.1" id="Layer_1" xmlns="http://www.w3.org/2000/svg" xmlns:xlink="http://www.w3.org/1999/xlink" x="0px" y="0px"
	 viewBox="0 0 409 409" style="enable-background:new 0 0 409 409;" xml:space="preserve">
<style type="text/css">
	.st0{opacity:0.75;fill:#31322F;enable-background:new    ;}
	.st1{fill-rule:evenodd;clip-rule:evenodd;fill:url(#_x34__1_);}
	.st2{fill-rule:evenodd;clip-rule:evenodd;fill:#463664;fill-opacity:0.8424;}
	.st3{fill-rule:evenodd;clip-rule:evenodd;fill:#CCC6B3;}
	.st4{fill-rule:evenodd;clip-rule:evenodd;fill:#E6A552;}
	.st5{fill-rule:evenodd;clip-rule:evenodd;fill:#3F413D;}
	.st6{fill:#463664;}
</style>
<ellipse class="st0" cx="201.5" cy="394.8" rx="164.5" ry="14.2"/>
<g id="_x31_">
	<g id="_x32_">
		<g>
			<g id="_x33_">
				<g>
					
						<linearGradient id="_x34__1_" gradientUnits="userSpaceOnUse" x1="401.6799" y1="147.8477" x2="-12.286" y2="320.1097" gradientTransform="matrix(1 0 0 -1 0 410)">
						<stop  offset="0.7395" style="stop-color:#C18A4B"/>
						<stop  offset="1" style="stop-color:#FAEBD7"/>
					</linearGradient>
					<path id="_x34_" class="st1" d="M57.4,309.1c-27.6-31.9-42.9-72.8-42.9-115C14.6,94.1,113.4,5,208.4,5
						c96.7,0,186,90.5,186,188.5c0,41.2-14.1,76.4-44.5,110.7c-5.6-5-11.2-9.9-16.8-14.9c26.5-30,38.9-60.4,38.9-95.8
						c0-85.5-79.5-166.1-163.6-166.1C126.2,27.4,37,106.9,37,194.1c0,36.9,13.3,72.5,37.4,100.3L57.4,309.1z"/>
				</g>
			</g>
		</g>
		<g>
			<g id="_x36_">
				<g>
					<path id="_x37_" class="st2" d="M87.3,202.7L87.3,202.7c21.6,0,39.3,17.7,39.3,39.3c0,17.2,0,34.3,0,51.5
						c0,21.6-17.7,39.3-39.3,39.3l0,0"/>
				</g>
			</g>
		</g>
		<g>
			<g id="_x38_">
				<g>
					<path id="_x39_" class="st3" d="M66.9,202.7c7.1,0,14.2,0,21.4,0c0,43.4,0,86.7,0,130.1c-7.1,0-14.2,0-21.4,0
						C66.9,289.4,66.9,246.1,66.9,202.7z"/>
				</g>
			</g>
		</g>
		<g>
			<g id="_x31_0">
				<g>
					<path id="_x31_1" class="st4" d="M43.1,220.6c7.9,0,15.9,0,23.8,0c0,31.5,0,63,0,94.5c-7.9,0-15.9,0-23.8,0
						C43.1,283.6,43.1,252.1,43.1,220.6z"/>
				</g>
			</g>
		</g>
		<g>
			<g id="_x31_2">
				<g>
					<path id="_x31_3" class="st2" d="M321.1,202.7L321.1,202.7c-21.6,0-39.3,17.7-39.3,39.3c0,17.2,0,34.3,0,51.5
						c0,21.6,17.7,39.3,39.3,39.3l0,0"/>
				</g>
			</g>
		</g>
		<g>
			<g id="_x31_4">
				<g>
					<path id="_x31_5" class="st3" d="M320.2,202.7c7.1,0,14.2,0,21.4,0c0,43.4,0,86.7,0,130.1c-7.1,0-14.2,0-21.4,0
						C320.2,289.4,320.2,246.1,320.2,202.7z"/>
				</g>
			</g>
		</g>
		<g>
			<g id="_x31_6">
				<g>
					<path id="_x31_7" class="st4" d="M341.6,220.6c7.9,0,15.9,0,23.8,0c0,31.5,0,63,0,94.5c-7.9,0-15.9,0-23.8,0
						C341.6,283.6,341.6,252.1,341.6,220.6z"/>
				</g>
			</g>
		</g>
		<g>
			<g id="_x31_8">
				<g>
					<path id="_x31_9" class="st5" d="M341.6,113.5c-23.9-42.9-80.4-69.6-129.5-69.6c-49.9,0-118.8,26.6-142.2,69.5L32.7,93.1
						c30.8-56.4,114-91.5,179.4-91.5c64.4,0,137.9,32.3,168,93.6L341.6,113.5z"/>
				</g>
			</g>
		</g>
	</g>
</g>
<g id="_x32_0">
	<g>
		<g id="_x32_1">
			<g>
				<path id="_x32_2" class="st6" d="M211.8,332.2c5,14.9-8.4,32.8-29.8,40c-21.5,7.2-42.9,1-47.9-14c-5-14.9,8.4-32.8,29.8-40
					C185.4,311,206.8,317.3,211.8,332.2"/>
			</g>
		</g>
	</g>
	<g>
		<g id="_x32_3">
			<g>
				<path id="_x32_4" class="st6" d="M207.2,345.1c-3.1,0-5.7-2.6-5.7-5.7c0-52.6,0-105.3,0-157.9c0-3.1,2.5-5.7,5.7-5.7
					s5.7,2.6,5.7,5.7c0,52.6,0,105.3,0,157.9C212.9,342.6,210.4,345.1,207.2,345.1z"/>
			</g>
		</g>
	</g>
	<g>
		<g id="_x32_5">
			<g>
				<path id="_x32_6" class="st6" d="M207.2,181.5c4.4,19,16.3,35.3,33,45.3c28.3,17.1,23.9,39.9,23.9,39.9c0,4.8,0,9.5,0,14.3
					c0,2.3-0.9,4.5-2.6,6.2c-1.7,1.6-3.9,2.5-6.2,2.4c-4.2,0-7.8-3.1-8.3-7.3c-1-8.1-5.6-21.6-23.9-32.6c-5.9-3.5-11.2-7.9-15.9-13
					V181.5z"/>
			</g>
		</g>
	</g>
</g>
</svg>
