<?xml version="1.0" encoding="utf-8"?>
<svg x="0pt" y="0pt" width="409pt" height="409pt" viewBox="0 0 409 409" xmlns="http://www.w3.org/2000/svg" xmlns:xlink="http://www.w3.org/1999/xlink">
  <g id="1">
    <title>Layer 1</title>
    <g id="2">
      <title>Group</title>
      <linearGradient x1="385.764" y1="310.4" x2="-28.2018" y2="138.138" gradientUnits="userSpaceOnUse" id="5">
        <stop offset="0.739487" style="stop-color:#c18a4b;stop-opacity:1;"/>
        <stop offset="1" style="stop-color:#faebd7;stop-opacity:1;"/>
      </linearGradient>
      <defs>
        <title>Shape 18</title>
        <g id="3">
          <defs>
            <path id="4" d="M57.4258,319.139 C29.7833,287.235,14.5616,246.383,14.5616,204.107 C14.5616,104.062,113.426,14.997,208.397,14.997 C305.081,14.997,394.439,105.45,394.439,203.537 C394.439,244.747,380.306,279.916,349.965,314.231 C344.36,309.274,338.755,304.317,333.15,299.36 C359.656,269.399,372.001,238.947,372.001,203.537 C372.001,118.036,292.5,37.435,208.397,37.435 C126.215,37.435,36.9997,116.853,36.9997,204.107 C36.9997,240.984,50.2752,276.614,74.3859,304.443 C74.3859,304.443,57.4258,319.139,57.4258,319.139 z"/>
          </defs>
          <use xlink:href="#4" style="fill:url(#5);fill-opacity:1;fill-rule:evenodd;opacity:1;stroke:none;"/>
        </g>
      </defs>
      <use xlink:href="#3"/>
      <defs>
        <title>Shape 19</title>
        <g id="6">
          <defs>
            <path id="7" d="M87.3209,212.708 C87.3209,212.708,87.3209,212.708,87.3209,212.708 C108.925,212.708,126.601,230.384,126.601,251.988 C126.601,269.162,126.601,286.337,126.601,303.511 C126.601,325.115,108.925,342.791,87.3209,342.791 C87.3209,342.791,87.3209,342.791,87.3209,342.791"/>
          </defs>
          <use xlink:href="#7" style="fill:#463664;fill-opacity:0.842357;fill-rule:evenodd;opacity:1;stroke:none;"/>
        </g>
      </defs>
      <use xlink:href="#6"/>
      <defs>
        <title>Shape 20</title>
        <g id="8">
          <defs>
            <path id="9" d="M66.8719,212.72 C73.9955,212.72,81.119,212.72,88.2426,212.72 C88.2426,256.081,88.2426,299.441,88.2426,342.802 C81.119,342.802,73.9955,342.802,66.8719,342.802 C66.8719,299.441,66.8719,256.081,66.8719,212.72 z"/>
          </defs>
          <use xlink:href="#9" style="fill:#ccc6b3;fill-opacity:1;fill-rule:evenodd;opacity:1;stroke:none;"/>
        </g>
      </defs>
      <use xlink:href="#8"/>
      <defs>
        <title>Shape 21</title>
        <g id="10">
          <defs>
            <path id="11" d="M43.0778,230.614 C51.0175,230.614,58.9572,230.614,66.8969,230.614 C66.8969,262.101,66.8969,293.589,66.8969,325.077 C58.9572,325.077,51.0175,325.077,43.0778,325.077 C43.0778,293.589,43.0778,262.101,43.0778,230.614 z"/>
          </defs>
          <use xlink:href="#11" style="fill:#e6a552;fill-opacity:1;fill-rule:evenodd;opacity:1;stroke:none;"/>
        </g>
      </defs>
      <use xlink:href="#10"/>
      <defs>
        <title>Shape 22</title>
        <g id="12">
          <defs>
            <path id="13" d="M321.131,212.708 C321.131,212.708,321.131,212.708,321.131,212.708 C299.527,212.708,281.851,230.384,281.851,251.988 C281.851,269.162,281.851,286.337,281.851,303.511 C281.851,325.115,299.527,342.791,321.131,342.791 C321.131,342.791,321.131,342.791,321.131,342.791"/>
          </defs>
          <use xlink:href="#13" style="fill:#463664;fill-opacity:0.842357;fill-rule:evenodd;opacity:1;stroke:none;"/>
        </g>
      </defs>
      <use xlink:href="#12"/>
      <defs>
        <title>Shape 23</title>
        <g id="14">
          <defs>
            <path id="15" d="M320.196,212.7 C327.32,212.7,334.443,212.7,341.567,212.7 C341.567,256.061,341.567,299.421,341.567,342.782 C334.443,342.782,327.32,342.782,320.196,342.782 C320.196,299.421,320.196,256.061,320.196,212.7 z"/>
          </defs>
          <use xlink:href="#15" style="fill:#ccc6b3;fill-opacity:1;fill-rule:evenodd;opacity:1;stroke:none;"/>
        </g>
      </defs>
      <use xlink:href="#14"/>
      <defs>
        <title>Shape 24</title>
        <g id="16">
          <defs>
            <path id="17" d="M341.571,230.629 C349.511,230.629,357.45,230.629,365.39,230.629 C365.39,262.116,365.39,293.604,365.39,325.092 C357.45,325.092,349.511,325.092,341.571,325.092 C341.571,293.604,341.571,262.116,341.571,230.629 z"/>
          </defs>
          <use xlink:href="#17" style="fill:#e6a552;fill-opacity:1;fill-rule:evenodd;opacity:1;stroke:none;"/>
        </g>
      </defs>
      <use xlink:href="#16"/>
      <defs>
        <title>Shape 25</title>
        <g id="18">
          <defs>
            <path id="19" d="M341.556,123.485 C317.666,80.5488,261.148,53.8769,212.075,53.8769 C162.172,53.8769,93.2412,80.4949,69.8565,123.337 C69.8565,123.337,32.697,103.056,32.697,103.056 C63.5048,46.6066,146.676,11.543,212.076,11.543 C276.504,11.543,349.996,43.8726,380.073,105.164 C380.073,105.164,341.556,123.485,341.556,123.485 z"/>
          </defs>
          <use xlink:href="#19" style="fill:#3f413d;fill-opacity:1;fill-rule:evenodd;opacity:1;stroke:none;"/>
        </g>
      </defs>
      <use xlink:href="#18"/>
    </g>
  </g>
  <g id="20">
    <title>Layer 2</title>
    <defs>
      <title>Shape 34</title>
      <g id="21">
        <defs>
          <path id="22" d="M211.839,354.196 C216.84,369.105,203.488,387.029,182.017,394.232 C160.545,401.434,139.085,395.187,134.084,380.278 C129.083,365.37,142.435,347.445,163.906,340.242 C185.378,333.04,206.838,339.287,211.839,354.196"/>
        </defs>
        <use xlink:href="#22" style="fill:#463664;fill-opacity:1;fill-rule:nonzero;opacity:1;stroke:none;"/>
      </g>
    </defs>
    <use xlink:href="#21"/>
    <defs>
      <title>Shape 35</title>
      <g id="23">
        <defs>
          <path id="24" d="M207.209,367.127 C204.064,367.127,201.514,364.577,201.514,361.432 C201.514,308.796,201.514,256.16,201.514,203.524 C201.514,200.379,204.064,197.829,207.209,197.829 C210.354,197.829,212.904,200.379,212.904,203.524 C212.904,256.16,212.904,308.796,212.904,361.432 C212.904,364.577,210.354,367.127,207.209,367.127 z"/>
        </defs>
        <use xlink:href="#24" style="fill:#463664;fill-opacity:1;fill-rule:nonzero;opacity:1;stroke:none;"/>
      </g>
    </defs>
    <use xlink:href="#23"/>
    <defs>
      <title>Shape 36</title>
      <g id="25">
        <defs>
          <path id="26" d="M207.209,203.524 C211.602,222.481,223.529,238.83,240.24,248.8 C268.545,265.885,264.103,288.666,264.103,288.666 C264.103,293.43,264.103,298.195,264.103,302.96 C264.119,305.276,263.195,307.499,261.541,309.12 C259.888,310.741,257.647,311.622,255.332,311.56 C251.103,311.563,247.535,308.411,247.018,304.213 C246.049,296.126,241.436,282.629,223.098,271.58 C217.202,268.043,211.85,263.669,207.209,258.596 z"/>
        </defs>
        <use xlink:href="#26" style="fill:#463664;fill-opacity:1;fill-rule:nonzero;opacity:1;stroke:none;"/>
      </g>
    </defs>
    <use xlink:href="#25"/>
  </g>
</svg>
