<?xml version="1.0"?>
<svg xmlns="http://www.w3.org/2000/svg" xmlns:xlink="http://www.w3.org/1999/xlink" version="1.1" id="Capa_1" x="0px" y="0px" viewBox="0 0 464 464" style="enable-background:new 0 0 464 464;" xml:space="preserve" width="512px" height="512px" class=""><g transform="matrix(1.3748 0 0 1.3748 -86.9542 -86.9542)"><circle style="fill:#C18B4C" cx="360" cy="200" r="32" data-original="#00F2A9" class="active-path" data-old_color="#00F2A9"/><g>
	<path style="fill:#322153" d="M64,168c0,22.056,17.944,40,40,40s40-17.944,40-40s-17.944-40-40-40S64,145.944,64,168z M104,144   c13.232,0,24,10.768,24,24s-10.768,24-24,24s-24-10.768-24-24S90.768,144,104,144z" data-original="#322153" class="" data-old_color="#322153"/>
	<path style="fill:#322153" d="M232,208c22.056,0,40-17.944,40-40s-17.944-40-40-40s-40,17.944-40,40S209.944,208,232,208z    M232,144c13.232,0,24,10.768,24,24s-10.768,24-24,24s-24-10.768-24-24S218.768,144,232,144z" data-original="#322153" class="" data-old_color="#322153"/>
	<path style="fill:#322153" d="M360,128c-22.056,0-40,17.944-40,40s17.944,40,40,40s40-17.944,40-40S382.056,128,360,128z M360,192   c-13.232,0-24-10.768-24-24s10.768-24,24-24s24,10.768,24,24S373.232,192,360,192z" data-original="#322153" class="" data-old_color="#322153"/>
	<path style="fill:#322153" d="M104,256c-22.056,0-40,17.944-40,40s17.944,40,40,40s40-17.944,40-40S126.056,256,104,256z M104,320   c-13.232,0-24-10.768-24-24s10.768-24,24-24s24,10.768,24,24S117.232,320,104,320z" data-original="#322153" class="" data-old_color="#322153"/>
	<path style="fill:#322153" d="M232,336c22.056,0,40-17.944,40-40s-17.944-40-40-40s-40,17.944-40,40S209.944,336,232,336z    M232,272c13.232,0,24,10.768,24,24s-10.768,24-24,24s-24-10.768-24-24S218.768,272,232,272z" data-original="#322153" class="" data-old_color="#322153"/>
	<path style="fill:#322153" d="M360,256c-22.056,0-40,17.944-40,40s17.944,40,40,40s40-17.944,40-40S382.056,256,360,256z M360,320   c-13.232,0-24-10.768-24-24s10.768-24,24-24s24,10.768,24,24S373.232,320,360,320z" data-original="#322153" class="" data-old_color="#322153"/>

</g></g> </svg>
