<?xml version="1.0" encoding="utf-8"?>
<svg x="0pt" y="0pt" width="1000pt" height="1000pt" viewBox="0 0 1000 1000" xmlns="http://www.w3.org/2000/svg" xmlns:xlink="http://www.w3.org/1999/xlink">
  <g id="1">
    <title>Layer 1</title>
    <linearGradient x1="1032.09" y1="1054.95" x2="-10.3593" y2="322.05" gradientUnits="userSpaceOnUse" id="4">
      <stop style="stop-color:#c18a4b;stop-opacity:1;"/>
      <stop offset="1" style="stop-color:#f9ebd6;stop-opacity:1;"/>
    </linearGradient>
    <defs>
      <title>Path</title>
      <g id="2">
        <defs>
          <path id="3" d="M-47.0209,43.7867 C-47.0209,43.7867,1009.6,-7.54797,1009.6,-7.54797 C1009.6,-7.54797,1096.63,1783.9,1096.63,1783.9 C1096.63,1783.9,40.0144,1835.23,40.0144,1835.23 C40.0144,1835.23,-47.0209,43.7867,-47.0209,43.7867 z"/>
        </defs>
        <use xlink:href="#3" style="fill:url(#4);fill-opacity:1;fill-rule:evenodd;opacity:1;stroke:none;"/>
        <use xlink:href="#3" style="fill:none;opacity:1;stroke:#000000;stroke-linecap:butt;stroke-linejoin:miter;stroke-miterlimit:10;stroke-opacity:1;stroke-width:1;"/>
      </g>
    </defs>
    <use xlink:href="#2"/>
    <defs>
      <title>Smart Rectangle</title>
      <g id="5">
        <defs>
          <path id="6" d="M1038.22,19.8802 C1038.44,24.2933,1035.03,28.0446,1030.62,28.259 C1030.62,28.259,-64.4721,81.4628,-64.4721,81.4628 C-68.8851,81.6772,-72.6364,78.2735,-72.8508,73.8604 C-72.8508,73.8604,-73.8595,53.1,-73.8595,53.1 C-74.0739,48.687,-70.6702,44.9356,-66.2571,44.7212 C-66.2571,44.7212,1028.83,-8.48254,1028.83,-8.48254 C1033.25,-8.69695,1037,-5.29325,1037.21,-0.88018 C1037.21,-0.88018,1038.22,19.8802,1038.22,19.8802 z"/>
        </defs>
        <use xlink:href="#6" style="fill:#3f413d;fill-opacity:1;fill-rule:nonzero;opacity:1;stroke:none;"/>
        <use xlink:href="#6" style="fill:none;opacity:1;stroke:#000000;stroke-linecap:butt;stroke-linejoin:miter;stroke-miterlimit:10;stroke-opacity:1;stroke-width:1;"/>
      </g>
    </defs>
    <use xlink:href="#5"/>
    <defs>
      <title>Path</title>
      <g id="7">
        <defs>
          <path id="8" d="M-47.0209,43.7866 C-47.0209,43.7866,1009.6,-7.54808,1009.6,-7.54808 C1009.6,-7.54808,1147.34,-1310.1,1147.34,-1310.1 C1147.34,-1310.1,-374.695,-1280.23,-374.695,-1280.23 C-374.695,-1280.23,-47.0209,43.7866,-47.0209,43.7866 z"/>
        </defs>
        <use xlink:href="#8" style="fill:#ccc6b3;fill-opacity:1;fill-rule:nonzero;opacity:1;stroke:none;"/>
      </g>
    </defs>
    <use xlink:href="#7"/>
    <defs>
      <title>Smart Rectangle</title>
      <g id="9">
        <defs>
          <path id="10" d="M656.011,1939.3 C656.225,1943.72,652.822,1947.47,648.409,1947.68 C648.409,1947.68,647.191,1947.74,647.191,1947.74 C642.778,1947.96,639.027,1944.55,638.813,1940.14 C638.813,1940.14,499.736,-922.462,499.736,-922.462 C499.522,-926.875,502.926,-930.626,507.339,-930.841 C507.339,-930.841,508.556,-930.9,508.556,-930.9 C512.969,-931.114,516.72,-927.71,516.935,-923.297 C516.935,-923.297,656.011,1939.3,656.011,1939.3 z"/>
        </defs>
        <use xlink:href="#10" style="fill:#fffefe;fill-opacity:1;fill-rule:nonzero;opacity:1;stroke:none;"/>
        <use xlink:href="#10" style="fill:none;opacity:1;stroke:#000000;stroke-linecap:butt;stroke-linejoin:miter;stroke-miterlimit:10;stroke-opacity:1;stroke-width:1;"/>
      </g>
    </defs>
    <use xlink:href="#9"/>
    <defs>
      <title>Smart Rectangle Copy</title>
      <g id="11">
        <defs>
          <path id="12" d="M840.331,1930.35 C840.545,1934.76,837.142,1938.51,832.729,1938.73 C832.729,1938.73,831.512,1938.79,831.512,1938.79 C827.098,1939,823.347,1935.6,823.133,1931.18 C823.133,1931.18,688.151,-847.15,688.151,-847.15 C687.936,-851.563,691.34,-855.315,695.753,-855.529 C695.753,-855.529,696.97,-855.588,696.97,-855.588 C701.383,-855.803,705.134,-852.399,705.349,-847.986 C705.349,-847.986,840.331,1930.35,840.331,1930.35 z"/>
        </defs>
        <use xlink:href="#12" style="fill:#fffefe;fill-opacity:1;fill-rule:nonzero;opacity:1;stroke:none;"/>
        <use xlink:href="#12" style="fill:none;opacity:1;stroke:#000000;stroke-linecap:butt;stroke-linejoin:miter;stroke-miterlimit:10;stroke-opacity:1;stroke-width:1;"/>
      </g>
    </defs>
    <use xlink:href="#11"/>
    <defs>
      <title>Smart Rectangle Copy Copy</title>
      <g id="13">
        <defs>
          <path id="14" d="M1048.48,1920.24 C1048.69,1924.65,1045.29,1928.4,1040.87,1928.62 C1040.87,1928.62,1039.66,1928.67,1039.66,1928.67 C1035.24,1928.89,1031.49,1925.49,1031.28,1921.07 C1031.28,1921.07,900.418,-772.43,900.418,-772.43 C900.203,-776.843,903.607,-780.594,908.02,-780.809 C908.02,-780.809,909.237,-780.868,909.237,-780.868 C913.65,-781.082,917.402,-777.678,917.616,-773.265 C917.616,-773.265,1048.48,1920.24,1048.48,1920.24 z"/>
        </defs>
        <use xlink:href="#14" style="fill:#fffefe;fill-opacity:1;fill-rule:nonzero;opacity:1;stroke:none;"/>
        <use xlink:href="#14" style="fill:none;opacity:1;stroke:#000000;stroke-linecap:butt;stroke-linejoin:miter;stroke-miterlimit:10;stroke-opacity:1;stroke-width:1;"/>
      </g>
    </defs>
    <use xlink:href="#13"/>
    <defs>
      <title>Smart Rectangle Copy</title>
      <g id="15">
        <defs>
          <path id="16" d="M97.5247,1966.43 C97.7391,1970.85,94.3354,1974.6,89.9223,1974.81 C89.9223,1974.81,88.7052,1974.87,88.7052,1974.87 C84.2921,1975.08,80.5408,1971.68,80.3264,1967.27 C80.3264,1967.27,-53.0746,-778.521,-53.0746,-778.521 C-53.289,-782.934,-49.8853,-786.685,-45.4722,-786.899 C-45.4722,-786.899,-44.2551,-786.959,-44.2551,-786.959 C-39.842,-787.173,-36.0907,-783.769,-35.8763,-779.356 C-35.8763,-779.356,97.5247,1966.43,97.5247,1966.43 z"/>
        </defs>
        <use xlink:href="#16" style="fill:#fffefe;fill-opacity:1;fill-rule:nonzero;opacity:1;stroke:none;"/>
        <use xlink:href="#16" style="fill:none;opacity:1;stroke:#000000;stroke-linecap:butt;stroke-linejoin:miter;stroke-miterlimit:10;stroke-opacity:1;stroke-width:1;"/>
      </g>
    </defs>
    <use xlink:href="#15"/>
    <defs>
      <title>Smart Rectangle Copy Copy</title>
      <g id="17">
        <defs>
          <path id="18" d="M264.769,1939.58 C264.983,1943.99,261.579,1947.74,257.166,1947.95 C257.166,1947.95,255.949,1948.01,255.949,1948.01 C251.536,1948.23,247.785,1944.82,247.57,1940.41 C247.57,1940.41,112.196,-846.004,112.196,-846.004 C111.981,-850.417,115.385,-854.169,119.798,-854.383 C119.798,-854.383,121.015,-854.442,121.015,-854.442 C125.428,-854.656,129.18,-851.253,129.394,-846.84 C129.394,-846.84,264.769,1939.58,264.769,1939.58 z"/>
        </defs>
        <use xlink:href="#18" style="fill:#fffefe;fill-opacity:1;fill-rule:nonzero;opacity:1;stroke:none;"/>
        <use xlink:href="#18" style="fill:none;opacity:1;stroke:#000000;stroke-linecap:butt;stroke-linejoin:miter;stroke-miterlimit:10;stroke-opacity:1;stroke-width:1;"/>
      </g>
    </defs>
    <use xlink:href="#17"/>
    <defs>
      <title>Smart Rectangle Copy Copy Copy</title>
      <g id="19">
        <defs>
          <path id="20" d="M467.571,1962.5 C467.785,1966.91,464.381,1970.66,459.968,1970.87 C459.968,1970.87,458.751,1970.93,458.751,1970.93 C454.338,1971.15,450.587,1967.74,450.372,1963.33 C450.372,1963.33,313.409,-855.78,313.409,-855.78 C313.195,-860.193,316.598,-863.944,321.012,-864.159 C321.012,-864.159,322.229,-864.218,322.229,-864.218 C326.642,-864.432,330.393,-861.028,330.607,-856.615 C330.607,-856.615,467.571,1962.5,467.571,1962.5 z"/>
        </defs>
        <use xlink:href="#20" style="fill:#fffefe;fill-opacity:1;fill-rule:nonzero;opacity:1;stroke:none;"/>
        <use xlink:href="#20" style="fill:none;opacity:1;stroke:#000000;stroke-linecap:butt;stroke-linejoin:miter;stroke-miterlimit:10;stroke-opacity:1;stroke-width:1;"/>
      </g>
    </defs>
    <use xlink:href="#19"/>
  </g>
  <g id="21">
    <title>Layer 4</title>
  </g>
  <g id="22">
    <title>Layer 3</title>
    <defs>
      <title>Path Copy Copy</title>
      <g id="23">
        <defs>
          <path id="24" d="M584.065,440.653 C658.891,440.653,719.549,501.311,719.549,576.137 C719.549,650.963,658.891,711.622,584.065,711.622 C509.239,711.622,448.58,650.963,448.58,576.137 C448.58,501.311,509.239,440.653,584.065,440.653 z"/>
        </defs>
        <use xlink:href="#24" style="fill:#463664;fill-opacity:1;fill-rule:evenodd;opacity:1;stroke:none;"/>
      </g>
    </defs>
    <use xlink:href="#23"/>
    <defs>
      <title>Text</title>
      <g id="25">
        <defs>
          <path id="26" d="M579.594,489.493 C569.33,490.239,561.335,491.459,555.608,493.151 C553.091,499.5,551.531,502.909,550.927,503.379 C550.323,503.848,547.348,504.994,542.003,506.819 C536.657,508.643,532.803,508.657,530.438,506.863 C528.074,505.068,525.562,501.61,522.902,496.488 C520.243,491.366,518.797,487.219,518.567,484.046 C518.413,481.931,519.166,480.229,520.828,478.938 C522.489,477.648,529.501,475.703,541.863,473.102 C554.226,470.502,569.348,468.551,587.23,467.25 C605.641,465.91,621.42,468.244,634.569,474.25 C647.717,480.257,654.941,492.196,656.242,510.067 C657.604,528.785,649.208,546.804,631.056,564.124 C612.904,581.444,601.801,594.052,597.749,601.948 C593.696,609.844,591.966,617.863,592.558,626.006 C592.558,626.006,592.951,631.399,592.951,631.399 C585.463,633.751,577.434,635.239,568.864,635.863 C561.457,636.402,557.473,632.811,556.911,625.092 C556.449,618.747,558.328,611.301,562.546,602.756 C566.764,594.21,577.388,581.982,594.42,566.072 C611.452,550.162,619.456,535.175,618.433,521.111 C617.579,509.372,613.537,500.976,606.309,495.921 C599.08,490.865,590.175,488.723,579.594,489.493 z M587.574,691.27 C579.533,691.855,573.52,690.725,569.537,687.878 C565.554,685.032,563.347,680.648,562.916,674.726 C562.485,668.804,564.217,664.107,568.113,660.634 C572.009,657.161,577.607,655.159,584.908,654.628 C592.95,654.043,598.99,655.198,603.03,658.094 C607.07,660.989,609.306,665.397,609.737,671.319 C610.168,677.241,608.433,681.912,604.534,685.332 C600.634,688.752,594.981,690.731,587.574,691.27 z"/>
        </defs>
        <use xlink:href="#26" style="fill:#ffffff;fill-opacity:1;fill-rule:nonzero;opacity:1;stroke:none;"/>
      </g>
    </defs>
    <use xlink:href="#25"/>
  </g>
</svg>
