<?xml version="1.0"?>
<svg xmlns="http://www.w3.org/2000/svg" xmlns:xlink="http://www.w3.org/1999/xlink" version="1.1" id="Capa_1" x="0px" y="0px" viewBox="0 0 464 464" style="enable-background:new 0 0 464 464;" xml:space="preserve" width="512px" height="512px"><g><rect x="8" y="172" style="fill:#10DC60" width="96" height="288" data-original="#00F2A9" class="active-path" data-old_color="#00F2A9"/><g>
	<path style="fill:#322153" d="M424,164H296c-13.232,0-24-10.768-24-24V44c0-22.056-17.944-40-40-40s-40,17.944-40,40v56.448   c0,3.704-0.872,7.424-2.528,10.736l-23.84,47.696c-2.32,4.616-6.136,8.432-10.744,10.744L112,191.056V140c0-4.424-3.576-8-8-8H8   c-4.424,0-8,3.576-8,8v288c0,4.424,3.576,8,8,8h96c4.424,0,8-3.576,8-8v-44.688l40.968,40.968c7.552,7.552,17.6,11.72,28.288,11.72   h147.072c21.832,0,39.776-17.76,40-39.576c0.088-8.968-2.888-17.408-8.216-24.432C382.112,371.928,400,354.016,400,332   c0-9-2.984-17.312-8.016-24H392c22.056,0,40-17.944,40-40c0-9.04-3.128-17.296-8.208-24H424c22.056,0,40-17.944,40-40   S446.056,164,424,164z M96,420H16V148h80V420z M424,228h-32c-4.424,0-8,3.576-8,8s3.576,8,8,8c13.232,0,24,10.768,24,24   s-10.768,24-24,24h-32c-4.424,0-8,3.576-8,8s3.576,8,8,8c13.232,0,24,10.768,24,24s-10.768,24-24,24h-32c-4.424,0-8,3.576-8,8   s3.576,8,8,8h0.328c6.464,0,12.512,2.528,17.064,7.12c4.536,4.592,7.008,10.68,6.936,17.144c-0.136,13.088-10.896,23.744-24,23.744   H181.256c-6.416,0-12.44-2.504-16.976-7.032L112,360.688V208.944l50.048-25.024c7.68-3.84,14.032-10.192,17.88-17.88l23.848-47.712   c2.76-5.52,4.224-11.712,4.224-17.88V44c0-13.232,10.768-24,24-24s24,10.768,24,24v96c0,22.056,17.944,40,40,40h128   c13.232,0,24,10.768,24,24S437.232,228,424,228z" data-original="#322153" class="" data-old_color="#322153"/>
	<path style="fill:#322153" d="M72,388H40c-4.424,0-8,3.576-8,8s3.576,8,8,8h32c4.424,0,8-3.576,8-8S76.424,388,72,388z" data-original="#322153" class="" data-old_color="#322153"/>
	<path style="fill:#322153" d="M232,388h-18.744c-6.416,0-12.448-2.504-16.976-7.032l-22.624-22.624   c-3.128-3.128-8.184-3.128-11.312,0s-3.128,8.184,0,11.312l22.624,22.624c7.552,7.552,17.6,11.72,28.288,11.72H232   c4.424,0,8-3.576,8-8S236.424,388,232,388z" data-original="#322153" class="" data-old_color="#322153"/>
</g></g> </svg>
