<?xml version="1.0" encoding="utf-8"?>
<svg x="0pt" y="0pt" width="1000pt" height="1000pt" viewBox="0 0 1000 1000" xmlns="http://www.w3.org/2000/svg" xmlns:xlink="http://www.w3.org/1999/xlink">
  <g id="1">
    <title>Layer 1</title>
    <linearGradient x1="1032.09" y1="1054.95" x2="-10.3593" y2="322.049" gradientUnits="userSpaceOnUse" id="4">
      <stop style="stop-color:#c18b4c;stop-opacity:1;"/>
      <stop offset="1" style="stop-color:#faebd7;stop-opacity:1;"/>
    </linearGradient>
    <defs>
      <title>Path</title>
      <g id="2">
        <defs>
          <path id="3" d="M-47.0209,43.7867 C-47.0209,43.7867,1009.6,-7.54797,1009.6,-7.54797 C1009.6,-7.54797,1096.63,1783.9,1096.63,1783.9 C1096.63,1783.9,40.0144,1835.23,40.0144,1835.23 C40.0144,1835.23,-47.0209,43.7867,-47.0209,43.7867 z"/>
        </defs>
        <use xlink:href="#3" style="fill:url(#4);fill-opacity:1;fill-rule:evenodd;opacity:1;stroke:none;"/>
        <use xlink:href="#3" style="fill:none;opacity:1;stroke:#000000;stroke-linecap:butt;stroke-linejoin:miter;stroke-miterlimit:10;stroke-opacity:1;stroke-width:1;"/>
      </g>
    </defs>
    <use xlink:href="#2"/>
    <defs>
      <title>Smart Rectangle</title>
      <g id="5">
        <defs>
          <path id="6" d="M1038.22,19.8802 C1038.44,24.2933,1035.03,28.0446,1030.62,28.259 C1030.62,28.259,-64.4721,81.4628,-64.4721,81.4628 C-68.8851,81.6772,-72.6364,78.2735,-72.8508,73.8604 C-72.8508,73.8604,-73.8595,53.1,-73.8595,53.1 C-74.0739,48.687,-70.6702,44.9356,-66.2571,44.7212 C-66.2571,44.7212,1028.83,-8.48254,1028.83,-8.48254 C1033.25,-8.69695,1037,-5.29325,1037.21,-0.88018 C1037.21,-0.88018,1038.22,19.8802,1038.22,19.8802 z"/>
        </defs>
        <use xlink:href="#6" style="fill:#40413e;fill-opacity:1;fill-rule:nonzero;opacity:1;stroke:none;"/>
        <use xlink:href="#6" style="fill:none;opacity:1;stroke:#000000;stroke-linecap:butt;stroke-linejoin:miter;stroke-miterlimit:10;stroke-opacity:1;stroke-width:1;"/>
      </g>
    </defs>
    <use xlink:href="#5"/>
    <defs>
      <title>Path</title>
      <g id="7">
        <defs>
          <path id="8" d="M-47.0209,43.7866 C-47.0209,43.7866,1009.6,-7.54804,1009.6,-7.54804 C1009.6,-7.54804,991.031,-331.248,1163.33,-380.738 C1163.33,-380.738,574.718,-1620.05,574.718,-1620.05 C574.718,-1620.05,-318.151,-1892.76,-430.147,-1352.94 C-542.144,-813.122,-47.0209,43.7866,-47.0209,43.7866 z"/>
        </defs>
        <use xlink:href="#8" style="fill:#ccc7b4;fill-opacity:1;fill-rule:nonzero;opacity:1;stroke:none;"/>
      </g>
    </defs>
    <use xlink:href="#7"/>
    <defs>
      <title>Smart Rectangle</title>
      <g id="9">
        <defs>
          <path id="10" d="M656.011,1939.3 C656.225,1943.72,652.822,1947.47,648.409,1947.68 C648.409,1947.68,647.191,1947.74,647.191,1947.74 C642.778,1947.96,639.027,1944.55,638.813,1940.14 C638.813,1940.14,499.736,-922.462,499.736,-922.462 C499.522,-926.875,502.926,-930.626,507.339,-930.841 C507.339,-930.841,508.556,-930.9,508.556,-930.9 C512.969,-931.114,516.72,-927.71,516.935,-923.297 C516.935,-923.297,656.011,1939.3,656.011,1939.3 z"/>
        </defs>
        <use xlink:href="#10" style="fill:#fffefe;fill-opacity:1;fill-rule:nonzero;opacity:1;stroke:none;"/>
        <use xlink:href="#10" style="fill:none;opacity:1;stroke:#000000;stroke-linecap:butt;stroke-linejoin:miter;stroke-miterlimit:10;stroke-opacity:1;stroke-width:1;"/>
      </g>
    </defs>
    <use xlink:href="#9"/>
    <defs>
      <title>Smart Rectangle Copy</title>
      <g id="11">
        <defs>
          <path id="12" d="M840.331,1930.35 C840.545,1934.76,837.142,1938.51,832.729,1938.73 C832.729,1938.73,831.512,1938.79,831.512,1938.79 C827.098,1939,823.347,1935.6,823.133,1931.18 C823.133,1931.18,688.151,-847.15,688.151,-847.15 C687.936,-851.563,691.34,-855.315,695.753,-855.529 C695.753,-855.529,696.97,-855.588,696.97,-855.588 C701.383,-855.803,705.134,-852.399,705.349,-847.986 C705.349,-847.986,840.331,1930.35,840.331,1930.35 z"/>
        </defs>
        <use xlink:href="#12" style="fill:#fffefe;fill-opacity:1;fill-rule:nonzero;opacity:1;stroke:none;"/>
        <use xlink:href="#12" style="fill:none;opacity:1;stroke:#000000;stroke-linecap:butt;stroke-linejoin:miter;stroke-miterlimit:10;stroke-opacity:1;stroke-width:1;"/>
      </g>
    </defs>
    <use xlink:href="#11"/>
    <defs>
      <title>Smart Rectangle Copy Copy</title>
      <g id="13">
        <defs>
          <path id="14" d="M1048.48,1920.24 C1048.69,1924.65,1045.29,1928.4,1040.87,1928.62 C1040.87,1928.62,1039.66,1928.67,1039.66,1928.67 C1035.24,1928.89,1031.49,1925.49,1031.28,1921.07 C1031.28,1921.07,900.418,-772.43,900.418,-772.43 C900.203,-776.843,903.607,-780.594,908.02,-780.809 C908.02,-780.809,909.237,-780.868,909.237,-780.868 C913.65,-781.082,917.402,-777.678,917.616,-773.265 C917.616,-773.265,1048.48,1920.24,1048.48,1920.24 z"/>
        </defs>
        <use xlink:href="#14" style="fill:#fffefe;fill-opacity:1;fill-rule:nonzero;opacity:1;stroke:none;"/>
        <use xlink:href="#14" style="fill:none;opacity:1;stroke:#000000;stroke-linecap:butt;stroke-linejoin:miter;stroke-miterlimit:10;stroke-opacity:1;stroke-width:1;"/>
      </g>
    </defs>
    <use xlink:href="#13"/>
    <defs>
      <title>Smart Rectangle Copy</title>
      <g id="15">
        <defs>
          <path id="16" d="M97.5247,1966.43 C97.7391,1970.85,94.3354,1974.6,89.9223,1974.81 C89.9223,1974.81,88.7052,1974.87,88.7052,1974.87 C84.2921,1975.08,80.5408,1971.68,80.3264,1967.27 C80.3264,1967.27,-53.0746,-778.521,-53.0746,-778.521 C-53.289,-782.934,-49.8853,-786.685,-45.4722,-786.899 C-45.4722,-786.899,-44.2551,-786.959,-44.2551,-786.959 C-39.842,-787.173,-36.0907,-783.769,-35.8763,-779.356 C-35.8763,-779.356,97.5247,1966.43,97.5247,1966.43 z"/>
        </defs>
        <use xlink:href="#16" style="fill:#fffefe;fill-opacity:1;fill-rule:nonzero;opacity:1;stroke:none;"/>
        <use xlink:href="#16" style="fill:none;opacity:1;stroke:#000000;stroke-linecap:butt;stroke-linejoin:miter;stroke-miterlimit:10;stroke-opacity:1;stroke-width:1;"/>
      </g>
    </defs>
    <use xlink:href="#15"/>
    <defs>
      <title>Smart Rectangle Copy Copy</title>
      <g id="17">
        <defs>
          <path id="18" d="M264.769,1939.58 C264.983,1943.99,261.579,1947.74,257.166,1947.95 C257.166,1947.95,255.949,1948.01,255.949,1948.01 C251.536,1948.23,247.785,1944.82,247.57,1940.41 C247.57,1940.41,112.196,-846.004,112.196,-846.004 C111.981,-850.417,115.385,-854.169,119.798,-854.383 C119.798,-854.383,121.015,-854.442,121.015,-854.442 C125.428,-854.656,129.18,-851.253,129.394,-846.84 C129.394,-846.84,264.769,1939.58,264.769,1939.58 z"/>
        </defs>
        <use xlink:href="#18" style="fill:#fffefe;fill-opacity:1;fill-rule:nonzero;opacity:1;stroke:none;"/>
        <use xlink:href="#18" style="fill:none;opacity:1;stroke:#000000;stroke-linecap:butt;stroke-linejoin:miter;stroke-miterlimit:10;stroke-opacity:1;stroke-width:1;"/>
      </g>
    </defs>
    <use xlink:href="#17"/>
    <defs>
      <title>Smart Rectangle Copy Copy Copy</title>
      <g id="19">
        <defs>
          <path id="20" d="M467.571,1962.5 C467.785,1966.91,464.381,1970.66,459.968,1970.87 C459.968,1970.87,458.751,1970.93,458.751,1970.93 C454.338,1971.15,450.587,1967.74,450.372,1963.33 C450.372,1963.33,313.409,-855.78,313.409,-855.78 C313.195,-860.193,316.598,-863.944,321.012,-864.159 C321.012,-864.159,322.229,-864.218,322.229,-864.218 C326.642,-864.432,330.393,-861.028,330.607,-856.615 C330.607,-856.615,467.571,1962.5,467.571,1962.5 z"/>
        </defs>
        <use xlink:href="#20" style="fill:#fffefe;fill-opacity:1;fill-rule:nonzero;opacity:1;stroke:none;"/>
        <use xlink:href="#20" style="fill:none;opacity:1;stroke:#000000;stroke-linecap:butt;stroke-linejoin:miter;stroke-miterlimit:10;stroke-opacity:1;stroke-width:1;"/>
      </g>
    </defs>
    <use xlink:href="#19"/>
  </g>
  <g id="21">
    <title>Layer 2</title>
    <defs>
      <title>Path Copy</title>
      <g id="22">
        <defs>
          <path id="23" d="M390.53,385.769 C447.223,385.769,493.181,431.728,493.181,488.421 C493.181,545.114,447.223,591.073,390.53,591.073 C333.837,591.073,287.878,545.114,287.878,488.421 C287.878,431.728,333.837,385.769,390.53,385.769 z"/>
        </defs>
        <use xlink:href="#23" style="fill:#72bf46;fill-opacity:0.592581;fill-rule:evenodd;opacity:1;stroke:none;"/>
      </g>
    </defs>
    <use xlink:href="#22"/>
    <g id="24">
      <title>Group</title>
      <linearGradient x1="1047.25" y1="879.373" x2="536.674" y2="514.293" gradientUnits="userSpaceOnUse" id="27">
        <stop style="stop-color:#faebd7;stop-opacity:1;"/>
        <stop offset="1" style="stop-color:#faebd7;stop-opacity:1;"/>
      </linearGradient>
      <defs>
        <title>Shape 28</title>
        <g id="25">
          <defs>
            <path id="26" d="M762.819,519.443 C742.751,497.312,743.238,464.19,763.893,445.459 C764.171,445.208,764.448,444.957,764.725,444.705 C785.347,426.005,818.278,428.691,838.36,450.739 C904.074,522.857,910.395,530.051,1008.18,638.093 C1063.09,698.759,1061.72,789.46,1005.14,840.769 C964.648,877.488,924.155,914.207,883.662,950.927 C846.489,984.635,792.662,994.148,743.012,975.794 C644.011,939.17,545.01,902.546,446.01,865.922 C446.944,859.374,447.879,852.825,448.813,846.277 C452.716,803.494,490.362,774.184,533.249,780.513 C554.507,783.651,575.765,786.79,597.023,789.928 C520.347,705.255,443.671,620.582,366.994,535.91 C346.949,513.776,347.445,480.663,368.091,461.941 C368.094,461.938,368.097,461.936,368.1,461.933 C388.761,443.197,421.786,445.957,441.854,468.088 C488.294,519.3,534.734,570.513,581.174,621.725 C562.024,599.616,562.825,567.24,583.162,548.798 C583.454,548.534,583.745,548.269,584.037,548.005 C604.698,529.27,637.714,532.02,657.782,554.15 C661.681,558.45,665.581,562.751,669.48,567.051 C649.407,544.915,649.889,511.798,670.564,493.049 C670.593,493.023,670.622,492.997,670.651,492.971 C691.307,474.24,724.318,476.985,744.391,499.12 z M762.819,519.443"/>
          </defs>
          <use xlink:href="#26" style="fill:url(#27);fill-opacity:1;fill-rule:evenodd;opacity:1;stroke:none;"/>
          <use xlink:href="#26" style="fill:none;opacity:1;stroke:#473764;stroke-linecap:butt;stroke-linejoin:miter;stroke-miterlimit:10;stroke-opacity:1;stroke-width:15;"/>
        </g>
      </defs>
      <use xlink:href="#25"/>
    </g>
    <defs>
      <title>Path</title>
      <g id="28">
        <defs>
          <path id="29" d="M993,847.984 C993,847.984,993,625.41,993,625.41"/>
        </defs>
        <use xlink:href="#29" style="fill:none;opacity:1;stroke:#473764;stroke-linecap:round;stroke-linejoin:miter;stroke-miterlimit:10;stroke-opacity:1;stroke-width:20;"/>
      </g>
    </defs>
    <use xlink:href="#28"/>
  </g>
</svg>
