<?xml version="1.0" encoding="utf-8"?>
<!-- Generator: Adobe Illustrator 25.2.0, SVG Export Plug-In . SVG Version: 6.00 Build 0)  -->
<svg version="1.1" id="Layer_1" xmlns="http://www.w3.org/2000/svg" xmlns:xlink="http://www.w3.org/1999/xlink" x="0px" y="0px"
	 viewBox="0 0 1000 1000" style="enable-background:new 0 0 1000 1000;" xml:space="preserve">
<style type="text/css">
	.st0{fill-rule:evenodd;clip-rule:evenodd;fill:url(#_x33__2_);}
	.st1{fill:none;stroke:#000000;stroke-miterlimit:10;}
	.st2{fill:#3F413D;}
	.st3{fill:#CCC6B3;}
	.st4{fill:#FFFEFE;}
	.st5{fill-rule:evenodd;clip-rule:evenodd;fill:#72BF46;}
	.st6{fill-rule:evenodd;clip-rule:evenodd;fill:url(#_x33_0_2_);}
	.st7{fill:none;stroke:#463664;stroke-width:15;stroke-miterlimit:10;}
	.st8{fill-rule:evenodd;clip-rule:evenodd;fill:url(#_x33_5_2_);}
	.st9{fill-rule:evenodd;clip-rule:evenodd;fill:#2B1C49;}
	.st10{fill:none;stroke:#463664;stroke-width:21;stroke-miterlimit:10;}
	.st11{display:none;}
	.st12{display:inline;}
	.st13{fill:none;stroke:#463664;stroke-width:28;stroke-miterlimit:10;}
</style>
<g id="_x31_">
	<g>
		<g id="_x32_">
			<g>
				
					<linearGradient id="_x33__2_" gradientUnits="userSpaceOnUse" x1="930.6797" y1="-197.1921" x2="-111.7695" y2="535.7079" gradientTransform="matrix(1 0 0 -1 0 1002)">
					<stop  offset="0" style="stop-color:#C18A4B"/>
					<stop  offset="1" style="stop-color:#F9EBD6"/>
				</linearGradient>
				<path id="_x33_" class="st0" d="M-47,43.8L1009.6-7.5l87,1791.4L40,1835.2L-47,43.8z"/>
			</g>
			<g>
				<path id="_x33__1_" class="st1" d="M-47,43.8L1009.6-7.5l87,1791.4L40,1835.2L-47,43.8z"/>
			</g>
		</g>
	</g>
	<g>
		<g id="_x35_">
			<g>
				<path id="_x36_" class="st2" d="M1038.2,19.9c0.2,4.4-3.2,8.2-7.6,8.4L-64.5,81.5c-4.4,0.2-8.2-3.2-8.4-7.6l-1-20.8
					c-0.2-4.4,3.2-8.2,7.6-8.4L1028.8-8.5c4.4-0.2,8.2,3.2,8.4,7.6L1038.2,19.9z"/>
			</g>
			<g>
				<path id="_x36__1_" class="st1" d="M1038.2,19.9c0.2,4.4-3.2,8.2-7.6,8.4L-64.5,81.5c-4.4,0.2-8.2-3.2-8.4-7.6l-1-20.8
					c-0.2-4.4,3.2-8.2,7.6-8.4L1028.8-8.5c4.4-0.2,8.2,3.2,8.4,7.6L1038.2,19.9z"/>
			</g>
		</g>
	</g>
	<g>
		<g id="_x37_">
			<g>
				<path id="_x38_" class="st3" d="M-47,43.8L1009.6-7.5l137.7-1302.6l-1522,29.9L-47,43.8z"/>
			</g>
		</g>
	</g>
	<g>
		<g id="_x39_">
			<g>
				<path id="_x31_0" class="st4" d="M656,1939.3c0.2,4.4-3.2,8.2-7.6,8.4l-1.2,0.1c-4.4,0.2-8.2-3.2-8.4-7.6L499.7-922.5
					c-0.2-4.4,3.2-8.2,7.6-8.4l1.2-0.1c4.4-0.2,8.2,3.2,8.4,7.6L656,1939.3z"/>
			</g>
		</g>
	</g>
	<g>
		<g id="_x31_1">
			<g>
				<path id="_x31_2" class="st4" d="M840.3,1930.3c0.2,4.4-3.2,8.2-7.6,8.4l-1.2,0.1c-4.4,0.2-8.2-3.2-8.4-7.6l-135-2778.3
					c-0.2-4.4,3.2-8.2,7.6-8.4l1.2-0.1c4.4-0.2,8.2,3.2,8.4,7.6L840.3,1930.3z"/>
			</g>
		</g>
	</g>
	<g>
		<g id="_x31_3">
			<g>
				<path id="_x31_4" class="st4" d="M1048.5,1920.2c0.2,4.4-3.2,8.2-7.6,8.4l-1.2,0.1c-4.4,0.2-8.2-3.2-8.4-7.6L900.4-772.4
					c-0.2-4.4,3.2-8.2,7.6-8.4l1.2-0.1c4.4-0.2,8.2,3.2,8.4,7.6L1048.5,1920.2z"/>
			</g>
		</g>
	</g>
	<g>
		<g id="_x31_5">
			<g>
				<path id="_x31_6" class="st4" d="M97.5,1966.4c0.2,4.4-3.2,8.2-7.6,8.4l-1.2,0.1c-4.4,0.2-8.2-3.2-8.4-7.6L-53.1-778.5
					c-0.2-4.4,3.2-8.2,7.6-8.4l1.2-0.1c4.4-0.2,8.2,3.2,8.4,7.6L97.5,1966.4z"/>
			</g>
		</g>
	</g>
	<g>
		<g id="_x31_7">
			<g>
				<path id="_x31_8" class="st4" d="M264.8,1939.6c0.2,4.4-3.2,8.2-7.6,8.4l-1.2,0.1c-4.4,0.2-8.2-3.2-8.4-7.6L112.2-846
					c-0.2-4.4,3.2-8.2,7.6-8.4l1.2-0.1c4.4-0.2,8.2,3.2,8.4,7.6L264.8,1939.6z"/>
			</g>
		</g>
	</g>
	<g>
		<g id="_x31_9">
			<g>
				<path id="_x32_0" class="st4" d="M467.6,1962.5c0.2,4.4-3.2,8.2-7.6,8.4l-1.2,0.1c-4.4,0.2-8.2-3.2-8.4-7.6l-137-2819.1
					c-0.2-4.4,3.2-8.2,7.6-8.4l1.2-0.1c4.4-0.2,8.2,3.2,8.4,7.6L467.6,1962.5z"/>
			</g>
		</g>
	</g>
</g>
<g id="_x32_1">
	<g>
		<g id="_x32_2">
			<g>
				<path id="_x32_3" class="st5" d="M205.2,742.5c56.7,0,102.7,46,102.7,102.7c0,56.7-46,102.7-102.7,102.7s-102.7-46-102.7-102.7
					C102.5,788.5,148.5,742.5,205.2,742.5z"/>
			</g>
		</g>
	</g>
</g>
<g id="_x32_4">
	<g>
		<g id="_x32_5">
			<g>
				<path id="_x32_6" class="st5" d="M758.7,203.5c56.7,0,102.7,46,102.7,102.7c0,56.7-46,102.7-102.7,102.7S656,362.9,656,306.2
					C656,249.5,702,203.5,758.7,203.5z"/>
			</g>
		</g>
	</g>
</g>
<g id="_x32_7">
	<g id="_x32_8">
		<g>
			<g id="_x32_9">
				<g>
					
						<linearGradient id="_x33_0_2_" gradientUnits="userSpaceOnUse" x1="-311.4064" y1="705.0201" x2="111.3189" y2="241.0432" gradientTransform="matrix(1 0 0 -1 0 1002)">
						<stop  offset="0" style="stop-color:#F9EBD6"/>
						<stop  offset="1" style="stop-color:#F9EBD6"/>
					</linearGradient>
					<path id="_x33_0" class="st6" d="M-149.5,745.7c15,25.8,7.6,58.1-16.6,72.1c-0.3,0.2-0.6,0.4-1,0.6
						c-24.1,14-55.7,4.4-70.7-21.3c-49.1-84.3-53.8-92.6-126.8-218.8c-41-70.8-20.6-159.2,45.5-197.5
						c47.3-27.4,94.6-54.8,141.9-82.3c43.4-25.2,98-23.2,142.7,5.2c89.1,56.6,178.3,113.1,267.4,169.7c-2.3,6.2-4.6,12.4-6.9,18.6
						c-12.8,41-55.7,61.8-96.3,46.6c-20.1-7.5-40.3-15-60.4-22.6c57.2,98.9,114.5,197.7,171.7,296.6c15,25.8,7.5,58.1-16.6,72.1
						c0,0,0,0,0,0c-24.1,14-55.8,4.4-70.8-21.5c-34.7-59.8-69.4-119.6-104-179.4c14.1,25.6,6.5,57.1-17.2,70.9
						c-0.3,0.2-0.7,0.4-1,0.6c-24.1,14-55.8,4.4-70.8-21.5c-2.9-5-5.8-10-8.7-15.1c15,25.9,7.6,58.1-16.6,72.1c0,0-0.1,0-0.1,0.1
						c-24.1,14-55.8,4.4-70.8-21.5L-149.5,745.7z"/>
				</g>
				<g>
					<path id="_x33_0_1_" class="st7" d="M-149.5,745.7c15,25.8,7.6,58.1-16.6,72.1c-0.3,0.2-0.6,0.4-1,0.6
						c-24.1,14-55.7,4.4-70.7-21.3c-49.1-84.3-53.8-92.6-126.8-218.8c-41-70.8-20.6-159.2,45.5-197.5
						c47.3-27.4,94.6-54.8,141.9-82.3c43.4-25.2,98-23.2,142.7,5.2c89.1,56.6,178.3,113.1,267.4,169.7c-2.3,6.2-4.6,12.4-6.9,18.6
						c-12.8,41-55.7,61.8-96.3,46.6c-20.1-7.5-40.3-15-60.4-22.6c57.2,98.9,114.5,197.7,171.7,296.6c15,25.8,7.5,58.1-16.6,72.1
						c0,0,0,0,0,0c-24.1,14-55.8,4.4-70.8-21.5c-34.7-59.8-69.4-119.6-104-179.4c14.1,25.6,6.5,57.1-17.2,70.9
						c-0.3,0.2-0.7,0.4-1,0.6c-24.1,14-55.8,4.4-70.8-21.5c-2.9-5-5.8-10-8.7-15.1c15,25.9,7.6,58.1-16.6,72.1c0,0-0.1,0-0.1,0.1
						c-24.1,14-55.8,4.4-70.8-21.5L-149.5,745.7z"/>
				</g>
			</g>
		</g>
	</g>
</g>
<g id="_x33_2">
	<g id="_x33_3">
		<g>
			<g id="_x33_4">
				<g>
					
						<linearGradient id="_x33_5_2_" gradientUnits="userSpaceOnUse" x1="1245.2891" y1="102.5701" x2="850.8561" y2="590.828" gradientTransform="matrix(1 0 0 -1 0 1002)">
						<stop  offset="0" style="stop-color:#F9EBD6"/>
						<stop  offset="1" style="stop-color:#F9EBD6"/>
					</linearGradient>
					<path id="_x33_5" class="st8" d="M1110.3,441.9c-13.4-26.7-4.1-58.5,20.8-71c0.3-0.2,0.7-0.3,1-0.5
						c24.9-12.5,55.9-1.1,69.3,25.5c44.1,87.1,48.2,95.7,113.6,225.9c36.7,73.1,11.1,160.2-57.1,194.5
						c-48.8,24.6-97.7,49.1-146.5,73.7c-44.8,22.5-99.2,17.3-142.2-13.6C883.6,814.6,798,752.9,712.4,691.1c2.7-6.1,5.3-12.1,8-18.2
						c15.2-40.2,59.3-58.4,98.9-40.8c19.6,8.7,39.3,17.4,58.9,26.1C827,556.2,775.7,454.1,724.5,352c-13.4-26.7-4.1-58.5,20.8-71
						c0,0,0,0,0,0c24.9-12.5,56-1,69.4,25.6c31.1,61.8,62.1,123.5,93.2,185.3c-12.5-26.4-3.1-57.4,21.4-69.7
						c0.4-0.2,0.7-0.4,1.1-0.5c24.9-12.5,56-1.1,69.4,25.6c2.6,5.2,5.2,10.4,7.8,15.6c-13.4-26.7-4.1-58.5,20.8-71
						c0,0,0.1,0,0.1-0.1c24.9-12.5,56-1.1,69.4,25.6L1110.3,441.9z"/>
				</g>
				<g>
					<path id="_x33_5_1_" class="st7" d="M1110.3,441.9c-13.4-26.7-4.1-58.5,20.8-71c0.3-0.2,0.7-0.3,1-0.5
						c24.9-12.5,55.9-1.1,69.3,25.5c44.1,87.1,48.2,95.7,113.6,225.9c36.7,73.1,11.1,160.2-57.1,194.5
						c-48.8,24.6-97.7,49.1-146.5,73.7c-44.8,22.5-99.2,17.3-142.2-13.6C883.6,814.6,798,752.9,712.4,691.1c2.7-6.1,5.3-12.1,8-18.2
						c15.2-40.2,59.3-58.4,98.9-40.8c19.6,8.7,39.3,17.4,58.9,26.1C827,556.2,775.7,454.1,724.5,352c-13.4-26.7-4.1-58.5,20.8-71
						c0,0,0,0,0,0c24.9-12.5,56-1,69.4,25.6c31.1,61.8,62.1,123.5,93.2,185.3c-12.5-26.4-3.1-57.4,21.4-69.7
						c0.4-0.2,0.7-0.4,1.1-0.5c24.9-12.5,56-1.1,69.4,25.6c2.6,5.2,5.2,10.4,7.8,15.6c-13.4-26.7-4.1-58.5,20.8-71
						c0,0,0.1,0,0.1-0.1c24.9-12.5,56-1.1,69.4,25.6L1110.3,441.9z"/>
				</g>
			</g>
		</g>
	</g>
	<g>
		<g id="_x33_7">
			<g>
				<path id="_x33_8" class="st9" d="M1001,445.4v439.8"/>
			</g>
			<g>
				<path id="_x33_8_1_" class="st10" d="M1001,445.4v439.8"/>
			</g>
		</g>
	</g>
	<g>
		<g id="_x33_9">
			<g>
				<path id="_x34_0" class="st9" d="M1,353.8v404.8"/>
			</g>
			<g>
				<path id="_x34_0_1_" class="st10" d="M1,353.8v404.8"/>
			</g>
		</g>
	</g>
	<g>
		<g id="_x34_1" class="st11">
			<g class="st12">
				<path id="_x34_2" class="st9" d="M1,783.8v-25.2"/>
			</g>
			<g class="st12">
				<path id="_x34_2_1_" class="st10" d="M1,783.8v-25.2"/>
			</g>
		</g>
	</g>
	<g>
		<g id="_x34_3" class="st11">
			<g class="st12">
				<path id="_x34_4" class="st9" d="M-4.1,345l0.2,12.4"/>
			</g>
			<g class="st12">
				<path id="_x34_4_1_" class="st10" d="M-4.1,345l0.2,12.4"/>
			</g>
		</g>
	</g>
	<g>
		<g id="_x34_5">
			<g>
				<path id="_x34_6" class="st9" d="M1006.3,895.9l0.2-10.7"/>
			</g>
			<g>
				<path id="_x34_6_1_" class="st10" d="M1006.3,895.9l0.2-10.7"/>
			</g>
		</g>
	</g>
</g>
<line class="st13" x1="-3.5" y1="329.1" x2="-2.5" y2="362.1"/>
</svg>
