<?xml version="1.0" encoding="utf-8"?>
<svg x="0pt" y="0pt" width="1000pt" height="1000pt" viewBox="0 0 1000 1000" xmlns="http://www.w3.org/2000/svg" xmlns:xlink="http://www.w3.org/1999/xlink">
  <g id="1">
    <title>Layer 1</title>
    <linearGradient x1="1032.09" y1="1054.95" x2="-10.3593" y2="322.05" gradientUnits="userSpaceOnUse" id="4">
      <stop style="stop-color:#c18a4b;stop-opacity:1;"/>
      <stop offset="1" style="stop-color:#f9ebd6;stop-opacity:1;"/>
    </linearGradient>
    <defs>
      <title>Path</title>
      <g id="2">
        <defs>
          <path id="3" d="M-47.0209,43.7867 C-47.0209,43.7867,1009.6,-7.54797,1009.6,-7.54797 C1009.6,-7.54797,1096.63,1783.9,1096.63,1783.9 C1096.63,1783.9,40.0144,1835.23,40.0144,1835.23 C40.0144,1835.23,-47.0209,43.7867,-47.0209,43.7867 z"/>
        </defs>
        <use xlink:href="#3" style="fill:url(#4);fill-opacity:1;fill-rule:evenodd;opacity:1;stroke:none;"/>
        <use xlink:href="#3" style="fill:none;opacity:1;stroke:#000000;stroke-linecap:butt;stroke-linejoin:miter;stroke-miterlimit:10;stroke-opacity:1;stroke-width:1;"/>
      </g>
    </defs>
    <use xlink:href="#2"/>
    <defs>
      <title>Smart Rectangle</title>
      <g id="5">
        <defs>
          <path id="6" d="M1038.22,19.8802 C1038.44,24.2933,1035.03,28.0446,1030.62,28.259 C1030.62,28.259,-64.4721,81.4628,-64.4721,81.4628 C-68.8851,81.6772,-72.6364,78.2735,-72.8508,73.8604 C-72.8508,73.8604,-73.8595,53.1,-73.8595,53.1 C-74.0739,48.687,-70.6702,44.9356,-66.2571,44.7212 C-66.2571,44.7212,1028.83,-8.48254,1028.83,-8.48254 C1033.25,-8.69695,1037,-5.29325,1037.21,-0.88018 C1037.21,-0.88018,1038.22,19.8802,1038.22,19.8802 z"/>
        </defs>
        <use xlink:href="#6" style="fill:#3f413d;fill-opacity:1;fill-rule:nonzero;opacity:1;stroke:none;"/>
        <use xlink:href="#6" style="fill:none;opacity:1;stroke:#000000;stroke-linecap:butt;stroke-linejoin:miter;stroke-miterlimit:10;stroke-opacity:1;stroke-width:1;"/>
      </g>
    </defs>
    <use xlink:href="#5"/>
    <defs>
      <title>Path</title>
      <g id="7">
        <defs>
          <path id="8" d="M-47.0209,43.7866 C-47.0209,43.7866,1009.6,-7.54808,1009.6,-7.54808 C1009.6,-7.54808,1147.34,-1310.1,1147.34,-1310.1 C1147.34,-1310.1,-374.695,-1280.23,-374.695,-1280.23 C-374.695,-1280.23,-47.0209,43.7866,-47.0209,43.7866 z"/>
        </defs>
        <use xlink:href="#8" style="fill:#ccc6b3;fill-opacity:1;fill-rule:nonzero;opacity:1;stroke:none;"/>
      </g>
    </defs>
    <use xlink:href="#7"/>
    <defs>
      <title>Smart Rectangle</title>
      <g id="9">
        <defs>
          <path id="10" d="M656.011,1939.3 C656.225,1943.72,652.822,1947.47,648.409,1947.68 C648.409,1947.68,647.191,1947.74,647.191,1947.74 C642.778,1947.96,639.027,1944.55,638.813,1940.14 C638.813,1940.14,499.736,-922.462,499.736,-922.462 C499.522,-926.875,502.926,-930.626,507.339,-930.841 C507.339,-930.841,508.556,-930.9,508.556,-930.9 C512.969,-931.114,516.72,-927.71,516.935,-923.297 C516.935,-923.297,656.011,1939.3,656.011,1939.3 z"/>
        </defs>
        <use xlink:href="#10" style="fill:#fffefe;fill-opacity:1;fill-rule:nonzero;opacity:1;stroke:none;"/>
      </g>
    </defs>
    <use xlink:href="#9"/>
    <defs>
      <title>Smart Rectangle Copy</title>
      <g id="11">
        <defs>
          <path id="12" d="M840.331,1930.35 C840.545,1934.76,837.142,1938.51,832.729,1938.73 C832.729,1938.73,831.512,1938.79,831.512,1938.79 C827.098,1939,823.347,1935.6,823.133,1931.18 C823.133,1931.18,688.151,-847.15,688.151,-847.15 C687.936,-851.563,691.34,-855.315,695.753,-855.529 C695.753,-855.529,696.97,-855.588,696.97,-855.588 C701.383,-855.803,705.134,-852.399,705.349,-847.986 C705.349,-847.986,840.331,1930.35,840.331,1930.35 z"/>
        </defs>
        <use xlink:href="#12" style="fill:#fffefe;fill-opacity:1;fill-rule:nonzero;opacity:1;stroke:none;"/>
      </g>
    </defs>
    <use xlink:href="#11"/>
    <defs>
      <title>Smart Rectangle Copy Copy</title>
      <g id="13">
        <defs>
          <path id="14" d="M1048.48,1920.24 C1048.69,1924.65,1045.29,1928.4,1040.87,1928.62 C1040.87,1928.62,1039.66,1928.67,1039.66,1928.67 C1035.24,1928.89,1031.49,1925.49,1031.28,1921.07 C1031.28,1921.07,900.418,-772.43,900.418,-772.43 C900.203,-776.843,903.607,-780.594,908.02,-780.809 C908.02,-780.809,909.237,-780.868,909.237,-780.868 C913.65,-781.082,917.402,-777.678,917.616,-773.265 C917.616,-773.265,1048.48,1920.24,1048.48,1920.24 z"/>
        </defs>
        <use xlink:href="#14" style="fill:#fffefe;fill-opacity:1;fill-rule:nonzero;opacity:1;stroke:none;"/>
      </g>
    </defs>
    <use xlink:href="#13"/>
    <defs>
      <title>Smart Rectangle Copy</title>
      <g id="15">
        <defs>
          <path id="16" d="M97.5247,1966.43 C97.7391,1970.85,94.3354,1974.6,89.9223,1974.81 C89.9223,1974.81,88.7052,1974.87,88.7052,1974.87 C84.2921,1975.08,80.5408,1971.68,80.3264,1967.27 C80.3264,1967.27,-53.0746,-778.521,-53.0746,-778.521 C-53.289,-782.934,-49.8853,-786.685,-45.4722,-786.899 C-45.4722,-786.899,-44.2551,-786.959,-44.2551,-786.959 C-39.842,-787.173,-36.0907,-783.769,-35.8763,-779.356 C-35.8763,-779.356,97.5247,1966.43,97.5247,1966.43 z"/>
        </defs>
        <use xlink:href="#16" style="fill:#fffefe;fill-opacity:1;fill-rule:nonzero;opacity:1;stroke:none;"/>
      </g>
    </defs>
    <use xlink:href="#15"/>
    <defs>
      <title>Smart Rectangle Copy Copy</title>
      <g id="17">
        <defs>
          <path id="18" d="M264.769,1939.58 C264.983,1943.99,261.579,1947.74,257.166,1947.95 C257.166,1947.95,255.949,1948.01,255.949,1948.01 C251.536,1948.23,247.785,1944.82,247.57,1940.41 C247.57,1940.41,112.196,-846.004,112.196,-846.004 C111.981,-850.417,115.385,-854.169,119.798,-854.383 C119.798,-854.383,121.015,-854.442,121.015,-854.442 C125.428,-854.656,129.18,-851.253,129.394,-846.84 C129.394,-846.84,264.769,1939.58,264.769,1939.58 z"/>
        </defs>
        <use xlink:href="#18" style="fill:#fffefe;fill-opacity:1;fill-rule:nonzero;opacity:1;stroke:none;"/>
      </g>
    </defs>
    <use xlink:href="#17"/>
    <defs>
      <title>Smart Rectangle Copy Copy Copy</title>
      <g id="19">
        <defs>
          <path id="20" d="M467.571,1962.5 C467.785,1966.91,464.381,1970.66,459.968,1970.87 C459.968,1970.87,458.751,1970.93,458.751,1970.93 C454.338,1971.15,450.587,1967.74,450.372,1963.33 C450.372,1963.33,313.409,-855.78,313.409,-855.78 C313.195,-860.193,316.598,-863.944,321.012,-864.159 C321.012,-864.159,322.229,-864.218,322.229,-864.218 C326.642,-864.432,330.393,-861.028,330.607,-856.615 C330.607,-856.615,467.571,1962.5,467.571,1962.5 z"/>
        </defs>
        <use xlink:href="#20" style="fill:#fffefe;fill-opacity:1;fill-rule:nonzero;opacity:1;stroke:none;"/>
      </g>
    </defs>
    <use xlink:href="#19"/>
  </g>
  <g id="21">
    <title>Layer 4 Copy</title>
    <defs>
      <title>Path Copy</title>
      <g id="22">
        <defs>
          <path id="23" d="M367.43,106.518 C424.123,106.518,470.082,152.477,470.082,209.17 C470.082,265.863,424.123,311.822,367.43,311.822 C310.737,311.822,264.778,265.863,264.778,209.17 C264.778,152.477,310.737,106.518,367.43,106.518 z"/>
        </defs>
        <use xlink:href="#23" style="fill:#72bf46;fill-opacity:1;fill-rule:evenodd;opacity:1;stroke:none;"/>
      </g>
    </defs>
    <use xlink:href="#22"/>
    <defs>
      <title>Path Copy Copy</title>
      <g id="24">
        <defs>
          <path id="25" d="M758.672,336.296 C815.365,336.296,861.324,382.255,861.324,438.948 C861.324,495.641,815.365,541.599,758.672,541.599 C701.979,541.599,656.021,495.641,656.021,438.948 C656.021,382.255,701.979,336.296,758.672,336.296 z"/>
        </defs>
        <use xlink:href="#25" style="fill:#72bf46;fill-opacity:1;fill-rule:evenodd;opacity:1;stroke:none;"/>
      </g>
    </defs>
    <use xlink:href="#24"/>
  </g>
  <g id="26">
    <title>Layer 2</title>
    <g id="27" style="opacity:0.24;">
      <title>Group Copy</title>
      <linearGradient x1="649.879" y1="1197.94" x2="793.352" y2="586.883" gradientUnits="userSpaceOnUse" id="30">
        <stop style="stop-color:#f9ebd6;stop-opacity:1;"/>
        <stop offset="1" style="stop-color:#f9ebd6;stop-opacity:1;"/>
      </linearGradient>
      <defs>
        <title>Shape 28</title>
        <g id="28">
          <defs>
            <path id="29" d="M874.593,797.995 C887.429,771.018,918.247,758.872,943.426,770.852 C943.764,771.013,944.102,771.174,944.44,771.335 C969.577,783.296,979.617,814.774,966.863,841.731 C925.155,929.935,920.905,938.517,858.171,1070.05 C822.944,1143.9,738.537,1177.13,669.566,1144.31 C620.207,1120.82,570.847,1097.34,521.487,1073.85 C476.174,1052.29,446.905,1006.13,444.999,953.227 C441.22,847.737,437.442,742.247,433.664,636.757 C440.076,635.131,446.487,633.505,452.899,631.879 C493.952,619.217,535.376,642.889,545.833,684.96 C551.015,705.814,556.197,726.669,561.379,747.523 C610.529,644.407,659.68,541.29,708.83,438.174 C721.678,411.217,752.49,399.083,777.657,411.058 C777.661,411.06,777.665,411.061,777.669,411.063 C802.854,423.046,812.861,454.639,800.025,481.616 C770.322,544.043,740.619,606.469,710.916,668.896 C724.081,642.777,754.329,631.206,779.119,643.001 C779.474,643.17,779.83,643.339,780.186,643.508 C805.37,655.492,815.383,687.073,802.547,714.049 C800.053,719.291,797.559,724.533,795.065,729.774 C807.904,702.792,838.716,690.643,863.918,702.634 C863.954,702.651,863.989,702.668,864.024,702.685 C889.203,714.665,899.219,746.24,886.38,773.223 z M874.593,797.995"/>
          </defs>
          <use xlink:href="#29" style="fill:url(#30);fill-opacity:1;fill-rule:evenodd;opacity:1;stroke:none;"/>
          <use xlink:href="#29" style="fill:none;opacity:1;stroke:#463664;stroke-linecap:butt;stroke-linejoin:miter;stroke-miterlimit:10;stroke-opacity:1;stroke-width:15;"/>
        </g>
      </defs>
      <use xlink:href="#28"/>
    </g>
    <g id="31">
      <title>Layer 4</title>
      <defs>
        <title>Path Copy</title>
        <g id="32">
          <defs>
            <path id="33" d="M595.379,779.119 C652.072,779.119,698.03,825.078,698.03,881.771 C698.03,938.464,652.072,984.423,595.379,984.423 C538.686,984.423,492.727,938.464,492.727,881.771 C492.727,825.078,538.686,779.119,595.379,779.119 z"/>
          </defs>
          <use xlink:href="#33" style="fill:#72bf46;fill-opacity:1;fill-rule:evenodd;opacity:1;stroke:none;"/>
        </g>
      </defs>
      <use xlink:href="#32"/>
    </g>
    <g id="34" style="opacity:0.24;">
      <title>Group Copy Copy</title>
      <linearGradient x1="480.994" y1="1638.24" x2="624.467" y2="1027.19" gradientUnits="userSpaceOnUse" id="37">
        <stop style="stop-color:#f9ebd6;stop-opacity:1;"/>
        <stop offset="1" style="stop-color:#f9ebd6;stop-opacity:1;"/>
      </linearGradient>
      <defs>
        <title>Shape 28</title>
        <g id="35">
          <defs>
            <path id="36" d="M705.708,1238.3 C718.543,1211.33,749.362,1199.18,774.54,1211.16 C774.878,1211.32,775.216,1211.48,775.554,1211.64 C800.692,1223.6,810.731,1255.08,797.977,1282.04 C756.269,1370.24,752.02,1378.82,689.285,1510.35 C654.059,1584.21,569.652,1617.43,500.681,1584.62 C451.321,1561.13,401.961,1537.65,352.601,1514.16 C307.289,1492.6,278.02,1446.44,276.113,1393.53 C272.335,1288.04,268.557,1182.55,264.778,1077.06 C271.19,1075.44,277.602,1073.81,284.014,1072.19 C325.066,1059.53,366.491,1083.2,376.947,1125.27 C382.129,1146.12,387.311,1166.98,392.493,1187.83 C441.644,1084.71,490.794,981.598,539.944,878.481 C552.792,851.525,583.605,839.391,608.772,851.365 C608.776,851.367,608.78,851.369,608.784,851.371 C633.969,863.354,643.975,894.947,631.14,921.923 C601.436,984.35,571.733,1046.78,542.03,1109.2 C555.195,1083.08,585.443,1071.51,610.233,1083.31 C610.589,1083.48,610.945,1083.65,611.3,1083.82 C636.485,1095.8,646.497,1127.38,633.662,1154.36 C631.168,1159.6,628.674,1164.84,626.18,1170.08 C639.018,1143.1,669.83,1130.95,695.033,1142.94 C695.068,1142.96,695.104,1142.98,695.139,1142.99 C720.318,1154.97,730.333,1186.55,717.495,1213.53 z M705.708,1238.3"/>
          </defs>
          <use xlink:href="#36" style="fill:url(#37);fill-opacity:1;fill-rule:evenodd;opacity:1;stroke:none;"/>
          <use xlink:href="#36" style="fill:none;opacity:1;stroke:#463664;stroke-linecap:butt;stroke-linejoin:miter;stroke-miterlimit:10;stroke-opacity:1;stroke-width:15;"/>
        </g>
      </defs>
      <use xlink:href="#35"/>
    </g>
    <g id="38">
      <title>Group</title>
      <linearGradient x1="260.248" y1="975.618" x2="403.722" y2="364.564" gradientUnits="userSpaceOnUse" id="41">
        <stop style="stop-color:#f9ebd6;stop-opacity:1;"/>
        <stop offset="1" style="stop-color:#f9ebd6;stop-opacity:1;"/>
      </linearGradient>
      <defs>
        <title>Shape 28</title>
        <g id="39">
          <defs>
            <path id="40" d="M484.962,575.676 C497.798,548.699,528.616,536.553,553.795,548.533 C554.133,548.694,554.471,548.855,554.809,549.016 C579.947,560.976,589.986,592.455,577.232,619.412 C535.524,707.616,531.274,716.198,468.54,847.727 C433.313,921.58,348.907,954.808,279.936,921.991 C230.576,898.505,181.216,875.019,131.856,851.533 C86.5433,829.973,57.2746,783.809,55.3678,730.908 C51.5895,625.418,47.8113,519.928,44.033,414.438 C50.4448,412.812,56.8565,411.186,63.2682,409.56 C104.321,396.898,145.745,420.569,156.202,462.64 C161.384,483.495,166.566,504.349,171.748,525.204 C220.898,422.087,270.049,318.971,319.199,215.855 C332.047,188.898,362.859,176.764,388.027,188.738 C388.031,188.74,388.034,188.742,388.038,188.744 C413.223,200.727,423.23,232.32,410.394,259.297 C380.691,321.723,350.988,384.15,321.285,446.577 C334.45,420.458,364.698,408.886,389.488,420.682 C389.844,420.851,390.199,421.02,390.555,421.189 C415.74,433.172,425.752,464.753,412.916,491.73 C410.422,496.972,407.928,502.213,405.434,507.455 C418.273,480.473,449.085,468.323,474.288,480.315 C474.323,480.332,474.358,480.349,474.394,480.365 C499.573,492.346,509.588,523.921,496.749,550.903 z M484.962,575.676"/>
          </defs>
          <use xlink:href="#40" style="fill:url(#41);fill-opacity:1;fill-rule:evenodd;opacity:1;stroke:none;"/>
          <use xlink:href="#40" style="fill:none;opacity:1;stroke:#463664;stroke-linecap:butt;stroke-linejoin:miter;stroke-miterlimit:10;stroke-opacity:1;stroke-width:15;"/>
        </g>
      </defs>
      <use xlink:href="#39"/>
    </g>
  </g>
  <g id="42">
    <title>Layer 2 Copy</title>
  </g>
</svg>
