<?xml version="1.0" encoding="utf-8"?>
<!-- Generator: Adobe Illustrator 25.2.0, SVG Export Plug-In . SVG Version: 6.00 Build 0)  -->
<svg version="1.1" id="Layer_1" xmlns="http://www.w3.org/2000/svg" xmlns:xlink="http://www.w3.org/1999/xlink" x="0px" y="0px"
	 viewBox="0 0 1000 1000" style="enable-background:new 0 0 1000 1000;" xml:space="preserve">
<style type="text/css">
	.st0{fill-rule:evenodd;clip-rule:evenodd;fill:url(#_x33__2_);}
	.st1{fill:none;stroke:#000000;stroke-miterlimit:10;}
	.st2{fill:#3F413D;}
	.st3{fill:#CCC6B3;}
	.st4{fill:#FFFEFE;}
	.st5{fill-rule:evenodd;clip-rule:evenodd;fill:#72BF46;}
	.st6{fill-rule:evenodd;clip-rule:evenodd;fill:url(#_x32_7_2_);}
	.st7{fill:none;stroke:#463664;stroke-width:15;stroke-miterlimit:10;}
</style>
<g id="_x31_">
	<g>
		<g id="_x32_">
			<g>
				
					<linearGradient id="_x33__2_" gradientUnits="userSpaceOnUse" x1="930.6731" y1="1277.2014" x2="-111.7761" y2="544.3015" gradientTransform="matrix(1 0 0 1 0 -78)">
					<stop  offset="0" style="stop-color:#C18A4B"/>
					<stop  offset="1" style="stop-color:#F9EBD6"/>
				</linearGradient>
				<path id="_x33_" class="st0" d="M-47,43.8L1009.6-7.5l87,1791.4L40,1835.2L-47,43.8z"/>
			</g>
			<g>
				<path id="_x33__1_" class="st1" d="M-47,43.8L1009.6-7.5l87,1791.4L40,1835.2L-47,43.8z"/>
			</g>
		</g>
	</g>
	<g>
		<g id="_x35_">
			<g>
				<path id="_x36_" class="st2" d="M1038.2,19.9c0.2,4.4-3.2,8.2-7.6,8.4L-64.5,81.5c-4.4,0.2-8.2-3.2-8.4-7.6l-1-20.8
					c-0.2-4.4,3.2-8.2,7.6-8.4L1028.8-8.5c4.4-0.2,8.2,3.2,8.4,7.6L1038.2,19.9z"/>
			</g>
			<g>
				<path id="_x36__1_" class="st1" d="M1038.2,19.9c0.2,4.4-3.2,8.2-7.6,8.4L-64.5,81.5c-4.4,0.2-8.2-3.2-8.4-7.6l-1-20.8
					c-0.2-4.4,3.2-8.2,7.6-8.4L1028.8-8.5c4.4-0.2,8.2,3.2,8.4,7.6L1038.2,19.9z"/>
			</g>
		</g>
	</g>
	<g>
		<g id="_x37_">
			<g>
				<path id="_x38_" class="st3" d="M-47,43.8L1009.6-7.5l137.7-1302.6l-1522,29.9L-47,43.8z"/>
			</g>
		</g>
	</g>
	<g>
		<g id="_x39_">
			<g>
				<path id="_x31_0" class="st4" d="M656,1939.3c0.2,4.4-3.2,8.2-7.6,8.4l-1.2,0.1c-4.4,0.2-8.2-3.2-8.4-7.6L499.7-922.5
					c-0.2-4.4,3.2-8.2,7.6-8.4l1.2-0.1c4.4-0.2,8.2,3.2,8.4,7.6L656,1939.3z"/>
			</g>
		</g>
	</g>
	<g>
		<g id="_x31_1">
			<g>
				<path id="_x31_2" class="st4" d="M840.3,1930.3c0.2,4.4-3.2,8.2-7.6,8.4l-1.2,0.1c-4.4,0.2-8.2-3.2-8.4-7.6l-135-2778.3
					c-0.2-4.4,3.2-8.2,7.6-8.4l1.2-0.1c4.4-0.2,8.2,3.2,8.4,7.6L840.3,1930.3z"/>
			</g>
		</g>
	</g>
	<g>
		<g id="_x31_3">
			<g>
				<path id="_x31_4" class="st4" d="M1048.5,1920.2c0.2,4.4-3.2,8.2-7.6,8.4l-1.2,0.1c-4.4,0.2-8.2-3.2-8.4-7.6L900.4-772.4
					c-0.2-4.4,3.2-8.2,7.6-8.4l1.2-0.1c4.4-0.2,8.2,3.2,8.4,7.6L1048.5,1920.2z"/>
			</g>
		</g>
	</g>
	<g>
		<g id="_x31_5">
			<g>
				<path id="_x31_6" class="st4" d="M97.5,1966.4c0.2,4.4-3.2,8.2-7.6,8.4l-1.2,0.1c-4.4,0.2-8.2-3.2-8.4-7.6L-53.1-778.5
					c-0.2-4.4,3.2-8.2,7.6-8.4l1.2-0.1c4.4-0.2,8.2,3.2,8.4,7.6L97.5,1966.4z"/>
			</g>
		</g>
	</g>
	<g>
		<g id="_x31_7">
			<g>
				<path id="_x31_8" class="st4" d="M264.8,1939.6c0.2,4.4-3.2,8.2-7.6,8.4l-1.2,0.1c-4.4,0.2-8.2-3.2-8.4-7.6L112.2-846
					c-0.2-4.4,3.2-8.2,7.6-8.4l1.2-0.1c4.4-0.2,8.2,3.2,8.4,7.6L264.8,1939.6z"/>
			</g>
		</g>
	</g>
	<g>
		<g id="_x31_9">
			<g>
				<path id="_x32_0" class="st4" d="M467.6,1962.5c0.2,4.4-3.2,8.2-7.6,8.4l-1.2,0.1c-4.4,0.2-8.2-3.2-8.4-7.6l-137-2819.1
					c-0.2-4.4,3.2-8.2,7.6-8.4l1.2-0.1c4.4-0.2,8.2,3.2,8.4,7.6L467.6,1962.5z"/>
			</g>
		</g>
	</g>
</g>
<g id="_x32_1">
	<g>
		<g id="_x32_2">
			<g>
				<path id="_x32_3" class="st5" d="M379.5,281.4c56.7,0,102.7,46,102.7,102.7s-46,102.7-102.7,102.7s-102.7-46-102.7-102.7
					S322.8,281.4,379.5,281.4z"/>
			</g>
		</g>
	</g>
</g>
<g id="_x32_4">
	<g id="_x32_5">
		<g>
			<g id="_x32_6">
				<g>
					
						<linearGradient id="_x32_7_2_" gradientUnits="userSpaceOnUse" x1="869.1133" y1="1057.3767" x2="474.6824" y2="569.1198" gradientTransform="matrix(1 0 0 1 0 -78)">
						<stop  offset="0" style="stop-color:#F9EBD6"/>
						<stop  offset="1" style="stop-color:#F9EBD6"/>
					</linearGradient>
					<path id="_x32_7" class="st6" d="M734.1,521.8c-13.4-26.7-4.1-58.5,20.8-71c0.3-0.2,0.7-0.3,1-0.5
						c24.9-12.5,55.9-1.1,69.3,25.5c44,87.1,48.2,95.7,113.6,225.9c36.7,73.1,11.1,160.2-57.1,194.5
						c-48.8,24.6-97.7,49.1-146.5,73.7c-44.8,22.5-99.2,17.3-142.2-13.6C507.4,894.5,421.8,832.8,336.2,771c2.7-6.1,5.3-12.1,8-18.2
						c15.2-40.2,59.3-58.4,98.9-40.8c19.6,8.7,39.3,17.4,58.9,26.1c-51.2-102-102.4-204.1-153.7-306.2c-13.4-26.7-4.1-58.5,20.8-71
						l0,0c24.9-12.5,56-1,69.4,25.6c31.1,61.8,62.1,123.5,93.2,185.3c-12.5-26.4-3.1-57.4,21.4-69.7c0.4-0.2,0.7-0.4,1.1-0.5
						c24.9-12.5,56-1.1,69.4,25.6c2.6,5.2,5.2,10.4,7.8,15.6c-13.4-26.7-4.1-58.5,20.8-71c0,0,0.1,0,0.1-0.1
						c24.9-12.5,56-1.1,69.4,25.6L734.1,521.8z"/>
				</g>
				<g>
					<path id="_x32_7_1_" class="st7" d="M734.1,521.8c-13.4-26.7-4.1-58.5,20.8-71c0.3-0.2,0.7-0.3,1-0.5
						c24.9-12.5,55.9-1.1,69.3,25.5c44,87.1,48.2,95.7,113.6,225.9c36.7,73.1,11.1,160.2-57.1,194.5
						c-48.8,24.6-97.7,49.1-146.5,73.7c-44.8,22.5-99.2,17.3-142.2-13.6C507.4,894.5,421.8,832.8,336.2,771c2.7-6.1,5.3-12.1,8-18.2
						c15.2-40.2,59.3-58.4,98.9-40.8c19.6,8.7,39.3,17.4,58.9,26.1c-51.2-102-102.4-204.1-153.7-306.2c-13.4-26.7-4.1-58.5,20.8-71
						l0,0c24.9-12.5,56-1,69.4,25.6c31.1,61.8,62.1,123.5,93.2,185.3c-12.5-26.4-3.1-57.4,21.4-69.7c0.4-0.2,0.7-0.4,1.1-0.5
						c24.9-12.5,56-1.1,69.4,25.6c2.6,5.2,5.2,10.4,7.8,15.6c-13.4-26.7-4.1-58.5,20.8-71c0,0,0.1,0,0.1-0.1
						c24.9-12.5,56-1.1,69.4,25.6L734.1,521.8z"/>
				</g>
			</g>
		</g>
	</g>
</g>
</svg>
