<?xml version="1.0" encoding="utf-8"?>
<svg x="0pt" y="0pt" width="1000pt" height="1000pt" viewBox="0 0 1000 1000" xmlns="http://www.w3.org/2000/svg" xmlns:xlink="http://www.w3.org/1999/xlink">
  <g id="1">
    <title>Layer 1</title>
    <linearGradient x1="1032.09" y1="1054.95" x2="-10.3593" y2="322.05" gradientUnits="userSpaceOnUse" id="4">
      <stop style="stop-color:#c18a4b;stop-opacity:1;"/>
      <stop offset="1" style="stop-color:#f9ebd6;stop-opacity:1;"/>
    </linearGradient>
    <defs>
      <title>Path</title>
      <g id="2">
        <defs>
          <path id="3" d="M-47.0209,43.7867 C-47.0209,43.7867,1009.6,-7.54797,1009.6,-7.54797 C1009.6,-7.54797,1096.63,1783.9,1096.63,1783.9 C1096.63,1783.9,40.0144,1835.23,40.0144,1835.23 C40.0144,1835.23,-47.0209,43.7867,-47.0209,43.7867 z"/>
        </defs>
        <use xlink:href="#3" style="fill:url(#4);fill-opacity:1;fill-rule:evenodd;opacity:1;stroke:none;"/>
        <use xlink:href="#3" style="fill:none;opacity:1;stroke:#000000;stroke-linecap:butt;stroke-linejoin:miter;stroke-miterlimit:10;stroke-opacity:1;stroke-width:1;"/>
      </g>
    </defs>
    <use xlink:href="#2"/>
    <defs>
      <title>Smart Rectangle</title>
      <g id="5">
        <defs>
          <path id="6" d="M1038.22,19.8802 C1038.44,24.2933,1035.03,28.0446,1030.62,28.259 C1030.62,28.259,-64.4721,81.4628,-64.4721,81.4628 C-68.8851,81.6772,-72.6364,78.2735,-72.8508,73.8604 C-72.8508,73.8604,-73.8595,53.1,-73.8595,53.1 C-74.0739,48.687,-70.6702,44.9356,-66.2571,44.7212 C-66.2571,44.7212,1028.83,-8.48254,1028.83,-8.48254 C1033.25,-8.69695,1037,-5.29325,1037.21,-0.88018 C1037.21,-0.88018,1038.22,19.8802,1038.22,19.8802 z"/>
        </defs>
        <use xlink:href="#6" style="fill:#3f413d;fill-opacity:1;fill-rule:nonzero;opacity:1;stroke:none;"/>
        <use xlink:href="#6" style="fill:none;opacity:1;stroke:#000000;stroke-linecap:butt;stroke-linejoin:miter;stroke-miterlimit:10;stroke-opacity:1;stroke-width:1;"/>
      </g>
    </defs>
    <use xlink:href="#5"/>
    <defs>
      <title>Path</title>
      <g id="7">
        <defs>
          <path id="8" d="M-47.0209,43.7866 C-47.0209,43.7866,1009.6,-7.54808,1009.6,-7.54808 C1009.6,-7.54808,1147.34,-1310.1,1147.34,-1310.1 C1147.34,-1310.1,-374.695,-1280.23,-374.695,-1280.23 C-374.695,-1280.23,-47.0209,43.7866,-47.0209,43.7866 z"/>
        </defs>
        <use xlink:href="#8" style="fill:#ccc6b3;fill-opacity:1;fill-rule:nonzero;opacity:1;stroke:none;"/>
      </g>
    </defs>
    <use xlink:href="#7"/>
    <defs>
      <title>Smart Rectangle</title>
      <g id="9">
        <defs>
          <path id="10" d="M656.011,1939.3 C656.225,1943.72,652.822,1947.47,648.409,1947.68 C648.409,1947.68,647.191,1947.74,647.191,1947.74 C642.778,1947.96,639.027,1944.55,638.813,1940.14 C638.813,1940.14,499.736,-922.462,499.736,-922.462 C499.522,-926.875,502.926,-930.626,507.339,-930.841 C507.339,-930.841,508.556,-930.9,508.556,-930.9 C512.969,-931.114,516.72,-927.71,516.935,-923.297 C516.935,-923.297,656.011,1939.3,656.011,1939.3 z"/>
        </defs>
        <use xlink:href="#10" style="fill:#fffefe;fill-opacity:1;fill-rule:nonzero;opacity:1;stroke:none;"/>
      </g>
    </defs>
    <use xlink:href="#9"/>
    <defs>
      <title>Smart Rectangle Copy</title>
      <g id="11">
        <defs>
          <path id="12" d="M840.331,1930.35 C840.545,1934.76,837.142,1938.51,832.729,1938.73 C832.729,1938.73,831.512,1938.79,831.512,1938.79 C827.098,1939,823.347,1935.6,823.133,1931.18 C823.133,1931.18,688.151,-847.15,688.151,-847.15 C687.936,-851.563,691.34,-855.315,695.753,-855.529 C695.753,-855.529,696.97,-855.588,696.97,-855.588 C701.383,-855.803,705.134,-852.399,705.349,-847.986 C705.349,-847.986,840.331,1930.35,840.331,1930.35 z"/>
        </defs>
        <use xlink:href="#12" style="fill:#fffefe;fill-opacity:1;fill-rule:nonzero;opacity:1;stroke:none;"/>
      </g>
    </defs>
    <use xlink:href="#11"/>
    <defs>
      <title>Smart Rectangle Copy Copy</title>
      <g id="13">
        <defs>
          <path id="14" d="M1048.48,1920.24 C1048.69,1924.65,1045.29,1928.4,1040.87,1928.62 C1040.87,1928.62,1039.66,1928.67,1039.66,1928.67 C1035.24,1928.89,1031.49,1925.49,1031.28,1921.07 C1031.28,1921.07,900.418,-772.43,900.418,-772.43 C900.203,-776.843,903.607,-780.594,908.02,-780.809 C908.02,-780.809,909.237,-780.868,909.237,-780.868 C913.65,-781.082,917.402,-777.678,917.616,-773.265 C917.616,-773.265,1048.48,1920.24,1048.48,1920.24 z"/>
        </defs>
        <use xlink:href="#14" style="fill:#fffefe;fill-opacity:1;fill-rule:nonzero;opacity:1;stroke:none;"/>
      </g>
    </defs>
    <use xlink:href="#13"/>
    <defs>
      <title>Smart Rectangle Copy</title>
      <g id="15">
        <defs>
          <path id="16" d="M97.5247,1966.43 C97.7391,1970.85,94.3354,1974.6,89.9223,1974.81 C89.9223,1974.81,88.7052,1974.87,88.7052,1974.87 C84.2921,1975.08,80.5408,1971.68,80.3264,1967.27 C80.3264,1967.27,-53.0746,-778.521,-53.0746,-778.521 C-53.289,-782.934,-49.8853,-786.685,-45.4722,-786.899 C-45.4722,-786.899,-44.2551,-786.959,-44.2551,-786.959 C-39.842,-787.173,-36.0907,-783.769,-35.8763,-779.356 C-35.8763,-779.356,97.5247,1966.43,97.5247,1966.43 z"/>
        </defs>
        <use xlink:href="#16" style="fill:#fffefe;fill-opacity:1;fill-rule:nonzero;opacity:1;stroke:none;"/>
      </g>
    </defs>
    <use xlink:href="#15"/>
    <defs>
      <title>Smart Rectangle Copy Copy</title>
      <g id="17">
        <defs>
          <path id="18" d="M264.769,1939.58 C264.983,1943.99,261.579,1947.74,257.166,1947.95 C257.166,1947.95,255.949,1948.01,255.949,1948.01 C251.536,1948.23,247.785,1944.82,247.57,1940.41 C247.57,1940.41,112.196,-846.004,112.196,-846.004 C111.981,-850.417,115.385,-854.169,119.798,-854.383 C119.798,-854.383,121.015,-854.442,121.015,-854.442 C125.428,-854.656,129.18,-851.253,129.394,-846.84 C129.394,-846.84,264.769,1939.58,264.769,1939.58 z"/>
        </defs>
        <use xlink:href="#18" style="fill:#fffefe;fill-opacity:1;fill-rule:nonzero;opacity:1;stroke:none;"/>
      </g>
    </defs>
    <use xlink:href="#17"/>
    <defs>
      <title>Smart Rectangle Copy Copy Copy</title>
      <g id="19">
        <defs>
          <path id="20" d="M467.571,1962.5 C467.785,1966.91,464.381,1970.66,459.968,1970.87 C459.968,1970.87,458.751,1970.93,458.751,1970.93 C454.338,1971.15,450.587,1967.74,450.372,1963.33 C450.372,1963.33,313.409,-855.78,313.409,-855.78 C313.195,-860.193,316.598,-863.944,321.012,-864.159 C321.012,-864.159,322.229,-864.218,322.229,-864.218 C326.642,-864.432,330.393,-861.028,330.607,-856.615 C330.607,-856.615,467.571,1962.5,467.571,1962.5 z"/>
        </defs>
        <use xlink:href="#20" style="fill:#fffefe;fill-opacity:1;fill-rule:nonzero;opacity:1;stroke:none;"/>
      </g>
    </defs>
    <use xlink:href="#19"/>
  </g>
  <g id="21">
    <title>Layer 4</title>
    <defs>
      <title>Path Copy</title>
      <g id="22">
        <defs>
          <path id="23" d="M205.186,742.516 C261.879,742.516,307.838,788.475,307.838,845.168 C307.838,901.861,261.879,947.819,205.186,947.819 C148.493,947.819,102.534,901.861,102.534,845.168 C102.534,788.475,148.493,742.516,205.186,742.516 z"/>
        </defs>
        <use xlink:href="#23" style="fill:#72bf46;fill-opacity:1;fill-rule:evenodd;opacity:1;stroke:none;"/>
      </g>
    </defs>
    <use xlink:href="#22"/>
  </g>
  <g id="24">
    <title>Layer 4 Copy</title>
    <defs>
      <title>Path Copy</title>
      <g id="25">
        <defs>
          <path id="26" d="M758.672,203.54 C815.365,203.54,861.324,249.499,861.324,306.191 C861.324,362.884,815.365,408.843,758.672,408.843 C701.979,408.843,656.021,362.884,656.021,306.191 C656.021,249.499,701.979,203.54,758.672,203.54 z"/>
        </defs>
        <use xlink:href="#26" style="fill:#72bf46;fill-opacity:1;fill-rule:evenodd;opacity:1;stroke:none;"/>
      </g>
    </defs>
    <use xlink:href="#25"/>
  </g>
  <g id="27">
    <title>Layer 2</title>
    <g id="28">
      <title>Group</title>
      <linearGradient x1="-341.173" y1="342.122" x2="81.5523" y2="806.099" gradientUnits="userSpaceOnUse" id="31">
        <stop style="stop-color:#f9ebd6;stop-opacity:1;"/>
        <stop offset="1" style="stop-color:#f9ebd6;stop-opacity:1;"/>
      </linearGradient>
      <defs>
        <title>Shape 28</title>
        <g id="29">
          <defs>
            <path id="30" d="M-138.492,753.669 C-123.507,779.513,-130.925,811.798,-155.047,825.784 C-155.371,825.971,-155.695,826.159,-156.018,826.347 C-180.102,840.31,-211.738,830.781,-226.753,805.014 C-275.894,720.726,-280.567,712.367,-353.54,586.23 C-394.513,515.403,-374.166,427.004,-308.088,388.693 C-260.799,361.276,-213.51,333.858,-166.221,306.441 C-122.809,281.271,-68.1836,283.251,-23.4822,311.604 C65.6442,368.163,154.771,424.722,243.897,481.28 C241.611,487.487,239.325,493.694,237.038,499.901 C224.256,540.917,181.303,561.686,140.696,546.509 C120.567,538.985,100.439,531.462,80.3104,523.938 C137.538,622.8,194.766,721.662,251.994,820.524 C266.955,846.367,259.531,878.64,235.42,892.62 C235.416,892.622,235.412,892.624,235.408,892.626 C211.28,906.615,179.567,896.995,164.583,871.15 C129.907,811.343,95.2318,751.535,60.5563,691.727 C74.6472,717.358,67.0782,748.847,43.3282,762.617 C42.9876,762.815,42.6469,763.012,42.3062,763.21 C18.1779,777.199,-13.5283,767.59,-28.5127,741.745 C-31.4243,736.723,-34.3358,731.702,-37.2473,726.68 C-22.2597,752.53,-29.6714,784.811,-53.8167,798.81 C-53.8506,798.83,-53.8844,798.85,-53.9183,798.869 C-78.041,812.855,-109.744,803.252,-124.732,777.402 z M-138.492,753.669"/>
          </defs>
          <use xlink:href="#30" style="fill:url(#31);fill-opacity:1;fill-rule:evenodd;opacity:1;stroke:none;"/>
          <use xlink:href="#30" style="fill:none;opacity:1;stroke:#463664;stroke-linecap:butt;stroke-linejoin:miter;stroke-miterlimit:10;stroke-opacity:1;stroke-width:15;"/>
        </g>
      </defs>
      <use xlink:href="#29"/>
    </g>
  </g>
  <g id="32">
    <title>Layer 2 Copy</title>
    <g id="33">
      <title>Group</title>
      <linearGradient x1="1287.19" y1="848.773" x2="892.757" y2="360.515" gradientUnits="userSpaceOnUse" id="36">
        <stop style="stop-color:#f9ebd6;stop-opacity:1;"/>
        <stop offset="1" style="stop-color:#f9ebd6;stop-opacity:1;"/>
      </linearGradient>
      <defs>
        <title>Shape 28</title>
        <g id="34">
          <defs>
            <path id="35" d="M1109.3,425.918 C1095.88,399.229,1105.2,367.443,1130.11,354.914 C1130.44,354.746,1130.78,354.577,1131.11,354.409 C1155.98,341.901,1187,353.291,1200.45,379.904 C1244.5,466.962,1248.67,475.583,1314.03,605.831 C1350.72,678.965,1325.16,766,1256.93,800.32 C1208.09,824.881,1159.26,849.442,1110.42,874.003 C1065.6,896.551,1011.18,891.332,968.245,860.375 C882.634,798.624,797.023,736.873,711.412,675.122 C714.063,669.061,716.713,663.001,719.364,656.941 C734.559,616.756,778.669,598.575,818.304,616.135 C837.951,624.841,857.597,633.547,877.243,642.253 C825.986,540.167,774.729,438.081,723.472,335.996 C710.072,309.31,719.399,277.535,744.298,265.011 C744.302,265.009,744.306,265.008,744.31,265.006 C769.226,252.474,800.311,263.96,813.735,290.649 C844.798,352.41,875.861,414.171,906.925,475.932 C894.38,449.51,903.806,418.526,928.331,406.19 C928.683,406.013,929.035,405.836,929.387,405.659 C954.303,393.128,985.383,404.602,998.806,431.291 C1001.41,436.477,1004.02,441.662,1006.63,446.848 C993.205,420.153,1002.52,388.369,1027.45,375.829 C1027.49,375.811,1027.52,375.794,1027.56,375.776 C1052.47,363.247,1083.55,374.715,1096.97,401.41 z M1109.3,425.918"/>
          </defs>
          <use xlink:href="#35" style="fill:url(#36);fill-opacity:1;fill-rule:evenodd;opacity:1;stroke:none;"/>
          <use xlink:href="#35" style="fill:none;opacity:1;stroke:#463664;stroke-linecap:butt;stroke-linejoin:miter;stroke-miterlimit:10;stroke-opacity:1;stroke-width:15;"/>
        </g>
      </defs>
      <use xlink:href="#34"/>
    </g>
    <defs>
      <title>Path</title>
      <g id="37">
        <defs>
          <path id="38" d="M1000,429.365 C1000,429.365,1000,869.209,1000,869.209"/>
        </defs>
        <use xlink:href="#38" style="fill:#2b1c49;fill-opacity:1;fill-rule:evenodd;opacity:1;stroke:none;"/>
        <use xlink:href="#38" style="fill:none;opacity:1;stroke:#463664;stroke-linecap:butt;stroke-linejoin:miter;stroke-miterlimit:10;stroke-opacity:1;stroke-width:21;"/>
      </g>
    </defs>
    <use xlink:href="#37"/>
    <defs>
      <title>Path</title>
      <g id="39">
        <defs>
          <path id="40" d="M0,337.759 C0,337.759,0,742.516,0,742.516"/>
        </defs>
        <use xlink:href="#40" style="fill:#2b1c49;fill-opacity:1;fill-rule:evenodd;opacity:1;stroke:none;"/>
        <use xlink:href="#40" style="fill:none;opacity:1;stroke:#463664;stroke-linecap:butt;stroke-linejoin:miter;stroke-miterlimit:10;stroke-opacity:1;stroke-width:21;"/>
      </g>
    </defs>
    <use xlink:href="#39"/>
    <defs>
      <title>Path</title>
      <g id="41">
        <defs>
          <path id="42" d="M0,767.764 C0,767.764,0,742.516,0,742.516"/>
        </defs>
        <use xlink:href="#42" style="fill:#2b1c49;fill-opacity:1;fill-rule:evenodd;opacity:1;stroke:none;"/>
        <use xlink:href="#42" style="fill:none;opacity:1;stroke:#463664;stroke-linecap:butt;stroke-linejoin:miter;stroke-miterlimit:10;stroke-opacity:1;stroke-width:21;"/>
      </g>
    </defs>
    <use xlink:href="#41"/>
    <defs>
      <title>Path</title>
      <g id="43">
        <defs>
          <path id="44" d="M-5.08491,328.98 C-5.08491,328.98,-4.83955,341.37,-4.83955,341.37"/>
        </defs>
        <use xlink:href="#44" style="fill:#2b1c49;fill-opacity:1;fill-rule:evenodd;opacity:1;stroke:none;"/>
        <use xlink:href="#44" style="fill:none;opacity:1;stroke:#463664;stroke-linecap:butt;stroke-linejoin:miter;stroke-miterlimit:10;stroke-opacity:1;stroke-width:21;"/>
      </g>
    </defs>
    <use xlink:href="#43"/>
    <defs>
      <title>Path</title>
      <g id="45">
        <defs>
          <path id="46" d="M1005.34,879.86 C1005.34,879.86,1005.58,869.209,1005.58,869.209"/>
        </defs>
        <use xlink:href="#46" style="fill:#2b1c49;fill-opacity:1;fill-rule:evenodd;opacity:1;stroke:none;"/>
        <use xlink:href="#46" style="fill:none;opacity:1;stroke:#463664;stroke-linecap:butt;stroke-linejoin:miter;stroke-miterlimit:10;stroke-opacity:1;stroke-width:21;"/>
      </g>
    </defs>
    <use xlink:href="#45"/>
  </g>
</svg>
