<?xml version="1.0" encoding="iso-8859-1"?>
<!-- Generator: Adobe Illustrator 19.0.0, SVG Export Plug-In . SVG Version: 6.00 Build 0)  -->
<svg version="1.1" id="Capa_1" xmlns="http://www.w3.org/2000/svg" xmlns:xlink="http://www.w3.org/1999/xlink" x="0px" y="0px"
	 viewBox="0 0 509.984 509.984" style="enable-background:new 0 0 509.984 509.984;" xml:space="preserve">
<path style="fill:#CACACA;" d="M378.544,123.552C378.544,55.424,323.12,0,254.992,0S131.44,55.424,131.44,123.552v124.944h24
	V123.552C155.44,68.576,200.016,24,254.992,24s99.552,44.576,99.552,99.552V248.48h24V123.552z"/>
<path style="fill:#E5E5E5;" d="M254.992,24c-54.976,0-99.552,44.576-99.552,99.552V248.48h199.104V123.552
	C354.544,68.576,309.968,24,254.992,24z M179.44,200.48v-76.928C179.44,81.888,213.328,48,254.992,48s75.552,33.888,75.552,75.552
	v76.944H179.44V200.48z"/>
<circle style="fill:#E95454;" cx="254.992" cy="341.504" r="168.48"/>
<path style="fill:#ED6362;" d="M213.232,205.008c0,13.28,10.768,24.032,24.032,24.032h32.144c11.12,0,20.16,9.088,20.096,20.208
	v0.256c0,0.496,0.016,0.976,0.048,1.472c0.672,10.96-8.032,20.192-19.008,20.192H193.76c-13.024,0-24.688,9.744-25.36,22.752
	c-0.72,13.856,10.304,25.328,24,25.328h47.376c11.168,0,20.208,9.088,20.144,20.272v1.392v0.288
	c0.064,11.76-9.488,21.376-21.248,21.376h-4.896c-13.008,0-24.688,9.744-25.36,22.736c-0.72,13.856,10.304,25.328,24,25.328h49.312
	c11.616,0,20.272,9.76,20.144,21.376c0,0.096,0,0.192,0,0.288s0,0.192,0,0.288c0.144,11.616-8.528,21.376-20.144,21.376h-19.872
	c-13.008,0-24.688,9.744-25.36,22.752c-0.72,13.856,10.304,25.328,24,25.328h45.6c68.048-21.648,117.36-85.312,117.36-160.528
	s-49.312-138.88-117.36-160.528h-68.832C224,180.976,213.232,191.744,213.232,205.008z"/>
<path style="fill:#CD494C;" d="M254.992,471.952c-71.936,0-130.448-58.512-130.448-130.432s58.512-130.448,130.448-130.448
	S385.44,269.6,385.44,341.52S326.928,471.952,254.992,471.952z M254.992,234.288c-59.12,0-107.216,48.096-107.216,107.216
	s48.096,107.2,107.216,107.2s107.216-48.096,107.216-107.2S314.112,234.288,254.992,234.288z"/>
<path style="fill:#010101;" d="M285.568,324.32c0-16.88-13.68-30.576-30.576-30.576c-16.896,0-30.576,13.68-30.576,30.576
	c0,11.632,6.576,21.632,16.144,26.8l-6.416,38.16h41.696l-6.416-38.16C278.992,345.952,285.568,335.952,285.568,324.32z"/>
<g>
</g>
<g>
</g>
<g>
</g>
<g>
</g>
<g>
</g>
<g>
</g>
<g>
</g>
<g>
</g>
<g>
</g>
<g>
</g>
<g>
</g>
<g>
</g>
<g>
</g>
<g>
</g>
<g>
</g>
</svg>
