<?xml version="1.0" encoding="utf-8"?>
<svg x="0pt" y="0pt" width="1000pt" height="1000pt" viewBox="0 0 1000 1000" xmlns="http://www.w3.org/2000/svg" xmlns:xlink="http://www.w3.org/1999/xlink">
  <g id="1">
    <title>Layer 1</title>
    <clipPath id="3">
      <use xlink:href="#2"/>
      <path id="2" d="M34.5343,69.0426 C34.5343,69.0426,965.492,69.0426,965.492,69.0426 C965.492,69.0426,965.492,1000,965.492,1000 C965.492,1000,34.5343,1000,34.5343,1000 C34.5343,1000,34.5343,69.0426,34.5343,69.0426 z"/>
    </clipPath>
    <g id="4" style="clip-path:url(#3);">
      <title>ClipGroup</title>
      <g id="5">
        <title>Group</title>
        <defs>
          <title>Shape 1</title>
          <g id="6">
            <defs>
              <path id="7" d="M901.641,404.813 C901.641,404.813,901.641,404.813,901.641,404.813 C901.641,383.255,901.641,361.697,901.641,340.139 C901.401,292.598,861.923,253.921,813.635,253.921 C776.849,253.921,679.81,253.921,644.392,253.921 C617.663,250.796,590.935,247.67,564.207,244.544 C564.207,244.544,607.373,192.685,607.373,192.685 C620.31,177.143,618.199,154.054,602.655,141.115 C587.105,128.178,564.022,130.289,551.083,145.834 C522.282,180.435,493.481,215.036,464.68,249.637 C446.101,271.96,459.744,306.062,488.572,309.433 C531.905,314.5,575.238,319.567,618.57,324.634 C618.57,324.634,618.57,604.834,618.57,604.834 C683.222,604.834,747.874,604.834,812.526,604.834 C812.526,604.834,812.526,327.154,812.526,327.154 C812.895,327.154,813.264,327.154,813.633,327.154 C821.33,327.154,828.37,333.518,828.405,340.322 C828.405,361.819,828.405,383.316,828.405,404.813 C828.405,472.988,828.405,541.163,828.405,609.338 C828.405,629.561,844.8,645.956,865.023,645.956 C885.246,645.956,901.641,629.563,901.641,609.338 C901.641,609.338,901.641,404.813,901.641,404.813 z"/>
            </defs>
            <use xlink:href="#7" style="fill:#f9ebd6;fill-opacity:1;fill-rule:evenodd;opacity:1;stroke:none;"/>
            <use xlink:href="#7" style="fill:none;opacity:1;stroke:#b3af9e;stroke-linecap:butt;stroke-linejoin:miter;stroke-miterlimit:10;stroke-opacity:1;stroke-width:1;"/>
          </g>
        </defs>
        <use xlink:href="#6"/>
      </g>
      <g id="8">
        <title>Group</title>
        <defs>
          <title>Shape 3</title>
          <g id="9">
            <defs>
              <path id="10" d="M724.645,590.693 C724.645,712.482,724.645,834.271,724.645,956.06 C724.645,980.328,744.317,1000,768.585,1000 C792.854,1000,812.526,980.326,812.526,956.059 C812.526,956.059,812.526,590.693,812.526,590.693 C812.526,590.693,724.645,590.693,724.645,590.693 z"/>
            </defs>
            <use xlink:href="#10" style="fill:#b3af9e;fill-opacity:1;fill-rule:evenodd;opacity:1;stroke:none;"/>
          </g>
        </defs>
        <use xlink:href="#9"/>
        <defs>
          <title>Shape 4</title>
          <g id="11">
            <defs>
              <path id="12" d="M618.572,590.693 C618.572,712.482,618.572,834.271,618.572,956.06 C618.572,980.328,638.244,1000,662.512,1000 C686.781,1000,706.453,980.326,706.453,956.059 C706.453,956.059,706.453,590.693,706.453,590.693 C706.453,590.693,618.572,590.693,618.572,590.693 z"/>
            </defs>
            <use xlink:href="#12" style="fill:#b3af9e;fill-opacity:1;fill-rule:evenodd;opacity:1;stroke:none;"/>
          </g>
        </defs>
        <use xlink:href="#11"/>
      </g>
      <defs>
        <title>Shape 5</title>
        <g id="13">
          <defs>
            <path id="14" d="M901.641,404.813 C901.641,383.255,901.641,361.697,901.641,340.138 C901.401,292.598,861.923,253.921,813.635,253.921 C792.186,253.921,770.737,253.921,749.288,253.921 C749.288,253.923,749.288,253.925,749.288,253.927 C750.112,272.315,682.015,272.375,681.19,253.927 C681.19,253.925,681.19,253.923,681.19,253.921 C668.924,253.921,656.658,253.921,644.391,253.921 C617.663,250.796,590.935,247.67,564.207,244.544 C558.615,268.378,553.024,292.211,547.432,316.045 C571.145,318.888,594.859,321.732,618.572,324.576 C618.572,324.576,618.572,604.834,618.572,604.834 C683.224,604.834,747.876,604.834,812.527,604.834 C812.527,604.834,812.527,327.154,812.527,327.154 C812.897,327.154,813.266,327.154,813.635,327.154 C821.332,327.154,828.372,333.518,828.406,340.322 C828.406,361.819,828.406,383.316,828.406,404.813 C828.406,404.813,901.641,404.813,901.641,404.813 z"/>
          </defs>
          <use xlink:href="#14" style="fill:#463664;fill-opacity:1;fill-rule:evenodd;opacity:1;stroke:none;"/>
        </g>
      </defs>
      <use xlink:href="#13"/>
      <linearGradient x1="483.301" y1="496.685" x2="320.636" y2="396.209" gradientUnits="userSpaceOnUse" id="17">
        <stop style="stop-color:#aa7942;stop-opacity:1;"/>
        <stop offset="1" style="stop-color:#c18a4b;stop-opacity:1;"/>
      </linearGradient>
      <defs>
        <title>Shape 6</title>
        <g id="15">
          <defs>
            <path id="16" d="M483.947,470.245 C480.625,475.353,474.945,478.435,468.851,478.435 C468.851,478.435,281.634,478.435,281.634,478.435 C281.634,478.435,281.634,367.476,281.634,367.476 C344.04,367.476,406.446,367.476,468.851,367.476 C474.945,367.476,480.625,370.558,483.947,375.666 C493.575,390.468,503.202,405.27,512.83,420.072 C513.97,421.825,513.97,424.086,512.83,425.839 C512.83,425.839,483.947,470.245,483.947,470.245 z"/>
          </defs>
          <use xlink:href="#16" style="fill:url(#17);fill-opacity:1;fill-rule:evenodd;opacity:1;stroke:none;"/>
        </g>
      </defs>
      <use xlink:href="#15"/>
      <defs>
        <title>Shape 7</title>
        <g id="18">
          <defs>
            <path id="19" d="M79.3239,595.899 C82.6459,601.007,88.3262,604.089,94.4192,604.089 C156.825,604.089,219.231,604.089,281.636,604.089 C281.636,567.102,281.636,530.116,281.636,493.13 C281.636,493.13,94.4192,493.13,94.4192,493.13 C88.3262,493.13,82.6459,496.212,79.3239,501.32 C79.3239,501.32,50.4388,545.726,50.4388,545.726 C49.2987,547.478,49.2987,549.74,50.4388,551.493 C50.4388,551.493,79.3239,595.899,79.3239,595.899 z"/>
          </defs>
          <use xlink:href="#19" style="fill:#ab712f;fill-opacity:1;fill-rule:evenodd;opacity:1;stroke:none;"/>
        </g>
      </defs>
      <use xlink:href="#18"/>
      <defs>
        <title>Shape 8</title>
        <g id="20">
          <defs>
            <path id="21" d="M304.587,976.273 C304.587,976.273,304.587,329.587,304.587,329.587 C304.587,316.912,294.31,306.635,281.634,306.635 C268.959,306.635,258.682,316.912,258.682,329.587 C258.682,545.149,258.682,760.711,258.682,976.273 C258.682,976.273,304.587,976.273,304.587,976.273 z"/>
          </defs>
          <use xlink:href="#21" style="fill:#723318;fill-opacity:1;fill-rule:evenodd;opacity:1;stroke:none;"/>
        </g>
      </defs>
      <use xlink:href="#20"/>
      <defs>
        <title>Shape 9</title>
        <g id="22">
          <defs>
            <path id="23" d="M358.486,1000 C358.486,1000,204.783,1000,204.783,1000 C192.108,1000,181.831,989.723,181.831,977.048 C181.831,964.373,192.108,954.096,204.783,954.096 C256.017,954.096,307.252,954.096,358.486,954.096 C371.161,954.096,381.438,964.373,381.438,977.048 C381.438,989.723,371.161,1000,358.486,1000 z"/>
          </defs>
          <use xlink:href="#23" style="fill:#592612;fill-opacity:1;fill-rule:evenodd;opacity:1;stroke:none;"/>
        </g>
      </defs>
      <use xlink:href="#22"/>
      <defs>
        <title>Shape 10</title>
        <g id="24">
          <defs>
            <path id="25" d="M929.917,140.255 C919.839,148.136,919.655,153.634,919.655,163.164 C919.655,166.646,917.822,170.677,908.843,170.677 C901.33,170.677,898.765,167.928,898.765,158.398 C898.765,142.637,905.729,135.124,911.044,130.544 C917.091,125.413,927.353,119.733,927.353,109.837 C927.353,101.408,920.022,97.375,910.86,97.375 C892.168,97.375,896.199,111.485,886.302,111.485 C881.355,111.485,875.307,108.186,875.307,101.039 C875.307,91.1438,886.669,76.483,911.409,76.483 C934.867,76.483,950.442,89.4964,950.442,106.721 C950.442,123.945,934.865,136.408,929.917,140.255 z M923.137,197.431 C923.137,204.944,916.906,211.541,909.025,211.541 C901.145,211.541,895.097,204.944,895.097,197.431 C895.097,189.734,901.329,183.321,909.025,183.321 C916.722,183.321,923.137,189.736,923.137,197.431 z"/>
          </defs>
          <use xlink:href="#25" style="fill:#b3af9e;fill-opacity:1;fill-rule:evenodd;opacity:1;stroke:none;"/>
        </g>
      </defs>
      <use xlink:href="#24"/>
    </g>
    <clipPath id="27">
      <use xlink:href="#26"/>
      <path id="26" d="M34.5343,69.0426 C34.5343,69.0426,965.492,69.0426,965.492,69.0426 C965.492,69.0426,965.492,1000,965.492,1000 C965.492,1000,34.5343,1000,34.5343,1000 C34.5343,1000,34.5343,69.0426,34.5343,69.0426 z"/>
    </clipPath>
    <g id="28" style="clip-path:url(#27);"/>
  </g>
  <g id="29">
    <title>Layer 2</title>
    <linearGradient x1="727.141" y1="166.257" x2="733.332" y2="232.507" gradientUnits="userSpaceOnUse" id="32">
      <stop style="stop-color:#b3af9e;stop-opacity:1;"/>
      <stop offset="1" style="stop-color:#f9ebd6;stop-opacity:1;"/>
    </linearGradient>
    <defs>
      <title>Path</title>
      <g id="30">
        <defs>
          <path id="31" d="M680.81,191.219 C680.81,191.219,756.696,191.219,756.696,191.219 C756.696,191.219,756.696,262.266,756.696,262.266 C756.696,262.266,680.81,262.266,680.81,262.266 C680.81,262.266,680.81,191.219,680.81,191.219 z"/>
        </defs>
        <use xlink:href="#31" style="fill:url(#32);fill-opacity:1;fill-rule:evenodd;opacity:1;stroke:none;"/>
      </g>
    </defs>
    <use xlink:href="#30"/>
    <defs>
      <title>Path</title>
      <g id="33">
        <defs>
          <path id="34" d="M799.994,128.352 C794.134,122.019,783.154,68.7963,783.154,68.7963 C783.154,68.7963,655.678,68.7963,655.678,68.7963 C655.678,68.7963,641.547,128.352,641.547,128.352 C641.547,128.352,631.864,127.478,631.451,138.825 C631.039,150.173,643.497,154.428,648.165,153.468 C648.165,153.468,653.319,218.915,718.65,219.327 C783.981,219.738,788.736,154.003,788.736,154.003 C788.736,154.003,790.334,153.299,790.334,153.299 C790.334,153.299,794.645,152.974,794.645,152.974 C794.645,152.974,804.564,149.854,805.245,142.96 C805.927,136.067,805.855,134.686,799.994,128.352 z"/>
        </defs>
        <use xlink:href="#34" style="fill:#f9ebd6;fill-opacity:1;fill-rule:nonzero;opacity:1;stroke:none;"/>
        <use xlink:href="#34" style="fill:none;opacity:1;stroke:#b3af9e;stroke-linecap:butt;stroke-linejoin:miter;stroke-miterlimit:10;stroke-opacity:1;stroke-width:1;"/>
      </g>
    </defs>
    <use xlink:href="#33"/>
    <defs>
      <title>Path</title>
      <g id="35">
        <defs>
          <path id="36" d="M718.769,77.213 C718.769,77.213,679.333,77.213,679.333,77.213 C679.333,77.213,666.568,73.9574,661.362,80.5748 C657.459,85.273,659.018,111.947,659.018,111.947 C659.018,111.947,660.074,118.003,656.813,123.239 C653.551,128.475,642.693,128.352,642.693,128.352 C642.693,128.352,637.299,128.352,637.299,128.352 C637.299,128.352,631.324,90.243,631.324,90.243 C631.324,90.243,628.088,73.7629,636.386,65.5783 C644.684,57.3938,652.53,53.7084,672.986,54.5258 C693.441,55.3432,750.093,54.4145,750.093,54.4145 C750.093,54.4145,787.855,51.3513,799.073,63.4247 C810.291,75.4981,806.532,86.2805,806.532,86.2805 C806.532,86.2805,800.531,128.352,800.531,128.352 C800.531,128.352,784.695,128.386,780.454,123.042 C778.331,115.889,778.725,96.1363,778.725,96.1363 C778.725,96.1363,779.556,83.9703,776.818,80.5916 C774.08,77.213,761.342,77.213,761.342,77.213 C761.342,77.213,718.769,77.213,718.769,77.213 z"/>
        </defs>
        <use xlink:href="#36" style="fill:#aa7942;fill-opacity:1;fill-rule:nonzero;opacity:1;stroke:none;"/>
      </g>
    </defs>
    <use xlink:href="#35"/>
    <linearGradient x1="783.171" y1="78.2202" x2="699.906" y2="65.0839" gradientUnits="userSpaceOnUse" id="39">
      <stop style="stop-color:#aa7942;stop-opacity:1;"/>
      <stop offset="1" style="stop-color:#c18a4b;stop-opacity:1;"/>
    </linearGradient>
    <defs>
      <title>Path</title>
      <g id="37">
        <defs>
          <path id="38" d="M724.068,23.6627 C724.068,23.6627,762.919,23.8524,772.742,20.2088 C782.565,16.5651,784.715,14.5364,787.703,14.5364 C790.691,14.5364,795.502,20.6166,795.077,40.5413 C794.651,60.4661,790.106,77.4882,727.03,77.1977 C663.954,76.9072,668.289,79.7135,659.448,62.7912 C655.508,34.1082,679.496,23.6656,696.084,22.8875"/>
        </defs>
        <use xlink:href="#38" style="fill:url(#39);fill-opacity:1;fill-rule:nonzero;opacity:1;stroke:none;"/>
      </g>
    </defs>
    <use xlink:href="#37"/>
    <defs>
      <title>Path</title>
      <g id="40">
        <defs>
          <path id="41" d="M679.773,115.066 C679.773,115.066,692.837,115.066,692.837,115.066"/>
        </defs>
        <use xlink:href="#41" style="fill:none;opacity:1;stroke:#2b1c49;stroke-linecap:round;stroke-linejoin:miter;stroke-miterlimit:10;stroke-opacity:1;stroke-width:12;"/>
      </g>
    </defs>
    <use xlink:href="#40"/>
    <defs>
      <title>Path Copy</title>
      <g id="42">
        <defs>
          <path id="43" d="M745.501,114.903 C745.501,114.903,758.564,114.903,758.564,114.903"/>
        </defs>
        <use xlink:href="#43" style="fill:none;opacity:1;stroke:#2b1c49;stroke-linecap:round;stroke-linejoin:miter;stroke-miterlimit:10;stroke-opacity:1;stroke-width:12;"/>
      </g>
    </defs>
    <use xlink:href="#42"/>
    <defs>
      <title>Path Copy Copy</title>
      <g id="44">
        <defs>
          <path id="45" d="M751.738,131.668 C751.738,131.668,751.738,137.369,751.738,137.369"/>
        </defs>
        <use xlink:href="#45" style="fill:none;opacity:1;stroke:#463664;stroke-linecap:round;stroke-linejoin:miter;stroke-miterlimit:10;stroke-opacity:1;stroke-width:12;"/>
      </g>
    </defs>
    <use xlink:href="#44"/>
    <defs>
      <title>Path Copy Copy Copy</title>
      <g id="46">
        <defs>
          <path id="47" d="M686.223,131.58 C686.223,131.58,686.223,137.281,686.223,137.281"/>
        </defs>
        <use xlink:href="#47" style="fill:none;opacity:1;stroke:#463664;stroke-linecap:round;stroke-linejoin:miter;stroke-miterlimit:10;stroke-opacity:1;stroke-width:12;"/>
      </g>
    </defs>
    <use xlink:href="#46"/>
    <defs>
      <title>Path</title>
      <g id="48">
        <defs>
          <path id="49" d="M722.83,355.079 C722.83,355.079,588.15,304.157,588.437,293.668 C588.519,290.649,588.668,287.903,593.787,279.679 C598.569,271.995,601.014,270.52,606.962,268.241 C617.299,264.28,659.654,251.294,659.654,251.294 C659.654,251.294,667.513,234.489,667.513,234.489 C667.513,234.489,667.982,232.984,669.606,232.477 C671.23,231.969,673.084,232.085,673.084,232.085 C673.084,232.085,718.789,256.551,718.789,256.551 C718.789,256.551,762.695,232.808,762.695,232.808 C762.695,232.808,763.359,231.294,766.091,231.904 C768.823,232.515,769.247,233.637,769.247,233.637 C769.247,233.637,777.67,251.466,777.67,251.466 C777.67,251.466,812.856,261.909,825.344,266.242 C828.847,267.458,835.461,270.137,841.024,275.904 C846.586,281.671,849.183,296.849,849.183,296.849 C849.183,296.849,722.83,355.079,722.83,355.079 z"/>
        </defs>
        <use xlink:href="#49" style="fill:#463664;fill-opacity:1;fill-rule:nonzero;opacity:1;stroke:none;"/>
      </g>
    </defs>
    <use xlink:href="#48"/>
    <defs>
      <title>Path</title>
      <g id="50">
        <defs>
          <path id="51" d="M718.903,294.984 C721.845,294.984,724.231,297.369,724.231,300.311 C724.231,303.254,721.845,305.639,718.903,305.639 C715.961,305.639,713.575,303.254,713.575,300.311 C713.575,297.369,715.961,294.984,718.903,294.984 z"/>
        </defs>
        <use xlink:href="#51" style="fill:#aa7942;fill-opacity:1;fill-rule:evenodd;opacity:1;stroke:none;"/>
        <use xlink:href="#51" style="fill:none;opacity:1;stroke:#000000;stroke-linecap:butt;stroke-linejoin:miter;stroke-miterlimit:10;stroke-opacity:1;stroke-width:1;"/>
      </g>
    </defs>
    <use xlink:href="#50"/>
    <defs>
      <title>Path Copy</title>
      <g id="52">
        <defs>
          <path id="53" d="M719.086,327.576 C722.029,327.576,724.414,329.961,724.414,332.904 C724.414,335.846,722.029,338.232,719.086,338.232 C716.144,338.232,713.758,335.846,713.758,332.904 C713.758,329.961,716.144,327.576,719.086,327.576 z"/>
        </defs>
        <use xlink:href="#53" style="fill:#aa7942;fill-opacity:1;fill-rule:evenodd;opacity:1;stroke:none;"/>
        <use xlink:href="#53" style="fill:none;opacity:1;stroke:#000000;stroke-linecap:butt;stroke-linejoin:miter;stroke-miterlimit:10;stroke-opacity:1;stroke-width:1;"/>
      </g>
    </defs>
    <use xlink:href="#52"/>
    <defs>
      <title>Path</title>
      <g id="54">
        <defs>
          <path id="55" d="M703.498,179.35 C703.498,179.35,741.059,172.161,741.059,172.161"/>
        </defs>
        <use xlink:href="#55" style="fill:none;opacity:1;stroke:#463664;stroke-linecap:round;stroke-linejoin:miter;stroke-miterlimit:10;stroke-opacity:1;stroke-width:8;"/>
      </g>
    </defs>
    <use xlink:href="#54"/>
  </g>
</svg>
