<?xml version="1.0"?>
<svg xmlns="http://www.w3.org/2000/svg" xmlns:xlink="http://www.w3.org/1999/xlink" version="1.1" id="Capa_1" x="0px" y="0px" viewBox="0 0 447.82 447.82" style="enable-background:new 0 0 447.82 447.82;" xml:space="preserve" width="512px" height="512px"><g><rect x="32.8" y="321.186" transform="matrix(-0.7071 0.7071 -0.7071 -0.7071 430.991 554.3607)" style="fill:#C18B4C" width="135.767" height="90.511" data-original="#00F2A9" class="active-path" data-old_color="#00F2A9"/><g>
	<path style="fill:#322153" d="M91.819,354.06c2.832-3.488,17.352-17.592,30.328-29.768c3.224-3.024,3.392-8.088,0.368-11.304   c-3.032-3.216-8.088-3.384-11.304-0.368c-34.536,32.368-34.536,33.864-34.536,37.84c0,4.424,3.576,8,8,8   C87.803,358.46,90.507,356.668,91.819,354.06z" data-original="#322153" class="" data-old_color="#322153"/>
	<path style="fill:#322153" d="M220.675,318.46v-15.568L423.859,175.9c6.232-3.896,10.288-10.32,11.128-17.632   c0.832-7.304-1.672-14.48-6.872-19.68l-15.44-15.44V94.46c0-2.128-0.84-4.16-2.344-5.656l-64-64   c-1.496-1.504-3.528-2.344-5.656-2.344h-28.688l-15.44-15.44c-5.2-5.2-12.352-7.672-19.68-6.872   c-7.312,0.832-13.736,4.888-17.632,11.128L110.379,249.444l-95.352,95.352c-0.744,0.736-1.328,1.624-1.736,2.608   c-0.408,0.976-0.616,2.016-0.616,3.056v32c0,2.128,0.84,4.16,2.344,5.656l32,32c1.496,1.504,3.528,2.344,5.656,2.344h32   c1.04,0,2.08-0.208,3.056-0.616c0.984-0.408,1.872-0.992,2.608-1.736l29.648-29.648h25.376l50.344,50.344   c4.68,4.68,10.824,7.016,16.968,7.016s12.288-2.336,16.968-7.016l9.376-9.376c9.36-9.36,9.36-24.576,0-33.936l-47.032-47.032   l26.344-26.344C219.835,322.62,220.675,320.588,220.675,318.46z M337.363,38.46l59.312,59.312v9.376L327.987,38.46H337.363z    M278.683,16.044c2.416-0.296,4.824,0.552,6.552,2.288L303.003,36.1c0.008,0.008,0.016,0.016,0.024,0.024l95.976,95.976   c0.008,0.008,0.016,0.016,0.024,0.024l17.768,17.768c1.736,1.736,2.568,4.128,2.288,6.552c-0.152,1.352-0.704,2.568-1.464,3.648   L275.035,17.508C276.115,16.748,277.331,16.196,278.683,16.044z M265.819,30.924l138.392,138.392L181.835,308.3l-55-55   L265.819,30.924z M116.675,265.772l52.688,52.688l-58.344,58.344l-26.344,26.344L31.987,350.46L116.675,265.772z M28.675,379.148   v-9.376l36.688,36.688h-9.376L28.675,379.148z M227.707,420.116l-9.376,9.376c-3.128,3.128-8.184,3.128-11.312,0l-52.688-52.688   c-1.496-1.504-3.528-2.344-5.656-2.344h-12.688l36.688-36.688v12.688c0,1.032,0.208,2.064,0.608,3.04   c0.4,0.968,0.984,1.864,1.736,2.616l52.688,52.688C230.827,411.924,230.827,416.996,227.707,420.116z M188.675,331.148v-8.256   l16-10v2.256L188.675,331.148z" data-original="#322153" class="" data-old_color="#322153"/>
</g></g> </svg>
