<?xml version="1.0" encoding="utf-8"?>
<svg x="0pt" y="0pt" width="1000pt" height="1000pt" viewBox="0 0 1000 1000" xmlns="http://www.w3.org/2000/svg" xmlns:xlink="http://www.w3.org/1999/xlink">
  <g id="1">
    <title>Layer 1</title>
    <clipPath id="3">
      <use xlink:href="#2"/>
      <path id="2" d="M15.0695,15.0694 C15.0695,15.0694,984.931,15.0694,984.931,15.0694 C984.931,15.0694,984.931,984.931,984.931,984.931 C984.931,984.931,15.0695,984.931,15.0695,984.931 C15.0695,984.931,15.0695,15.0694,15.0695,15.0694 z"/>
    </clipPath>
    <g id="4" style="clip-path:url(#3);">
      <title>ClipGroup</title>
      <defs>
        <title>Shape 100</title>
        <g id="5">
          <defs>
            <path id="6" d="M311.529,984.931 C284.732,984.931,257.935,984.931,231.138,984.931 C220.676,984.931,212.196,976.45,212.196,965.988 C212.196,951.275,212.196,936.563,212.196,921.85 C251.621,921.85,291.046,921.85,330.471,921.85 C330.471,936.563,330.471,951.275,330.471,965.988 C330.471,976.45,321.991,984.931,311.529,984.931 z"/>
          </defs>
          <use xlink:href="#6" style="fill:#473764;fill-opacity:1;fill-rule:evenodd;opacity:1;stroke:none;"/>
        </g>
      </defs>
      <use xlink:href="#5"/>
      <defs>
        <title>Shape 101</title>
        <g id="7">
          <defs>
            <path id="8" d="M686.499,984.931 C713.296,984.931,740.093,984.931,766.89,984.931 C777.352,984.931,785.833,976.45,785.833,965.988 C785.833,951.275,785.833,936.563,785.833,921.85 C746.407,921.85,706.982,921.85,667.557,921.85 C667.557,936.563,667.557,951.275,667.557,965.988 C667.557,976.45,676.037,984.931,686.499,984.931 z"/>
          </defs>
          <use xlink:href="#8" style="fill:#473764;fill-opacity:1;fill-rule:evenodd;opacity:1;stroke:none;"/>
        </g>
      </defs>
      <use xlink:href="#7"/>
      <defs>
        <title>Shape 102</title>
        <g id="9">
          <defs>
            <path id="10" d="M592.468,29.7348 C666.667,318.986,740.866,608.237,815.065,897.488 C818.232,909.833,808.907,921.852,796.162,921.852 C697.441,921.852,598.721,921.852,500,921.852 C401.279,921.852,302.557,921.852,203.836,921.852 C191.092,921.852,181.766,909.835,184.933,897.488 C259.133,608.237,333.332,318.986,407.532,29.7348 C409.744,21.1045,417.524,15.0694,426.433,15.0694 C475.477,15.0694,524.521,15.0694,573.565,15.0694 C582.476,15.0694,590.256,21.1045,592.468,29.7348 z"/>
          </defs>
          <use xlink:href="#10" style="fill:#40413e;fill-opacity:1;fill-rule:evenodd;opacity:1;stroke:none;"/>
        </g>
      </defs>
      <use xlink:href="#9"/>
      <g id="11">
        <title>Group</title>
        <defs>
          <title>Shape 104</title>
          <g id="12">
            <defs>
              <path id="13" d="M568.995,105.051 C555.853,105.051,542.711,105.051,529.569,105.051 C521.487,105.051,514.934,98.4983,514.934,90.4155 C514.934,82.3327,521.487,75.7804,529.569,75.7804 C542.711,75.7804,555.853,75.7804,568.995,75.7804 C577.077,75.7804,583.63,82.3327,583.63,90.4155 C583.63,98.4983,577.077,105.051,568.995,105.051 z"/>
            </defs>
            <use xlink:href="#13" style="fill:#ccc7b4;fill-opacity:1;fill-rule:evenodd;opacity:1;stroke:none;"/>
          </g>
        </defs>
        <use xlink:href="#12"/>
        <defs>
          <title>Shape 105</title>
          <g id="14">
            <defs>
              <path id="15" d="M568.995,183.899 C555.853,183.899,542.711,183.899,529.569,183.899 C521.487,183.899,514.934,177.347,514.934,169.264 C514.934,161.181,521.487,154.629,529.569,154.629 C542.711,154.629,555.853,154.629,568.995,154.629 C577.077,154.629,583.63,161.181,583.63,169.264 C583.63,177.347,577.077,183.899,568.995,183.899 z"/>
            </defs>
            <use xlink:href="#15" style="fill:#ccc7b4;fill-opacity:1;fill-rule:evenodd;opacity:1;stroke:none;"/>
          </g>
        </defs>
        <use xlink:href="#14"/>
        <defs>
          <title>Shape 106</title>
          <g id="16">
            <defs>
              <path id="17" d="M568.995,262.751 C555.853,262.751,542.711,262.751,529.569,262.751 C521.487,262.751,514.934,256.199,514.934,248.116 C514.934,240.034,521.487,233.481,529.569,233.481 C542.711,233.481,555.853,233.481,568.995,233.481 C577.077,233.481,583.63,240.034,583.63,248.116 C583.63,256.197,577.077,262.751,568.995,262.751 z"/>
            </defs>
            <use xlink:href="#17" style="fill:#ccc7b4;fill-opacity:1;fill-rule:evenodd;opacity:1;stroke:none;"/>
          </g>
        </defs>
        <use xlink:href="#16"/>
        <defs>
          <title>Shape 107</title>
          <g id="18">
            <defs>
              <path id="19" d="M568.995,341.6 C555.853,341.6,542.711,341.6,529.569,341.6 C521.487,341.6,514.934,335.048,514.934,326.965 C514.934,318.882,521.487,312.33,529.569,312.33 C542.711,312.33,555.853,312.33,568.995,312.33 C577.077,312.33,583.63,318.882,583.63,326.965 C583.63,335.048,577.077,341.6,568.995,341.6 z"/>
            </defs>
            <use xlink:href="#19" style="fill:#ccc7b4;fill-opacity:1;fill-rule:evenodd;opacity:1;stroke:none;"/>
          </g>
        </defs>
        <use xlink:href="#18"/>
        <defs>
          <title>Shape 108</title>
          <g id="20">
            <defs>
              <path id="21" d="M568.995,420.452 C555.853,420.452,542.711,420.452,529.569,420.452 C521.487,420.452,514.934,413.9,514.934,405.817 C514.934,397.735,521.487,391.182,529.569,391.182 C542.711,391.182,555.853,391.182,568.995,391.182 C577.077,391.182,583.63,397.735,583.63,405.817 C583.63,413.9,577.077,420.452,568.995,420.452 z"/>
            </defs>
            <use xlink:href="#21" style="fill:#ccc7b4;fill-opacity:1;fill-rule:evenodd;opacity:1;stroke:none;"/>
          </g>
        </defs>
        <use xlink:href="#20"/>
        <defs>
          <title>Shape 109</title>
          <g id="22">
            <defs>
              <path id="23" d="M561.109,499.301 C550.596,499.301,540.083,499.301,529.569,499.301 C521.487,499.301,514.934,492.749,514.934,484.666 C514.934,476.583,521.487,470.031,529.569,470.031 C540.083,470.031,550.596,470.031,561.109,470.031 C569.192,470.031,575.744,476.583,575.744,484.666 C575.744,492.749,569.192,499.301,561.109,499.301 z"/>
            </defs>
            <use xlink:href="#23" style="fill:#ccc7b4;fill-opacity:1;fill-rule:evenodd;opacity:1;stroke:none;"/>
          </g>
        </defs>
        <use xlink:href="#22"/>
        <defs>
          <title>Shape 110</title>
          <g id="24">
            <defs>
              <path id="25" d="M470.431,105.051 C457.289,105.051,444.147,105.051,431.005,105.051 C422.923,105.051,416.37,98.4983,416.37,90.4155 C416.37,82.3327,422.923,75.7804,431.005,75.7804 C444.147,75.7804,457.289,75.7804,470.431,75.7804 C478.513,75.7804,485.066,82.3327,485.066,90.4155 C485.066,98.4983,478.513,105.051,470.431,105.051 z"/>
            </defs>
            <use xlink:href="#25" style="fill:#ccc7b4;fill-opacity:1;fill-rule:evenodd;opacity:1;stroke:none;"/>
          </g>
        </defs>
        <use xlink:href="#24"/>
        <defs>
          <title>Shape 111</title>
          <g id="26">
            <defs>
              <path id="27" d="M470.431,183.899 C457.289,183.899,444.147,183.899,431.005,183.899 C422.923,183.899,416.37,177.347,416.37,169.264 C416.37,161.181,422.923,154.629,431.005,154.629 C444.147,154.629,457.289,154.629,470.431,154.629 C478.513,154.629,485.066,161.181,485.066,169.264 C485.068,177.347,478.513,183.899,470.431,183.899 z"/>
            </defs>
            <use xlink:href="#27" style="fill:#ccc7b4;fill-opacity:1;fill-rule:evenodd;opacity:1;stroke:none;"/>
          </g>
        </defs>
        <use xlink:href="#26"/>
        <defs>
          <title>Shape 112</title>
          <g id="28">
            <defs>
              <path id="29" d="M470.431,262.751 C457.289,262.751,444.147,262.751,431.005,262.751 C422.923,262.751,416.37,256.199,416.37,248.116 C416.37,240.034,422.923,233.481,431.005,233.481 C444.147,233.481,457.289,233.481,470.431,233.481 C478.513,233.481,485.066,240.034,485.066,248.116 C485.068,256.197,478.513,262.751,470.431,262.751 z"/>
            </defs>
            <use xlink:href="#29" style="fill:#ccc7b4;fill-opacity:1;fill-rule:evenodd;opacity:1;stroke:none;"/>
          </g>
        </defs>
        <use xlink:href="#28"/>
        <defs>
          <title>Shape 113</title>
          <g id="30">
            <defs>
              <path id="31" d="M470.431,341.6 C457.289,341.6,444.147,341.6,431.005,341.6 C422.923,341.6,416.37,335.048,416.37,326.965 C416.37,318.882,422.923,312.33,431.005,312.33 C444.147,312.33,457.289,312.33,470.431,312.33 C478.513,312.33,485.066,318.882,485.066,326.965 C485.068,335.048,478.513,341.6,470.431,341.6 z"/>
            </defs>
            <use xlink:href="#31" style="fill:#ccc7b4;fill-opacity:1;fill-rule:evenodd;opacity:1;stroke:none;"/>
          </g>
        </defs>
        <use xlink:href="#30"/>
        <defs>
          <title>Shape 114</title>
          <g id="32">
            <defs>
              <path id="33" d="M470.431,420.452 C457.289,420.452,444.147,420.452,431.005,420.452 C422.923,420.452,416.37,413.9,416.37,405.817 C416.37,397.735,422.923,391.182,431.005,391.182 C444.147,391.182,457.289,391.182,470.431,391.182 C478.513,391.182,485.066,397.735,485.066,405.817 C485.066,413.9,478.513,420.452,470.431,420.452 z"/>
            </defs>
            <use xlink:href="#33" style="fill:#ccc7b4;fill-opacity:1;fill-rule:evenodd;opacity:1;stroke:none;"/>
          </g>
        </defs>
        <use xlink:href="#32"/>
        <defs>
          <title>Shape 115</title>
          <g id="34">
            <defs>
              <path id="35" d="M470.431,499.301 C459.917,499.301,449.404,499.301,438.891,499.301 C430.808,499.301,424.256,492.749,424.256,484.666 C424.256,476.583,430.808,470.031,438.891,470.031 C449.404,470.031,459.918,470.031,470.431,470.031 C478.513,470.031,485.066,476.583,485.066,484.666 C485.068,492.749,478.513,499.301,470.431,499.301 z"/>
            </defs>
            <use xlink:href="#35" style="fill:#ccc7b4;fill-opacity:1;fill-rule:evenodd;opacity:1;stroke:none;"/>
          </g>
        </defs>
        <use xlink:href="#34"/>
      </g>
      <linearGradient x1="500.993" y1="775.459" x2="490.227" y2="142.528" gradientUnits="userSpaceOnUse" id="38">
        <stop style="stop-color:#ccc7b4;stop-opacity:1;"/>
        <stop offset="1" style="stop-color:#faebd7;stop-opacity:1;"/>
      </linearGradient>
      <defs>
        <title>Shape 116</title>
        <g id="36">
          <defs>
            <path id="37" d="M470.431,15.0694 C490.144,15.0694,509.857,15.0694,529.569,15.0694 C529.569,251.621,529.569,488.172,529.569,724.724 C509.856,724.724,490.144,724.724,470.431,724.724 z"/>
          </defs>
          <use xlink:href="#37" style="fill:url(#38);fill-opacity:1;fill-rule:evenodd;opacity:1;stroke:none;"/>
        </g>
      </defs>
      <use xlink:href="#36"/>
      <defs>
        <title>Shape 117</title>
        <g id="39">
          <defs>
            <path id="40" d="M470.431,685.298 C490.143,685.298,509.855,685.298,529.568,685.298 C529.568,698.44,529.568,711.582,529.568,724.724 C509.855,724.724,490.143,724.724,470.431,724.724 z"/>
          </defs>
          <use xlink:href="#40" style="fill:#c6c1c8;fill-opacity:1;fill-rule:evenodd;opacity:1;stroke:none;"/>
        </g>
      </defs>
      <use xlink:href="#39"/>
      <defs>
        <title>Shape 118</title>
        <g id="41">
          <defs>
            <path id="42" d="M236.921,294.926 C231.919,294.926,227.045,292.359,224.313,287.742 C214.608,271.344,204.902,254.945,195.197,238.547 C191.078,231.591,193.38,222.614,200.338,218.498 C207.293,214.38,216.272,216.683,220.386,223.639 C230.092,240.037,239.798,256.436,249.503,272.835 C253.621,279.79,251.32,288.767,244.362,292.883 C242.025,294.268,239.456,294.925,236.921,294.925 z"/>
          </defs>
          <use xlink:href="#42" style="fill:#c6c1c8;fill-opacity:1;fill-rule:evenodd;opacity:1;stroke:none;"/>
        </g>
      </defs>
      <use xlink:href="#41"/>
      <defs>
        <title>Shape 119</title>
        <g id="43">
          <defs>
            <path id="44" d="M507.558,750.412 C502.555,750.412,497.681,747.847,494.95,743.229 C420.804,618.538,346.658,493.848,272.513,369.158 C268.395,362.202,270.696,353.225,277.652,349.107 C284.611,344.989,293.584,347.292,297.703,354.246 C371.848,478.936,445.993,603.627,520.138,728.317 C524.256,735.273,521.955,744.25,514.999,748.368 C512.659,749.752,510.091,750.412,507.558,750.412 z"/>
          </defs>
          <use xlink:href="#44" style="fill:#c6c1c8;fill-opacity:1;fill-rule:evenodd;opacity:1;stroke:none;"/>
        </g>
      </defs>
      <use xlink:href="#43"/>
      <defs>
        <title>Shape 120</title>
        <g id="45">
          <defs>
            <path id="46" d="M309.532,347.253 C293.258,356.885,276.984,366.518,260.71,376.151 C251.706,381.48,240.089,378.502,234.76,369.499 C225.127,353.225,215.494,336.95,205.861,320.676 C200.533,311.673,203.51,300.055,212.514,294.727 C228.788,285.094,245.062,275.461,261.336,265.828 C270.34,260.499,281.957,263.477,287.286,272.48 C296.919,288.755,306.552,305.029,316.185,321.303 C321.513,330.306,318.534,341.924,309.532,347.253 z"/>
          </defs>
          <use xlink:href="#46" style="fill:#afaab4;fill-opacity:1;fill-rule:evenodd;opacity:1;stroke:none;"/>
        </g>
      </defs>
      <use xlink:href="#45"/>
      <defs>
        <title>Shape 121</title>
        <g id="47">
          <defs>
            <path id="48" d="M260.842,266.12 C258.944,267.243,257.046,268.366,255.148,269.489 C258.673,275.444,262.197,281.398,265.722,287.352 C279.143,310.025,271.641,339.283,248.969,352.704 C243.007,356.233,237.045,359.762,231.083,363.291 C232.211,365.197,233.339,367.103,234.466,369.008 C239.956,378.282,251.926,381.351,261.2,375.862 C277.147,366.422,293.093,356.983,309.04,347.544 C318.314,342.055,321.383,330.085,315.893,320.811 C306.454,304.864,297.015,288.918,287.576,272.971 C282.086,263.697,270.116,260.63,260.842,266.119 z"/>
          </defs>
          <use xlink:href="#48" style="fill:#a298a5;fill-opacity:1;fill-rule:evenodd;opacity:1;stroke:none;"/>
        </g>
      </defs>
      <use xlink:href="#47"/>
      <linearGradient x1="824.923" y1="964.429" x2="297.081" y2="694.716" gradientUnits="userSpaceOnUse" id="51">
        <stop style="stop-color:#c18b4c;stop-opacity:1;"/>
        <stop offset="1" style="stop-color:#faebd7;stop-opacity:1;"/>
      </linearGradient>
      <defs>
        <title>Shape 122</title>
        <g id="49">
          <defs>
            <path id="50" d="M815.067,897.488 C800.294,839.9,785.521,782.313,770.749,724.726 C590.25,724.726,409.751,724.726,229.252,724.726 C214.479,782.313,199.706,839.9,184.933,897.488 C181.766,909.833,191.092,921.852,203.836,921.852 C302.558,921.852,401.279,921.852,500,921.852 C598.721,921.852,697.443,921.852,796.164,921.852 C808.908,921.85,818.234,909.833,815.067,897.488 z"/>
          </defs>
          <use xlink:href="#50" style="fill:url(#51);fill-opacity:1;fill-rule:evenodd;opacity:1;stroke:none;"/>
        </g>
      </defs>
      <use xlink:href="#49"/>
    </g>
    <clipPath id="53">
      <use xlink:href="#52"/>
      <path id="52" d="M15.0695,15.0694 C15.0695,15.0694,984.931,15.0694,984.931,15.0694 C984.931,15.0694,984.931,984.931,984.931,984.931 C984.931,984.931,15.0695,984.931,15.0695,984.931 C15.0695,984.931,15.0695,15.0694,15.0695,15.0694 z"/>
    </clipPath>
    <g id="54" style="clip-path:url(#53);"/>
  </g>
</svg>
