<?xml version="1.0"?>
<svg xmlns="http://www.w3.org/2000/svg" xmlns:xlink="http://www.w3.org/1999/xlink" version="1.1" id="Capa_1" x="0px" y="0px" viewBox="0 0 464 464" style="enable-background:new 0 0 464 464;" xml:space="preserve" width="512px" height="512px" class=""><g transform="matrix(1.94755 0 0 1.94755 -219.831 -238.923)"><path style="fill:#C18B4C" d="M232,360c53.016,0,96-42.984,96-96s-42.984-96-96-96s-96,42.984-96,96S178.984,360,232,360z M224,232  l32,32l-32,32V232z" data-original="#00F2A9" class="active-path" data-old_color="#00F2A9"/><g>

	<path style="fill:#322153;" d="M232,128c-57.344,0-104,46.656-104,104s46.656,104,104,104s104-46.656,104-104S289.344,128,232,128z    M232,320c-48.52,0-88-39.48-88-88s39.48-88,88-88s88,39.48,88,88S280.52,320,232,320z" data-original="#322153" class=""/>
	<path style="fill:#322153;" d="M229.656,194.344c-2.288-2.288-5.728-2.976-8.72-1.736C217.944,193.84,216,196.768,216,200v64   c0,3.232,1.944,6.16,4.936,7.392c0.992,0.416,2.032,0.608,3.064,0.608c2.08,0,4.128-0.816,5.656-2.344l32-32   c3.128-3.128,3.128-8.184,0-11.312L229.656,194.344z M232,244.688v-25.376L244.688,232L232,244.688z" data-original="#322153" class=""/>
</g></g> </svg>
