<?xml version="1.0" encoding="utf-8"?>
<svg x="0pt" y="0pt" width="512pt" height="512pt" viewBox="0 0 512 512" xmlns="http://www.w3.org/2000/svg" xmlns:xlink="http://www.w3.org/1999/xlink">
  <g id="1">
    <title>Layer 1</title>
    <g id="2">
      <title>Group</title>
      <g id="3">
        <title>Group</title>
        <g id="4">
          <title>Group</title>
          <defs>
            <title>Shape 1</title>
            <g id="5">
              <defs>
                <path id="6" d="M370.683,63.851 C394.441,63.851,418.198,63.851,441.956,63.851 C444.838,63.851,446.548,60.5846,444.931,58.1668 C440.3,51.2386,435.669,44.3104,431.038,37.3823 C430.214,36.1487,430.214,34.5303,431.038,33.2976 C435.669,26.3695,440.3,19.4413,444.931,12.5131 C446.548,10.0944,444.838,6.82891,441.956,6.82891 C418.198,6.82891,394.441,6.82891,370.683,6.82891 z"/>
              </defs>
              <use xlink:href="#6" style="fill:#72bf46;fill-opacity:1;fill-rule:evenodd;opacity:1;stroke:none;"/>
            </g>
          </defs>
          <use xlink:href="#5"/>
        </g>
        <g id="7">
          <title>Group</title>
          <defs>
            <title>Shape 2</title>
            <g id="8">
              <defs>
                <path id="9" d="M370.683,135.059 C366.962,135.059,363.945,132.002,363.945,128.231 C363.945,87.7635,363.945,47.2958,363.945,6.828 C363.945,3.05649,366.962,-8.10623e-06,370.683,-8.10623e-06 C374.405,-8.10623e-06,377.421,3.05739,377.421,6.828 C377.421,47.2955,377.421,87.7629,377.421,128.23 C377.422,132.002,374.405,135.059,370.683,135.059 z"/>
              </defs>
              <use xlink:href="#9" style="fill:#ccc6b3;fill-opacity:1;fill-rule:evenodd;opacity:1;stroke:none;"/>
            </g>
          </defs>
          <use xlink:href="#8"/>
        </g>
        <defs>
          <title>Shape 3</title>
          <g id="10">
            <defs>
              <path id="11" d="M116.575,459.327 C82.6633,459.327,48.7518,459.327,14.8403,459.327 C9.87854,459.327,5.856,455.251,5.856,450.222 C5.856,413.372,5.856,376.522,5.856,339.672 C5.856,334.643,9.87854,330.567,14.8403,330.567 C48.7518,330.567,82.6634,330.567,116.575,330.567 z"/>
            </defs>
            <use xlink:href="#11" style="fill:#c18a4b;fill-opacity:1;fill-rule:evenodd;opacity:1;stroke:none;"/>
          </g>
        </defs>
        <use xlink:href="#10"/>
        <defs>
          <title>Shape 4</title>
          <g id="12">
            <defs>
              <path id="13" d="M227.294,459.327 C190.387,459.327,153.481,459.327,116.575,459.327 C116.575,401.048,116.575,342.769,116.575,284.49 C116.575,279.461,120.597,275.385,125.559,275.385 C159.471,275.385,193.382,275.385,227.294,275.385 z"/>
            </defs>
            <use xlink:href="#13" style="fill:#f9ebd6;fill-opacity:1;fill-rule:evenodd;opacity:1;stroke:none;"/>
          </g>
        </defs>
        <use xlink:href="#12"/>
        <defs>
          <title>Shape 5</title>
          <g id="14">
            <defs>
              <path id="15" d="M338.013,459.327 C301.106,459.327,264.2,459.327,227.294,459.327 C227.294,376.522,227.294,293.717,227.294,210.912 C227.294,205.884,231.316,201.807,236.278,201.807 C270.19,201.807,304.101,201.807,338.013,201.807 z"/>
            </defs>
            <use xlink:href="#15" style="fill:#463664;fill-opacity:1;fill-rule:evenodd;opacity:1;stroke:none;"/>
          </g>
        </defs>
        <use xlink:href="#14"/>
        <defs>
          <title>Shape 6</title>
          <g id="16">
            <defs>
              <path id="17" d="M439.747,459.327 C405.836,459.327,371.924,459.327,338.013,459.327 C338.013,351.997,338.013,244.666,338.013,137.335 C338.013,132.307,342.035,128.23,346.997,128.23 C377.914,128.23,408.831,128.23,439.748,128.23 C444.71,128.23,448.732,132.307,448.732,137.335 C448.732,241.631,448.732,345.927,448.732,450.222 C448.731,455.251,444.709,459.327,439.747,459.327 z"/>
            </defs>
            <use xlink:href="#17" style="fill:#e6a552;fill-opacity:1;fill-rule:evenodd;opacity:1;stroke:none;"/>
          </g>
        </defs>
        <use xlink:href="#16"/>
        <defs>
          <title>Shape 11</title>
          <g id="18">
            <defs>
              <path id="19" d="M331.935,62.4981 C322.863,60.479,313.791,58.4599,304.719,56.4407 C302.017,55.8397,299.685,58.4279,300.523,61.1004 C301.261,63.4563,301.999,65.8121,302.737,68.1679 C287.158,79.1012,277.251,96.8239,276.043,115.992 C264.662,101.379,247.047,91.9731,227.294,91.9731 C193.054,91.9731,165.196,120.204,165.196,154.905 C165.196,166.405,165.196,177.905,165.196,189.405 C153.811,174.887,136.254,165.551,116.575,165.551 C82.3347,165.551,54.477,193.781,54.477,228.482 C54.477,252.701,54.477,276.92,54.477,301.139 C54.477,304.911,57.4939,307.968,61.2146,307.968 C64.9352,307.968,67.9521,304.911,67.9521,301.139 C67.9521,276.919,67.9521,252.699,67.9521,228.479 C67.9521,201.31,89.7636,179.205,116.574,179.205 C143.384,179.205,165.195,201.309,165.195,228.479 C165.195,234.304,165.195,240.129,165.195,245.954 C165.195,249.725,168.212,252.782,171.933,252.782 C175.654,252.782,178.67,249.724,178.67,245.954 C178.67,215.603,178.67,185.253,178.67,154.903 C178.67,127.733,200.482,105.628,227.292,105.628 C254.102,105.628,275.914,127.732,275.914,154.903 C275.914,160.727,275.914,166.552,275.914,172.377 C275.914,176.148,278.931,179.205,282.651,179.205 C286.373,179.205,289.39,176.148,289.39,172.377 C289.39,154.902,289.39,137.428,289.39,119.954 C289.39,105.202,296.011,91.2483,307.058,81.9639 C307.691,83.9819,308.323,85.9998,308.956,88.0177 C309.793,90.6902,313.17,91.4411,315.035,89.3706 C321.296,82.4173,327.557,75.464,333.818,68.5107 C335.683,66.4392,334.636,63.0992,331.935,62.4981 z"/>
            </defs>
            <use xlink:href="#19" style="fill:#ccc6b3;fill-opacity:1;fill-rule:evenodd;opacity:1;stroke:none;"/>
          </g>
        </defs>
        <use xlink:href="#18"/>
      </g>
    </g>
  </g>
  <g id="20">
    <title>Layer 2</title>
    <linearGradient x1="413.826" y1="557.723" x2="370.95" y2="386.068" gradientUnits="userSpaceOnUse" id="23">
      <stop style="stop-color:#c6975d;stop-opacity:1;"/>
      <stop offset="1" style="stop-color:#f9ebd6;stop-opacity:1;"/>
    </linearGradient>
    <defs>
      <title>Path</title>
      <g id="21">
        <defs>
          <path id="22" d="M283.416,475.972 C242.313,430.33,261.475,398.594,269.57,390.156 C277.666,381.719,287.513,374.444,301.1,372.863 C314.688,371.281,316.265,371.526,323.759,366.255 C331.253,360.985,346.288,324.241,374.129,326.697 C401.97,329.153,426.279,354.297,433.497,376.553 C440.714,398.809,423.592,419.745,413.13,424.867 C402.668,429.989,390.147,440.258,389.435,452.63 C388.722,465.003,386.623,480.86,367.744,494.736 C348.864,508.612,322.594,504.814,302.794,491.565 C302.794,491.565,289.114,482.299,283.416,475.972 z"/>
        </defs>
        <use xlink:href="#22" style="fill:url(#23);fill-opacity:1;fill-rule:nonzero;opacity:1;stroke:none;"/>
      </g>
    </defs>
    <use xlink:href="#21"/>
    <defs>
      <title>Smart Rectangle</title>
      <g id="24">
        <defs>
          <path id="25" d="M347.704,457.23 C344.939,460.014,340.44,460.029,337.656,457.263 C337.656,457.263,304.082,423.911,304.082,423.911 C301.298,421.145,301.283,416.646,304.049,413.862 C305.377,412.525,307.182,411.771,309.066,411.764 C310.951,411.758,312.76,412.501,314.097,413.829 C314.097,413.829,347.671,447.181,347.671,447.181 C350.455,449.947,350.47,454.446,347.704,457.23 z"/>
        </defs>
        <use xlink:href="#25" style="fill:#aa7942;fill-opacity:1;fill-rule:nonzero;opacity:1;stroke:none;"/>
      </g>
    </defs>
    <use xlink:href="#24"/>
    <defs>
      <title>Path</title>
      <g id="26">
        <defs>
          <path id="27" d="M447.564,283.014 C447.564,283.014,478.283,312.51,478.283,312.51"/>
        </defs>
        <use xlink:href="#27" style="fill:none;opacity:1;stroke:#312152;stroke-linecap:round;stroke-linejoin:miter;stroke-miterlimit:10;stroke-opacity:1;stroke-width:6;"/>
      </g>
    </defs>
    <use xlink:href="#26"/>
    <defs>
      <title>Path</title>
      <g id="28">
        <defs>
          <path id="29" d="M453.858,272.704 C453.858,272.704,488.332,306.578,488.332,306.578"/>
        </defs>
        <use xlink:href="#29" style="fill:none;opacity:1;stroke:#312152;stroke-linecap:round;stroke-linejoin:miter;stroke-miterlimit:10;stroke-opacity:1;stroke-width:6;"/>
      </g>
    </defs>
    <use xlink:href="#28"/>
    <defs>
      <title>Path</title>
      <g id="30">
        <defs>
          <path id="31" d="M460.93,262.876 C460.93,262.876,498.85,299.706,498.85,299.706"/>
        </defs>
        <use xlink:href="#31" style="fill:none;opacity:1;stroke:#312152;stroke-linecap:round;stroke-linejoin:miter;stroke-miterlimit:10;stroke-opacity:1;stroke-width:6;"/>
      </g>
    </defs>
    <use xlink:href="#30"/>
    <defs>
      <title>Path</title>
      <g id="32">
        <defs>
          <path id="33" d="M450.032,294.322 C450.032,294.322,468.075,263.128,472.563,261.151 C477.051,259.173,479.739,259.741,483.052,260.961 C486.364,262.181,487.409,263.279,491.09,261.605 C494.772,259.932,497.288,261.032,498.874,262.408 C500.461,263.783,501.383,268.07,499.882,270.874 C498.381,273.678,499.257,276.169,499.916,278.485 C500.574,280.802,501.999,283.339,499.667,289.424 C495.964,294.942,467.625,310.939,467.625,310.939 C467.625,310.939,450.032,294.322,450.032,294.322 z"/>
        </defs>
        <use xlink:href="#33" style="fill:#aa7942;fill-opacity:1;fill-rule:nonzero;opacity:1;stroke:none;"/>
      </g>
    </defs>
    <use xlink:href="#32"/>
    <defs>
      <title>Path</title>
      <g id="34">
        <defs>
          <path id="35" d="M450.406,293.638 C450.406,293.638,467.92,310.975,467.92,310.975 C467.92,310.975,357.373,422.653,357.373,422.653 C357.373,422.653,339.859,405.316,339.859,405.316 C339.859,405.316,450.406,293.638,450.406,293.638 z"/>
        </defs>
        <use xlink:href="#35" style="fill:#c18a4b;fill-opacity:1;fill-rule:evenodd;opacity:1;stroke:none;"/>
      </g>
    </defs>
    <use xlink:href="#34"/>
    <defs>
      <title>Smart Rectangle</title>
      <g id="36">
        <defs>
          <path id="37" d="M415.961,363.366 C415.961,363.366,398.534,346.139,398.534,346.139 C398.534,346.139,411.41,333.114,411.41,333.114 C411.41,333.114,428.837,350.341,428.837,350.341 C428.837,350.341,415.961,363.366,415.961,363.366 z"/>
        </defs>
        <use xlink:href="#37" style="fill:#aa7942;fill-opacity:1;fill-rule:nonzero;opacity:1;stroke:none;"/>
      </g>
    </defs>
    <use xlink:href="#36"/>
    <defs>
      <title>Smart Rectangle</title>
      <g id="38">
        <defs>
          <path id="39" d="M384.505,395.281 C384.505,395.281,367.078,378.053,367.078,378.053 C367.078,378.053,379.954,365.028,379.954,365.028 C379.954,365.028,397.381,382.256,397.381,382.256 C397.381,382.256,384.505,395.281,384.505,395.281 z"/>
        </defs>
        <use xlink:href="#39" style="fill:#aa7942;fill-opacity:1;fill-rule:nonzero;opacity:1;stroke:none;"/>
      </g>
    </defs>
    <use xlink:href="#38"/>
    <defs>
      <title>Smart Rectangle</title>
      <g id="40">
        <defs>
          <path id="41" d="M446.767,332.304 C446.767,332.304,429.34,315.076,429.34,315.076 C429.34,315.076,442.216,302.051,442.216,302.051 C442.216,302.051,459.643,319.279,459.643,319.279 C459.643,319.279,446.767,332.304,446.767,332.304 z"/>
        </defs>
        <use xlink:href="#41" style="fill:#aa7942;fill-opacity:1;fill-rule:nonzero;opacity:1;stroke:none;"/>
      </g>
    </defs>
    <use xlink:href="#40"/>
    <defs>
      <title>Path</title>
      <g id="42">
        <defs>
          <path id="43" d="M359.655,376.64 C373.582,376.64,384.872,387.93,384.872,401.856 C384.872,415.783,373.582,427.073,359.655,427.073 C345.729,427.073,334.439,415.783,334.439,401.856 C334.439,387.93,345.729,376.64,359.655,376.64 z"/>
        </defs>
        <use xlink:href="#43" style="fill:#c18a4b;fill-opacity:1;fill-rule:evenodd;opacity:1;stroke:none;"/>
      </g>
    </defs>
    <use xlink:href="#42"/>
  </g>
</svg>
