<?xml version="1.0"?>
<svg xmlns="http://www.w3.org/2000/svg" xmlns:xlink="http://www.w3.org/1999/xlink" version="1.1" id="Capa_1" x="0px" y="0px" viewBox="0 0 467.955 467.955" style="enable-background:new 0 0 467.955 467.955;" xml:space="preserve" width="512px" height="512px"><g><g>
	<polygon style="fill:#C18B4C" points="136.002,265.978 8.002,265.978 72.002,329.978  " data-original="#00F2A9" class="active-path" data-old_color="#00F2A9"/>
	<polygon style="fill:#C18B4C" points="331.954,265.978 459.954,265.978 395.954,201.978  " data-original="#00F2A9" class="active-path" data-old_color="#00F2A9"/>
</g><g>
	<path style="fill:#322153" d="M232.002,113.978c35.336,0,68.704,15.512,91.56,42.576c7.168,8.488,17.656,13.624,28.776,14.088   c11.08,0.4,22.112-3.808,30.024-11.712c14.56-14.56,15.816-38.072,2.84-53.504c-38.128-45.408-93.968-71.448-153.2-71.448   c-107.6,0-195.576,85.416-199.8,192h-24.2c-3.232,0-6.16,1.944-7.392,4.936c-1.24,2.992-0.552,6.432,1.736,8.72l64,64   c1.56,1.56,3.608,2.344,5.656,2.344s4.096-0.784,5.656-2.344l64-64c2.288-2.288,2.976-5.728,1.736-8.72   c-1.232-2.992-4.16-4.936-7.392-4.936H112.41C116.554,163.538,168.53,113.978,232.002,113.978z M72.002,286.666l-44.688-44.688   h12.688h64h12.688L72.002,286.666z M96.234,225.978H48.17c4.208-97.76,85.056-176,183.832-176   c54.496,0,105.864,23.96,140.952,65.744c7.68,9.144,6.84,23.152-1.904,31.896c-4.832,4.832-11.288,7.256-18.048,7.04   c-6.752-0.28-12.864-3.272-17.216-8.432c-25.904-30.664-63.728-48.248-103.784-48.248   C159.698,97.978,100.394,154.698,96.234,225.978z" data-original="#322153" class="" data-old_color="#322153"/>
	<path style="fill:#322153" d="M401.61,164.322c-3.128-3.128-8.184-3.128-11.312,0l-64,64c-2.288,2.288-2.976,5.728-1.736,8.72   c1.24,2.992,4.16,4.936,7.392,4.936h23.608c-4.008,63.4-55.024,112-119.608,112c-35.336,0-68.704-15.512-91.56-42.576   c-7.168-8.488-17.656-13.624-28.776-14.088c-11.184-0.432-22.12,3.808-30.024,11.712c-14.56,14.56-15.816,38.072-2.84,53.504   c38.12,45.408,93.96,71.448,153.2,71.448c107.6,0,195.576-85.416,199.8-192h24.2c3.232,0,6.16-1.944,7.392-4.936   c1.24-2.992,0.552-6.432-1.736-8.72L401.61,164.322z M235.954,417.978c-54.504,0-105.872-23.96-140.952-65.744   c-7.68-9.144-6.84-23.152,1.904-31.896c4.576-4.576,10.576-7.064,16.992-7.064c0.352,0,0.704,0.008,1.056,0.024   c6.752,0.28,12.864,3.272,17.216,8.432c25.904,30.664,63.728,48.248,103.784,48.248c73.576,0,131.776-55.6,135.784-128h48.048   C415.578,339.738,334.73,417.978,235.954,417.978z M427.954,225.978h-64h-12.688l44.688-44.688l44.688,44.688H427.954z" data-original="#322153" class="" data-old_color="#322153"/>
	<path style="fill:#322153" d="M339.49,126.49c1.56,1.56,3.608,2.344,5.656,2.344s4.096-0.784,5.656-2.344   c3.128-3.128,3.128-8.184,0-11.312c-65.504-65.504-172.096-65.504-237.592,0c-3.128,3.128-3.128,8.184,0,11.312   s8.184,3.128,11.312,0C183.786,67.242,280.218,67.242,339.49,126.49z" data-original="#322153" class="" data-old_color="#322153"/>
	<path style="fill:#322153" d="M339.49,341.466c-59.264,59.248-155.704,59.248-214.968,0c-3.128-3.128-8.184-3.128-11.312,0   s-3.128,8.184,0,11.312c32.752,32.752,75.776,49.128,118.8,49.128s86.048-16.376,118.8-49.128c3.128-3.128,3.128-8.184,0-11.312   S342.61,338.338,339.49,341.466z" data-original="#322153" class="" data-old_color="#322153"/>
</g></g> </svg>
