<?xml version="1.0" encoding="utf-8"?>
<svg x="0pt" y="0pt" width="1000pt" height="1000pt" viewBox="0 0 1000 1000" xmlns="http://www.w3.org/2000/svg" xmlns:xlink="http://www.w3.org/1999/xlink">
  <g id="1">
    <title>Layer 1</title>
    <g id="2">
      <title>Group</title>
      <defs>
        <title>Shape 43</title>
        <g id="3">
          <defs>
            <path id="4" d="M980.677,168.479 C943.704,133.15,906.731,97.8209,869.759,62.4918 C862.364,55.0975,851.273,50.1667,840.182,50.1667 C840.182,50.1667,48.9677,50.1667,48.9677,50.1667 C25.5511,50.1667,7.06543,68.6544,7.06543,90.8372 C7.06543,378.402,7.06543,665.966,7.06543,953.531 C7.06543,975.713,25.5511,992.967,48.9677,992.967 C349.678,992.967,650.388,992.967,951.098,992.967 C974.514,992.967,993,974.482,993,953.531 C993,953.531,993,196.825,993,196.825 C993,185.733,988.071,175.873,980.677,168.479 z"/>
          </defs>
          <use xlink:href="#4" style="fill:#c18b4c;fill-opacity:1;fill-rule:evenodd;opacity:1;stroke:none;"/>
        </g>
      </defs>
      <use xlink:href="#3"/>
      <linearGradient x1="994.476" y1="959.417" x2="162.656" y2="91.0829" gradientUnits="userSpaceOnUse" id="7">
        <stop style="stop-color:#c18b4c;stop-opacity:1;"/>
        <stop offset="1" style="stop-color:#faebd7;stop-opacity:1;"/>
      </linearGradient>
      <defs>
        <title>Shape 44</title>
        <g id="5">
          <defs>
            <path id="6" d="M980.677,125.345 C980.677,125.345,869.759,19.3579,869.759,19.3579 C862.364,11.9615,851.273,7.03271,840.182,7.03271 C840.182,7.03271,48.9677,7.03271,48.9677,7.03271 C25.5511,7.03271,7.06543,25.5184,7.06543,46.4695 C7.06543,334.034,7.06543,621.598,7.06543,909.163 C7.06543,931.348,25.5511,949.833,48.9677,949.833 C349.678,949.833,650.388,949.833,951.098,949.833 C974.514,949.833,993,931.348,993,910.397 C993,910.397,993,153.691,993,153.691 C993,142.599,988.071,132.739,980.677,125.345 z"/>
          </defs>
          <use xlink:href="#6" style="fill:url(#7);fill-opacity:1;fill-rule:evenodd;opacity:1;stroke:none;"/>
        </g>
      </defs>
      <use xlink:href="#5"/>
      <defs>
        <title>Shape 45</title>
        <g id="8">
          <defs>
            <path id="9" d="M788.42,544.368 C788.42,544.368,211.648,544.368,211.648,544.368 C201.788,544.368,193.162,552.994,193.162,562.853 C193.162,589.556,193.162,616.258,193.162,642.961 C398.154,642.961,603.147,642.961,808.139,642.961 C808.139,616.258,808.139,589.556,808.139,562.853 C808.137,552.994,799.511,544.368,788.42,544.368 z"/>
          </defs>
          <use xlink:href="#9" style="fill:#473764;fill-opacity:1;fill-rule:evenodd;opacity:1;stroke:none;"/>
        </g>
      </defs>
      <use xlink:href="#8"/>
      <defs>
        <title>Shape 46</title>
        <g id="10">
          <defs>
            <path id="11" d="M191.928,642.961 C396.921,642.961,601.913,642.961,806.905,642.961 C806.905,745.252,806.905,847.542,806.905,949.833 C601.913,949.833,396.921,949.833,191.928,949.833 C191.928,847.542,191.928,745.252,191.928,642.961 z"/>
          </defs>
          <use xlink:href="#11" style="fill:#ebf0f3;fill-opacity:1;fill-rule:evenodd;opacity:1;stroke:none;"/>
        </g>
      </defs>
      <use xlink:href="#10"/>
      <g id="12">
        <title>Group</title>
        <defs>
          <title>Shape 47</title>
          <g id="13">
            <defs>
              <path id="14" d="M231.365,705.814 C410.887,705.814,590.41,705.814,769.932,705.814 C769.932,712.387,769.932,718.96,769.932,725.534 C590.41,725.534,410.887,725.534,231.365,725.534 C231.365,718.96,231.365,712.387,231.365,705.814 z"/>
            </defs>
            <use xlink:href="#14" style="fill:#473764;fill-opacity:0.438396;fill-rule:evenodd;opacity:1;stroke:none;"/>
          </g>
        </defs>
        <use xlink:href="#13"/>
        <defs>
          <title>Shape 48</title>
          <g id="15">
            <defs>
              <path id="16" d="M231.365,785.922 C410.887,785.922,590.41,785.922,769.932,785.922 C769.932,792.495,769.932,799.068,769.932,805.641 C590.41,805.641,410.887,805.641,231.365,805.641 C231.365,799.068,231.365,792.495,231.365,785.922 z"/>
            </defs>
            <use xlink:href="#16" style="fill:#473764;fill-opacity:0.438396;fill-rule:evenodd;opacity:1;stroke:none;"/>
          </g>
        </defs>
        <use xlink:href="#15"/>
        <defs>
          <title>Shape 49</title>
          <g id="17">
            <defs>
              <path id="18" d="M231.365,867.26 C410.887,867.26,590.41,867.26,769.932,867.26 C769.932,873.834,769.932,880.407,769.932,886.98 C590.41,886.98,410.887,886.98,231.365,886.98 C231.365,880.407,231.365,873.834,231.365,867.26 z"/>
            </defs>
            <use xlink:href="#18" style="fill:#473764;fill-opacity:0.438396;fill-rule:evenodd;opacity:1;stroke:none;"/>
          </g>
        </defs>
        <use xlink:href="#17"/>
      </g>
      <defs>
        <title>Shape 50</title>
        <g id="19">
          <defs>
            <path id="20" d="M210.414,7.03271 C210.414,100.286,210.414,193.539,210.414,286.792 C210.414,300.349,221.506,312.672,236.294,312.672 C236.294,312.672,782.257,312.672,782.257,312.672 C795.814,312.672,808.137,301.58,808.137,286.792 C808.137,286.792,808.137,7.03271,808.137,7.03271 C808.137,7.03271,210.414,7.03271,210.414,7.03271 z"/>
          </defs>
          <use xlink:href="#20" style="fill:#40413e;fill-opacity:1;fill-rule:evenodd;opacity:1;stroke:none;"/>
        </g>
      </defs>
      <use xlink:href="#19"/>
      <defs>
        <title>Shape 51</title>
        <g id="21">
          <defs>
            <path id="22" d="M443.342,7.03271 C443.342,100.286,443.342,193.539,443.342,286.792 C443.342,300.349,454.433,312.672,469.222,312.672 C469.222,312.672,782.257,312.672,782.257,312.672 C795.814,312.672,808.137,301.58,808.137,286.792 C808.137,286.792,808.137,7.03271,808.137,7.03271 C808.137,7.03271,443.342,7.03271,443.342,7.03271 z M735.426,236.263 C735.426,244.889,729.263,251.052,720.638,251.052 C702.151,251.052,683.665,251.052,665.178,251.052 C656.552,251.052,650.39,244.889,650.39,236.263 C650.39,236.263,650.39,66.189,650.39,66.189 C650.39,57.563,656.552,51.4004,665.178,51.4004 C683.665,51.4004,702.151,51.4004,720.638,51.4004 C729.263,51.4004,735.426,57.563,735.426,66.189 C735.426,66.189,735.426,236.263,735.426,236.263 z"/>
          </defs>
          <use xlink:href="#22" style="fill:#ccc7b4;fill-opacity:1;fill-rule:evenodd;opacity:1;stroke:none;"/>
          <use xlink:href="#22" style="fill:none;opacity:1;stroke:#40413e;stroke-linecap:butt;stroke-linejoin:miter;stroke-miterlimit:10;stroke-opacity:1;stroke-width:1;"/>
        </g>
      </defs>
      <use xlink:href="#21"/>
      <defs>
        <title>Shape 52</title>
        <g id="23">
          <defs>
            <path id="24" d="M114.287,805.641 C114.287,805.641,63.7562,805.641,63.7562,805.641 C55.1303,805.641,48.9677,813.035,48.9677,820.429 C48.9677,837.272,48.9677,854.115,48.9677,870.958 C48.9677,879.584,56.362,885.746,63.7562,885.746 C80.599,885.746,97.4417,885.746,114.284,885.746 C122.91,885.746,129.073,878.352,129.073,870.958 C129.073,854.115,129.073,837.272,129.073,820.429 C129.075,813.035,122.912,805.641,114.287,805.641 z"/>
          </defs>
          <use xlink:href="#24" style="fill:#40413e;fill-opacity:1;fill-rule:evenodd;opacity:1;stroke:none;"/>
        </g>
      </defs>
      <use xlink:href="#23"/>
    </g>
  </g>
</svg>
