<?xml version="1.0" encoding="utf-8"?>
<svg x="0pt" y="0pt" width="1000pt" height="1000pt" viewBox="0 0 1000 1000" xmlns="http://www.w3.org/2000/svg" xmlns:xlink="http://www.w3.org/1999/xlink">
  <g id="1">
    <title>Layer 1</title>
    <g id="2">
      <title>Group</title>
      <g id="3">
        <title>Group</title>
        <g id="4">
          <title>Group</title>
          <linearGradient x1="774.285" y1="819.357" x2="203.832" y2="186.148" gradientUnits="userSpaceOnUse" id="7">
            <stop style="stop-color:#c18a4b;stop-opacity:1;"/>
            <stop offset="1" style="stop-color:#f9ebd6;stop-opacity:1;"/>
          </linearGradient>
          <defs>
            <title>Shape 13</title>
            <g id="5">
              <defs>
                <path id="6" d="M897.789,52.4869 C897.789,267.956,897.789,483.425,897.789,698.895 C897.789,717.127,882.872,748.618,864.64,748.618 C638.121,748.618,411.602,748.618,185.083,748.618 C139.314,748.618,102.211,785.722,102.211,831.491 C102.211,588.398,102.211,345.304,102.211,102.211 C102.211,56.4412,139.314,19.3378,185.083,19.3378 C411.602,19.3378,638.121,19.3378,864.64,19.3378 C882.925,19.3924,897.735,34.2019,897.789,52.4869 z"/>
              </defs>
              <use xlink:href="#6" style="fill:url(#7);fill-opacity:1;fill-rule:nonzero;opacity:1;stroke:none;"/>
            </g>
          </defs>
          <use xlink:href="#5"/>
          <g id="8">
            <title>Group</title>
            <defs>
              <title>Shape 14</title>
              <g id="9">
                <defs>
                  <path id="10" d="M218.233,19.3378 C218.233,30.3875,218.233,41.4372,218.233,52.4869 C218.233,61.6408,210.812,69.0615,201.658,69.0615 C192.504,69.0615,185.083,61.6408,185.083,52.4869 C185.083,41.4372,185.083,30.3875,185.083,19.3378 z"/>
                </defs>
                <use xlink:href="#10" style="fill:#c18a4b;fill-opacity:1;fill-rule:nonzero;opacity:1;stroke:none;"/>
              </g>
            </defs>
            <use xlink:href="#9"/>
            <defs>
              <title>Shape 15</title>
              <g id="11">
                <defs>
                  <path id="12" d="M201.658,168.509 C192.504,168.509,185.083,161.088,185.083,151.934 C185.083,140.885,185.083,129.835,185.083,118.785 C185.083,109.631,192.504,102.211,201.658,102.211 C210.812,102.211,218.233,109.631,218.233,118.785 C218.233,129.835,218.233,140.885,218.233,151.934 C218.233,161.088,210.812,168.509,201.658,168.509 z"/>
                </defs>
                <use xlink:href="#12" style="fill:#c18a4b;fill-opacity:1;fill-rule:nonzero;opacity:1;stroke:none;"/>
              </g>
            </defs>
            <use xlink:href="#11"/>
            <defs>
              <title>Shape 16</title>
              <g id="13">
                <defs>
                  <path id="14" d="M897.789,698.895 C897.789,759.668,897.789,820.441,897.789,881.215 C897.735,899.5,882.925,914.309,864.64,914.364 C859.115,914.364,853.591,914.364,848.066,914.364 C820.552,914.364,798.342,877.237,798.342,831.491 C798.342,785.745,820.552,748.618,848.066,748.618 C853.591,748.618,859.115,748.618,864.64,748.618 C882.872,748.618,897.789,717.127,897.789,698.895 z"/>
                </defs>
                <use xlink:href="#14" style="fill:#3f413d;fill-opacity:1;fill-rule:nonzero;opacity:1;stroke:none;"/>
              </g>
            </defs>
            <use xlink:href="#13"/>
            <defs>
              <title>Shape 17</title>
              <g id="15">
                <defs>
                  <path id="16" d="M201.658,267.956 C192.504,267.956,185.083,260.535,185.083,251.382 C185.083,240.332,185.083,229.282,185.083,218.233 C185.083,209.079,192.504,201.658,201.658,201.658 C210.812,201.658,218.233,209.079,218.233,218.233 C218.233,229.282,218.233,240.332,218.233,251.382 C218.233,260.535,210.812,267.956,201.658,267.956 z"/>
                </defs>
                <use xlink:href="#16" style="fill:#c18a4b;fill-opacity:1;fill-rule:nonzero;opacity:1;stroke:none;"/>
              </g>
            </defs>
            <use xlink:href="#15"/>
            <defs>
              <title>Shape 18</title>
              <g id="17">
                <defs>
                  <path id="18" d="M201.658,367.404 C192.504,367.404,185.083,359.983,185.083,350.829 C185.083,339.779,185.083,328.73,185.083,317.68 C185.083,308.526,192.504,301.105,201.658,301.105 C210.812,301.105,218.233,308.526,218.233,317.68 C218.233,328.73,218.233,339.779,218.233,350.829 C218.233,359.983,210.812,367.404,201.658,367.404 z"/>
                </defs>
                <use xlink:href="#18" style="fill:#c18a4b;fill-opacity:1;fill-rule:nonzero;opacity:1;stroke:none;"/>
              </g>
            </defs>
            <use xlink:href="#17"/>
            <defs>
              <title>Shape 19</title>
              <g id="19">
                <defs>
                  <path id="20" d="M201.658,466.851 C192.504,466.851,185.083,459.43,185.083,450.276 C185.083,439.227,185.083,428.177,185.083,417.127 C185.083,407.973,192.504,400.553,201.658,400.553 C210.812,400.553,218.233,407.973,218.233,417.127 C218.233,428.177,218.233,439.227,218.233,450.276 C218.233,459.43,210.812,466.851,201.658,466.851 z"/>
                </defs>
                <use xlink:href="#20" style="fill:#c18a4b;fill-opacity:1;fill-rule:nonzero;opacity:1;stroke:none;"/>
              </g>
            </defs>
            <use xlink:href="#19"/>
            <defs>
              <title>Shape 20</title>
              <g id="21">
                <defs>
                  <path id="22" d="M201.658,566.298 C192.504,566.298,185.083,558.878,185.083,549.724 C185.083,538.674,185.083,527.624,185.083,516.575 C185.083,507.421,192.504,500,201.658,500 C210.812,500,218.233,507.421,218.233,516.575 C218.233,527.624,218.233,538.674,218.233,549.724 C218.233,558.878,210.812,566.298,201.658,566.298 z"/>
                </defs>
                <use xlink:href="#22" style="fill:#c18a4b;fill-opacity:1;fill-rule:nonzero;opacity:1;stroke:none;"/>
              </g>
            </defs>
            <use xlink:href="#21"/>
            <defs>
              <title>Shape 21</title>
              <g id="23">
                <defs>
                  <path id="24" d="M201.658,665.745 C192.504,665.745,185.083,658.325,185.083,649.171 C185.083,638.121,185.083,627.072,185.083,616.022 C185.083,606.868,192.504,599.447,201.658,599.447 C210.812,599.447,218.233,606.868,218.233,616.022 C218.233,627.072,218.233,638.121,218.233,649.171 C218.233,658.325,210.812,665.745,201.658,665.745 z"/>
                </defs>
                <use xlink:href="#24" style="fill:#c18a4b;fill-opacity:1;fill-rule:nonzero;opacity:1;stroke:none;"/>
              </g>
            </defs>
            <use xlink:href="#23"/>
            <defs>
              <title>Shape 22</title>
              <g id="25">
                <defs>
                  <path id="26" d="M218.233,715.469 C218.233,726.519,218.233,737.569,218.233,748.618 C207.183,748.618,196.133,748.618,185.083,748.618 C185.083,737.569,185.083,726.519,185.083,715.469 C185.083,706.315,192.504,698.895,201.658,698.895 C210.812,698.895,218.233,706.315,218.233,715.469 z"/>
                </defs>
                <use xlink:href="#26" style="fill:#c18a4b;fill-opacity:1;fill-rule:nonzero;opacity:1;stroke:none;"/>
              </g>
            </defs>
            <use xlink:href="#25"/>
          </g>
          <linearGradient x1="758.013" y1="1013.32" x2="693.633" y2="740.32" gradientUnits="userSpaceOnUse" id="29">
            <stop style="stop-color:#ccc6b3;stop-opacity:1;"/>
            <stop offset="1" style="stop-color:#f9ebd6;stop-opacity:1;"/>
          </linearGradient>
          <defs>
            <title>Shape 23</title>
            <g id="27">
              <defs>
                <path id="28" d="M848.066,914.364 C628.232,914.364,408.398,914.364,188.564,914.364 C145.011,915.062,107.927,882.837,102.542,839.613 C102.27,836.914,102.159,834.203,102.211,831.491 C102.211,785.722,139.314,748.618,185.083,748.618 C406.077,748.618,627.072,748.618,848.066,748.618 C820.552,748.618,798.342,785.745,798.342,831.491 C798.342,877.237,820.552,914.364,848.066,914.364 z"/>
              </defs>
              <use xlink:href="#28" style="fill:url(#29);fill-opacity:1;fill-rule:nonzero;opacity:1;stroke:none;"/>
            </g>
          </defs>
          <use xlink:href="#27"/>
          <defs>
            <title>Shape 24</title>
            <g id="30">
              <defs>
                <path id="31" d="M267.956,831.491 C323.205,831.491,378.453,831.491,433.702,831.491 C433.702,875.69,433.702,919.889,433.702,964.088 C433.703,970.058,430.493,975.567,425.299,978.511 C420.105,981.455,413.729,981.377,408.608,978.309 C392.188,968.458,375.768,958.607,359.348,948.756 C354.103,945.613,347.554,945.613,342.31,948.756 C325.89,958.607,309.47,968.458,293.05,978.309 C287.929,981.377,281.553,981.455,276.359,978.511 C271.165,975.567,267.955,970.058,267.956,964.088 z"/>
              </defs>
              <use xlink:href="#31" style="fill:#463664;fill-opacity:1;fill-rule:nonzero;opacity:1;stroke:none;"/>
            </g>
          </defs>
          <use xlink:href="#30"/>
          <defs>
            <title>Shape 25</title>
            <g id="32">
              <defs>
                <path id="33" d="M500,848.066 C406.077,848.066,312.155,848.066,218.233,848.066 C209.079,848.066,201.658,840.645,201.658,831.491 C201.658,822.337,209.079,814.917,218.233,814.917 C312.155,814.917,406.078,814.917,500,814.917 C509.154,814.917,516.575,822.337,516.575,831.491 C516.575,840.645,509.154,848.066,500,848.066 z"/>
              </defs>
              <use xlink:href="#33" style="fill:#f9c175;fill-opacity:1;fill-rule:nonzero;opacity:1;stroke:none;"/>
            </g>
          </defs>
          <use xlink:href="#32"/>
          <defs>
            <title>Shape 34</title>
            <g id="34">
              <defs>
                <path id="35" d="M593.104,465.605 C606.361,505.126,570.967,552.642,514.049,571.734 C457.131,590.827,400.244,574.267,386.987,534.746 C373.73,495.225,409.124,447.71,466.042,428.617 C522.959,409.524,579.847,426.085,593.104,465.605"/>
              </defs>
              <use xlink:href="#35" style="fill:#463664;fill-opacity:1;fill-rule:nonzero;opacity:1;stroke:none;"/>
            </g>
          </defs>
          <use xlink:href="#34"/>
          <defs>
            <title>Shape 35</title>
            <g id="36">
              <defs>
                <path id="37" d="M580.829,499.883 C572.492,499.883,565.733,493.124,565.733,484.786 C565.733,345.257,565.733,205.728,565.733,66.1983 C565.733,57.8606,572.492,51.1016,580.829,51.1016 C589.167,51.1016,595.926,57.8606,595.926,66.1983 C595.926,205.728,595.926,345.257,595.926,484.786 C595.926,493.124,589.167,499.883,580.829,499.883 z"/>
              </defs>
              <use xlink:href="#37" style="fill:#463664;fill-opacity:1;fill-rule:nonzero;opacity:1;stroke:none;"/>
            </g>
          </defs>
          <use xlink:href="#36"/>
          <defs>
            <title>Shape 36</title>
            <g id="38">
              <defs>
                <path id="39" d="M580.829,66.1983 C592.475,116.45,624.092,159.788,668.391,186.218 C743.422,231.508,731.646,291.895,731.646,291.895 C731.646,304.526,731.646,317.157,731.646,329.788 C731.689,335.926,729.239,341.819,724.856,346.116 C720.473,350.414,714.533,352.748,708.397,352.584 C697.185,352.592,687.729,344.236,686.356,333.109 C683.789,311.672,671.561,275.892,622.949,246.605 C607.32,237.226,593.133,225.632,580.829,212.184 z"/>
              </defs>
              <use xlink:href="#39" style="fill:#463664;fill-opacity:1;fill-rule:nonzero;opacity:1;stroke:none;"/>
            </g>
          </defs>
          <use xlink:href="#38"/>
        </g>
      </g>
    </g>
    <defs>
      <title>Text</title>
      <g id="40">
        <defs>
          <path id="41" d="M414.401,687.72 C414.401,693.908,412.437,699.322,408.51,703.963 C404.583,708.604,399.724,710.925,393.933,710.925 C382.271,710.925,373.703,705.371,368.229,694.265 C362.279,690.377,359.304,687.085,359.304,684.388 C359.304,683.039,360.137,681.928,361.803,681.056 C365.055,679.31,368.03,678.438,370.728,678.438 C376.598,678.438,380.525,681.928,382.509,688.91 C383.461,690.814,384.452,692.718,385.484,694.622 C386.515,696.526,387.903,697.478,389.649,697.478 C394.329,697.478,396.67,694.146,396.67,687.482 C396.67,681.532,395.599,677.525,393.457,675.463 C392.505,674.59,388.697,672.765,382.033,669.989 C376.717,667.767,372.433,663.959,369.181,658.565 C366.245,653.646,364.738,648.529,364.659,643.214 C364.579,634.646,366.721,627.03,371.085,620.366 C375.686,613.226,381.398,609.656,388.221,609.656 C396.154,609.656,401.945,612.829,405.595,619.176 C407.975,623.142,409.323,628.061,409.641,633.932 C410.513,636.946,410.95,639.683,410.95,642.143 C410.95,643.729,410.751,645.038,410.355,646.07 C409.165,649.005,406.824,650.473,403.334,650.473 C400.716,650.473,398.336,649.521,396.194,647.617 C393.814,645.554,392.346,642.658,391.791,638.93 C391.553,637.66,391.811,636.391,392.564,635.122 C393.318,633.852,393.695,633.138,393.695,632.98 C393.695,632.821,393.615,632.662,393.457,632.504 C393.536,632.107,393.576,631.71,393.576,631.314 C393.576,628.934,392.188,627.823,389.411,627.982 C386.714,628.14,384.611,629.925,383.104,633.337 C381.755,636.272,381.16,639.644,381.319,643.452 C381.557,650.195,385.999,655.59,394.647,659.636 C401.469,662.809,406.19,665.943,408.808,669.037 C412.536,673.479,414.401,679.707,414.401,687.72 z M465.333,687.72 C465.253,689.465,464.5,691.25,463.072,693.075 C460.85,695.693,459.422,697.676,458.788,699.025 C453.79,706.641,448.633,710.449,443.318,710.449 C437.05,710.449,432.171,707.275,428.681,700.929 C425.587,695.137,424.04,687.839,424.04,679.033 C424.04,668.957,425.944,660.191,429.752,652.734 C433.956,644.483,439.391,640.358,446.055,640.358 C451.291,640.358,455.535,643.253,458.788,649.045 C461.485,653.963,462.834,659.318,462.834,665.11 C462.834,666.696,462.715,668.085,462.477,669.275 C461.921,671.972,459.66,673.321,455.694,673.321 C452.6,673.321,450.22,672.448,448.554,670.703 C447.76,669.83,447.364,667.807,447.364,664.634 C447.364,663.84,447.403,662.69,447.483,661.183 C447.483,659.596,447.483,658.446,447.483,657.732 C447.483,654.162,446.848,652.377,445.579,652.377 C444.23,652.377,442.802,656.284,441.295,664.098 C439.787,671.913,439.034,679.231,439.034,686.054 C439.034,693.987,440.224,697.954,442.604,697.954 C445.698,697.954,447.998,695.455,449.506,690.457 C450.14,689.743,450.497,688.315,450.577,686.173 C450.577,684.269,451.053,683.019,452.005,682.424 C452.957,681.829,454.345,681.532,456.17,681.532 C458.55,681.532,460.612,682.047,462.358,683.079 C464.42,684.269,465.412,685.816,465.333,687.72 z M526.737,702.476 C525.547,706.363,522.612,708.307,517.931,708.307 C516.344,708.307,515.075,708.029,514.123,707.474 C512.853,706.601,511.981,704.856,511.505,702.238 C510.553,697.716,509.601,694.185,508.649,691.647 C508.411,696.01,506.031,700.433,501.509,704.915 C496.987,709.398,492.425,711.639,487.824,711.639 C482.032,711.639,478.026,707.791,475.805,700.096 C475.012,697.24,474.615,694.542,474.615,692.004 C474.615,684.626,478.383,678.319,485.92,673.083 C492.108,669.433,498.335,665.824,504.603,662.254 C504.92,660.905,505.079,659.596,505.079,658.327 C505.079,655.867,504.404,654.42,503.056,653.983 C501.707,653.547,500.557,653.329,499.605,653.329 C497.939,653.329,496.57,653.864,495.499,654.935 C494.428,656.006,493.417,657.018,492.465,657.97 C491.513,658.604,490.283,660.072,488.776,662.373 C487.586,664.197,486.277,665.189,484.849,665.348 C482.786,665.586,480.922,664.872,479.256,663.206 C477.59,661.54,476.757,659.596,476.757,657.375 C476.757,656.105,477.074,654.955,477.709,653.924 C479.533,650.909,482.27,648.291,485.92,646.07 C491.473,642.738,498.415,641.072,506.745,641.072 C512.06,641.072,515.709,643.61,517.693,648.688 C518.962,652.099,519.914,658.485,520.549,667.847 C521.263,679.191,522.135,687.482,523.167,692.718 C523.326,693.749,524,695.058,525.19,696.645 C526.38,698.231,526.975,699.62,526.975,700.81 C526.975,701.365,526.896,701.92,526.737,702.476 z M506.031,673.202 C503.651,674.471,501.291,675.78,498.95,677.129 C496.61,678.477,494.448,680.262,492.465,682.484 C489.609,685.736,488.181,688.513,488.181,690.814 C488.181,692.718,488.895,694.701,490.323,696.764 C491.116,697.874,491.989,698.43,492.941,698.43 C495.003,698.43,497.245,696.129,499.664,691.528 C502.084,686.926,504.206,680.818,506.031,673.202 z M554.702,708.069 C553.115,711.083,550.18,712.591,545.896,712.591 C541.929,712.591,539.152,711.242,537.566,708.545 C537.09,707.751,536.852,706.879,536.852,705.927 C536.852,705.133,537.13,703.824,537.685,702 C538.24,700.175,538.518,698.668,538.518,697.478 C538.518,697.478,538.042,620.604,538.042,620.604 C538.042,616.399,538.042,614.257,538.042,614.178 C538.28,613.146,539.391,612.294,541.374,611.619 C543.357,610.945,545.459,610.608,547.681,610.608 C550.933,610.608,552.996,611.203,553.869,612.393 C554.742,613.583,555.178,614.812,555.178,616.082 C555.178,616.954,554.86,618.402,554.226,620.425 C553.591,622.448,553.274,624.094,553.274,625.364 C553.274,625.364,553.274,696.764,553.274,696.764 C553.274,697.954,553.611,699.521,554.285,701.464 C554.96,703.408,555.297,704.816,555.297,705.689 C555.297,706.561,555.098,707.355,554.702,708.069 z M607.3,694.979 C606.665,697.993,604.523,701.206,600.874,704.618 C600.318,705.49,598.137,706.641,594.329,708.069 C589.966,709.735,586.197,710.449,583.024,710.211 C577.074,709.814,572.393,706.403,568.982,699.977 C565.888,694.027,564.341,686.728,564.341,678.081 C564.341,668.719,566.086,660.508,569.577,653.448 C573.464,645.673,578.661,641.31,585.166,640.358 C586.435,640.199,587.665,640.12,588.855,640.12 C598.295,640.12,603.492,645.911,604.444,657.494 C604.92,662.809,602.818,668.6,598.137,674.868 C593.06,681.77,586.554,686.609,578.621,689.386 C579.493,692.559,580.168,694.622,580.644,695.574 C581.755,697.557,583.262,698.549,585.166,698.549 C586.99,698.549,588.934,697.835,590.997,696.407 C592.742,695.217,593.932,694.066,594.567,692.956 C594.884,692.797,595.201,691.905,595.519,690.278 C595.836,688.652,596.669,687.482,598.018,686.768 C598.494,686.53,599.049,686.411,599.684,686.411 C601.588,686.411,603.432,687.343,605.217,689.207 C607.002,691.072,607.696,692.995,607.3,694.979 z M588.617,653.091 C585.443,653.091,582.865,655.352,580.882,659.874 C578.264,665.903,577.193,671.853,577.669,677.724 C581.397,676.534,584.849,673.757,588.022,669.394 C591.195,665.03,592.782,661.143,592.782,657.732 C592.782,654.638,591.393,653.091,588.617,653.091 z M657.28,691.528 C657.28,697.081,655.297,701.821,651.33,705.748 C647.363,709.675,642.682,711.639,637.288,711.639 C633.876,711.639,630.346,710.012,626.697,706.76 C623.841,704.142,621.262,700.929,618.962,697.121 C616.979,693.789,616.106,691.686,616.344,690.814 C617.216,688.83,619.953,687.839,624.555,687.839 C626.459,687.839,627.966,688.116,629.077,688.672 C630.981,689.703,632.052,691.012,632.29,692.599 C632.528,694.423,632.924,695.574,633.48,696.05 C635.146,698.588,636.653,699.858,638.002,699.858 C639.033,699.858,640.005,699.164,640.917,697.775 C641.83,696.387,642.286,694.741,642.286,692.837 C642.286,691.647,642.087,690.457,641.691,689.267 C641.294,688.077,639.152,686.252,635.265,683.793 C630.584,680.857,627.252,678.279,625.269,676.058 C621.857,672.25,620.152,667.807,620.152,662.73 C620.152,656.78,621.897,651.564,625.388,647.081 C628.878,642.599,633.321,640.358,638.716,640.358 C644.269,640.358,648.513,642.46,651.449,646.665 C653.829,650.076,654.82,653.527,654.424,657.018 C655.297,657.97,655.733,659.556,655.733,661.778 C655.733,664.158,654.86,666.181,653.115,667.847 C651.37,669.513,649.584,670.346,647.76,670.346 C645.062,670.346,642.722,668.561,640.739,664.991 C640.184,664.039,639.906,662.769,639.906,661.183 C639.906,660.469,639.965,659.457,640.084,658.148 C640.203,656.839,640.263,655.907,640.263,655.352 C640.263,653.289,639.509,652.258,638.002,652.258 C635.701,652.258,634.551,654.519,634.551,659.041 C634.551,663.642,636.058,667.331,639.073,670.108 C640.263,671.218,642.841,672.805,646.808,674.868 C650.219,676.613,652.639,678.398,654.067,680.223 C656.209,682.999,657.28,686.768,657.28,691.528 z"/>
        </defs>
        <use xlink:href="#41" style="fill:#463764;fill-opacity:1;fill-rule:nonzero;opacity:1;stroke:none;"/>
      </g>
    </defs>
    <use xlink:href="#40"/>
  </g>
</svg>
