<?xml version="1.0" encoding="utf-8"?>
<!-- Generator: Adobe Illustrator 25.2.0, SVG Export Plug-In . SVG Version: 6.00 Build 0)  -->
<svg version="1.1" id="Layer_1" xmlns="http://www.w3.org/2000/svg" xmlns:xlink="http://www.w3.org/1999/xlink" x="0px" y="0px"
	 viewBox="0 0 1000 1000" style="enable-background:new 0 0 1000 1000;" xml:space="preserve">
<style type="text/css">
	.st0{clip-path:url(#SVGID_3_);}
	.st1{clip-path:url(#SVGID_4_);}
	.st2{fill-rule:evenodd;clip-rule:evenodd;fill:#C18A4B;}
	.st3{fill-rule:evenodd;clip-rule:evenodd;fill:url(#_x31_0_1_);}
	.st4{fill-rule:evenodd;clip-rule:evenodd;fill:#3F413D;}
	.st5{fill-rule:evenodd;clip-rule:evenodd;fill:#C6C1C8;}
	.st6{fill-rule:evenodd;clip-rule:evenodd;fill:#473764;}
	.st7{fill-rule:evenodd;clip-rule:evenodd;fill:#AFAAB3;}
	.st8{fill-rule:evenodd;clip-rule:evenodd;fill:#A197A5;}
	.st9{fill-rule:evenodd;clip-rule:evenodd;fill:#CCC6B3;}
	.st10{clip-path:url(#SVGID_7_);}
	.st11{clip-path:url(#SVGID_8_);}
</style>
<g id="_x31_">
	<g>
		<defs>
			<rect id="SVGID_1_" x="15.3" y="15.3" width="969.9" height="969.9"/>
		</defs>
		<defs>
			<rect id="SVGID_2_" x="15.3" y="15.3" width="969.9" height="969.9"/>
		</defs>
		<clipPath id="SVGID_3_">
			<use xlink:href="#SVGID_1_"  style="overflow:visible;"/>
		</clipPath>
		<clipPath id="SVGID_4_" class="st0">
			<use xlink:href="#SVGID_2_"  style="overflow:visible;"/>
		</clipPath>
		<g id="_x34_" class="st1">
			<g>
				<g id="_x35_">
					<g>
						<path id="_x36_" class="st2" d="M311.8,985.2c-26.8,0-53.6,0-80.4,0c-10.5,0-18.9-8.5-18.9-18.9c0-14.7,0-29.4,0-44.1
							c39.4,0,78.8,0,118.3,0c0,14.7,0,29.4,0,44.1C330.7,976.7,322.2,985.2,311.8,985.2z"/>
					</g>
				</g>
			</g>
			<g>
				<g id="_x37_">
					<g>
						<path id="_x38_" class="st2" d="M686.8,985.2c26.8,0,53.6,0,80.4,0c10.5,0,18.9-8.5,18.9-18.9c0-14.7,0-29.4,0-44.1
							c-39.4,0-78.8,0-118.3,0c0,14.7,0,29.4,0,44.1C667.8,976.7,676.3,985.2,686.8,985.2z"/>
					</g>
				</g>
			</g>
			<g>
				<g id="_x39_">
					<g>
						
							<linearGradient id="_x31_0_1_" gradientUnits="userSpaceOnUse" x1="680.1677" y1="135.1086" x2="220.8927" y2="758.3516" gradientTransform="matrix(1 0 0 -1 0 999)">
							<stop  offset="0" style="stop-color:#C18A4B"/>
							<stop  offset="1" style="stop-color:#F9EBD6"/>
						</linearGradient>
						<path id="_x31_0" class="st3" d="M592.7,30c74.2,289.3,148.4,578.5,222.6,867.8c3.2,12.3-6.2,24.4-18.9,24.4
							c-98.7,0-197.4,0-296.2,0s-197.4,0-296.2,0c-12.7,0-22.1-12-18.9-24.4C259.4,608.5,333.6,319.2,407.8,30
							c2.2-8.6,10-14.7,18.9-14.7c49,0,98.1,0,147.1,0C582.7,15.3,590.5,21.4,592.7,30z"/>
					</g>
				</g>
			</g>
			<g id="_x31_2">
				<g>
					<g id="_x31_3">
						<g>
							<path id="_x31_4" class="st4" d="M569.3,105.3c-13.1,0-26.3,0-39.4,0c-8.1,0-14.6-6.6-14.6-14.6S521.7,76,529.8,76
								c13.1,0,26.3,0,39.4,0c8.1,0,14.6,6.6,14.6,14.6S577.3,105.3,569.3,105.3z"/>
						</g>
					</g>
				</g>
				<g>
					<g id="_x31_5">
						<g>
							<path id="_x31_6" class="st4" d="M569.3,184.2c-13.1,0-26.3,0-39.4,0c-8.1,0-14.6-6.6-14.6-14.6c0-8.1,6.6-14.6,14.6-14.6
								c13.1,0,26.3,0,39.4,0c8.1,0,14.6,6.6,14.6,14.6C583.9,177.6,577.3,184.2,569.3,184.2z"/>
						</g>
					</g>
				</g>
				<g>
					<g id="_x31_7">
						<g>
							<path id="_x31_8" class="st4" d="M569.3,263c-13.1,0-26.3,0-39.4,0c-8.1,0-14.6-6.6-14.6-14.6c0-8.1,6.6-14.6,14.6-14.6
								c13.1,0,26.3,0,39.4,0c8.1,0,14.6,6.6,14.6,14.6C583.9,256.5,577.3,263,569.3,263z"/>
						</g>
					</g>
				</g>
				<g>
					<g id="_x31_9">
						<g>
							<path id="_x32_0" class="st4" d="M569.3,341.9c-13.1,0-26.3,0-39.4,0c-8.1,0-14.6-6.6-14.6-14.6s6.6-14.6,14.6-14.6
								c13.1,0,26.3,0,39.4,0c8.1,0,14.6,6.6,14.6,14.6S577.3,341.9,569.3,341.9z"/>
						</g>
					</g>
				</g>
				<g>
					<g id="_x32_1">
						<g>
							<path id="_x32_2" class="st4" d="M569.3,420.7c-13.1,0-26.3,0-39.4,0c-8.1,0-14.6-6.6-14.6-14.6c0-8.1,6.6-14.6,14.6-14.6
								c13.1,0,26.3,0,39.4,0c8.1,0,14.6,6.6,14.6,14.6C583.9,414.2,577.3,420.7,569.3,420.7z"/>
						</g>
					</g>
				</g>
				<g>
					<g id="_x32_3">
						<g>
							<path id="_x32_4" class="st4" d="M561.4,499.6c-10.5,0-21,0-31.5,0c-8.1,0-14.6-6.6-14.6-14.6c0-8.1,6.6-14.6,14.6-14.6
								c10.5,0,21,0,31.5,0c8.1,0,14.6,6.6,14.6,14.6C576,493,569.5,499.6,561.4,499.6z"/>
						</g>
					</g>
				</g>
				<g>
					<g id="_x32_5">
						<g>
							<path id="_x32_6" class="st4" d="M470.7,105.3c-13.1,0-26.3,0-39.4,0c-8.1,0-14.6-6.6-14.6-14.6S423.2,76,431.3,76
								c13.1,0,26.3,0,39.4,0c8.1,0,14.6,6.6,14.6,14.6S478.8,105.3,470.7,105.3z"/>
						</g>
					</g>
				</g>
				<g>
					<g id="_x32_7">
						<g>
							<path id="_x32_8" class="st4" d="M470.7,184.2c-13.1,0-26.3,0-39.4,0c-8.1,0-14.6-6.6-14.6-14.6c0-8.1,6.6-14.6,14.6-14.6
								c13.1,0,26.3,0,39.4,0c8.1,0,14.6,6.6,14.6,14.6C485.3,177.6,478.8,184.2,470.7,184.2z"/>
						</g>
					</g>
				</g>
				<g>
					<g id="_x32_9">
						<g>
							<path id="_x33_0" class="st4" d="M470.7,263c-13.1,0-26.3,0-39.4,0c-8.1,0-14.6-6.6-14.6-14.6c0-8.1,6.6-14.6,14.6-14.6
								c13.1,0,26.3,0,39.4,0c8.1,0,14.6,6.6,14.6,14.6C485.3,256.5,478.8,263,470.7,263z"/>
						</g>
					</g>
				</g>
				<g>
					<g id="_x33_1">
						<g>
							<path id="_x33_2" class="st4" d="M470.7,341.9c-13.1,0-26.3,0-39.4,0c-8.1,0-14.6-6.6-14.6-14.6s6.6-14.6,14.6-14.6
								c13.1,0,26.3,0,39.4,0c8.1,0,14.6,6.6,14.6,14.6C485.3,335.3,478.8,341.9,470.7,341.9z"/>
						</g>
					</g>
				</g>
				<g>
					<g id="_x33_3">
						<g>
							<path id="_x33_4" class="st4" d="M470.7,420.7c-13.1,0-26.3,0-39.4,0c-8.1,0-14.6-6.6-14.6-14.6c0-8.1,6.6-14.6,14.6-14.6
								c13.1,0,26.3,0,39.4,0c8.1,0,14.6,6.6,14.6,14.6C485.3,414.2,478.8,420.7,470.7,420.7z"/>
						</g>
					</g>
				</g>
				<g>
					<g id="_x33_5">
						<g>
							<path id="_x33_6" class="st4" d="M470.7,499.6c-10.5,0-21,0-31.5,0c-8.1,0-14.6-6.6-14.6-14.6c0-8.1,6.6-14.6,14.6-14.6
								c10.5,0,21,0,31.5,0c8.1,0,14.6,6.6,14.6,14.6C485.3,493,478.8,499.6,470.7,499.6z"/>
						</g>
					</g>
				</g>
			</g>
			<g>
				<g id="_x33_7">
					<g>
						<path id="_x33_8" class="st4" d="M470.7,15.3c19.7,0,39.4,0,59.1,0c0,236.6,0,473.1,0,709.7c-19.7,0-39.4,0-59.1,0V15.3z"/>
					</g>
				</g>
			</g>
			<g>
				<g id="_x33_9">
					<g>
						<path id="_x34_0" class="st5" d="M470.7,685.6c19.7,0,39.4,0,59.1,0c0,13.1,0,26.3,0,39.4c-19.7,0-39.4,0-59.1,0V685.6z"/>
					</g>
				</g>
			</g>
			<g>
				<g id="_x34_1">
					<g>
						<path id="_x34_2" class="st5" d="M237.2,295.2c-5,0-9.9-2.6-12.6-7.2c-9.7-16.4-19.4-32.8-29.1-49.2c-4.1-7-1.8-15.9,5.1-20
							c7-4.1,15.9-1.8,20,5.1c9.7,16.4,19.4,32.8,29.1,49.2c4.1,7,1.8,15.9-5.1,20C242.3,294.5,239.7,295.2,237.2,295.2z"/>
					</g>
				</g>
			</g>
			<g>
				<g id="_x34_3">
					<g>
						<path id="_x34_4" class="st6" d="M507.8,750.7c-5,0-9.9-2.6-12.6-7.2c-74.1-124.7-148.3-249.4-222.4-374.1
							c-4.1-7-1.8-15.9,5.1-20.1c7-4.1,15.9-1.8,20,5.1c74.1,124.7,148.3,249.4,222.4,374.1c4.1,7,1.8,15.9-5.1,20.1
							C512.9,750,510.4,750.7,507.8,750.7z"/>
					</g>
				</g>
			</g>
			<g>
				<g id="_x34_5">
					<g>
						<path id="_x34_6" class="st7" d="M309.8,347.5c-16.3,9.6-32.5,19.3-48.8,28.9c-9,5.3-20.6,2.4-25.9-6.7
							c-9.6-16.3-19.3-32.5-28.9-48.8c-5.3-9-2.4-20.6,6.7-25.9c16.3-9.6,32.5-19.3,48.8-28.9c9-5.3,20.6-2.4,26,6.7
							c9.6,16.3,19.3,32.5,28.9,48.8C321.8,330.6,318.8,342.2,309.8,347.5z"/>
					</g>
				</g>
			</g>
			<g>
				<g id="_x34_7">
					<g>
						<path id="_x34_8" class="st8" d="M261.1,266.4c-1.9,1.1-3.8,2.2-5.7,3.4c3.5,6,7,11.9,10.6,17.9c13.4,22.7,5.9,51.9-16.8,65.4
							c-6,3.5-11.9,7.1-17.9,10.6c1.1,1.9,2.3,3.8,3.4,5.7c5.5,9.3,17.5,12.3,26.7,6.9c15.9-9.4,31.9-18.9,47.8-28.3
							c9.3-5.5,12.3-17.5,6.9-26.7c-9.4-15.9-18.9-31.9-28.3-47.8C282.3,264,270.4,260.9,261.1,266.4z"/>
					</g>
				</g>
			</g>
			<g>
				<g id="_x34_9">
					<g>
						<path id="_x35_0" class="st9" d="M815.3,897.7C800.6,840.2,785.8,782.6,771,725c-180.5,0-361,0-541.5,0
							c-14.8,57.6-29.5,115.2-44.3,172.8c-3.2,12.3,6.2,24.4,18.9,24.4c98.7,0,197.4,0,296.2,0s197.4,0,296.2,0
							C809.2,922.1,818.5,910.1,815.3,897.7z"/>
					</g>
				</g>
			</g>
		</g>
	</g>
	<g>
		<defs>
			<rect id="SVGID_5_" x="15.3" y="15.3" width="969.9" height="969.9"/>
		</defs>
		<defs>
			<rect id="SVGID_6_" x="15.3" y="15.3" width="969.9" height="969.9"/>
		</defs>
		<clipPath id="SVGID_7_">
			<use xlink:href="#SVGID_5_"  style="overflow:visible;"/>
		</clipPath>
		<clipPath id="SVGID_8_" class="st10">
			<use xlink:href="#SVGID_6_"  style="overflow:visible;"/>
		</clipPath>
		<g id="_x35_3" class="st11">
		</g>
	</g>
</g>
</svg>
