<?xml version="1.0" encoding="utf-8"?>
<svg x="0pt" y="0pt" width="1000pt" height="1000pt" viewBox="0 0 1000 1000" xmlns="http://www.w3.org/2000/svg" xmlns:xlink="http://www.w3.org/1999/xlink">
  <g id="1">
    <title>Layer 1</title>
    <clipPath id="3">
      <use xlink:href="#2"/>
      <path id="2" d="M15.3284,15.3283 C15.3284,15.3283,985.19,15.3283,985.19,15.3283 C985.19,15.3283,985.19,985.19,985.19,985.19 C985.19,985.19,15.3284,985.19,15.3284,985.19 C15.3284,985.19,15.3284,15.3283,15.3284,15.3283 z"/>
    </clipPath>
    <g id="4" style="clip-path:url(#3);">
      <title>ClipGroup</title>
      <defs>
        <title>Shape 100</title>
        <g id="5">
          <defs>
            <path id="6" d="M311.788,985.19 C284.991,985.19,258.194,985.19,231.397,985.19 C220.935,985.19,212.455,976.709,212.455,966.247 C212.455,951.534,212.455,936.821,212.455,922.109 C251.88,922.109,291.305,922.109,330.73,922.109 C330.73,936.821,330.73,951.534,330.73,966.247 C330.73,976.709,322.25,985.19,311.788,985.19 z"/>
          </defs>
          <use xlink:href="#6" style="fill:#c18a4b;fill-opacity:1;fill-rule:evenodd;opacity:1;stroke:none;"/>
        </g>
      </defs>
      <use xlink:href="#5"/>
      <defs>
        <title>Shape 101</title>
        <g id="7">
          <defs>
            <path id="8" d="M686.758,985.19 C713.555,985.19,740.352,985.19,767.149,985.19 C777.611,985.19,786.091,976.709,786.091,966.247 C786.091,951.534,786.091,936.821,786.091,922.109 C746.666,922.109,707.241,922.109,667.816,922.109 C667.816,936.821,667.816,951.534,667.816,966.247 C667.816,976.709,676.296,985.19,686.758,985.19 z"/>
          </defs>
          <use xlink:href="#8" style="fill:#c18a4b;fill-opacity:1;fill-rule:evenodd;opacity:1;stroke:none;"/>
        </g>
      </defs>
      <use xlink:href="#7"/>
      <linearGradient x1="806.547" y1="770.761" x2="347.272" y2="147.518" gradientUnits="userSpaceOnUse" id="11">
        <stop style="stop-color:#c18a4b;stop-opacity:1;"/>
        <stop offset="1" style="stop-color:#f9ebd6;stop-opacity:1;"/>
      </linearGradient>
      <defs>
        <title>Shape 102</title>
        <g id="9">
          <defs>
            <path id="10" d="M592.727,29.9937 C666.926,319.245,741.125,608.496,815.324,897.747 C818.491,910.092,809.165,922.111,796.421,922.111 C697.7,922.111,598.98,922.111,500.259,922.111 C401.538,922.111,302.816,922.111,204.095,922.111 C191.351,922.111,182.025,910.094,185.192,897.747 C259.392,608.496,333.591,319.245,407.791,29.9937 C410.003,21.3635,417.783,15.3283,426.692,15.3283 C475.736,15.3283,524.78,15.3283,573.824,15.3283 C582.735,15.3283,590.515,21.3635,592.727,29.9937 z"/>
          </defs>
          <use xlink:href="#10" style="fill:url(#11);fill-opacity:1;fill-rule:evenodd;opacity:1;stroke:none;"/>
        </g>
      </defs>
      <use xlink:href="#9"/>
      <g id="12">
        <title>Group</title>
        <defs>
          <title>Shape 104</title>
          <g id="13">
            <defs>
              <path id="14" d="M569.254,105.309 C556.112,105.309,542.97,105.309,529.828,105.309 C521.746,105.309,515.193,98.7572,515.193,90.6744 C515.193,82.5916,521.746,76.0394,529.828,76.0394 C542.97,76.0394,556.112,76.0394,569.254,76.0394 C577.336,76.0394,583.889,82.5916,583.889,90.6744 C583.889,98.7572,577.336,105.309,569.254,105.309 z"/>
            </defs>
            <use xlink:href="#14" style="fill:#3f413d;fill-opacity:1;fill-rule:evenodd;opacity:1;stroke:none;"/>
          </g>
        </defs>
        <use xlink:href="#13"/>
        <defs>
          <title>Shape 105</title>
          <g id="15">
            <defs>
              <path id="16" d="M569.254,184.158 C556.112,184.158,542.97,184.158,529.828,184.158 C521.746,184.158,515.193,177.606,515.193,169.523 C515.193,161.44,521.746,154.888,529.828,154.888 C542.97,154.888,556.112,154.888,569.254,154.888 C577.336,154.888,583.889,161.44,583.889,169.523 C583.889,177.606,577.336,184.158,569.254,184.158 z"/>
            </defs>
            <use xlink:href="#16" style="fill:#3f413d;fill-opacity:1;fill-rule:evenodd;opacity:1;stroke:none;"/>
          </g>
        </defs>
        <use xlink:href="#15"/>
        <defs>
          <title>Shape 106</title>
          <g id="17">
            <defs>
              <path id="18" d="M569.254,263.01 C556.112,263.01,542.97,263.01,529.828,263.01 C521.746,263.01,515.193,256.458,515.193,248.375 C515.193,240.293,521.746,233.74,529.828,233.74 C542.97,233.74,556.112,233.74,569.254,233.74 C577.336,233.74,583.889,240.293,583.889,248.375 C583.889,256.456,577.336,263.01,569.254,263.01 z"/>
            </defs>
            <use xlink:href="#18" style="fill:#3f413d;fill-opacity:1;fill-rule:evenodd;opacity:1;stroke:none;"/>
          </g>
        </defs>
        <use xlink:href="#17"/>
        <defs>
          <title>Shape 107</title>
          <g id="19">
            <defs>
              <path id="20" d="M569.254,341.859 C556.112,341.859,542.97,341.859,529.828,341.859 C521.746,341.859,515.193,335.307,515.193,327.224 C515.193,319.141,521.746,312.589,529.828,312.589 C542.97,312.589,556.112,312.589,569.254,312.589 C577.336,312.589,583.889,319.141,583.889,327.224 C583.889,335.307,577.336,341.859,569.254,341.859 z"/>
            </defs>
            <use xlink:href="#20" style="fill:#3f413d;fill-opacity:1;fill-rule:evenodd;opacity:1;stroke:none;"/>
          </g>
        </defs>
        <use xlink:href="#19"/>
        <defs>
          <title>Shape 108</title>
          <g id="21">
            <defs>
              <path id="22" d="M569.254,420.711 C556.112,420.711,542.97,420.711,529.828,420.711 C521.746,420.711,515.193,414.159,515.193,406.076 C515.193,397.994,521.746,391.441,529.828,391.441 C542.97,391.441,556.112,391.441,569.254,391.441 C577.336,391.441,583.889,397.994,583.889,406.076 C583.889,414.159,577.336,420.711,569.254,420.711 z"/>
            </defs>
            <use xlink:href="#22" style="fill:#3f413d;fill-opacity:1;fill-rule:evenodd;opacity:1;stroke:none;"/>
          </g>
        </defs>
        <use xlink:href="#21"/>
        <defs>
          <title>Shape 109</title>
          <g id="23">
            <defs>
              <path id="24" d="M561.368,499.56 C550.855,499.56,540.341,499.56,529.828,499.56 C521.745,499.56,515.193,493.008,515.193,484.925 C515.193,476.842,521.745,470.29,529.828,470.29 C540.341,470.29,550.855,470.29,561.368,470.29 C569.451,470.29,576.003,476.842,576.003,484.925 C576.003,493.008,569.451,499.56,561.368,499.56 z"/>
            </defs>
            <use xlink:href="#24" style="fill:#3f413d;fill-opacity:1;fill-rule:evenodd;opacity:1;stroke:none;"/>
          </g>
        </defs>
        <use xlink:href="#23"/>
        <defs>
          <title>Shape 110</title>
          <g id="25">
            <defs>
              <path id="26" d="M470.69,105.309 C457.548,105.309,444.406,105.309,431.264,105.309 C423.181,105.309,416.629,98.7572,416.629,90.6744 C416.629,82.5916,423.181,76.0394,431.264,76.0394 C444.406,76.0394,457.548,76.0394,470.69,76.0394 C478.772,76.0394,485.325,82.5916,485.325,90.6744 C485.325,98.7572,478.772,105.309,470.69,105.309 z"/>
            </defs>
            <use xlink:href="#26" style="fill:#3f413d;fill-opacity:1;fill-rule:evenodd;opacity:1;stroke:none;"/>
          </g>
        </defs>
        <use xlink:href="#25"/>
        <defs>
          <title>Shape 111</title>
          <g id="27">
            <defs>
              <path id="28" d="M470.69,184.158 C457.548,184.158,444.406,184.158,431.264,184.158 C423.181,184.158,416.629,177.606,416.629,169.523 C416.629,161.44,423.181,154.888,431.264,154.888 C444.406,154.888,457.548,154.888,470.69,154.888 C478.772,154.888,485.325,161.44,485.325,169.523 C485.327,177.606,478.772,184.158,470.69,184.158 z"/>
            </defs>
            <use xlink:href="#28" style="fill:#3f413d;fill-opacity:1;fill-rule:evenodd;opacity:1;stroke:none;"/>
          </g>
        </defs>
        <use xlink:href="#27"/>
        <defs>
          <title>Shape 112</title>
          <g id="29">
            <defs>
              <path id="30" d="M470.69,263.01 C457.548,263.01,444.406,263.01,431.264,263.01 C423.181,263.01,416.629,256.458,416.629,248.375 C416.629,240.293,423.181,233.74,431.264,233.74 C444.406,233.74,457.548,233.74,470.69,233.74 C478.772,233.74,485.325,240.293,485.325,248.375 C485.327,256.456,478.772,263.01,470.69,263.01 z"/>
            </defs>
            <use xlink:href="#30" style="fill:#3f413d;fill-opacity:1;fill-rule:evenodd;opacity:1;stroke:none;"/>
          </g>
        </defs>
        <use xlink:href="#29"/>
        <defs>
          <title>Shape 113</title>
          <g id="31">
            <defs>
              <path id="32" d="M470.69,341.859 C457.548,341.859,444.406,341.859,431.264,341.859 C423.181,341.859,416.629,335.307,416.629,327.224 C416.629,319.141,423.181,312.589,431.264,312.589 C444.406,312.589,457.548,312.589,470.69,312.589 C478.772,312.589,485.325,319.141,485.325,327.224 C485.327,335.307,478.772,341.859,470.69,341.859 z"/>
            </defs>
            <use xlink:href="#32" style="fill:#3f413d;fill-opacity:1;fill-rule:evenodd;opacity:1;stroke:none;"/>
          </g>
        </defs>
        <use xlink:href="#31"/>
        <defs>
          <title>Shape 114</title>
          <g id="33">
            <defs>
              <path id="34" d="M470.69,420.711 C457.548,420.711,444.406,420.711,431.264,420.711 C423.181,420.711,416.629,414.159,416.629,406.076 C416.629,397.994,423.181,391.441,431.264,391.441 C444.406,391.441,457.548,391.441,470.69,391.441 C478.772,391.441,485.325,397.994,485.325,406.076 C485.325,414.159,478.772,420.711,470.69,420.711 z"/>
            </defs>
            <use xlink:href="#34" style="fill:#3f413d;fill-opacity:1;fill-rule:evenodd;opacity:1;stroke:none;"/>
          </g>
        </defs>
        <use xlink:href="#33"/>
        <defs>
          <title>Shape 115</title>
          <g id="35">
            <defs>
              <path id="36" d="M470.69,499.56 C460.176,499.56,449.663,499.56,439.15,499.56 C431.067,499.56,424.515,493.008,424.515,484.925 C424.515,476.842,431.067,470.29,439.15,470.29 C449.663,470.29,460.176,470.29,470.69,470.29 C478.772,470.29,485.325,476.842,485.325,484.925 C485.327,493.008,478.772,499.56,470.69,499.56 z"/>
            </defs>
            <use xlink:href="#36" style="fill:#3f413d;fill-opacity:1;fill-rule:evenodd;opacity:1;stroke:none;"/>
          </g>
        </defs>
        <use xlink:href="#35"/>
      </g>
      <defs>
        <title>Shape 116</title>
        <g id="37">
          <defs>
            <path id="38" d="M470.69,15.3283 C490.402,15.3283,510.115,15.3283,529.828,15.3283 C529.828,251.88,529.828,488.431,529.828,724.983 C510.115,724.983,490.402,724.983,470.69,724.983 z"/>
          </defs>
          <use xlink:href="#38" style="fill:#3f413d;fill-opacity:1;fill-rule:evenodd;opacity:1;stroke:none;"/>
        </g>
      </defs>
      <use xlink:href="#37"/>
      <defs>
        <title>Shape 117</title>
        <g id="39">
          <defs>
            <path id="40" d="M470.69,685.557 C490.402,685.557,510.114,685.557,529.826,685.557 C529.826,698.699,529.826,711.841,529.826,724.983 C510.114,724.983,490.402,724.983,470.69,724.983 z"/>
          </defs>
          <use xlink:href="#40" style="fill:#c6c1c8;fill-opacity:1;fill-rule:evenodd;opacity:1;stroke:none;"/>
        </g>
      </defs>
      <use xlink:href="#39"/>
      <defs>
        <title>Shape 118</title>
        <g id="41">
          <defs>
            <path id="42" d="M237.18,295.184 C232.178,295.184,227.304,292.618,224.572,288.001 C214.867,271.603,205.161,255.204,195.455,238.806 C191.337,231.85,193.639,222.873,200.596,218.757 C207.552,214.639,216.531,216.942,220.645,223.898 C230.351,240.296,240.056,256.695,249.762,273.094 C253.88,280.049,251.579,289.026,244.621,293.142 C242.283,294.527,239.715,295.184,237.18,295.184 z"/>
          </defs>
          <use xlink:href="#42" style="fill:#c6c1c8;fill-opacity:1;fill-rule:evenodd;opacity:1;stroke:none;"/>
        </g>
      </defs>
      <use xlink:href="#41"/>
      <defs>
        <title>Shape 119</title>
        <g id="43">
          <defs>
            <path id="44" d="M507.817,750.671 C502.814,750.671,497.94,748.106,495.209,743.488 C421.063,618.797,346.917,494.107,272.772,369.417 C268.653,362.461,270.955,353.484,277.911,349.366 C284.87,345.248,293.843,347.551,297.961,354.505 C372.107,479.195,446.252,603.886,520.397,728.576 C524.515,735.532,522.213,744.509,515.258,748.627 C512.918,750.011,510.35,750.671,507.817,750.671 z"/>
          </defs>
          <use xlink:href="#44" style="fill:#c6c1c8;fill-opacity:1;fill-rule:evenodd;opacity:1;stroke:none;"/>
        </g>
      </defs>
      <use xlink:href="#43"/>
      <defs>
        <title>Shape 120</title>
        <g id="45">
          <defs>
            <path id="46" d="M309.791,347.511 C293.517,357.144,277.243,366.777,260.968,376.41 C251.965,381.739,240.348,378.761,235.019,369.758 C225.386,353.483,215.753,337.209,206.12,320.935 C200.792,311.932,203.769,300.314,212.773,294.986 C229.047,285.353,245.321,275.72,261.595,266.087 C270.599,260.758,282.216,263.736,287.545,272.739 C297.178,289.014,306.811,305.288,316.444,321.562 C321.772,330.565,318.793,342.183,309.791,347.511 z"/>
          </defs>
          <use xlink:href="#46" style="fill:#afaab3;fill-opacity:1;fill-rule:evenodd;opacity:1;stroke:none;"/>
        </g>
      </defs>
      <use xlink:href="#45"/>
      <defs>
        <title>Shape 121</title>
        <g id="47">
          <defs>
            <path id="48" d="M261.101,266.378 C259.203,267.502,257.305,268.625,255.407,269.748 C258.931,275.703,262.456,281.657,265.981,287.611 C279.402,310.284,271.9,339.542,249.228,352.963 C243.266,356.492,237.304,360.021,231.342,363.55 C232.47,365.456,233.598,367.361,234.725,369.267 C240.215,378.541,252.185,381.61,261.459,376.121 C277.406,366.681,293.352,357.242,309.299,347.803 C318.573,342.314,321.642,330.344,316.152,321.07 C306.713,305.123,297.274,289.176,287.835,273.23 C282.345,263.956,270.375,260.889,261.101,266.378 z"/>
          </defs>
          <use xlink:href="#48" style="fill:#a197a5;fill-opacity:1;fill-rule:evenodd;opacity:1;stroke:none;"/>
        </g>
      </defs>
      <use xlink:href="#47"/>
      <defs>
        <title>Shape 122</title>
        <g id="49">
          <defs>
            <path id="50" d="M815.326,897.747 C800.553,840.159,785.78,782.572,771.007,724.984 C590.508,724.984,410.009,724.984,229.511,724.984 C214.738,782.572,199.965,840.159,185.192,897.747 C182.025,910.092,191.351,922.111,204.095,922.111 C302.816,922.111,401.538,922.111,500.259,922.111 C598.98,922.111,697.702,922.111,796.423,922.111 C809.167,922.109,818.493,910.092,815.326,897.747 z"/>
          </defs>
          <use xlink:href="#50" style="fill:#ccc6b3;fill-opacity:1;fill-rule:evenodd;opacity:1;stroke:none;"/>
        </g>
      </defs>
      <use xlink:href="#49"/>
    </g>
    <clipPath id="52">
      <use xlink:href="#51"/>
      <path id="51" d="M15.3284,15.3283 C15.3284,15.3283,985.19,15.3283,985.19,15.3283 C985.19,15.3283,985.19,985.19,985.19,985.19 C985.19,985.19,15.3284,985.19,15.3284,985.19 C15.3284,985.19,15.3284,15.3283,15.3284,15.3283 z"/>
    </clipPath>
    <g id="53" style="clip-path:url(#52);"/>
  </g>
</svg>
