<?xml version="1.0" encoding="utf-8"?>
<svg x="0pt" y="0pt" width="1000pt" height="1000pt" viewBox="0 0 1000 1000" xmlns="http://www.w3.org/2000/svg" xmlns:xlink="http://www.w3.org/1999/xlink">
  <g id="1">
    <title>Layer 1</title>
    <g id="2">
      <title>Group</title>
      <g id="3">
        <title>Group</title>
        <g id="4">
          <title>Group</title>
          <defs>
            <title>Shape 1</title>
            <g id="5">
              <defs>
                <path id="6" d="M700.582,141.559 C700.582,217.476,700.582,293.394,700.582,369.311 C700.582,470.862,617.966,553.481,516.413,553.481 C414.859,553.481,332.243,470.862,332.243,369.311 C332.243,293.394,332.243,217.476,332.243,141.559 C295.601,141.559,258.959,141.559,222.317,141.559 C222.317,217.476,222.317,293.394,222.317,369.311 C222.317,531.476,354.247,663.409,516.413,663.409 C678.578,663.409,810.508,531.476,810.508,369.311 C810.508,293.394,810.508,217.476,810.508,141.559 z"/>
              </defs>
              <use xlink:href="#6" style="fill:#40413e;fill-opacity:1;fill-rule:evenodd;opacity:1;stroke:none;"/>
            </g>
          </defs>
          <use xlink:href="#5"/>
        </g>
        <g id="7">
          <title>Group</title>
          <defs>
            <title>Shape 3</title>
            <g id="8">
              <defs>
                <path id="9" d="M332.243,152.801 C332.243,126.375,332.243,99.9489,332.243,73.5231 C332.243,43.1662,307.634,18.5592,277.279,18.5592 C246.924,18.5592,222.315,43.1662,222.315,73.5231 C222.315,99.9489,222.315,126.375,222.315,152.801 z"/>
              </defs>
              <use xlink:href="#9" style="fill:#ccc6b3;fill-opacity:1;fill-rule:evenodd;opacity:1;stroke:none;"/>
            </g>
          </defs>
          <use xlink:href="#8"/>
          <defs>
            <title>Shape 4</title>
            <g id="10">
              <defs>
                <path id="11" d="M810.51,152.801 C810.51,126.375,810.51,99.9489,810.51,73.5231 C810.51,43.1662,785.901,18.5592,755.546,18.5592 C725.191,18.5592,700.583,43.1662,700.583,73.5231 C700.583,99.9489,700.583,126.375,700.583,152.801 z"/>
              </defs>
              <use xlink:href="#11" style="fill:#ccc6b3;fill-opacity:1;fill-rule:evenodd;opacity:1;stroke:none;"/>
            </g>
          </defs>
          <use xlink:href="#10"/>
        </g>
        <g id="12">
          <title>Group</title>
          <defs>
            <title>Shape 6</title>
            <g id="13">
              <defs>
                <path id="14" d="M131.383,383.84 C123.359,383.84,116.857,377.336,116.857,369.313 C116.857,356.732,112.925,351.108,107.485,343.326 C100.974,334.013,92.8719,322.421,92.8719,300.691 C92.8719,278.961,100.974,267.371,107.485,258.056 C112.925,250.273,116.857,244.65,116.857,232.069 C116.857,219.49,112.925,213.868,107.485,206.087 C100.974,196.774,92.8719,185.184,92.8719,163.456 C92.8719,141.728,100.974,130.138,107.485,120.825 C112.925,113.044,116.857,107.42,116.857,94.8415 C116.857,86.8184,123.36,80.3146,131.383,80.3146 C139.407,80.3146,145.91,86.8184,145.91,94.8415 C145.91,116.57,137.808,128.16,131.297,137.473 C125.857,145.253,121.926,150.877,121.926,163.456 C121.926,176.035,125.857,181.659,131.297,189.439 C137.808,198.752,145.91,210.342,145.91,232.071 C145.91,253.801,137.808,265.391,131.297,274.706 C125.857,282.488,121.926,288.112,121.926,300.693 C121.926,313.274,125.857,318.897,131.297,326.68 C137.808,335.993,145.91,347.585,145.91,369.315 C145.912,377.334,139.408,383.84,131.383,383.84 z"/>
              </defs>
              <use xlink:href="#14" style="fill:#463664;fill-opacity:1;fill-rule:evenodd;opacity:1;stroke:none;"/>
            </g>
          </defs>
          <use xlink:href="#13"/>
          <defs>
            <title>Shape 7</title>
            <g id="15">
              <defs>
                <path id="16" d="M901.442,383.84 C893.417,383.84,886.915,377.336,886.915,369.313 C886.915,347.585,895.017,335.995,901.528,326.682 C906.968,318.899,910.899,313.277,910.899,300.698 C910.899,288.119,906.968,282.497,901.528,274.717 C895.017,265.404,886.915,253.814,886.915,232.086 C886.915,210.355,895.017,198.766,901.528,189.451 C906.968,181.668,910.899,176.044,910.899,163.464 C910.899,150.883,906.968,145.259,901.528,137.476 C895.017,128.164,886.915,116.572,886.915,94.8415 C886.915,86.8184,893.419,80.3146,901.442,80.3146 C909.465,80.3146,915.969,86.8184,915.969,94.8415 C915.969,107.422,919.9,113.046,925.34,120.829 C931.851,130.142,939.953,141.733,939.953,163.464 C939.953,185.194,931.851,196.784,925.34,206.099 C919.9,213.881,915.969,219.505,915.969,232.086 C915.969,244.665,919.9,250.287,925.34,258.067 C931.851,267.38,939.953,278.97,939.953,300.698 C939.953,322.427,931.851,334.017,925.34,343.331 C919.9,351.112,915.969,356.736,915.969,369.315 C915.969,377.334,909.465,383.84,901.442,383.84 z"/>
              </defs>
              <use xlink:href="#16" style="fill:#463664;fill-opacity:1;fill-rule:evenodd;opacity:1;stroke:none;"/>
            </g>
          </defs>
          <use xlink:href="#15"/>
        </g>
        <defs>
          <title>Shape 8</title>
          <g id="17">
            <defs>
              <path id="18" d="M555.385,895.247 C555.385,798.357,555.385,701.466,555.385,604.576 C555.385,587.583,537.936,573.807,516.413,573.807 C494.889,573.807,477.44,587.583,477.44,604.576 C477.44,701.466,477.44,798.357,477.44,895.247 z"/>
            </defs>
            <use xlink:href="#18" style="fill:#40413e;fill-opacity:1;fill-rule:evenodd;opacity:1;stroke:none;"/>
          </g>
        </defs>
        <use xlink:href="#17"/>
        <linearGradient x1="718.938" y1="998.829" x2="188.497" y2="951.198" gradientUnits="userSpaceOnUse" id="21">
          <stop style="stop-color:#c18a4b;stop-opacity:1;"/>
          <stop offset="1" style="stop-color:#ccc6b3;stop-opacity:1;"/>
        </linearGradient>
        <defs>
          <title>Shape 9</title>
          <g id="19">
            <defs>
              <path id="20" d="M821.694,981.254 C618.173,981.254,414.652,981.254,211.131,981.254 C200.092,981.254,191.144,972.306,191.144,961.267 C191.144,947.804,191.144,934.341,191.144,920.879 C191.144,898.803,209.04,880.904,231.118,880.904 C421.315,880.904,611.512,880.904,801.709,880.904 C823.785,880.904,841.683,898.801,841.683,920.879 C841.683,934.341,841.683,947.804,841.683,961.267 C841.681,972.304,832.733,981.254,821.694,981.254 z"/>
            </defs>
            <use xlink:href="#20" style="fill:url(#21);fill-opacity:1;fill-rule:evenodd;opacity:1;stroke:none;"/>
          </g>
        </defs>
        <use xlink:href="#19"/>
      </g>
    </g>
  </g>
</svg>
