<?xml version="1.0" encoding="utf-8"?>
<!-- Generator: Adobe Illustrator 25.2.0, SVG Export Plug-In . SVG Version: 6.00 Build 0)  -->
<svg version="1.1" id="Layer_1" xmlns="http://www.w3.org/2000/svg" xmlns:xlink="http://www.w3.org/1999/xlink" x="0px" y="0px"
	 viewBox="0 0 1000 1000" style="enable-background:new 0 0 1000 1000;" xml:space="preserve">
<style type="text/css">
	.st0{fill:url(#_x33__1_);}
	.st1{fill:url(#_x36__1_);}
	.st2{fill:url(#_x39__1_);}
	.st3{fill-rule:evenodd;clip-rule:evenodd;fill:url(#_x31_2_1_);}
	.st4{fill-rule:evenodd;clip-rule:evenodd;fill:url(#_x31_5_1_);}
	.st5{fill-rule:evenodd;clip-rule:evenodd;fill:url(#_x31_8_1_);}
	.st6{fill-rule:evenodd;clip-rule:evenodd;fill:url(#_x32_4_2_);}
	.st7{fill:none;stroke:#463664;stroke-width:9;stroke-linecap:round;stroke-miterlimit:10;}
	.st8{fill-rule:evenodd;clip-rule:evenodd;fill:url(#_x32_7_2_);}
	.st9{fill-rule:evenodd;clip-rule:evenodd;fill:url(#_x33_1_1_);}
	.st10{fill:#F9EBD6;}
	.st11{fill:none;stroke:#B3AF9E;stroke-miterlimit:10;}
	.st12{fill:#AA7942;}
	.st13{fill:url(#_x33_8_1_);}
	.st14{fill:#FFFFFF;}
	.st15{fill:none;}
	.st16{fill:none;stroke:#2B1C49;stroke-width:18;stroke-linecap:round;stroke-miterlimit:10;}
	.st17{fill:none;stroke:#463664;stroke-width:14;stroke-linecap:round;stroke-miterlimit:10;}
	.st18{fill:url(#_x35_1_2_);}
	.st19{fill-rule:evenodd;clip-rule:evenodd;fill:#AA7942;}
</style>
<g id="_x31_">
	<g>
		<g id="_x32_">
			<g>
				
					<linearGradient id="_x33__1_" gradientUnits="userSpaceOnUse" x1="865.4684" y1="365.3287" x2="977.2614" y2="885.5288" gradientTransform="matrix(1 0 0 -1 0 999)">
					<stop  offset="0" style="stop-color:#C18A4B"/>
					<stop  offset="1" style="stop-color:#F9EBD6"/>
				</linearGradient>
				<path id="_x33_" class="st0" d="M978.3,844.8c0,4.4-3.6,8-8,8H812.4c-4.4,0-8-3.6-8-8V181.7c0-4.4,3.6-8,8-8h157.9
					c4.4,0,8,3.6,8,8V844.8z"/>
			</g>
		</g>
	</g>
	<g>
		<g id="_x35_">
			<g>
				
					<linearGradient id="_x36__1_" gradientUnits="userSpaceOnUse" x1="588.6218" y1="288.0391" x2="700.4148" y2="641.597" gradientTransform="matrix(1 0 0 -1 0 999)">
					<stop  offset="0" style="stop-color:#C18A4B"/>
					<stop  offset="1" style="stop-color:#F9EBD6"/>
				</linearGradient>
				<path id="_x36_" class="st1" d="M703.7,844.8c0,4.4-3.6,8-8,8H537.8c-4.4,0-8-3.6-8-8V399.2c0-4.4,3.6-8,8-8h157.9
					c4.4,0,8,3.6,8,8V844.8z"/>
			</g>
		</g>
	</g>
	<g>
		<g id="_x38_">
			<g>
				
					<linearGradient id="_x39__1_" gradientUnits="userSpaceOnUse" x1="303.9861" y1="349.7822" x2="415.779" y2="836.0721" gradientTransform="matrix(1 0 0 -1 0 999)">
					<stop  offset="0" style="stop-color:#C18A4B"/>
					<stop  offset="1" style="stop-color:#F9EBD6"/>
				</linearGradient>
				<path id="_x39_" class="st2" d="M417.1,844.8c0,4.4-3.6,8-8,8H251.2c-4.4,0-8-3.6-8-8V226c0-4.4,3.6-8,8-8h157.9
					c4.4,0,8,3.6,8,8V844.8z"/>
			</g>
		</g>
	</g>
	<g>
		<g id="_x31_1">
			<g>
				
					<linearGradient id="_x31_2_1_" gradientUnits="userSpaceOnUse" x1="981.4612" y1="1028.6448" x2="789.0433" y2="836.2278" gradientTransform="matrix(1 0 0 -1 0 999)">
					<stop  offset="0" style="stop-color:#C18A4B"/>
					<stop  offset="1" style="stop-color:#DBCFBC"/>
				</linearGradient>
				<path id="_x31_2" class="st3" d="M891.4,13.2c26.1,0,47.3,21.2,47.3,47.3c0,26.1-21.2,47.3-47.3,47.3
					c-26.1,0-47.3-21.2-47.3-47.3C844.1,34.3,865.2,13.2,891.4,13.2z"/>
			</g>
		</g>
	</g>
	<g>
		<g id="_x31_4">
			<g>
				
					<linearGradient id="_x31_5_1_" gradientUnits="userSpaceOnUse" x1="618.983" y1="690.9684" x2="479.489" y2="763.6124" gradientTransform="matrix(1 0 0 -1 0 999)">
					<stop  offset="0" style="stop-color:#C18A4B"/>
					<stop  offset="1" style="stop-color:#B3AF9E"/>
				</linearGradient>
				<path id="_x31_5" class="st4" d="M616.8,279.5c15.1,0,27.3,12.2,27.3,27.3c0,15.1-12.2,27.3-27.3,27.3
					c-15.1,0-27.3-12.2-27.3-27.3C589.4,291.8,601.7,279.5,616.8,279.5z"/>
			</g>
		</g>
	</g>
	<g>
		<g id="_x31_7">
			<g>
				
					<linearGradient id="_x31_8_1_" gradientUnits="userSpaceOnUse" x1="332.3589" y1="859.0082" x2="192.8649" y2="931.6522" gradientTransform="matrix(1 0 0 -1 0 999)">
					<stop  offset="0" style="stop-color:#C18A4B"/>
					<stop  offset="1" style="stop-color:#B3AF9E"/>
				</linearGradient>
				<path id="_x31_8" class="st5" d="M330.1,111.5c15.1,0,27.3,12.2,27.3,27.3s-12.2,27.3-27.3,27.3c-15.1,0-27.3-12.2-27.3-27.3
					S315,111.5,330.1,111.5z"/>
			</g>
		</g>
	</g>
	<g>
		<g id="_x32_3">
			<g>
				
					<linearGradient id="_x32_4_2_" gradientUnits="userSpaceOnUse" x1="442.2835" y1="784.0028" x2="-51.1126" y2="934.6398" gradientTransform="matrix(0.9996 2.918711e-02 2.918711e-02 -0.9996 -22.4519 984.851)">
					<stop  offset="0" style="stop-color:#B3AF9E"/>
					<stop  offset="1" style="stop-color:#463664"/>
				</linearGradient>
				<path id="_x32_4" class="st6" d="M376.5,164.4l190,119"/>
			</g>
			<g>
				<path id="_x32_4_1_" class="st7" d="M376.5,164.4l190,119"/>
			</g>
		</g>
	</g>
	<g>
		<g id="_x32_6">
			<g>
				
					<linearGradient id="_x32_7_2_" gradientUnits="userSpaceOnUse" x1="748.8436" y1="812.4625" x2="265.6737" y2="1039.0516" gradientTransform="matrix(1 0 0 -1 0 999)">
					<stop  offset="0" style="stop-color:#B3AF9E"/>
					<stop  offset="1" style="stop-color:#463664"/>
				</linearGradient>
				<path id="_x32_7" class="st8" d="M845.2,102L655.8,272.6"/>
			</g>
			<g>
				<path id="_x32_7_1_" class="st7" d="M845.2,102L655.8,272.6"/>
			</g>
		</g>
	</g>
</g>
<g id="_x32_9">
	<g>
		<g id="_x33_0">
			<g>
				
					<linearGradient id="_x33_1_1_" gradientUnits="userSpaceOnUse" x1="248.9576" y1="374.2749" x2="261.1036" y2="244.3037" gradientTransform="matrix(1 0 0 -1 0 999)">
					<stop  offset="0" style="stop-color:#B3AF9E"/>
					<stop  offset="1" style="stop-color:#F9EBD6"/>
				</linearGradient>
				<path id="_x33_1" class="st9" d="M185.4,671.1h148.9v139.4H185.4V671.1z"/>
			</g>
		</g>
	</g>
	<g>
		<g id="_x33_3">
			<g>
				<path id="_x33_4" class="st10" d="M419.2,547.8c-11.5-12.4-33-116.8-33-116.8H136.1l-27.7,116.8c0,0-19-1.7-19.8,20.5
					c-0.8,22.3,23.6,30.6,32.8,28.7c0,0,10.1,128.4,138.3,129.2c128.2,0.8,137.5-128.2,137.5-128.2l3.1-1.4l8.5-0.6
					c0,0,19.5-6.1,20.8-19.6C430.8,562.9,430.7,560.2,419.2,547.8z"/>
			</g>
			<g>
				<path id="_x33_4_1_" class="st11" d="M419.2,547.8c-11.5-12.4-33-116.8-33-116.8H136.1l-27.7,116.8c0,0-19-1.7-19.8,20.5
					c-0.8,22.3,23.6,30.6,32.8,28.7c0,0,10.1,128.4,138.3,129.2c128.2,0.8,137.5-128.2,137.5-128.2l3.1-1.4l8.5-0.6
					c0,0,19.5-6.1,20.8-19.6C430.8,562.9,430.7,560.2,419.2,547.8z"/>
			</g>
		</g>
	</g>
	<g>
		<g id="_x33_5">
			<g>
				<path id="_x33_6" class="st12" d="M259.8,447.5h-77.4c0,0-25-6.4-35.3,6.6c-7.7,9.2-4.6,61.5-4.6,61.5s2.1,11.9-4.3,22.2
					c-6.4,10.3-27.7,10-27.7,10l-10.6,0L88.3,473c0,0-6.3-32.3,9.9-48.4c16.3-16.1,31.7-23.3,71.8-21.7
					c40.1,1.6,151.3-0.2,151.3-0.2s74.1-6,96.1,17.7c22,23.7,14.6,44.8,14.6,44.8l-11.8,82.5c0,0-31.1,0.1-39.4-10.4
					c-4.2-14-3.4-52.8-3.4-52.8s1.6-23.9-3.7-30.5c-5.4-6.6-30.4-6.6-30.4-6.6H259.8z"/>
			</g>
		</g>
	</g>
	<g>
		<g id="_x33_7">
			<g>
				
					<linearGradient id="_x33_8_1_" gradientUnits="userSpaceOnUse" x1="393.5863" y1="596.4473" x2="230.2343" y2="622.2183" gradientTransform="matrix(1 0 0 -1 0 999)">
					<stop  offset="0" style="stop-color:#AA7942"/>
					<stop  offset="1" style="stop-color:#C18A4B"/>
				</linearGradient>
				<path id="_x33_8" class="st13" d="M270.2,342.4c0,0,76.2,0.4,95.5-6.8c19.3-7.1,23.5-11.1,29.4-11.1c5.9,0,15.3,11.9,14.5,51
					c-0.8,39.1-9.8,72.5-133.5,71.9c-123.7-0.6-115.2,4.9-132.6-28.3c-7.7-56.3,39.3-76.8,71.9-78.3"/>
			</g>
		</g>
	</g>
	<g>
		<g id="_x34_0">
			<g>
				<path id="_x34_1" class="st14" d="M214.1,614.7l91.1-0.1c0,0,2.7,40.3-42.3,41.7C210,658,214.1,614.7,214.1,614.7z"/>
			</g>
			<g>
				<path id="_x34_1_1_" class="st15" d="M214.1,614.7l91.1-0.1c0,0,2.7,40.3-42.3,41.7C210,658,214.1,614.7,214.1,614.7z"/>
			</g>
		</g>
	</g>
	<g>
		<g id="_x34_2">
			<g>
				<path id="_x34_3" class="st16" d="M183.3,521.7H209"/>
			</g>
		</g>
	</g>
	<g>
		<g id="_x34_4">
			<g>
				<path id="_x34_5" class="st16" d="M312.3,521.4h25.6"/>
			</g>
		</g>
	</g>
	<g>
		<g id="_x34_6">
			<g>
				<path id="_x34_7" class="st17" d="M324.5,554.3v11.2"/>
			</g>
		</g>
	</g>
	<g>
		<g id="_x34_8">
			<g>
				<path id="_x34_9" class="st17" d="M196,554.1v11.2"/>
			</g>
		</g>
	</g>
	<g>
		<g id="_x35_0">
			<g>
				
					<linearGradient id="_x35_1_2_" gradientUnits="userSpaceOnUse" x1="495.8699" y1="-59.1169" x2="208.0499" y2="119.4737" gradientTransform="matrix(1 0 0 -1 0 999)">
					<stop  offset="0" style="stop-color:#64A83E"/>
					<stop  offset="1" style="stop-color:#80C559"/>
				</linearGradient>
				<path id="_x35_1" class="st18" d="M267.8,992.6l-239.2-0.6c0,0-9.4-2.4-17-9.7c-7.5-7.3-8.8-21.4-8.8-21.4s0.7-68.2,1.3-88.8
					c0.2-5.9,0.5-11.3,10.5-27.4c9.4-15.1,14.2-18,25.8-22.4c20.3-7.8,103.4-33.2,103.4-33.2l15.4-33c0,0,0.9-3,4.1-3.9
					c3.2-1,6.8-0.8,6.8-0.8l89.7,48l86.1-46.6c0,0,1.3-3,6.7-1.8c5.4,1.2,6.2,3.4,6.2,3.4l16.5,35c0,0,69,20.5,93.5,29
					c6.9,2.4,19.8,7.6,30.8,19c10.9,11.3,16,41.1,16,41.1l0.1,83.4c0,0,1.4,12.9-8.9,21.5c-10.3,8.6-18,8.8-18,8.8L267.8,992.6z"/>
			</g>
			<g>
				<path id="_x35_1_1_" class="st15" d="M267.8,992.6l-239.2-0.6c0,0-9.4-2.4-17-9.7c-7.5-7.3-8.8-21.4-8.8-21.4s0.7-68.2,1.3-88.8
					c0.2-5.9,0.5-11.3,10.5-27.4c9.4-15.1,14.2-18,25.8-22.4c20.3-7.8,103.4-33.2,103.4-33.2l15.4-33c0,0,0.9-3,4.1-3.9
					c3.2-1,6.8-0.8,6.8-0.8l89.7,48l86.1-46.6c0,0,1.3-3,6.7-1.8c5.4,1.2,6.2,3.4,6.2,3.4l16.5,35c0,0,69,20.5,93.5,29
					c6.9,2.4,19.8,7.6,30.8,19c10.9,11.3,16,41.1,16,41.1l0.1,83.4c0,0,1.4,12.9-8.9,21.5c-10.3,8.6-18,8.8-18,8.8L267.8,992.6z"/>
			</g>
		</g>
	</g>
	<g>
		<g id="_x35_3">
			<g>
				<path id="_x35_4" class="st19" d="M260.1,874.7c5.8,0,10.5,4.7,10.5,10.5c0,5.8-4.7,10.5-10.5,10.5s-10.5-4.7-10.5-10.5
					C249.7,879.4,254.3,874.7,260.1,874.7z"/>
			</g>
			<g>
				<path id="_x35_4_1_" class="st15" d="M260.1,874.7c5.8,0,10.5,4.7,10.5,10.5c0,5.8-4.7,10.5-10.5,10.5s-10.5-4.7-10.5-10.5
					C249.7,879.4,254.3,874.7,260.1,874.7z"/>
			</g>
		</g>
	</g>
	<g>
		<g id="_x35_5">
			<g>
				<path id="_x35_6" class="st19" d="M260.5,938.7c5.8,0,10.5,4.7,10.5,10.5c0,5.8-4.7,10.5-10.5,10.5c-5.8,0-10.5-4.7-10.5-10.5
					C250,943.3,254.7,938.7,260.5,938.7z"/>
			</g>
			<g>
				<path id="_x35_6_1_" class="st15" d="M260.5,938.7c5.8,0,10.5,4.7,10.5,10.5c0,5.8-4.7,10.5-10.5,10.5
					c-5.8,0-10.5-4.7-10.5-10.5C250,943.3,254.7,938.7,260.5,938.7z"/>
			</g>
		</g>
	</g>
</g>
</svg>
