<?xml version="1.0" standalone="no"?>
<!DOCTYPE svg PUBLIC "-//W3C//DTD SVG 1.1//EN" "http://www.w3.org/Graphics/SVG/1.1/DTD/svg11.dtd" >
<svg xmlns="http://www.w3.org/2000/svg" xmlns:xlink="http://www.w3.org/1999/xlink" version="1.1">
<metadata>
Created by FontForge 20190801 at Tue Nov 24 11:07:19 1998
 By www-data
(C) 1993 B &#38; P Graphics, Ltd.
</metadata>
<defs>
<font id="Tabasco" horiz-adv-x="223" >
  <font-face 
    font-family="Tabasco"
    font-weight="5"
    font-stretch="normal"
    units-per-em="1000"
    panose-1="0 0 0 0 0 0 0 0 0 0"
    ascent="800"
    descent="-200"
    x-height="569"
    cap-height="720"
    bbox="-131 -298 1068 974"
    underline-thickness="20"
    underline-position="-143"
    unicode-range="U+0020-F001"
  />
<missing-glyph horiz-adv-x="702" 
d="M43 0v702h616v-702h-616zM616 43v616h-530v-616h530z" />
    <glyph glyph-name=".notdef" horiz-adv-x="702" 
d="M43 0v702h616v-702h-616zM616 43v616h-530v-616h530z" />
    <glyph glyph-name="glyph1" horiz-adv-x="0" 
 />
    <glyph glyph-name="glyph2" horiz-adv-x="290" 
 />
    <glyph glyph-name="space" unicode=" " horiz-adv-x="290" 
 />
    <glyph glyph-name="exclam" unicode="!" horiz-adv-x="297" 
d="M53 43q-3 8 -4 16.5t-1 13.5q0 6 2 18q8 27 29.5 43t39 19t30.5 3q38 0 64.5 -20t29 -37t2.5 -27q0 -62 -42.5 -72.5t-58.5 -10.5h-9q-32 0 -52.5 14.5t-29.5 39.5zM221 201h-144v519h144v-519z" />
    <glyph glyph-name="numbersign" unicode="#" horiz-adv-x="580" 
d="M134 216h-100l18 72h100l35 144h-101l18 72h101l54 216h74l-53 -216h98l54 216h74l-53 -216h94l-18 -72h-94l-36 -144h97l-18 -72h-97l-54 -216h-74l54 216h-99l-54 -216h-74zM226 288h99l36 144h-99z" />
    <glyph glyph-name="dollar" unicode="$" horiz-adv-x="442" 
d="M129 79q-39 0 -60 5.5t-47 19.5v124l13 -3l12 -2l41 -6q41 -4 74 -4q31 0 68 9.5t37 47.5q0 18 -10 33t-38 31l-35 18l-70 42q-35 21 -48 51.5t-13 83.5q0 35 29.5 69.5t62.5 53.5v68h141v-47l30 -10l13 -5l13 -6v-123l-16 3l-55 7h-32t-26 -6t-12 -26q0 -9 6.5 -17
t19.5 -14l99 -42q43 -19 68.5 -57.5t25.5 -98.5q0 -59 -25 -100.5t-87 -74.5l-20 -11l-8 -3v-89h-133v78z" />
    <glyph glyph-name="percent" unicode="%" horiz-adv-x="889" 
d="M392 0h-72l180 720h72zM218 350q-79 0 -134 55t-55 134q0 78 55 133t134 55q78 0 133 -55t55 -133q0 -79 -55 -134t-133 -55zM671 -10q-78 0 -133 55t-55 134q0 78 55 133t133 55q77 0 133 -55t56 -133q0 -79 -55 -134t-134 -55zM587 179q0 -38 24 -65t61 -27
q34 0 58.5 27t24.5 66q0 38 -24 64t-61 26q-34 0 -58.5 -26.5t-24.5 -64.5zM133 539q0 -38 24.5 -65t61.5 -27q34 0 58 27t24 66q0 38 -24 64t-61 26q-34 0 -57 -26q-26 -26 -26 -65z" />
    <glyph glyph-name="ampersand" unicode="&#x26;" horiz-adv-x="636" 
d="M140 442l13 10q-26 19 -39 45t-13 57q0 75 55 115.5t102 52.5t119 12q45 0 96 -16v-137h-15l-54 2h-61q-18 0 -32.5 -5t-23.5 -13.5t-9 -19.5q0 -15 12 -20l26 -9l29 -6l8 -1q20 -3 40 -3h16q12 2 17 2v-143l174 -1v-317l-30 -14q-46 -20 -82.5 -30t-76.5 -10h-88
q-60 0 -127 17.5t-120.5 72.5t-53.5 132q-1 16 -1 24q0 16 2 25t7.5 39t29 64t80.5 75zM426 346q-38 16 -79 16q-14 0 -51 -4.5t-70.5 -32t-33.5 -71.5q0 -12 3 -35.5t38.5 -49.5t95.5 -26q28 0 61 6l36 9v188z" />
    <glyph glyph-name="parenleft" unicode="(" horiz-adv-x="319" 
d="M89 671q35 105 81 179h144l-22 -51q-39 -97 -62 -168t-23 -190q0 -142 6.5 -226t34.5 -183t71 -187h-152q-18 34 -32.5 66.5t-41.5 103.5t-41.5 136t-14.5 166q0 70 1 86t9 92.5t42 175.5z" />
    <glyph glyph-name="parenright" unicode=")" horiz-adv-x="319" 
d="M69 665q-26 93 -69 185h151q18 -33 30.5 -60.5t42 -104t44 -142t14.5 -166.5v-15q0 -41 -1.5 -68t-7.5 -79.5t-15.5 -96t-36.5 -121.5t-72 -152h-144l21 50q41 104 63.5 174.5t22.5 185.5q0 144 -7 226.5t-36 183.5z" />
    <glyph glyph-name="asterisk" unicode="*" horiz-adv-x="400" 
d="M131 550l-109 40q0 18 7.5 33t22.5 29l23 15l87 -70l8 5l-19 117q25 10 46 10t42 -9v-121l4 -7l88 74q14 -14 25.5 -38t21.5 -46l-109 -43v-13l100 -35q-2 -22 -16 -43.5t-29 -39.5l-82 67l-12 -6l13 -109l-22 -5q-18 -2 -27 -2q-19 0 -42 5l15 117l-9 6l-93 -70
q-9 10 -15 18.5t-12 19.5q-9 22 -14 45l108 43zM246 561q-13 33 -47 33q-14 0 -33.5 -12.5t-19.5 -41.5q0 -23 15 -39t39 -16q30 0 46 24v52z" />
    <glyph glyph-name="plus" unicode="+" horiz-adv-x="663" 
d="M260 249h-217v138h217v220h138v-220h219v-139h-218v-216h-139v217z" />
    <glyph glyph-name="comma" unicode="," horiz-adv-x="259" 
d="M178 -56l-18 -40h-62l38 95q-12 -4 -28 -4q-34 0 -53 23t-19 57q0 55 39.5 67.5t56.5 12.5q8 0 48.5 -6t40.5 -70q0 -33 -18 -81l-6 -14l-3 -8z" />
    <glyph glyph-name="hyphen" unicode="-" horiz-adv-x="370" 
d="M334 243h-298v138h298v-138z" />
    <glyph glyph-name="period" unicode="." horiz-adv-x="269" 
d="M39 43q-3 8 -4 16.5t-1 13.5q0 6 2 18q8 27 29.5 43t39 19t30.5 3q38 0 64.5 -20t29 -37t2.5 -27q0 -62 -42.5 -72.5t-58.5 -10.5h-9q-32 0 -52.5 14.5t-29.5 39.5z" />
    <glyph glyph-name="slash" unicode="/" horiz-adv-x="483" 
d="M166 0h-144l288 720h151z" />
    <glyph glyph-name="zero" unicode="0" horiz-adv-x="664" 
d="M121 78q-99 121 -99 277q0 76 25 146.5t69.5 124.5t100.5 79.5t116 25.5q62 0 115.5 -24.5t98.5 -79.5t70 -126.5t25 -146.5q0 -77 -24.5 -146t-69 -123.5t-101 -80t-115.5 -25.5q-61 0 -115.5 24.5t-95.5 74.5zM186 355q0 -117 43.5 -178.5t102.5 -61.5q63 0 104 69
t41 171q0 52 -12 97t-40 90q-14 25 -39 39t-54 14q-60 0 -103 -61t-43 -179z" />
    <glyph glyph-name="one" unicode="1" horiz-adv-x="663" 
d="M221 569v151h221v-720h-172v569h-49z" />
    <glyph glyph-name="two" unicode="2" horiz-adv-x="665" 
d="M134 572l-42 -9v135q59 24 109 29t81 5q57 0 102 -12.5t117 -63.5t72 -167q0 -30 -11 -77t-54.5 -106t-135.5 -137l-31 -25h181v-144h-401v151l221 207q15 15 20.5 21.5t23 35.5t17.5 65q0 34 -21 57.5t-61.5 35t-82.5 11.5q-41 0 -104 -12z" />
    <glyph glyph-name="three" unicode="3" horiz-adv-x="663" 
d="M176 -5q-51 7 -100 29v135l56 -10l23 -4l21 -2l22 -3h37q52 0 92.5 12t63.5 37t23 66q0 14 -3 40t-33.5 54t-85.5 42t-97 18l-41 2l138 158h-176v151h368v-135l-72 -87l37 -17q68 -38 103 -88.5t35 -117.5q0 -28 -1 -44.5t-11 -52.5t-40.5 -73.5t-77.5 -65t-89 -38.5
t-108 -11q-21 0 -42 1t-42 4z" />
    <glyph glyph-name="four" unicode="4" horiz-adv-x="664" 
d="M377 148h-323v141l153 312l169 -1v120h174v-413h60v-159h-60v-148h-173v148zM233 307h144v269z" />
    <glyph glyph-name="five" unicode="5" horiz-adv-x="664" 
d="M227 -9q-49 0 -79 6t-57 19v136l54 -8q57 -6 99 -6h23q15 2 46 4.5t63.5 35t32.5 75.5q0 24 -12 50l-11 18q-20 27 -53 37t-102 10q-30 0 -68 -6l-37 -5v363h333v-151h-167v-60q8 1 15.5 1.5t17.5 0.5q12 0 26.5 -2t69.5 -14t103.5 -80.5t48.5 -172.5q0 -56 -26.5 -104.5
t-64.5 -79t-76 -44t-72 -17.5t-54.5 -5t-52.5 -1z" />
    <glyph glyph-name="six" unicode="6" horiz-adv-x="664" 
d="M44 329q5 30 9.5 45t11.5 29l151 317h192l-163 -326q-15 -29 -23.5 -55.5t-8.5 -47.5q-1 -7 -1.5 -15.5t-0.5 -12.5q0 -101 56.5 -111.5t71.5 -10.5q46 0 75.5 24.5t34.5 51.5t5 43q0 12 -7.5 40t-44 49t-103.5 21l-18 -1l73 143l28 2q55 0 118.5 -31.5t87 -81.5
t30.5 -77.5t7 -56.5q0 -62 -26 -123.5t-99.5 -106.5t-173.5 -45h-26q-11 2 -45.5 5t-82.5 28l-24 14q-43 28 -65.5 59t-30.5 62.5t-10 63t-2 62.5q0 11 0.5 18.5t3.5 24.5z" />
    <glyph glyph-name="seven" unicode="7" horiz-adv-x="664" 
d="M377 576h-267v144h444v-159l-189 -561h-181z" />
    <glyph glyph-name="eight" unicode="8" horiz-adv-x="666" 
d="M99 369l26 33q37 -40 98 -71l26 -11l-14 -19q-26 -43 -26 -76q0 -66 88 -81l29 -3q54 0 78.5 15t35.5 36t11 42q0 36 -26 57l-17 12l-28 15l-102 38q-47 13 -105 58t-58 119q0 28 16 89.5t107 98.5l25 8q18 5 35 6.5t42 1.5q37 0 61.5 -6t82.5 -38.5t58 -126.5
q0 -30 -12 -63l-15 -32l-39 15l-39 15l-31 12l-31 12q6 11 6 21q0 32 -32 42q-12 2 -19 2q-6 0 -13 -1t-21.5 -11t-14.5 -31q0 -17 11 -27.5t21.5 -16.5t25.5 -13l16 -6l104 -37l32 -14q129 -70 129 -198q0 -29 -11 -76.5t-52 -88t-102.5 -60.5t-120.5 -20q-48 0 -119 17
t-121.5 72t-50.5 130q0 79 56 160z" />
    <glyph glyph-name="nine" unicode="9" horiz-adv-x="664" 
d="M619 390q-5 -28 -8.5 -41.5t-12.5 -31.5l-151 -317h-192l163 326q14 28 23 54.5t9 46.5q0 7 1 15.5t1 12.5q0 100 -56.5 110.5t-71.5 10.5q-46 0 -75.5 -24.5t-34.5 -51.5t-5 -43q0 -12 7.5 -40t44 -49t103.5 -21l18 1l-73 -143l-28 -1q-57 0 -119 30.5t-86 81t-31 78
t-7 56.5q0 62 26 123.5t99.5 106.5t173.5 45h26q11 -2 34 -4t55.5 -13t86.5 -45.5t67 -85.5t15 -81.5t2 -62.5q0 -11 -1.5 -24t-2.5 -19z" />
    <glyph glyph-name="colon" unicode=":" horiz-adv-x="297" 
d="M53 43q-3 8 -4 16.5t-1 13.5q0 6 2 18q8 27 29.5 43t39 19t30.5 3q38 0 64.5 -20t29 -37t2.5 -27q0 -62 -42.5 -72.5t-58.5 -10.5h-9q-32 0 -52.5 14.5t-29.5 39.5zM53 338q-3 7 -4 14.5t-1 16.5q0 6 2 18q8 26 29 42t38.5 19.5t29.5 3.5q39 0 66 -20t29.5 -37.5
t2.5 -27.5q0 -62 -38 -71.5t-54.5 -10.5t-17.5 -1q-64 6 -82 54z" />
    <glyph glyph-name="semicolon" unicode=";" horiz-adv-x="296" 
d="M55 338q-7 18 -7 35v9q2 4 5.5 17.5t25 29.5t39 19.5t29.5 3.5q39 0 66 -20t29.5 -37.5t2.5 -27.5q0 -62 -37.5 -71.5t-46.5 -10.5t-25 -1q-35 3 -53 15t-28 39zM192 -56l-18 -40h-62l38 95q-12 -4 -28 -4q-34 0 -53 23t-19 57q0 55 39.5 67.5t56.5 12.5q8 0 48.5 -6
t40.5 -70q0 -33 -18 -81l-6 -14l-3 -8z" />
    <glyph glyph-name="equal" unicode="=" horiz-adv-x="664" 
d="M620 147h-579v139h579v-139zM619 354h-578v142h578v-142z" />
    <glyph glyph-name="question" unicode="?" horiz-adv-x="437" 
d="M136 581q-62 0 -114 -11v135q30 14 69.5 20t90.5 6q87 0 138.5 -26.5t75.5 -75.5q19 -35 19 -74q0 -34 -19 -75t-44 -61l-87 -71q-14 -12 -20.5 -33t-6.5 -66l-1 -47h-151l-6 54q0 69 16 111t59 82l60 48l19 20l8 14q2 6 2 9q0 24 -25.5 32t-40.5 8l-28 1h-14zM72 43
q-5 13 -5 30q0 9 4.5 26t26 34t40 20t31.5 3q37 0 63.5 -20t29.5 -37t3 -27q0 -61 -71 -80q-15 -3 -30 -3h-9q-32 0 -52.5 14.5t-30.5 39.5z" />
    <glyph glyph-name="at" unicode="@" horiz-adv-x="788" 
d="M439 194q-37 -43 -83 -43q-21 0 -75 23t-54 167l4 35q9 59 36.5 108t65.5 76t79 27q31 0 55 -16t35 -44l8 51h51l-36 -210l-13 -83q-3 -21 -3 -35q0 -18 4 -27q8 -28 40 -28q4 0 14.5 3.5t21.5 11.5t29.5 29t34 55.5t20 61t5.5 41.5t1 29q0 110 -71 181t-179 71
q-23 0 -90.5 -9.5t-140 -99t-72.5 -214.5v-18q2 -12 2 -18q0 -27 7 -52t33.5 -82t96 -103t152.5 -46q59 0 114.5 22.5t89 52.5t44.5 42.5t27 33.5l15 -50l-24 -29q-116 -123 -271 -123q-141 0 -239.5 90.5t-107.5 175t-9 108.5q0 107 48 191t126 128.5t126 50.5t71 6
q134 0 222 -87t88 -218q0 -22 -1 -34t-11 -62.5t-47 -103t-74 -68t-61 -15.5q-35 0 -58 19t-26 48v14q-8 -19 -20 -34zM351 197q4 -1 12 -1q26 0 46 23.5t32.5 57.5t19 60t7.5 34l4 18l5 34q1 8 1.5 21.5t1.5 23.5v12q-3 27 -21 44t-43 17q-13 0 -33.5 -8t-38.5 -32
t-30 -59.5t-17 -62t-6 -44.5t-1 -43q0 -45 16 -68t45 -27z" />
    <glyph glyph-name="A" unicode="A" horiz-adv-x="690" 
d="M161 0h-175l286 720h189l243 -720h-174l-70 223l-163 3l52 151h63l-50 181z" />
    <glyph glyph-name="B" unicode="B" horiz-adv-x="596" 
d="M209 0h-173v694q62 24 118.5 30t88.5 6q115 0 173 -44t58 -121q0 -7 -1 -15.5t-5 -36t-37 -61.5q31 -7 91.5 -46t60.5 -162q0 -23 -17.5 -111.5t-115 -111.5t-132.5 -23t-66 11v142h21q69 0 104.5 24.5t35.5 69.5q0 6 -0.5 12t-6.5 31t-36 43t-95 26l-23 2v125
q11 0 22.5 4t19.5 13q8 6 12 16.5t4 16.5q0 31 -21 36.5t-29 5.5h-21q-13 -3 -19 -4l-11 -2v-570z" />
    <glyph glyph-name="C" unicode="C" horiz-adv-x="543" 
d="M441 732l35 -4v-145l-29 2q-121 0 -190 -54t-69 -153q0 -71 21.5 -118.5t59.5 -75t63.5 -37t62.5 -9.5h14q31 0 50 1.5t51 7.5l26 6v-148l-28 -8q-31 -7 -68 -9t-67 -2q-84 9 -134 32t-80.5 47.5t-66 70.5t-53 97.5t-17.5 115.5q0 128 57.5 218.5t133 122t120.5 37
t108 5.5z" />
    <glyph glyph-name="D" unicode="D" horiz-adv-x="708" 
d="M209 0h-173v687q29 11 54.5 18.5t66 15.5t76.5 11.5t72 3.5q51 0 90.5 -10t125.5 -50t125.5 -138.5t39.5 -183.5q0 -76 -37 -157.5t-94.5 -120t-96.5 -52t-74 -18t-62.5 -5.5t-39.5 -1l-14 1l-16 2v146h35h20q9 2 54.5 8.5t90 46t52.5 89.5t8 71q0 93 -65.5 154.5
t-166.5 61.5q-20 0 -30.5 -1.5t-20 -3t-20.5 -4.5v-571z" />
    <glyph glyph-name="E" unicode="E" horiz-adv-x="483" 
d="M476 0h-440v720h387v-151h-214v-65h164v-144h-164v-216h267v-144z" />
    <glyph glyph-name="F" unicode="F" horiz-adv-x="408" 
d="M209 0h-173v720h341v-151h-168v-94h213v-144h-213v-331z" />
    <glyph glyph-name="G" unicode="G" horiz-adv-x="702" 
d="M477 726l22 -4v-145q-30 6 -57 6q-81 0 -133 -23.5t-82.5 -72t-36.5 -105.5q0 -50 10.5 -90.5t50.5 -90.5t93 -57t71 -7q44 0 76 20v310l173 -1v-418q-33 -21 -64 -32t-95.5 -22.5t-95.5 -11.5q-25 0 -71.5 6.5t-86.5 22.5t-71 38t-40.5 30t-40.5 40t-55 87t-24 131
q0 137 51 214.5t101 112.5t110.5 51.5t117.5 16.5q35 0 77 -6z" />
    <glyph glyph-name="H" unicode="H" horiz-adv-x="628" 
d="M36 0v720h173v-720h-173zM420 371l-168 -2v158l168 1v192h172v-720h-172v371z" />
    <glyph glyph-name="I" unicode="I" horiz-adv-x="245" 
d="M209 0h-173v720h173v-720z" />
    <glyph glyph-name="J" unicode="J" horiz-adv-x="247" 
d="M-110 -187l-21 3v142h17q96 0 124 20t28 85v657h173v-671q0 -216 -111 -228.5t-119.5 -13t-15.5 -0.5q-24 0 -75 6z" />
    <glyph glyph-name="K" unicode="K" horiz-adv-x="600" 
d="M209 0h-173v720h173v-720zM323 369h-71v160l102 191h189l-136 -206l13 -1l16 -3l13 -2l13 -3q50 -11 75.5 -49t25.5 -112l1 -28v-316h-173v306q0 63 -68 63z" />
    <glyph glyph-name="L" unicode="L" horiz-adv-x="415" 
d="M415 0h-379v720h173v-576h206v-144z" />
    <glyph glyph-name="M" unicode="M" horiz-adv-x="810" 
d="M187 0h-151v720h190l184 -322l181 322h183v-720h-151v481l-215 -343l-221 344v-482z" />
    <glyph glyph-name="N" unicode="N" horiz-adv-x="672" 
d="M209 0h-173v720h165l262 -444v444h173v-720h-175l-252 428v-428z" />
    <glyph glyph-name="O" unicode="O" horiz-adv-x="827" 
d="M67 182q-37 69 -41.5 108t-5 48.5t-0.5 16.5q0 36 6.5 69.5t12 51t32 79.5t123 120t226.5 58q70 0 124 -17t126.5 -67.5t98.5 -124t30 -102t4 -63.5q0 -53 -9.5 -92.5t-30 -78.5t-39.5 -63t-55.5 -54t-78.5 -48.5t-88.5 -26.5t-80.5 -8q-75 0 -178.5 32.5t-175.5 161.5z
M193 369q0 -33 2 -45.5t17 -56t75 -86t131 -42.5q6 0 14.5 1t70 9.5t97.5 85.5t36 124q0 70 -31.5 114t-73.5 76t-114 32q-35 0 -111.5 -22.5t-94.5 -97.5t-18 -92z" />
    <glyph glyph-name="P" unicode="P" horiz-adv-x="533" 
d="M36 0v690q45 22 104 33l15 2l27 4l34 4l9 1q9 0 32 -1t30 -1q120 -12 179.5 -72t59.5 -154q0 -97 -63.5 -150.5t-181.5 -53.5h-26v145q6 -1 10.5 -1h9.5q34 0 55 14t25 30.5t4 28.5q0 47 -39 55.5t-50 8.5q-10 0 -24 -3.5t-25 -6.5l-12 -5v-568h-173z" />
    <glyph glyph-name="Q" unicode="Q" horiz-adv-x="833" 
d="M807 301q-14 -92 -61 -157h64v-144h-305l-35 -6q-28 -4 -60 -4q-46 0 -122.5 19.5t-140.5 72t-95 133t-31 141.5q0 26 9.5 82t35 103.5t91 103t131 69t88 15.5t43.5 2h22.5t53.5 -6t78 -19.5t74 -40t63.5 -52t50 -68t38 -84t12.5 -98.5v-39q-3 -16 -4 -23zM193 364
q0 -106 55.5 -151.5t94 -58t83.5 -12.5q58 0 102.5 26t78 78.5t33.5 106.5q0 117 -75 172.5t-146 55.5q-31 0 -86.5 -17t-97.5 -71.5t-42 -128.5z" />
    <glyph glyph-name="R" unicode="R" horiz-adv-x="590" 
d="M209 0h-173v689q72 32 132 38t89 6q62 0 111 -17.5t77.5 -45t37 -59.5t8.5 -53q0 -50 -37 -93l-6 -7l-4 -4q55 -20 82.5 -68.5t27.5 -130.5v-255h-165l-8 4v270l-3 19q-6 22 -23.5 38.5t-31.5 16.5l-71 5v144q4 -1 13 -1q6 0 22 4l14 8q17 10 17 31q0 17 -15.5 29.5
t-45.5 12.5q-15 0 -30 -4l-18 -6v-571z" />
    <glyph glyph-name="S" unicode="S" horiz-adv-x="454" 
d="M14 2v149l41 -7q44 -6 78 -6q72 0 108 25.5t36 70.5q0 14 -3.5 31t-16.5 32t-56 46l-14 10l-63 41q-63 42 -72.5 86t-9.5 66q0 51 32.5 103.5t80 64t65.5 12.5t21 1h75l26 -2v-142l-18 1q-36 0 -53 -1.5t-27.5 -4.5t-22 -10.5t-11.5 -25.5q0 -16 11.5 -27t17.5 -15.5
t17 -11.5l91 -59q41 -26 62.5 -63.5t26.5 -76.5t5 -56q0 -114 -64.5 -166t-116.5 -66t-134 -14q-55 0 -112 15z" />
    <glyph glyph-name="T" unicode="T" horiz-adv-x="461" 
d="M144 569h-151v151h475v-151h-151v-569h-173v569z" />
    <glyph glyph-name="U" unicode="U" horiz-adv-x="633" 
d="M41 201q-3 17 -4 34.5t-1 62.5v422h173v-476q0 -51 27 -79t77 -28q13 0 42 3.5t49.5 27t20.5 76.5v476h172v-446q0 -75 -13 -118.5t-47.5 -85t-90 -63t-138.5 -21.5q-57 0 -115 19.5t-98 66.5t-54 129z" />
    <glyph glyph-name="V" unicode="V" horiz-adv-x="679" 
d="M235 0l-257 720h175l183 -553l190 553h175l-265 -720h-201z" />
    <glyph glyph-name="W" unicode="W" horiz-adv-x="954" 
d="M215 0l-229 720h158l158 -520l173 412l184 -411l151 519h158l-222 -720h-165l-102 255l-99 -255h-165z" />
    <glyph glyph-name="X" unicode="X" horiz-adv-x="698" 
d="M156 0h-178l264 402l-212 318h197l124 -201l129 201h178l-216 -315l278 -405h-198l-191 285z" />
    <glyph glyph-name="Y" unicode="Y" horiz-adv-x="589" 
d="M213 382l-235 338h196l124 -206l126 206h187l-225 -339v-381h-173v382z" />
    <glyph glyph-name="Z" unicode="Z" horiz-adv-x="492" 
d="M485 0h-478v167l253 402h-208v151h382v-160l-249 -416h300v-144z" />
    <glyph glyph-name="backslash" unicode="\" horiz-adv-x="310" 
d="M146 720l126 -720h-108l-126 720h108z" />
    <glyph glyph-name="underscore" unicode="_" horiz-adv-x="576" 
d="M576 0h-576v29h576v-29z" />
    <glyph glyph-name="grave" unicode="`" horiz-adv-x="236" 
d="M99 615l-137 169h151l76 -169h-90z" />
    <glyph glyph-name="a" unicode="a" horiz-adv-x="582" 
d="M266 395q19 0 39 -1t41 -4v-127l-34 1q-42 0 -65 -3.5t-40 -11t-27.5 -23t-10.5 -32.5q0 -15 10 -31.5t38 -27t75 -10.5q59 0 101 26v217q0 45 -18.5 61.5t-66.5 16.5l-56 -2h-8q-18 0 -40 -4t-34 -6v130l17 4l15 4l14 2l17 3q48 7 92 7q97 0 149.5 -38t66.5 -111l3 -33
v-366q-35 -16 -68.5 -24.5t-103.5 -17.5q-26 -2 -38 -3t-22 -1q-146 0 -202 41.5t-72.5 76.5t-16.5 91q0 94 62 145t183 51z" />
    <glyph glyph-name="b" unicode="b" horiz-adv-x="626" 
d="M36 32v818h151v-714l41 -10q25 -4 54 -4q79 0 121.5 42.5t42.5 118.5q0 161 -154 161q-8 0 -17.5 -1t-14.5 -1l-30 -5v133l35 4q27 3 51 3q256 0 271.5 -135.5t16 -144.5t0.5 -15q0 -28 -4 -52.5t-18 -64t-33.5 -66.5t-57 -55t-90 -44.5t-118.5 -16.5t-135 14.5
t-112 34.5z" />
    <glyph glyph-name="c" unicode="c" horiz-adv-x="496" 
d="M406 574l14 -3v-131l-40 5l-30 4h-6l-38 -4q-50 -8 -78.5 -33.5t-40.5 -59t-12 -73.5q0 -67 50 -108.5t139 -41.5q49 0 102 13l28 7v-137q-29 -11 -67.5 -16t-101.5 -5q-13 0 -26 1.5t-83.5 17t-133 90t-62.5 185.5q0 32 8.5 77t35 87t57.5 67t68 40.5t72 20t89 4.5
l40 -4z" />
    <glyph glyph-name="d" unicode="d" horiz-adv-x="616" 
d="M353 574l32 -5l1 -3v-126l-27 4q-92 0 -137.5 -34t-45.5 -109q0 -76 27.5 -114.5t71.5 -50.5t72 -12q25 0 57 6l25 7v713h151v-822q-52 -19 -95 -29t-91 -10l-43 -1q-127 0 -197.5 41.5t-94.5 102t-30.5 90t-6.5 61.5v26t8 78t78.5 127.5t190.5 62.5q25 0 54 -3z" />
    <glyph glyph-name="e" unicode="e" horiz-adv-x="630" 
d="M610 360q3 -11 4 -23t1 -28q0 -25 -6 -51h-395l-1 17q0 41 9 64t32 40l194 2q-7 32 -32.5 48.5t-78.5 16.5q-64 0 -104 -27t-52 -68.5t-12 -66.5q0 -35 19 -73t62.5 -61.5t115.5 -23.5q26 0 66 5l33 5v-136q-54 -14 -108 -14q-121 0 -191 43t-98 84t-38 90t-10 77l2 35
l6 37q12 53 36.5 90.5t86 87t184.5 49.5q29 0 46.5 -4t105.5 -29t123 -186z" />
    <glyph glyph-name="f" unicode="f" horiz-adv-x="330" 
d="M36 0v666l2 26q10 59 36 94t71 55t95 20q20 0 46 -3l26 -5v-133h-76q-22 0 -35.5 -14.5t-13.5 -37.5v-99h179v-137h-179v-432h-151z" />
    <glyph glyph-name="g" unicode="g" horiz-adv-x="565" 
d="M345 578l29 -7q22 28 51.5 40.5t78.5 12.5l26 -2v-129q-9 0 -20.5 -5.5t-17.5 -9.5l15 -24q29 -52 29 -107l-2 -36l-3 -20l-1 -7q-5 -27 -26.5 -64t-70 -65.5t-95 -35t-67.5 -6.5q-25 0 -51 5t-99 33.5t-86.5 95.5t-13.5 91q0 49 39 133.5t112.5 98.5t104.5 14
q32 0 68 -6zM262 -53q-72 9 -104.5 15.5t-71.5 20.5l31 129q44 -19 93 -28t144 -9l31 -3q76 -17 117 -62t41 -108q0 -23 -9 -59.5t-38.5 -66t-69 -42t-80.5 -15.5t-89 -3l-26 3v131l18 -2h55q28 0 38 2.5t26 12.5t16 32q0 15 -9 24.5t-21.5 14.5t-36.5 8l-20 2zM176 331
q9 -63 52 -73.5t58 -10.5q7 0 14.5 1.5t44 17t36.5 79.5q0 16 -5.5 41t-29 45.5t-61.5 20.5q-18 0 -64.5 -13.5t-46.5 -88.5q0 -13 2 -19z" />
    <glyph glyph-name="h" unicode="h" horiz-adv-x="579" 
d="M36 0v850h151v-286l36 9q56 12 102 12q106 0 162 -61t56 -172v-352h-151v368q0 22 -11.5 41.5t-32.5 30.5t-52 11q-38 0 -86 -19l-12 -4l-10 -5v-423h-152z" />
    <glyph glyph-name="i" unicode="i" horiz-adv-x="225" 
d="M187 0h-151v569h151v-569zM96 655q-27 4 -46.5 21t-22.5 31t-3 23q0 20 16 50t68 30h12q9 -2 26.5 -4.5t35.5 -22.5t18 -49v-16q-3 -8 -7 -21t-26.5 -28t-55.5 -15q-10 0 -15 1z" />
    <glyph glyph-name="j" unicode="j" 
d="M0 -298q-29 0 -46.5 2.5t-39.5 11.5v126l11 -1h38q23 0 38.5 6.5t24.5 20.5t9 39v662h152v-682l-3 -30q-28 -142 -184 -155zM93 655q-27 4 -47 21t-23 34t-3 22q0 18 16.5 48t67.5 30h12q9 -2 26.5 -4.5t35.5 -23.5t18 -49q0 -12 -5 -30.5t-27.5 -33.5t-55.5 -15
q-10 0 -15 1z" />
    <glyph glyph-name="k" unicode="k" horiz-adv-x="578" 
d="M187 0h-151v850h151v-850zM328 300l-98 1v134l106 134h172l-126 -161l71 2q16 0 34 -11.5t32 -31.5t18.5 -41t4.5 -60v-266h-149v197q0 60 -13.5 81.5t-51.5 21.5z" />
    <glyph glyph-name="l" unicode="l" 
d="M36 0v850h151v-850h-151z" />
    <glyph glyph-name="m" unicode="m" horiz-adv-x="893" 
d="M187 0h-151v520l24 10l13 5l36 15q13 6 30.5 10.5t48.5 10.5l43 7q43 5 70 5q45 0 81 -10.5t65 -32.5l15 6l16 7l16 5l17 6q28 9 61 13.5t66 4.5l29 -2q106 -11 148 -64t42 -175v-341h-173v389q0 24 -23 39t-53 15q-13 0 -28 -3q-36 -4 -69 -25v-415h-151v361
q0 46 -15.5 64.5t-56.5 18.5q-16 0 -32 -2t-45 -11l-24 -10v-421z" />
    <glyph glyph-name="n" unicode="n" horiz-adv-x="571" 
d="M187 0h-151v520l35 15l16 6l20 6l44 13q85 21 143 21q124 0 177.5 -43.5t62.5 -147.5l1 -23v-367h-151v365l-1 14q-5 35 -23.5 49.5t-59.5 14.5q-18 0 -42 -2.5t-35.5 -4.5t-35.5 -10v-426z" />
    <glyph glyph-name="o" unicode="o" horiz-adv-x="661" 
d="M25 242q-3 20 -3 41v12q0 73 36 135t105 108t168 46q125 0 216.5 -86t91.5 -213q0 -20 -9.5 -87.5t-94.5 -139t-206 -71.5q-120 0 -204 71t-100 184zM182 290q0 -55 34.5 -108.5t113.5 -53.5q81 0 111.5 49t34 74.5t3.5 33.5q0 56 -40 107t-108 51q-13 0 -46 -6
t-60.5 -41.5t-35 -57.5t-7.5 -48z" />
    <glyph glyph-name="p" unicode="p" horiz-adv-x="621" 
d="M36 -281v813q31 16 70.5 27.5t85.5 16.5t60 5.5t23 0.5q89 0 154 -27.5t97 -68t47.5 -79.5t20.5 -76.5t5 -59.5q0 -50 -24 -124t-81 -105.5t-92.5 -39t-89.5 -7.5q-49 0 -82 9v126l26 -2q82 0 120 17.5t49.5 50t13 51t1.5 53.5q0 20 -7 39q-10 39 -27 58t-53 33t-93 14
q-36 0 -73 -14v-711h-151z" />
    <glyph glyph-name="q" unicode="q" horiz-adv-x="625" 
d="M440 575q91 -13 148 -42v-814h-151v711q-32 14 -77 14q-19 0 -100.5 -11.5t-81.5 -131.5q0 -97 41.5 -136.5t147.5 -39.5l27 2v-127l-24 -2q-32 -4 -64 -4q-16 0 -34.5 2t-54.5 8t-71 26.5t-68 61.5t-42 78.5t-12 55t-3 30.5q0 91 22 150.5t75 104.5l23 17q29 20 62.5 32
t71 17.5t71.5 5.5q33 0 47 -1.5t47 -6.5z" />
    <glyph glyph-name="r" unicode="r" horiz-adv-x="301" 
d="M36 0v518l24 14q90 51 181 51q22 0 45 -3l29 -4v-136l-11 1l-31 1q-35 0 -52 -5t-34 -22v-415h-151z" />
    <glyph glyph-name="s" unicode="s" horiz-adv-x="432" 
d="M150 -10q-70 0 -136 19v132l21 -5q56 -12 103 -12q40 0 80.5 11.5t40.5 47.5q0 13 -6 26t-14.5 20.5t-26.5 16.5l-95 49q-8 4 -15 9.5t-23 21t-26 37.5t-10 49q0 52 14.5 80.5t46 49t61.5 29.5t68 9q27 0 52 -2t49 -9v-124q-25 4 -40.5 5t-33.5 1h-12h-19l-17 -3
q-22 -6 -22 -28q0 -9 5 -16.5t20 -16.5l46 -19l63 -26q27 -11 48.5 -33.5t33.5 -49t12 -60.5v-13q0 -59 -35.5 -105.5t-80.5 -63.5t-76.5 -22t-75.5 -5z" />
    <glyph glyph-name="t" unicode="t" horiz-adv-x="315" 
d="M39 133l-3 33v554h151v-151h164v-137h-164v-239q0 -33 23 -47t77 -14l18 2v-134l-37 -6q-8 0 -19.5 -1t-22.5 -1q-85 0 -130.5 35.5t-56.5 105.5z" />
    <glyph glyph-name="u" unicode="u" horiz-adv-x="572" 
d="M38 159l-2 22v388h151v-375q0 -10 3 -18.5t12 -21.5t25.5 -20.5t44.5 -7.5q18 0 47 3t66 20v420h151v-515q-33 -17 -69 -29.5t-97.5 -23.5t-115.5 -11q-102 0 -153.5 43t-62.5 126z" />
    <glyph glyph-name="v" unicode="v" horiz-adv-x="516" 
d="M178 0l-192 569h151l122 -377l121 377h150l-191 -569h-161z" />
    <glyph glyph-name="w" unicode="w" horiz-adv-x="808" 
d="M161 0l-175 569h149l108 -376l156 365l159 -365l114 376h150l-184 -569h-149l-86 236l-102 -236h-140z" />
    <glyph glyph-name="x" unicode="x" horiz-adv-x="530" 
d="M167 0h-174l190 291l-184 278h170l97 -164l97 164h171l-180 -278l183 -291h-171l-95 177z" />
    <glyph glyph-name="y" unicode="y" horiz-adv-x="570" 
d="M36 187v382h151v-352l2 -16q7 -37 31.5 -51.5t78.5 -14.5q15 0 31 3.5t28 6.5l24 7v417h152v-677v-11q-3 -13 -11.5 -55.5t-66.5 -74.5t-180 -32l-29 3v135l18 -3q8 0 19 -1t21 -1q45 0 61.5 15.5t16.5 54.5v96q-22 -7 -40 -10.5t-46 -6.5t-51 -3q-63 0 -109 24.5
t-69.5 58t-30.5 88.5z" />
    <glyph glyph-name="z" unicode="z" horiz-adv-x="441" 
d="M434 0h-427v136l207 299l-154 -3v137h324v-133l-209 -298h259v-138z" />
    <glyph glyph-name="braceleft" unicode="{" horiz-adv-x="339" 
d="M62 365q41 18 41 67v321q0 40 23.5 62.5t65.5 22.5h109v-65h-13q-33 0 -45 -11t-12 -43v-272q0 -27 -14 -48t-32.5 -29t-33.5 -10q15 -1 32.5 -9t32.5 -30t15 -48v-272q0 -30 12 -42t45 -12h13v-65h-109q-43 0 -66 22t-23 63v321q0 31 -18.5 51.5t-46.5 20.5q11 0 24 5z
" />
    <glyph glyph-name="bar" unicode="|" horiz-adv-x="184" 
d="M38 720h108v-720h-108v720z" />
    <glyph glyph-name="braceright" unicode="}" horiz-adv-x="339" 
d="M38 -53h12q33 0 45 11t12 43v272q0 57 32.5 71t47.5 16q-15 2 -32.5 9.5t-32.5 29.5t-15 48v272q0 30 -12 42t-45 12h-12v65h108q43 0 66.5 -22.5t23.5 -62.5v-321q0 -32 18 -52t47 -20q-12 0 -38.5 -11.5t-26.5 -60.5v-321q0 -40 -23.5 -62.5t-66.5 -22.5h-108v65z" />
    <glyph glyph-name="Euro" horiz-adv-x="543" 
d="M441 732l35 -4v-145l-29 2q-121 0 -190 -54t-69 -153q0 -71 21.5 -118.5t59.5 -75t63.5 -37t62.5 -9.5h14q31 0 50 1.5t51 7.5l26 6v-148l-28 -8q-31 -7 -68 -9t-67 -2q-84 9 -134 32t-80.5 47.5t-66 70.5t-53 97.5t-17.5 115.5q0 128 57.5 218.5t133 122t120.5 37
t108 5.5zM-16 390l27 63h385l-27 -63h-385zM-16 264l27 63h331l-27 -63h-331z" />
    <glyph glyph-name="Euro" unicode="&#x20ac;" horiz-adv-x="543" 
d="M441 732l35 -4v-145l-29 2q-121 0 -190 -54t-69 -153q0 -71 21.5 -118.5t59.5 -75t63.5 -37t62.5 -9.5h14q31 0 50 1.5t51 7.5l26 6v-148l-28 -8q-31 -7 -68 -9t-67 -2q-84 9 -134 32t-80.5 47.5t-66 70.5t-53 97.5t-17.5 115.5q0 128 57.5 218.5t133 122t120.5 37
t108 5.5zM-16 390l27 63h385l-27 -63h-385zM-16 264l27 63h331l-27 -63h-331z" />
    <glyph glyph-name="nonbreakingspace" unicode="&#xa0;" horiz-adv-x="500" 
 />
    <glyph glyph-name="exclamdown" unicode="&#xa1;" horiz-adv-x="297" 
d="M173 566q-15 -3 -28 -3q-43 0 -69 24t-26 61v9q6 55 41.5 64t47.5 9t20 1q65 -6 77 -37.5t12 -46.5q0 -36 -26.5 -56.5t-48.5 -24.5zM218 0h-144v519h144v-519z" />
    <glyph glyph-name="cent" unicode="&#xa2;" horiz-adv-x="462" 
d="M176 642l19 6v72h147v-65l9 -1l10 -1l15 -2l15 -3v-125l-33 6q-23 3 -42 3q-61 0 -111.5 -36.5t-50.5 -127.5q0 -74 47 -113.5t140 -39.5h26q13 2 18 2q16 0 28 2t49 13v-138q-21 -7 -36.5 -11t-37.5 -7l-27 -5l-17 -3v-68h-143v85q-35 9 -64 29.5t-65.5 60.5t-54 89
t-17.5 106q0 21 5.5 69.5t51.5 111t119 91.5z" />
    <glyph glyph-name="sterling" unicode="&#xa3;" horiz-adv-x="579" 
d="M330 0h-330v151h12q47 0 68.5 18t26.5 60l1 13v59h-71v151h69v47l3 23q11 107 76 156.5t201 49.5h21t35 -4v-163h-35q-57 0 -80 -8t-36 -30q-7 -9 -11 -30l-1 -11l-1 -4v-24h88v-151h-85v-52q0 -18 -9 -46.5t-34 -52.5h79h16q37 4 55.5 21t26.5 57l3 14l2 12l3 39h156
v-15q0 -63 -11.5 -101.5t-61 -108.5t-176.5 -70z" />
    <glyph glyph-name="currency" unicode="&#xa4;" horiz-adv-x="457" 
d="M96 268q-29 42 -29 95q0 50 29 93l-57 55q16 22 37 40l59 -59q41 31 96 31q50 0 92 -30l58 59q25 -17 38 -42l-56 -54q16 -22 23 -44.5t7 -48.5q0 -53 -32 -97l58 -57l-8 -10l-9 -9l-22 -20l-57 58q-41 -31 -94 -31t-93 31l-61 -58l-9 10l-9 9l-10 11l-9 11zM230 252
q44 0 75.5 31.5t31.5 77.5q0 44 -31.5 75.5t-75.5 31.5t-76 -32t-32 -76q0 -45 31.5 -76.5t76.5 -31.5z" />
    <glyph glyph-name="yen" unicode="&#xa5;" horiz-adv-x="677" 
d="M257 382l-235 338h196l124 -206l126 206h187l-225 -339v-51h210v-57l-211 1v-29l210 -1v-56h-210v-188h-172v188h-217v58l217 -1v29h-216v57l216 -1v52z" />
    <glyph glyph-name="dieresis" unicode="&#xa8;" horiz-adv-x="401" 
d="M71 615q-27 4 -46.5 21t-22.5 31t-3 23q0 20 16 49.5t66 29.5q6 0 14 -1t26 -3.5t36 -22t18 -48.5v-16q-3 -8 -7 -21t-26.5 -28t-54.5 -15q-10 0 -16 1zM297 615q-27 4 -46.5 20.5t-22.5 31t-3 23.5q0 20 17 49.5t65 29.5q6 0 14 -1t26 -3t36 -22t18 -49v-16
q-3 -8 -7 -21.5t-25.5 -28t-54.5 -14.5q-11 0 -17 1z" />
    <glyph glyph-name="copyright" unicode="&#xa9;" horiz-adv-x="862" 
d="M167 624q54 54 122.5 81.5t142.5 27.5q73 0 141 -27.5t149.5 -109t81.5 -235.5q0 -156 -109 -265t-264 -109t-264 109t-109 265q0 74 28 142t81 121zM210 134q44 -45 102.5 -68.5t119.5 -23.5t118.5 23.5t102.5 69.5t68.5 104t23.5 122q0 131 -68.5 201t-126.5 93.5
t-119 23.5t-118 -23t-102.5 -69.5t-69.5 -104t-24 -121.5t24 -122.5t69 -104.5zM561 485q-33 27 -63 33t-47 6q-60 0 -105.5 -38.5t-51.5 -77.5t-6 -53q0 -61 38 -107t77 -52t48 -6q47 0 89 25l20 16l37 -54q-32 -26 -68 -39.5t-78 -13.5q-101 0 -169 66t-68 162q0 22 4 46
t20.5 68.5t75.5 84.5t132 40q21 0 62 -6.5t90 -46.5z" />
    <glyph glyph-name="ordfeminine" unicode="&#xaa;" horiz-adv-x="447" 
d="M409 330v-77h-361v77h361zM324 720h84l1 -342h-86v65l-3 -7q-15 -30 -46.5 -48t-72.5 -18q-15 0 -52.5 7.5t-74 55t-36.5 112.5v26q3 12 9 40.5t33 60t58.5 45.5t64.5 14q74 0 112 -56l5 -8l4 -8v61zM127 529q12 -70 49.5 -77t51.5 -7q6 0 44 7.5t45.5 45.5t7.5 53
q0 7 -4 30t-24 45t-41 27t-31 5q-37 0 -63.5 -23.5t-34.5 -63.5l-2 -21z" />
    <glyph glyph-name="guillemotleft" unicode="&#xab;" horiz-adv-x="530" 
d="M213 -13l-191 231v87l191 231l96 -62l-173 -213l173 -212zM413 -13l-191 231v87l191 231l96 -62l-173 -213l173 -212z" />
    <glyph glyph-name="logicalnot" unicode="&#xac;" horiz-adv-x="604" 
d="M38 468h528v-252h-84v144h-444v108z" />
    <glyph glyph-name="registered" unicode="&#xae;" horiz-adv-x="862" 
d="M167 624q54 54 122.5 81.5t142.5 27.5q73 0 141 -27.5t149.5 -109t81.5 -235.5q0 -156 -109 -265t-264 -109t-264 109t-109 265q0 74 28 142t81 121zM210 134q44 -45 102.5 -68.5t119.5 -23.5t118.5 23.5t102.5 69.5t68.5 104t23.5 122q0 131 -68.5 201t-126.5 93.5
t-119 23.5t-118 -23t-102.5 -69.5t-69.5 -104t-24 -121.5t24 -122.5t69 -104.5zM306 589h121q69 0 103 -26t40 -57t6 -46q0 -46 -26 -78t-70 -40l-13 -1l134 -201h-85l-138 214v-214h-72v449zM415 381q87 0 87 73q0 76 -83 76h-41v-149h37z" />
    <glyph glyph-name="degree" unicode="&#xb0;" 
d="M33 638q-33 33 -33 79t33 79t80 33q45 0 77.5 -33t32.5 -80q0 -44 -32.5 -77.5t-79.5 -33.5q-46 0 -78 33zM53 718q0 -25 16.5 -42t41.5 -17q24 0 41 17t17 42q0 23 -16.5 40t-41.5 17t-41.5 -16.5t-16.5 -40.5z" />
    <glyph glyph-name="plusminus" unicode="&#xb1;" horiz-adv-x="549" 
d="M506 87v-68h-462v68h462zM309 453v-122h197v-68h-197v-122h-68v122h-197v68h197v122h68z" />
    <glyph glyph-name="acute" unicode="&#xb4;" 
d="M129 614h-89l74 171h152z" />
    <glyph glyph-name="mu" unicode="&#xb5;" horiz-adv-x="576" 
d="M166 449v-296q0 -71 14 -95t50 -24q57 0 95 81t38 204v130h92v-328q0 -45 9.5 -66t28.5 -21q20 0 31.5 20.5t11.5 61.5v14h21l1 -9v-13q0 -55 -23.5 -86t-66.5 -31q-49 0 -75.5 43t-26.5 129q-23 -89 -61.5 -130.5t-96.5 -41.5q-42 0 -73 26q-28 27 -40 77l-1 -28
q0 -65 32 -142t32 -91q0 -20 -11 -31t-31 -11q-23 0 -33 17t-10 53l2 58l2 89l-1 101l-2 95v245h92z" />
    <glyph glyph-name="paragraph" unicode="&#xb6;" horiz-adv-x="606" 
d="M568 720v-65h-326q-58 0 -99 -42t-41 -101q0 -58 41 -99t99 -41h65v233h69v-605h-69v307h-65q-84 0 -144 60t-60 146t59.5 146.5t145.5 60.5h325zM439 605h69v-605h-69v605z" />
    <glyph glyph-name="cedilla" unicode="&#xb8;" horiz-adv-x="110" 
d="M57 -149h-57v94h110v-87q0 -89 -93 -101l-13 -2v45l8 1q43 6 46 40z" />
    <glyph glyph-name="ordmasculine" unicode="&#xba;" horiz-adv-x="447" 
d="M44 330h360v-77h-360v77zM42 589q13 65 63 105t117 40q18 0 61.5 -8t84.5 -58t41 -117q0 -7 -0.5 -15.5t-8.5 -48t-58.5 -80t-118.5 -40.5q-79 0 -132 53t-53 131v15.5t4 22.5zM125 531q11 -69 50 -78t49 -9q36 0 63.5 24t32 51t4.5 34q0 39 -22 66t-45.5 32.5t-33.5 5.5
q-13 0 -19.5 -1.5t-38 -15.5t-40.5 -69q-2 -5 -2 -11v-9q0 -13 2 -20z" />
    <glyph glyph-name="guillemotright" unicode="&#xbb;" horiz-adv-x="530" 
d="M325 535l191 -231v-87l-191 -231l-96 62l173 213l-173 212zM125 535l191 -231v-87l-191 -231l-96 62l173 213l-173 212z" />
    <glyph glyph-name="questiondown" unicode="&#xbf;" horiz-adv-x="437" 
d="M38 233q10 22 23 40.5t24 27.5l87 70q14 12 20.5 33t6.5 67l1 47h151q3 -18 4 -27t1 -27q0 -71 -15.5 -112t-39.5 -63.5t-41 -36t-39 -29.5l-18 -20q-4 -4 -7 -12t-3 -11q0 -24 25.5 -32t40.5 -8l28 -1l13 -1q58 0 115 12v-135q-32 -15 -68 -20.5t-92 -5.5
q-86 0 -138 26.5t-73.5 69t-21.5 79.5q0 34 16 69zM296 566q-15 -3 -29 -3q-43 0 -68.5 23.5t-25.5 61.5v9q6 55 40.5 63.5t46.5 9t22 1.5q63 -6 76 -37.5t13 -44.5q0 -38 -26 -58t-49 -25z" />
    <glyph glyph-name="Agrave" unicode="&#xc0;" horiz-adv-x="690" 
d="M161 0h-175l286 720h189l243 -720h-174l-70 223l-163 3l52 151h63l-50 181zM326 773l-137 169h151l76 -169h-90z" />
    <glyph glyph-name="Aacute" unicode="&#xc1;" horiz-adv-x="690" 
d="M161 0h-175l286 720h189l243 -720h-174l-70 223l-163 3l52 151h63l-50 181zM363 772h-89l74 171h152z" />
    <glyph glyph-name="Acircumflex" unicode="&#xc2;" horiz-adv-x="690" 
d="M161 0h-175l286 720h189l243 -720h-174l-70 223l-163 3l52 151h63l-50 181zM275 773h-118l116 169h145l116 -169h-117l-71 121z" />
    <glyph glyph-name="Atilde" unicode="&#xc3;" horiz-adv-x="690" 
d="M161 0h-175l286 720h189l243 -720h-174l-70 223l-163 3l52 151h63l-50 181zM232 774h-64l2 21q20 101 98 101q21 0 42 -7l16 -5l23 -8l3 -1l31 -10q30 -9 38 -8q24 0 31.5 4.5t5.5 16.5h64l-3 -28q-17 -79 -94 -79q-13 0 -21 1t-25 6l-23 7l-18 6l-36 12q-18 6 -31 6
q-29 0 -38 -28z" />
    <glyph glyph-name="Adieresis" unicode="&#xc4;" horiz-adv-x="690" 
d="M161 0h-175l286 720h189l243 -720h-174l-70 223l-163 3l52 151h63l-50 181zM241 771q-27 4 -46.5 21t-22.5 31t-3 23q0 21 16 50.5t68 29.5h12q9 -2 26.5 -4.5t35.5 -22.5t18 -49v-16q-3 -8 -7 -21t-26.5 -28t-55.5 -15q-10 0 -15 1zM467 771q-27 4 -46.5 21t-22.5 31
t-3 23q0 20 16.5 50t67.5 30h12q9 -2 26.5 -4.5t35.5 -22.5t18 -49v-16q-3 -8 -7 -21t-26.5 -28t-55.5 -15q-10 0 -15 1z" />
    <glyph glyph-name="Aring" unicode="&#xc5;" horiz-adv-x="690" 
d="M161 0h-175l286 720h189l243 -720h-174l-70 223l-163 3l52 151h63l-50 181zM290 783q-32 32 -32 79q0 46 32 79t80 33q46 0 78.5 -33t32.5 -80q0 -45 -33 -78t-80 -33q-45 0 -78 33zM311 863q0 -24 16.5 -41.5t41.5 -17.5q24 0 40.5 17t16.5 42t-16.5 41.5t-41.5 16.5
q-23 0 -40 -17t-17 -41z" />
    <glyph glyph-name="AE" unicode="&#xc6;" horiz-adv-x="930" 
d="M161 0h-175l286 720h597v-151h-361l26 -64l286 -1v-144l-238 2l73 -218h268v-144h-393l-70 223l-163 3l52 151h63l-50 181z" />
    <glyph glyph-name="Ccedilla" unicode="&#xc7;" horiz-adv-x="543" 
d="M441 732l35 -4v-145l-29 2q-121 0 -190 -54t-69 -153q0 -71 21.5 -118.5t59.5 -75t63.5 -37t62.5 -9.5h14q31 0 50 1.5t51 7.5l26 6v-148l-28 -8q-31 -7 -68 -9t-67 -2q-84 9 -134 32t-80.5 47.5t-66 70.5t-53 97.5t-17.5 115.5q0 128 57.5 218.5t133 122t120.5 37
t108 5.5zM362 -149h-57v94h110v-87q0 -89 -93 -101l-13 -2v45l8 1q42 6 46 40z" />
    <glyph glyph-name="Egrave" unicode="&#xc8;" horiz-adv-x="483" 
d="M476 0h-440v720h387v-151h-214v-65h164v-144h-164v-216h267v-144zM222 773l-137 169h151l76 -169h-90z" />
    <glyph glyph-name="Eacute" unicode="&#xc9;" horiz-adv-x="483" 
d="M476 0h-440v720h387v-151h-214v-65h164v-144h-164v-216h267v-144zM259 772h-89l74 171h152z" />
    <glyph glyph-name="Ecircumflex" unicode="&#xca;" horiz-adv-x="483" 
d="M476 0h-440v720h387v-151h-214v-65h164v-144h-164v-216h267v-144zM171 773h-118l116 169h145l116 -169h-117l-71 121z" />
    <glyph glyph-name="Edieresis" unicode="&#xcb;" horiz-adv-x="483" 
d="M476 0h-440v720h387v-151h-214v-65h164v-144h-164v-216h267v-144zM112 773q-27 4 -46.5 21t-22.5 31t-3 23q0 20 16 49.5t66 29.5q6 0 14 -1t26 -3.5t36 -22t18 -48.5v-16q-3 -8 -7 -21t-26.5 -28t-54.5 -15q-10 0 -16 1zM338 773q-27 4 -46.5 20.5t-22.5 31t-3 23.5
q0 20 17 49.5t65 29.5q6 0 14 -1t26 -3t36 -22t18 -49v-16q-3 -8 -7 -21.5t-25.5 -28t-54.5 -14.5q-11 0 -17 1z" />
    <glyph glyph-name="Igrave" unicode="&#xcc;" horiz-adv-x="245" 
d="M209 0h-173v720h173v-720zM103 773l-137 169h151l76 -169h-90z" />
    <glyph glyph-name="Iacute" unicode="&#xcd;" horiz-adv-x="245" 
d="M209 0h-173v720h173v-720zM140 772h-89l74 171h152z" />
    <glyph glyph-name="Icircumflex" unicode="&#xce;" horiz-adv-x="245" 
d="M209 0h-173v720h173v-720zM52 773h-118l116 169h145l116 -169h-117l-71 121z" />
    <glyph glyph-name="Idieresis" unicode="&#xcf;" horiz-adv-x="245" 
d="M209 0h-173v720h173v-720zM-7 773q-27 4 -46.5 21t-22.5 31t-3 23q0 20 16 49.5t66 29.5q6 0 14 -1t26 -3.5t36 -22t18 -48.5v-16q-3 -8 -7 -21t-26.5 -28t-54.5 -15q-10 0 -16 1zM219 773q-27 4 -46.5 20.5t-22.5 31t-3 23.5q0 20 17 49.5t65 29.5q6 0 14 -1t26 -3
t36 -22t18 -49v-16q-3 -8 -7 -21.5t-25.5 -28t-54.5 -14.5q-11 0 -17 1z" />
    <glyph glyph-name="Ntilde" unicode="&#xd1;" horiz-adv-x="672" 
d="M209 0h-173v720h165l262 -444v444h173v-720h-175l-252 428v-428zM223 774h-64l2 21q20 101 98 101q21 0 42 -7l16 -5l23 -8l3 -1l31 -10q30 -9 38 -8q24 0 31.5 4.5t5.5 16.5h64l-3 -28q-17 -79 -94 -79q-13 0 -21 1t-25 6l-23 7l-18 6l-36 12q-18 6 -31 6q-29 0 -38 -28
z" />
    <glyph glyph-name="Ograve" unicode="&#xd2;" horiz-adv-x="827" 
d="M67 182q-37 69 -41.5 108t-5 48.5t-0.5 16.5q0 36 6.5 69.5t12 51t32 79.5t123 120t226.5 58q70 0 124 -17t126.5 -67.5t98.5 -124t30 -102t4 -63.5q0 -53 -9.5 -92.5t-30 -78.5t-39.5 -63t-55.5 -54t-78.5 -48.5t-88.5 -26.5t-80.5 -8q-75 0 -178.5 32.5t-175.5 161.5z
M394 773l-137 169h151l76 -169h-90zM193 369q0 -33 2 -45.5t17 -56t75 -86t131 -42.5q6 0 14.5 1t70 9.5t97.5 85.5t36 124q0 70 -31.5 114t-73.5 76t-114 32q-35 0 -111.5 -22.5t-94.5 -97.5t-18 -92z" />
    <glyph glyph-name="Oacute" unicode="&#xd3;" horiz-adv-x="827" 
d="M67 182q-37 69 -41.5 108t-5 48.5t-0.5 16.5q0 36 6.5 69.5t12 51t32 79.5t123 120t226.5 58q70 0 124 -17t126.5 -67.5t98.5 -124t30 -102t4 -63.5q0 -53 -9.5 -92.5t-30 -78.5t-39.5 -63t-55.5 -54t-78.5 -48.5t-88.5 -26.5t-80.5 -8q-75 0 -178.5 32.5t-175.5 161.5z
M431 772h-89l74 171h152zM193 369q0 -33 2 -45.5t17 -56t75 -86t131 -42.5q6 0 14.5 1t70 9.5t97.5 85.5t36 124q0 70 -31.5 114t-73.5 76t-114 32q-35 0 -111.5 -22.5t-94.5 -97.5t-18 -92z" />
    <glyph glyph-name="Ocircumflex" unicode="&#xd4;" horiz-adv-x="827" 
d="M67 182q-37 69 -41.5 108t-5 48.5t-0.5 16.5q0 36 6.5 69.5t12 51t32 79.5t123 120t226.5 58q70 0 124 -17t126.5 -67.5t98.5 -124t30 -102t4 -63.5q0 -53 -9.5 -92.5t-30 -78.5t-39.5 -63t-55.5 -54t-78.5 -48.5t-88.5 -26.5t-80.5 -8q-75 0 -178.5 32.5t-175.5 161.5z
M343 773h-118l116 169h145l116 -169h-117l-71 121zM193 369q0 -33 2 -45.5t17 -56t75 -86t131 -42.5q6 0 14.5 1t70 9.5t97.5 85.5t36 124q0 70 -31.5 114t-73.5 76t-114 32q-35 0 -111.5 -22.5t-94.5 -97.5t-18 -92z" />
    <glyph glyph-name="Otilde" unicode="&#xd5;" horiz-adv-x="827" 
d="M67 182q-37 69 -41.5 108t-5 48.5t-0.5 16.5q0 36 6.5 69.5t12 51t32 79.5t123 120t226.5 58q70 0 124 -17t126.5 -67.5t98.5 -124t30 -102t4 -63.5q0 -53 -9.5 -92.5t-30 -78.5t-39.5 -63t-55.5 -54t-78.5 -48.5t-88.5 -26.5t-80.5 -8q-75 0 -178.5 32.5t-175.5 161.5z
M300 774h-64l2 21q20 101 98 101q21 0 42 -7l16 -5l23 -8l3 -1l31 -10q30 -9 38 -8q24 0 31.5 4.5t5.5 16.5h64l-3 -28q-17 -79 -94 -79q-13 0 -21 1t-25 6l-23 7l-18 6l-36 12q-18 6 -31 6q-29 0 -38 -28zM193 369q0 -33 2 -45.5t17 -56t75 -86t131 -42.5q6 0 14.5 1
t70 9.5t97.5 85.5t36 124q0 70 -31.5 114t-73.5 76t-114 32q-35 0 -111.5 -22.5t-94.5 -97.5t-18 -92z" />
    <glyph glyph-name="Odieresis" unicode="&#xd6;" horiz-adv-x="827" 
d="M67 182q-37 69 -41.5 108t-5 48.5t-0.5 16.5q0 36 6.5 69.5t12 51t32 79.5t123 120t226.5 58q70 0 124 -17t126.5 -67.5t98.5 -124t30 -102t4 -63.5q0 -53 -9.5 -92.5t-30 -78.5t-39.5 -63t-55.5 -54t-78.5 -48.5t-88.5 -26.5t-80.5 -8q-75 0 -178.5 32.5t-175.5 161.5z
M274 774q-27 4 -46.5 21t-22.5 31t-3 23q0 21 16 50.5t68 29.5h12q9 -2 26.5 -4.5t35.5 -22.5t18 -49v-16q-3 -8 -7 -21t-26.5 -28t-55.5 -15q-10 0 -15 1zM500 774q-27 4 -46.5 21t-22.5 31t-3 23q0 20 16.5 50t67.5 30h12q9 -2 26.5 -4.5t35.5 -22.5t18 -49v-16
q-3 -8 -7 -21t-26.5 -28t-55.5 -15q-10 0 -15 1zM193 369q0 -33 2 -45.5t17 -56t75 -86t131 -42.5q6 0 14.5 1t70 9.5t97.5 85.5t36 124q0 70 -31.5 114t-73.5 76t-114 32q-35 0 -111.5 -22.5t-94.5 -97.5t-18 -92z" />
    <glyph glyph-name="Oslash" unicode="&#xd8;" horiz-adv-x="835" 
d="M25 -1l-18 23l110 96q-41 42 -67.5 109.5t-26.5 128.5q0 37 8.5 78t38.5 111.5t127 130.5l19 10q45 25 96 36t112 11q81 0 136 -20.5t122 -72.5l19 -14l107 93l20 -21l-108 -94l5 -7l10 -14q37 -57 54.5 -112t17.5 -113q0 -94 -30 -151.5t-50 -82t-56.5 -54.5t-77 -48
t-88 -26t-81.5 -8q-55 0 -99.5 9t-95 33.5t-81.5 54.5l-5 4l-7 7zM263 207l3 -5q8 -11 24.5 -22t53 -25.5t77.5 -14.5q27 0 50 5t51 19.5t53.5 41.5t44.5 67t19 85q0 57 -34 121l-10 16zM576 517l-8 6l-7 6l-14 10q-67 45 -122 45q-32 0 -85 -18t-85 -53t-45.5 -84.5
t-13.5 -71.5q0 -7 1 -15t5 -35.5t33 -64.5l5 -6l6 -6z" />
    <glyph glyph-name="Ugrave" unicode="&#xd9;" horiz-adv-x="633" 
d="M41 201q-3 17 -4 34.5t-1 62.5v422h173v-476q0 -51 27 -79t77 -28q13 0 42 3.5t49.5 27t20.5 76.5v476h172v-446q0 -75 -13 -118.5t-47.5 -85t-90 -63t-138.5 -21.5q-57 0 -115 19.5t-98 66.5t-54 129zM297 773l-137 169h151l76 -169h-90z" />
    <glyph glyph-name="Uacute" unicode="&#xda;" horiz-adv-x="633" 
d="M41 201q-3 17 -4 34.5t-1 62.5v422h173v-476q0 -51 27 -79t77 -28q13 0 42 3.5t49.5 27t20.5 76.5v476h172v-446q0 -75 -13 -118.5t-47.5 -85t-90 -63t-138.5 -21.5q-57 0 -115 19.5t-98 66.5t-54 129zM334 772h-89l74 171h152z" />
    <glyph glyph-name="Ucircumflex" unicode="&#xdb;" horiz-adv-x="633" 
d="M41 201q-3 17 -4 34.5t-1 62.5v422h173v-476q0 -51 27 -79t77 -28q13 0 42 3.5t49.5 27t20.5 76.5v476h172v-446q0 -75 -13 -118.5t-47.5 -85t-90 -63t-138.5 -21.5q-57 0 -115 19.5t-98 66.5t-54 129zM246 773h-118l116 169h145l116 -169h-117l-71 121z" />
    <glyph glyph-name="Udieresis" unicode="&#xdc;" horiz-adv-x="633" 
d="M41 201q-3 17 -4 34.5t-1 62.5v422h173v-476q0 -51 27 -79t77 -28q13 0 42 3.5t49.5 27t20.5 76.5v476h172v-446q0 -75 -13 -118.5t-47.5 -85t-90 -63t-138.5 -21.5q-57 0 -115 19.5t-98 66.5t-54 129zM197 769q-27 4 -46.5 21t-22.5 31t-3 23q0 20 16.5 50t67.5 30h12
q9 -2 26.5 -4t35.5 -22t18 -49v-16q-3 -8 -7 -22t-26.5 -28.5t-55.5 -14.5q-10 0 -15 1zM424 769q-60 8 -66.5 37t-6.5 38q0 20 16.5 50t67.5 30h12q9 -2 26.5 -4t35.5 -22t18 -49v-16q-3 -8 -7 -21.5t-26.5 -28.5t-54.5 -15q-10 0 -15 1z" />
    <glyph glyph-name="germandbls" unicode="&#xdf;" horiz-adv-x="644" 
d="M36 0v669l2 29q13 75 65 116t146 41h24h11l44 -4q95 0 133 -35t38 -117l1 -27v-223l-15 1l-21 1h-12h-19l-17 -3q-22 -6 -22 -28q0 -9 5 -16.5t20 -16.5l46 -19l63 -26q27 -11 48.5 -33.5t33.5 -49t12 -61.5v-13q0 -62 -36.5 -107.5t-78 -62t-72 -21t-71.5 -4.5
q-68 0 -134 19v132l20 -5q57 -12 100 -12q12 1 17 1h9q87 7 87 57q0 14 -6 27t-14.5 20.5t-26.5 16.5l-95 49q-8 4 -15 9.5t-23 21t-26 37.5t-10 49q0 51 14.5 80t39 48.5t49.5 19.5v105q0 26 -12.5 40.5t-32.5 14.5h-69q-22 0 -35.5 -14.5t-13.5 -37.5v-668h-151z" />
    <glyph glyph-name="agrave" unicode="&#xe0;" horiz-adv-x="582" 
d="M266 395q19 0 39 -1t41 -4v-127l-34 1q-42 0 -65 -3.5t-40 -11t-27.5 -23t-10.5 -32.5q0 -15 10 -31.5t38 -27t75 -10.5q59 0 101 26v217q0 45 -18.5 61.5t-66.5 16.5l-56 -2h-8q-18 0 -40 -4t-34 -6v130l17 4l15 4l14 2l17 3q48 7 92 7q97 0 149.5 -38t66.5 -111l3 -33
v-366q-35 -16 -68.5 -24.5t-103.5 -17.5q-26 -2 -38 -3t-22 -1q-146 0 -202 41.5t-72.5 76.5t-16.5 91q0 94 62 145t183 51zM272 615l-137 169h151l76 -169h-90z" />
    <glyph glyph-name="aacute" unicode="&#xe1;" horiz-adv-x="582" 
d="M266 395q19 0 39 -1t41 -4v-127l-34 1q-42 0 -65 -3.5t-40 -11t-27.5 -23t-10.5 -32.5q0 -15 10 -31.5t38 -27t75 -10.5q59 0 101 26v217q0 45 -18.5 61.5t-66.5 16.5l-56 -2h-8q-18 0 -40 -4t-34 -6v130l17 4l15 4l14 2l17 3q48 7 92 7q97 0 149.5 -38t66.5 -111l3 -33
v-366q-35 -16 -68.5 -24.5t-103.5 -17.5q-26 -2 -38 -3t-22 -1q-146 0 -202 41.5t-72.5 76.5t-16.5 91q0 94 62 145t183 51zM309 614h-89l74 171h152z" />
    <glyph glyph-name="acircumflex" unicode="&#xe2;" horiz-adv-x="582" 
d="M266 395q19 0 39 -1t41 -4v-127l-34 1q-42 0 -65 -3.5t-40 -11t-27.5 -23t-10.5 -32.5q0 -15 10 -31.5t38 -27t75 -10.5q59 0 101 26v217q0 45 -18.5 61.5t-66.5 16.5l-56 -2h-8q-18 0 -40 -4t-34 -6v130l17 4l15 4l14 2l17 3q48 7 92 7q97 0 149.5 -38t66.5 -111l3 -33
v-366q-35 -16 -68.5 -24.5t-103.5 -17.5q-26 -2 -38 -3t-22 -1q-146 0 -202 41.5t-72.5 76.5t-16.5 91q0 94 62 145t183 51zM221 615h-118l116 169h145l116 -169h-117l-71 121z" />
    <glyph glyph-name="atilde" unicode="&#xe3;" horiz-adv-x="582" 
d="M266 395q19 0 39 -1t41 -4v-127l-34 1q-42 0 -65 -3.5t-40 -11t-27.5 -23t-10.5 -32.5q0 -15 10 -31.5t38 -27t75 -10.5q59 0 101 26v217q0 45 -18.5 61.5t-66.5 16.5l-56 -2h-8q-18 0 -40 -4t-34 -6v130l17 4l15 4l14 2l17 3q48 7 92 7q97 0 149.5 -38t66.5 -111l3 -33
v-366q-35 -16 -68.5 -24.5t-103.5 -17.5q-26 -2 -38 -3t-22 -1q-146 0 -202 41.5t-72.5 76.5t-16.5 91q0 94 62 145t183 51zM178 616h-64l2 21q20 101 98 101q21 0 42 -7l16 -5l23 -8l3 -1l31 -10q30 -9 38 -8q24 0 31.5 4.5t5.5 16.5h64l-3 -28q-17 -79 -94 -79
q-13 0 -21 1t-25 6l-23 7l-18 6l-36 12q-18 6 -31 6q-29 0 -38 -28z" />
    <glyph glyph-name="adieresis" unicode="&#xe4;" horiz-adv-x="582" 
d="M266 395q19 0 39 -1t41 -4v-127l-34 1q-42 0 -65 -3.5t-40 -11t-27.5 -23t-10.5 -32.5q0 -15 10 -31.5t38 -27t75 -10.5q59 0 101 26v217q0 45 -18.5 61.5t-66.5 16.5l-56 -2h-8q-18 0 -40 -4t-34 -6v130l17 4l15 4l14 2l17 3q48 7 92 7q97 0 149.5 -38t66.5 -111l3 -33
v-366q-35 -16 -68.5 -24.5t-103.5 -17.5q-26 -2 -38 -3t-22 -1q-146 0 -202 41.5t-72.5 76.5t-16.5 91q0 94 62 145t183 51zM204 615q-60 8 -66.5 37t-6.5 38q0 20 17 49.5t65 29.5q6 0 14 -1t26 -3t36 -22t18 -49v-16q-3 -8 -7 -21.5t-25.5 -28t-54.5 -14.5q-10 0 -16 1z
M430 615q-27 4 -46.5 21t-22.5 31t-3 23q0 21 16.5 50t65.5 29q6 0 14 -1t26 -3.5t36 -22t18 -48.5v-16q-3 -8 -7 -21t-26.5 -28t-54.5 -15q-10 0 -16 1z" />
    <glyph glyph-name="aring" unicode="&#xe5;" horiz-adv-x="582" 
d="M266 395q19 0 39 -1t41 -4v-127l-34 1q-42 0 -65 -3.5t-40 -11t-27.5 -23t-10.5 -32.5q0 -15 10 -31.5t38 -27t75 -10.5q59 0 101 26v217q0 45 -18.5 61.5t-66.5 16.5l-56 -2h-8q-18 0 -40 -4t-34 -6v130l17 4l15 4l14 2l17 3q48 7 92 7q97 0 149.5 -38t66.5 -111l3 -33
v-366q-35 -16 -68.5 -24.5t-103.5 -17.5q-26 -2 -38 -3t-22 -1q-146 0 -202 41.5t-72.5 76.5t-16.5 91q0 94 62 145t183 51zM242 638q-33 33 -33 79t33 79t80 33q45 0 77.5 -32.5t32.5 -80.5q0 -44 -32.5 -77.5t-79.5 -33.5q-45 0 -78 33zM262 718q0 -25 17 -42t42 -17
q24 0 40.5 17t16.5 42q0 24 -16.5 40.5t-41.5 16.5q-24 0 -41 -17t-17 -40z" />
    <glyph glyph-name="ae" unicode="&#xe6;" horiz-adv-x="1002" 
d="M266 395q19 0 39 -1t41 -4v-127l-34 1q-42 0 -65 -3.5t-40 -11t-27.5 -23t-10.5 -32.5q0 -15 10 -31.5t38 -27t75 -10.5q59 0 101 26v217q0 45 -18.5 61.5t-66.5 16.5l-56 -2h-8q-18 0 -40 -4t-34 -6v130l17 4l15 4l14 2l17 3q46 7 90 7q65 0 108.5 -16.5t71.5 -47.5
l27 14q46 25 85.5 35t91.5 10q29 0 46.5 -4t64.5 -17t96 -65t61 -105.5t12 -78.5t-6 -51h-395l-1 17q0 41 9 64t31 40l195 2q-7 31 -33.5 48t-78.5 17q-64 0 -103.5 -27t-57.5 -88q-6 -24 -6 -47q0 -33 18.5 -72t62 -62.5t115.5 -23.5q29 0 43.5 2t23.5 3l33 5v-136h-74
l-71 -1h-17q-65 6 -90.5 13t-47.5 24q-28 -16 -60.5 -24.5t-77.5 -13.5t-57 -6.5t-30 -1.5q-75 0 -127 13t-91.5 41.5t-56 63.5t-16.5 91q0 94 62 145t183 51z" />
    <glyph glyph-name="ccedilla" unicode="&#xe7;" horiz-adv-x="496" 
d="M406 574l14 -3v-131l-40 5l-30 4h-6l-38 -4q-50 -8 -78.5 -33.5t-40.5 -59t-12 -73.5q0 -67 50 -108.5t139 -41.5q49 0 102 13l28 7v-137q-29 -11 -67.5 -16t-101.5 -5q-13 0 -26 1.5t-83.5 17t-133 90t-62.5 185.5q0 32 8.5 77t35 87t57.5 67t68 40.5t72 20t89 4.5
l40 -4zM312 -149h-58v94h110v-87q0 -89 -92 -101l-13 -2v45l8 1q42 6 45 40v10z" />
    <glyph glyph-name="egrave" unicode="&#xe8;" horiz-adv-x="630" 
d="M610 360q3 -11 4 -23t1 -28q0 -25 -6 -51h-395l-1 17q0 41 9 64t32 40l194 2q-7 32 -32.5 48.5t-78.5 16.5q-64 0 -104 -27t-52 -68.5t-12 -66.5q0 -35 19 -73t62.5 -61.5t115.5 -23.5q26 0 66 5l33 5v-136q-54 -14 -108 -14q-121 0 -191 43t-98 84t-38 90t-10 77l2 35
l6 37q12 53 36.5 90.5t86 87t184.5 49.5q29 0 46.5 -4t105.5 -29t123 -186zM296 615l-137 169h151l76 -169h-90z" />
    <glyph glyph-name="eacute" unicode="&#xe9;" horiz-adv-x="630" 
d="M610 360q3 -11 4 -23t1 -28q0 -25 -6 -51h-395l-1 17q0 41 9 64t32 40l194 2q-7 32 -32.5 48.5t-78.5 16.5q-64 0 -104 -27t-52 -68.5t-12 -66.5q0 -35 19 -73t62.5 -61.5t115.5 -23.5q26 0 66 5l33 5v-136q-54 -14 -108 -14q-121 0 -191 43t-98 84t-38 90t-10 77l2 35
l6 37q12 53 36.5 90.5t86 87t184.5 49.5q29 0 46.5 -4t105.5 -29t123 -186zM333 614h-89l74 171h152z" />
    <glyph glyph-name="ecircumflex" unicode="&#xea;" horiz-adv-x="630" 
d="M610 360q3 -11 4 -23t1 -28q0 -25 -6 -51h-395l-1 17q0 41 9 64t32 40l194 2q-7 32 -32.5 48.5t-78.5 16.5q-64 0 -104 -27t-52 -68.5t-12 -66.5q0 -35 19 -73t62.5 -61.5t115.5 -23.5q26 0 66 5l33 5v-136q-54 -14 -108 -14q-121 0 -191 43t-98 84t-38 90t-10 77l2 35
l6 37q12 53 36.5 90.5t86 87t184.5 49.5q29 0 46.5 -4t105.5 -29t123 -186zM245 615h-118l116 169h145l116 -169h-117l-71 121z" />
    <glyph glyph-name="edieresis" unicode="&#xeb;" horiz-adv-x="630" 
d="M610 360q3 -11 4 -23t1 -28q0 -25 -6 -51h-395l-1 17q0 41 9 64t32 40l194 2q-7 32 -32.5 48.5t-78.5 16.5q-64 0 -104 -27t-52 -68.5t-12 -66.5q0 -35 19 -73t62.5 -61.5t115.5 -23.5q26 0 66 5l33 5v-136q-54 -14 -108 -14q-121 0 -191 43t-98 84t-38 90t-10 77l2 35
l6 37q12 53 36.5 90.5t86 87t184.5 49.5q29 0 46.5 -4t105.5 -29t123 -186zM186 615q-27 4 -46.5 21t-22.5 31t-3 23q0 20 16 49.5t66 29.5q6 0 14 -1t26 -3.5t36 -22t18 -48.5v-16q-3 -8 -7 -21t-26.5 -28t-54.5 -15q-10 0 -16 1zM412 615q-27 4 -46.5 20.5t-22.5 31
t-3 23.5q0 20 17 49.5t65 29.5q6 0 14 -1t26 -3t36 -22t18 -49v-16q-3 -8 -7 -21.5t-25.5 -28t-54.5 -14.5q-11 0 -17 1z" />
    <glyph glyph-name="igrave" unicode="&#xec;" 
d="M187 0h-151v569h151v-569zM92 615l-137 169h151l76 -169h-90z" />
    <glyph glyph-name="iacute" unicode="&#xed;" 
d="M187 0h-151v569h151v-569zM129 614h-89l74 171h152z" />
    <glyph glyph-name="icircumflex" unicode="&#xee;" 
d="M187 0h-151v569h151v-569zM41 615h-118l116 169h145l116 -169h-117l-71 121z" />
    <glyph glyph-name="idieresis" unicode="&#xef;" 
d="M187 0h-151v569h151v-569zM-18 615q-27 4 -46.5 21t-22.5 31t-3 23q0 20 16 49.5t66 29.5q6 0 14 -1t26 -3.5t36 -22t18 -48.5v-16q-3 -8 -7 -21t-26.5 -28t-54.5 -15q-10 0 -16 1zM208 615q-27 4 -46.5 20.5t-22.5 31t-3 23.5q0 20 17 49.5t65 29.5q6 0 14 -1t26 -3
t36 -22t18 -49v-16q-3 -8 -7 -21.5t-25.5 -28t-54.5 -14.5q-11 0 -17 1z" />
    <glyph glyph-name="ntilde" unicode="&#xf1;" horiz-adv-x="571" 
d="M187 0h-151v520l35 15l16 6l20 6l44 13q85 21 143 21q124 0 177.5 -43.5t62.5 -147.5l1 -23v-367h-151v365l-1 14q-5 35 -23.5 49.5t-59.5 14.5q-18 0 -42 -2.5t-35.5 -4.5t-35.5 -10v-426zM172 616h-64l2 21q20 101 98 101q21 0 42 -7l16 -5l23 -8l3 -1l31 -10
q30 -9 38 -8q24 0 31.5 4.5t5.5 16.5h64l-3 -28q-17 -79 -94 -79q-13 0 -21 1t-25 6l-23 7l-18 6l-36 12q-18 6 -31 6q-29 0 -38 -28z" />
    <glyph glyph-name="ograve" unicode="&#xf2;" horiz-adv-x="661" 
d="M25 242q-3 20 -3 41v12q0 73 36 135t105 108t168 46q125 0 216.5 -86t91.5 -213q0 -20 -9.5 -87.5t-94.5 -139t-206 -71.5q-120 0 -204 71t-100 184zM311 615l-137 169h151l76 -169h-90zM182 290q0 -55 34.5 -108.5t113.5 -53.5q81 0 111.5 49t34 74.5t3.5 33.5
q0 56 -40 107t-108 51q-13 0 -46 -6t-60.5 -41.5t-35 -57.5t-7.5 -48z" />
    <glyph glyph-name="oacute" unicode="&#xf3;" horiz-adv-x="661" 
d="M25 242q-3 20 -3 41v12q0 73 36 135t105 108t168 46q125 0 216.5 -86t91.5 -213q0 -20 -9.5 -87.5t-94.5 -139t-206 -71.5q-120 0 -204 71t-100 184zM348 614h-89l74 171h152zM182 290q0 -55 34.5 -108.5t113.5 -53.5q81 0 111.5 49t34 74.5t3.5 33.5q0 56 -40 107
t-108 51q-13 0 -46 -6t-60.5 -41.5t-35 -57.5t-7.5 -48z" />
    <glyph glyph-name="ocircumflex" unicode="&#xf4;" horiz-adv-x="661" 
d="M25 242q-3 20 -3 41v12q0 73 36 135t105 108t168 46q125 0 216.5 -86t91.5 -213q0 -20 -9.5 -87.5t-94.5 -139t-206 -71.5q-120 0 -204 71t-100 184zM260 615h-118l116 169h145l116 -169h-117l-71 121zM182 290q0 -55 34.5 -108.5t113.5 -53.5q81 0 111.5 49t34 74.5
t3.5 33.5q0 56 -40 107t-108 51q-13 0 -46 -6t-60.5 -41.5t-35 -57.5t-7.5 -48z" />
    <glyph glyph-name="otilde" unicode="&#xf5;" horiz-adv-x="661" 
d="M25 242q-3 20 -3 41v12q0 73 36 135t105 108t168 46q125 0 216.5 -86t91.5 -213q0 -20 -9.5 -87.5t-94.5 -139t-206 -71.5q-120 0 -204 71t-100 184zM217 616h-64l2 21q20 101 98 101q21 0 42 -7l16 -5l23 -8l3 -1l31 -10q30 -9 38 -8q24 0 31.5 4.5t5.5 16.5h64l-3 -28
q-17 -79 -94 -79q-13 0 -21 1t-25 6l-23 7l-18 6l-36 12q-18 6 -31 6q-29 0 -38 -28zM182 290q0 -55 34.5 -108.5t113.5 -53.5q81 0 111.5 49t34 74.5t3.5 33.5q0 56 -40 107t-108 51q-13 0 -46 -6t-60.5 -41.5t-35 -57.5t-7.5 -48z" />
    <glyph glyph-name="odieresis" unicode="&#xf6;" horiz-adv-x="617" 
d="M3 242q-3 20 -3 41v12q0 73 36 135t105 108t168 46q125 0 216.5 -86t91.5 -213q0 -20 -9.5 -87.5t-94.5 -139t-206 -71.5q-120 0 -204 71t-100 184zM166 615q-27 4 -46.5 21t-22.5 31t-3 23q0 20 17 49.5t65 29.5q6 0 14 -1t26 -3t36 -22t18 -49v-16q-3 -8 -7 -21
t-26.5 -28t-54.5 -15q-10 0 -16 1zM393 615q-27 4 -47 21t-23 34t-3 22q0 18 17 47.5t65 29.5q6 0 14 -1t26 -3t36 -22.5t18 -49.5q0 -12 -5 -30.5t-27.5 -33.5t-54.5 -15q-10 0 -16 1zM160 290q0 -55 34.5 -108.5t113.5 -53.5q81 0 111.5 49t34 74.5t3.5 33.5q0 56 -40 107
t-108 51q-13 0 -46 -6t-60.5 -41.5t-35 -57.5t-7.5 -48z" />
    <glyph glyph-name="divide" unicode="&#xf7;" horiz-adv-x="549" 
d="M234 141q19 17 41 17q24 0 40 -16t16 -41q0 -24 -17 -40q-15 -17 -39 -17t-40.5 17.5t-16.5 39.5q0 24 16 40zM506 270v-68h-463v68h463zM234 410q19 17 41 17q24 0 40 -17t16 -40q0 -24 -17 -40q-15 -17 -39 -17t-40.5 16.5t-16.5 40.5t16 40z" />
    <glyph glyph-name="oslash" unicode="&#xf8;" horiz-adv-x="662" 
d="M63 -3l-41 45l66 57q-51 61 -58.5 113t-7.5 73q0 77 35.5 141.5t106.5 111t167 46.5q33 0 88.5 -10.5t115.5 -60.5l65 54l37 -40l-60 -58l17 -25q46 -75 46 -160q0 -21 -8 -79.5t-75 -127t-133 -79.5t-99 -11q-58 0 -107 18.5t-89 55.5zM426 408q-27 27 -54 31.5t-43 4.5
q-34 0 -60 -15t-55.5 -51.5t-29.5 -93.5v-12q2 -9 4 -24.5t16 -41.5zM242 164q35 -37 88 -37q13 0 50.5 6.5t64.5 49t31 67.5t4 40q0 41 -20 74z" />
    <glyph glyph-name="ugrave" unicode="&#xf9;" horiz-adv-x="572" 
d="M38 159l-2 22v388h151v-375q0 -10 3 -18.5t12 -21.5t25.5 -20.5t44.5 -7.5q18 0 47 3t66 20v420h151v-515q-33 -17 -69 -29.5t-97.5 -23.5t-115.5 -11q-102 0 -153.5 43t-62.5 126zM267 615l-137 169h151l76 -169h-90z" />
    <glyph glyph-name="uacute" unicode="&#xfa;" horiz-adv-x="572" 
d="M38 159l-2 22v388h151v-375q0 -10 3 -18.5t12 -21.5t25.5 -20.5t44.5 -7.5q18 0 47 3t66 20v420h151v-515q-33 -17 -69 -29.5t-97.5 -23.5t-115.5 -11q-102 0 -153.5 43t-62.5 126zM304 614h-89l74 171h152z" />
    <glyph glyph-name="ucircumflex" unicode="&#xfb;" horiz-adv-x="572" 
d="M38 159l-2 22v388h151v-375q0 -10 3 -18.5t12 -21.5t25.5 -20.5t44.5 -7.5q18 0 47 3t66 20v420h151v-515q-33 -17 -69 -29.5t-97.5 -23.5t-115.5 -11q-102 0 -153.5 43t-62.5 126zM216 615h-118l116 169h145l116 -169h-117l-71 121z" />
    <glyph glyph-name="udieresis" unicode="&#xfc;" horiz-adv-x="572" 
d="M38 159l-2 22v388h151v-375q0 -10 3 -18.5t12 -21.5t25.5 -20.5t45.5 -7.5q18 0 47 3t65 24v416h151v-515q-33 -17 -69 -29.5t-97.5 -23.5t-115.5 -11q-102 0 -153.5 43t-62.5 126zM154 615q-27 4 -46.5 21t-22.5 31t-3 23q0 20 17 49.5t65 29.5q6 0 14 -1t26 -3t36 -22
t18 -49v-16q-3 -8 -7 -21.5t-25.5 -28t-54.5 -14.5q-11 0 -17 1zM381 615q-27 4 -46.5 21t-22.5 31.5t-3 24.5q0 19 16.5 48t64.5 29q6 0 14 -1t44.5 -6t36.5 -68v-16q-3 -8 -7 -21t-26.5 -28t-54.5 -15q-10 0 -16 1z" />
    <glyph glyph-name="ydieresis" unicode="&#xff;" horiz-adv-x="570" 
d="M36 187v382h151v-352l2 -16q7 -37 31.5 -51.5t78.5 -14.5q15 0 31 3.5t28 6.5l24 7v417h152v-677v-11q-3 -13 -11.5 -55.5t-66.5 -74.5t-180 -32l-29 3v135l18 -3q8 0 19 -1t21 -1q45 0 61.5 15.5t16.5 54.5v96q-22 -7 -40 -10.5t-46 -6.5t-51 -3q-63 0 -109 24.5
t-69.5 58t-30.5 88.5zM156 615q-27 4 -46.5 21t-22.5 31t-3 23q0 20 16 49.5t66 29.5q6 0 14 -1t26 -3.5t36 -22t18 -48.5v-16q-3 -8 -7 -21t-26.5 -28t-54.5 -15q-10 0 -16 1zM382 615q-27 4 -46.5 20.5t-22.5 31t-3 23.5q0 20 17 49.5t65 29.5q6 0 14 -1t26 -3t36 -22
t18 -49v-16q-3 -8 -7 -21.5t-25.5 -28t-54.5 -14.5q-11 0 -17 1z" />
    <glyph glyph-name="dotlessi" unicode="&#x131;" 
d="M187 0h-151v569h151v-569z" />
    <glyph glyph-name="OE" unicode="&#x152;" horiz-adv-x="969" 
d="M454 724l22 -4h430v-151h-214v-65h165v-144h-165v-216h268v-144h-434l-35 -6q-41 -7 -82 -7q-30 0 -61 5t-120 33t-149 137t-60 193q0 39 8 77t37.5 108t97.5 122.5t129 61t81 8.5q28 0 82 -8zM520 554q-47 27 -103 27q-35 0 -111.5 -22.5t-95 -99t-18.5 -100.5
q0 -19 2.5 -33.5t16 -51.5t50.5 -71t76.5 -49t80.5 -15q56 0 102 28v387z" />
    <glyph glyph-name="oe" unicode="&#x153;" horiz-adv-x="1082" 
d="M263 578q34 7 70 7q135 0 222 -98q23 26 75 59t158 33q34 0 96.5 -17t111.5 -69t59.5 -98t11.5 -58t1 -28q0 -10 -0.5 -18t-4.5 -33h-396l-1 17q0 41 9 64t32 40l195 2q-8 31 -33.5 48t-78.5 17q-64 0 -103.5 -27t-52 -68.5t-12.5 -65.5q0 -32 19 -72t62.5 -63.5
t115.5 -23.5q29 0 43.5 2t23.5 3l32 5v-136h-73l-71 -1q-22 0 -41 3t-30 5l-30 7q-40 12 -68 27.5t-49 36.5q-89 -91 -227 -91q-120 0 -204 71t-93.5 139t-9.5 89q0 126 80.5 201t160.5 91zM182 290q0 -55 34.5 -108.5t113.5 -53.5q81 0 111.5 49t34 74.5t3.5 33.5
q0 56 -40 107t-108 51q-13 0 -46 -6t-60.5 -41.5t-35 -57.5t-7.5 -48z" />
    <glyph glyph-name="Ydieresis" unicode="&#x178;" horiz-adv-x="589" 
d="M213 382l-235 338h196l124 -206l126 206h187l-225 -339v-381h-173v382zM165 773q-27 4 -46.5 21t-22.5 31t-3 23q0 20 16 49.5t66 29.5q6 0 14 -1t26 -3.5t36 -22t18 -48.5v-16q-3 -8 -7 -21t-26.5 -28t-54.5 -15q-10 0 -16 1zM391 773q-27 4 -46.5 20.5t-22.5 31
t-3 23.5q0 20 17 49.5t65 29.5q6 0 14 -1t26 -3t36 -22t18 -49v-16q-3 -8 -7 -21.5t-25.5 -28t-54.5 -14.5q-11 0 -17 1z" />
    <glyph glyph-name="florin" unicode="&#x192;" horiz-adv-x="449" 
d="M-101 -285l-26 5l23 132h76q50 0 58 52l108 628q2 13 7 28t20 46t43 57.5t71.5 45t96.5 18.5q21 0 45 -3l26 -5l-23 -133h-76q-48 0 -58 -52l-17 -99h178l-24 -137h-179l-66 -392q-5 -23 -14 -44.5t-25 -47t-19.5 -29t-49 -38.5t-129.5 -35q-22 0 -46 3z" />
    <glyph glyph-name="caron" unicode="&#x2c7;" horiz-adv-x="377" 
d="M116 615l-116 170h118l71 -127l71 127h117l-116 -170h-145z" />
    <glyph glyph-name="macron" unicode="&#x2c9;" horiz-adv-x="328" 
d="M328 614h-328v90h328v-90z" />
    <glyph glyph-name="breve" unicode="&#x2d8;" horiz-adv-x="346" 
d="M48 676q-42 45 -48 109h75q3 -22 14 -42.5t34 -35t51 -14.5q36 0 53.5 16.5t22.5 22.5t10.5 17t8 18.5t2.5 17.5h75l-6 -34q-6 -20 -17 -40t-46 -58.5t-102 -38.5q-69 0 -127 62z" />
    <glyph glyph-name="ring" unicode="&#x2da;" 
d="M33 638q-33 33 -33 79t33 79t80 33q45 0 77.5 -33t32.5 -80q0 -44 -32.5 -77.5t-79.5 -33.5q-46 0 -78 33zM53 718q0 -25 16.5 -42t41.5 -17q24 0 41 17t17 42q0 23 -16.5 40t-41.5 17t-41.5 -16.5t-16.5 -40.5z" />
    <glyph glyph-name="circumflex" unicode="&#x302;" horiz-adv-x="377" 
d="M118 615h-118l116 169h145l116 -169h-117l-71 121z" />
    <glyph glyph-name="tilde" unicode="&#x303;" horiz-adv-x="354" 
d="M64 616h-64l2 21q20 101 98 101q21 0 42 -7l16 -5l23 -8l3 -1l31 -10q30 -9 38 -8q24 0 31.5 4.5t5.5 16.5h64l-3 -28q-17 -79 -94 -79q-13 0 -21 1t-25 6l-23 7l-18 6l-36 12q-18 6 -31 6q-29 0 -38 -28z" />
    <glyph glyph-name="summation" unicode="&#x3a3;" horiz-adv-x="713" 
d="M592 729q17 -13 26 -86l15 -129h-44q-32 105 -85 144t-169 39h-132l315 -431l-344 -394h187q122 0 172.5 31.5t82.5 116.5h45l-30 -130l-2 -7q-23 -99 -111 -99h-482l389 446l-375 514h460q65 0 82 -15z" />
    <glyph glyph-name="Omega" unicode="&#x3a9;" horiz-adv-x="768" 
d="M470 90h123q48 0 68 19t20 67h23v-176h-272v180q77 15 122.5 76.5t45.5 151.5q0 106 -59 168.5t-157 62.5t-157 -62.5t-59 -168.5q0 -90 44.5 -151t123.5 -77v-180h-272v176h23q0 -48 19 -67t69 -19h123v59q-118 21 -183 89t-65 170q0 121 92.5 194t241.5 73t241.5 -73.5
t92.5 -193.5q0 -100 -64 -168t-184 -91v-59z" />
    <glyph glyph-name="pi" unicode="&#x3c0;" horiz-adv-x="549" 
d="M414 372l-10 1l-1 -24l-3 -150v-40q0 -84 8.5 -105t30.5 -21q28 0 41 29q17 31 17 89h25v-5q0 -80 -26 -118t-80 -38q-56 0 -79.5 40t-23.5 164l1 78l3 104l-50 1l-77 2q0 -234 -23 -311.5t-80 -77.5q-35 0 -52.5 29t-17.5 86v19h24q0 -27 9.5 -39.5t27.5 -12.5
q42 0 54.5 47t18 110.5t5.5 149.5h-22q-38 0 -59.5 -13.5t-27.5 -39.5h-23q0 34 10 57.5t36.5 44.5t112.5 21l102 -3l152 -3q34 0 49.5 7t16.5 21l23 1q0 -53 -23.5 -76.5t-74.5 -23.5h-14z" />
    <glyph glyph-name="endash" unicode="&#x2013;" horiz-adv-x="664" 
d="M621 268h-579v139h579v-139z" />
    <glyph glyph-name="emdash" unicode="&#x2014;" horiz-adv-x="996" 
d="M30 416h936v-119h-936v119z" />
    <glyph glyph-name="quoteleft" unicode="&#x2018;" horiz-adv-x="259" 
d="M81 680l18 40h62l-38 -95q12 4 28 4q34 0 53 -23t19 -57q0 -54 -40.5 -67t-54.5 -13q-9 0 -49.5 6t-40.5 70q0 32 18 82l6 14l3 7z" />
    <glyph glyph-name="quoteright" unicode="&#x2019;" horiz-adv-x="259" 
d="M178 520l-18 -39h-62l38 94q-18 -4 -28 -3q-34 0 -53 23t-19 57q0 54 40.5 66.5t58.5 12.5h9q77 -11 77 -76q0 -33 -18 -81l-6 -14l-3 -7z" />
    <glyph glyph-name="quotesinglbase" unicode="&#x201a;" horiz-adv-x="259" 
d="M178 -56l-18 -40h-62l38 95q-12 -4 -28 -4q-34 0 -53 23t-19 57q0 55 39.5 67.5t56.5 12.5q8 0 48.5 -6t40.5 -70q0 -33 -18 -81l-6 -14l-3 -8z" />
    <glyph glyph-name="quotedblleft" unicode="&#x201c;" horiz-adv-x="450" 
d="M279 685l18 40h62l-38 -95q12 4 28 4q34 0 53 -23t19 -57q0 -55 -39.5 -67.5t-56.5 -12.5q-8 0 -48.5 6t-40.5 70q0 33 18 81l6 14l3 8zM69 685l18 40h62l-38 -95q12 4 28 4q34 0 53 -23t19 -57q0 -55 -39.5 -67.5t-56.5 -12.5q-8 0 -48.5 6t-40.5 70q0 33 18 81l6 14
l3 8z" />
    <glyph glyph-name="quotedblright" unicode="&#x201d;" horiz-adv-x="450" 
d="M173 519l-18 -40h-62l38 95q-12 -4 -28 -4q-34 0 -53 23t-19 57q0 55 39.5 67.5t56.5 12.5q8 0 48.5 -6t40.5 -70q0 -33 -18 -81l-6 -14l-3 -8zM383 519l-18 -40h-62l38 95q-12 -4 -28 -4q-34 0 -53 23t-19 57q0 55 39.5 67.5t56.5 12.5q8 0 48.5 -6t40.5 -70
q0 -33 -18 -81l-6 -14l-3 -8z" />
    <glyph glyph-name="quotedblbase" unicode="&#x201e;" horiz-adv-x="450" 
d="M178 -56l-18 -40h-62l38 95q-12 -4 -28 -4q-34 0 -53 23t-19 57q0 55 39.5 67.5t56.5 12.5q8 0 48.5 -6t40.5 -70q0 -33 -18 -81l-6 -14l-3 -8zM388 -56l-18 -40h-62l38 95q-12 -4 -28 -4q-34 0 -53 23t-19 57q0 55 39.5 67.5t56.5 12.5q8 0 48.5 -6t40.5 -70
q0 -33 -18 -81l-6 -14l-3 -8z" />
    <glyph glyph-name="ellipsis" unicode="&#x2026;" horiz-adv-x="996" 
d="M121 131q23 24 60 24q34 0 58 -23.5t24 -60.5q0 -34 -23.5 -58t-60.5 -24q-34 0 -58.5 23.5t-24.5 59.5t25 59zM453 131q12 12 28 18t33 6q34 0 58 -23.5t24 -60.5q0 -34 -18 -52t-34 -24t-33 -6q-34 0 -58 24t-24 59t24 59zM833 156q35 0 59.5 -24.5t24.5 -59.5
t-24.5 -59.5t-59.5 -24.5q-36 0 -60 24t-24 60q0 35 24.5 59.5t59.5 24.5z" />
    <glyph glyph-name="guilsinglleft" unicode="&#x2039;" horiz-adv-x="331" 
d="M213 -13l-191 231v87l191 231l96 -62l-173 -213l173 -212z" />
    <glyph glyph-name="guilsinglright" unicode="&#x203a;" horiz-adv-x="331" 
d="M118 -13l-96 62l174 213l-174 212l96 62l191 -231v-87z" />
    <glyph glyph-name="trademark" unicode="&#x2122;" horiz-adv-x="715" 
d="M38 720h219v-59l-77 1v-302h-66v302h-76v58zM309 725h51l83 -203q6 -15 12 -34t6 -41l2 21q4 25 16 54l83 203h51l64 -365h-64l-33 201l-1 11l-1 12v41l-11 -41l-5 -16l-2 -6l-83 -206h-31l-84 206l-2 7l-5 15l-11 41q1 -5 1 -16.5v-15.5v-9l-1 -13l-2 -10l-33 -201h-64z
" />
    <glyph glyph-name="partialdiff" unicode="&#x2202;" horiz-adv-x="494" 
d="M313 357q28 -21 45 -70q4 14 6.5 28t2.5 31l3 89q0 85 -15.5 126t-47.5 41q-18 0 -50 -35t-56 -35q-16 0 -25.5 7.5t-11.5 24.5q0 29 30.5 50t71.5 21q77 0 111.5 -54t46.5 -103t12 -111q0 -163 -64.5 -271.5t-157.5 -108.5q-68 0 -110 51t-42 137q0 82 53 143.5
t125 61.5q44 0 73 -23zM319 317q-21 32 -63 32q-52 0 -86 -60t-34 -161q0 -57 21.5 -88t62.5 -31q53 0 87 62t34 153q0 58 -22 93z" />
    <glyph glyph-name="Delta" unicode="&#x2206;" horiz-adv-x="612" 
d="M319 672l276 -672h-574l276 672h22zM279 504l-187 -459h373z" />
    <glyph glyph-name="product" unicode="&#x220f;" horiz-adv-x="823" 
d="M30 -176h88v880h-88v40h767v-40h-88v-880h88v-40h-264v40h84v880h-407v-880h84v-40h-264v40z" />
    <glyph glyph-name="periodcentered" unicode="&#x2219;" horiz-adv-x="297" 
d="M53 300q-5 13 -5 30q0 6 2 18q8 26 29 42t39 19.5t31 3.5q39 0 65 -20t28.5 -37.5t2.5 -27.5q0 -62 -38 -71.5t-54.5 -10.5t-17.5 -1q-64 6 -82 55z" />
    <glyph glyph-name="radical" unicode="&#x221a;" horiz-adv-x="549" 
d="M594 811v-47h-57l-290 -784h-32l-156 431l-61 -22l-12 39l138 48l125 -346l252 681h93z" />
    <glyph glyph-name="infinity" unicode="&#x221e;" horiz-adv-x="713" 
d="M430 144q-36 31 -64 94q-33 -62 -71.5 -93t-85.5 -31q-66 0 -111 52.5t-45 131.5q0 83 41 134.5t105 51.5q47 0 82.5 -29.5t65.5 -94.5q31 62 69.5 93t87.5 31q63 0 109 -53t46 -131q0 -83 -40.5 -134.5t-104.5 -51.5q-46 0 -84 30zM257 205q30 30 73 122
q-26 46 -59 69.5t-76 23.5q-51 0 -84 -35t-33 -90q0 -54 29.5 -88.5t76.5 -34.5q40 0 73 33zM453 390q-33 -36 -70 -119q23 -45 58 -70q35 -23 77 -23q52 0 84.5 35t32.5 90q0 56 -30 89.5t-80 33.5q-37 0 -72 -36z" />
    <glyph glyph-name="integral" unicode="&#x222b;" horiz-adv-x="274" 
d="M200 726q38 31 83 31q36 0 58.5 -18.5t22.5 -48.5q0 -20 -13 -34t-36 -14q-29 0 -44 32t-29 32q-57 0 -57 -310l-3 -98q0 -63 -4.5 -120t-14 -128t-31 -120t-60 -80t-81.5 -31q-35 0 -58 18.5t-23 48.5q0 22 12.5 34.5t36.5 12.5q29 0 44 -31t30 -32q57 0 57 324l2 84
q0 60 4 116t13.5 127.5t31.5 122.5t59 82z" />
    <glyph glyph-name="approxequal" unicode="&#x2248;" horiz-adv-x="549" 
d="M102 153q-16 -7 -38.5 -20.5t-48.5 -32.5v77q49 31 87 44.5t74 13.5q44 0 115 -24t99 -24t61.5 15t82.5 52v-78q-42 -28 -76.5 -41.5t-72.5 -13.5q-32 0 -104 23.5t-116 23.5q-28 0 -63 -15zM104 273q-31 -13 -89 -54v77q23 14 43.5 25t50.5 21.5t66 10.5
q42 0 114.5 -23.5t100.5 -23.5q27 0 60 14.5t84 51.5v-77q-18 -12 -41 -24t-49 -21.5t-59 -9.5t-104.5 23.5t-110.5 23.5q-35 0 -66 -14z" />
    <glyph glyph-name="notequal" unicode="&#x2260;" horiz-adv-x="549" 
d="M488 410l-75 -74h91v-64h-149l-73 -72h222v-64h-281l-118 -118l-43 44l74 74h-91v64h150l73 72h-223v64h281l118 118z" />
    <glyph glyph-name="lessequal" unicode="&#x2264;" horiz-adv-x="549" 
d="M506 86v-68h-463v68h463zM506 388l-344 -108l344 -107v-70l-462 145v65l462 145v-70z" />
    <glyph glyph-name="greaterequal" unicode="&#x2265;" horiz-adv-x="549" 
d="M506 86v-68h-463v68h463zM506 313v-65l-463 -145v70l344 107l-344 108v70z" />
    <glyph glyph-name="lozenge" unicode="&#x25ca;" horiz-adv-x="494" 
d="M3 289l244 518l244 -518l-244 -522zM435 289l-188 399l-188 -399l188 -403z" />
    <glyph glyph-name="apple" unicode="&#xf000;" horiz-adv-x="902" 
d="M234 298l20 -3v12q0 37 14 66.5t25 35.5t16 6q8 0 14.5 -7.5t5.5 -16.5q2 15 11.5 21.5t18.5 6.5q17 0 23 -11.5t6 -19.5l-2 -8q33 21 66 21q29 0 76 -15l82 -31q27 -10 50.5 -16t40.5 -6q37 0 60.5 23t45.5 78q6 7 12 11.5t6 33.5q0 21 7.5 30.5t16.5 6.5q7 -1 9 -7
l1 -39q0 -6 1 -18.5t4 -29.5q-1 -4 -2 -11t-5 -26t-4.5 -28.5t-0.5 -26.5l-20 -46q-1 -4 -5 -22t-6 -31t-25.5 -36.5t-73.5 -51.5l-20 -57l-20 -44q-9 -20 -18 -31t-18 -11q-6 0 -12 5.5t-8 15.5q0 -11 -8.5 -16.5t-18.5 -2.5q-18 3 -16 23q0 -11 -8 -19q-9 -6 -20 -3
q-16 7 -16 31q0 7 4 22.5t19 29.5q-9 11 -17 11q-9 0 -23 -14.5t-43 -51.5l-12 -16q-10 -13 -21 -13q-10 0 -21 12l-4 5q0 -21 -21 -19q-10 0 -15.5 7t-3.5 17q-3 -10 -14 -18l-12 -3q-19 -2 -22 20q-4 34 35 61l9 5q11 5 6 15q-6 14 -20 14t-39.5 -17t-51.5 -17
q-45 0 -71 43q-7 9 -10 23l-15 -4q-17 -3 -31 -3q-45 0 -58 26t-10 47q-17 -2 -27 9.5t-10 38.5q0 20 11 33t28 11l23 -10q21 -9 55 -9q29 0 77 9zM307 378q-15 0 -23.5 -9.5t-11.5 -24t-3 -24.5q0 -9 3 -21.5t24 -7.5q11 2 17 11q8 -20 28 -20q6 0 14.5 2.5t21.5 19
t16 38.5v21l-8 2q2 -4 2 -12q0 -5 -3 -11t-10 -12q-17 -9 -22 1.5t-5 18.5q0 3 3.5 10.5t10.5 10.5l-9 4q-3 1 -9 1q-10 0 -20 -5q1 -7 -3 -15.5t-17 -12.5q-6 8 -6 16q0 6 5 13zM261 110l11 4q36 13 46 25.5t14.5 42t4.5 34.5q0 17 -8 28.5t-25 11.5q-10 0 -20.5 -6.5
t-17.5 -32.5q-2 -12 -1 -18q1 -10 1.5 -25t1.5 -23v-10v-6l-2 -9l-2 -9zM112 242l5 11l6 9q4 13 -14 13q-26 0 -37 -17q-6 -10 3 -19l10 -5q11 -2 19 5l-1 -8l-1 -8v-30q4 -1 12 -1q9 0 31 8t22 47q0 8 -1 12l-37 -13l-9 -2z" />
    <glyph glyph-name="fi" unicode="&#xf001;" horiz-adv-x="663" 
d="M231 319l-154 153l98 98l153 -154l156 156l98 -97l-156 -156l155 -155l-98 -98l-155 155l-153 -153l-97 98z" />
    <glyph glyph-name="Eurosymbolbar" horiz-adv-x="412" 
d="M0 390l27 63h385l-27 -63h-385zM0 264l27 63h331l-27 -63h-331z" />
  </font>
</defs>
</svg>
